<svg xmlns="http://www.w3.org/2000/svg" viewBox="0 0 3260.44 1932.33"><defs><style>.cls-1{fill:#fbb500;}.cls-2,.cls-4{fill:#fee534;}.cls-2,.cls-3{opacity:0.65;}.cls-5{fill:#fccc00;}</style></defs><g id="Layer_4" data-name="Layer 4"><rect class="cls-1" y="0.3" width="3260.44" height="1937.36"/><path class="cls-2" d="M720.08,1876.37c49.29,26.64,105.13,19.85,158.42,14.07q77.94-8.43,155.22-21.77,11.94-2,23.86-4.21c19.36-3.53,39.1-7.4,58.5-12.44a382,382,0,0,0,48.05-15.44c22.57-9.07,44-20.73,62.91-36.42,45.56-37.59,71.29-96.11,43.56-152.51-33.36-67.89-123.54-118.58-193.62-133.61-96.89-20.77-181.53-19.94-280.84-21.85-13.15-.25-26.6-.16-39.22,3.78s-24.36,12.49-29.27,24.78c-3.85,9.67-3.63,17.9-.6,25a33.88,33.88,0,0,0,6.5,9.74,55.55,55.55,0,0,0,9.78,8.19,97,97,0,0,0,12.13,6.83c21.64,10.36,49.16,15.89,63,20.78q25.49,9,50.67,18.86c-7.58-3-26.43,3.91-34.22,5.24-13.37,2.37-26.94,4.87-38.6,12.28-10.29,6.58-18.78,18.48-15.91,30.34,2.62,10.79,13.29,17.36,23.15,22.4,17.87,9.15,39.93,14.86,56.3,25.72-26.19,9.2-54.42,3.54-79.36,19.52-7.67,4.91-15,12.28-15,21.36,0,9.65,8.28,17.35,16.94,21.55,7.92,3.88,25.69,11.7,25.69,11.7s-27.89,2.83-40,5a289,289,0,0,0-40.34,10.44c-16,5.42-33.23,14.16-37.94,30.35-2.95,10.2,0,21.47,6,30.18s14.86,15.1,24.24,20.14m275.63-331.61c-.54,12.57-.42,22.89-.92,35.46a1110.35,1110.35,0,0,1-141-9.74c-8.78-1.16-17.82-2.54-25.52-7s-13.74-12.82-12.91-21.69c.87-9.15,9-16.36,17.78-19s18.32-1.79,27.48-.75a1258.55,1258.55,0,0,1,135.07,22.77M984.59,1690.9c-47.76.12-91.76-6.25-138.32-16.78-4.16-.95-8.7-2.2-11.24-5.66-3.66-5.12-.75-12.82,4.42-16.4s11.78-4.24,18.07-4.66c44-3,85.14-2.66,129.11-.33Zm-146.43,52.28c43.71-10.66,93.22-8.49,138.14-5.83L969.6,1777c-44,3.33-92.18-1.92-133.61-17.15-3.66-1.29-7.91-3.42-8.37-7.29-.63-5.16,5.54-8.15,10.54-9.4m115.91,117.17c-49,4.11-98.09,8.24-147.18,5.91-8.08-.38-16.37-1-23.61-4.54s-13.24-10.78-12.95-18.85c.17-5.75,3.54-11.08,8.24-14.41,6-4.33,13.79-5.37,21.16-6.28,54.66-6.71,109.58-13.41,164.67-12.53-3.79,17.19-6.54,33.51-10.33,50.7"/><path class="cls-2" d="M1094.94,508.27c49.3,26.64,105.13,19.85,158.43,14.07q77.94-8.43,155.22-21.77,11.92-2,23.86-4.21c19.36-3.53,39.09-7.4,58.5-12.44a381.87,381.87,0,0,0,48-15.44c22.58-9.07,44-20.73,62.92-36.42,45.55-37.59,71.28-96.11,43.56-152.51-33.36-67.89-123.54-118.58-193.62-133.61C1355,125.17,1270.31,126,1171,124.09c-13.16-.25-26.61-.16-39.22,3.79s-24.36,12.48-29.28,24.77c-3.84,9.67-3.63,17.9-.6,25a34.3,34.3,0,0,0,6.5,9.74,55.62,55.62,0,0,0,9.79,8.19,96.34,96.34,0,0,0,12.12,6.83c21.65,10.36,49.16,15.89,63,20.78q25.49,9,50.67,18.86c-7.58-3-26.44,3.91-34.23,5.24-13.36,2.37-26.93,4.87-38.59,12.28-10.29,6.58-18.78,18.48-15.91,30.34,2.62,10.79,13.29,17.36,23.15,22.4,17.87,9.16,39.93,14.86,56.3,25.72-26.2,9.2-54.43,3.54-79.37,19.52-7.66,4.91-15,12.28-15,21.36,0,9.65,8.29,17.35,17,21.55,7.91,3.88,25.69,11.7,25.69,11.7s-27.9,2.83-40,5a289.45,289.45,0,0,0-40.35,10.44c-16,5.42-33.23,14.16-37.93,30.35-3,10.2,0,21.47,6,30.18s14.86,15.1,24.23,20.14m275.63-331.61c-.54,12.57-.41,22.89-.91,35.46a1108.51,1108.51,0,0,1-141-9.74c-8.79-1.16-17.82-2.54-25.52-7s-13.75-12.82-12.91-21.69c.87-9.15,9-16.36,17.78-19s18.32-1.79,27.48-.75a1258,1258,0,0,1,135.06,22.77M1359.46,322.8c-47.76.12-91.77-6.25-138.32-16.78-4.16-.95-8.7-2.2-11.24-5.66-3.67-5.12-.75-12.82,4.41-16.4s11.79-4.24,18.07-4.66c44-3,85.15-2.66,129.12-.33ZM1213,375.08c43.72-10.66,93.22-8.49,138.15-5.83l-6.7,39.67c-44,3.33-92.19-1.92-133.61-17.15-3.66-1.29-7.91-3.41-8.37-7.29-.63-5.16,5.54-8.15,10.53-9.4m115.92,117.17c-49,4.11-98.1,8.24-147.19,5.91-8.08-.38-16.36-1-23.61-4.54s-13.24-10.78-13-18.85c.17-5.75,3.54-11.08,8.25-14.41,6-4.33,13.78-5.37,21.15-6.28,54.67-6.71,109.59-13.41,164.67-12.53-3.79,17.19-6.53,33.51-10.32,50.7"/><path class="cls-2" d="M184.46,1825.09c26.6,26.1,67,35.82,101.28,21.45a2.36,2.36,0,0,1,2.7.64c1.2,1.42,2.45,2.81,3.77,4.09-12.11-13.62-25.68-26.37-35.47-41.89-10.28-16.15-21.48-33.75-27.38-52.39-5.67-18.71-8.3-38.75-6.42-58.38,1.34-14.79,8.3-30.31,16.87-43.5a2.37,2.37,0,0,1,4.27,1.89,150.79,150.79,0,0,0-4.48,40.79,195.8,195.8,0,0,0,9.17,53.27c5.24,17.44,12.76,34.23,20.68,51.06,7.91,16.52,16.64,32.82,24.14,50.07l.09,0A63.39,63.39,0,0,0,340.85,1869c19-1.52,36.58-13.52,46.93-29.7A2.36,2.36,0,0,0,387,1836a154.17,154.17,0,0,1-37.9-33,173.48,173.48,0,0,1-39.59-124.81c1.58-18.74,9.73-51.31,15.85-60.34a2.39,2.39,0,0,1,4.37,1.07c1.05,10.52-4.14,42.15-2.78,59.37a256,256,0,0,0,36.4,114.52c10.36,17.42,22.85,33.77,37,50a2.65,2.65,0,0,0,.87.65,61.08,61.08,0,0,0,40.52,3.93c13.08-3.36,24.37-12.18,32.28-23.34a2.65,2.65,0,0,0,.46-1.44c.26-20.58-2.31-39.19-4.35-58.83-2.16-19.95-8.91-38.66-14-57.94s-11.62-37-19.41-55.55c-6.72-15.8-20.55-40.34-22.57-52.7a2.41,2.41,0,0,1,3.84-2.28c15.41,12.11,28.14,27.56,38.4,44.37a214.84,214.84,0,0,1,24.86,58.91c5.4,20.72,13.16,43.41,12.16,64.73-.86,20.74-2.53,42.44-18.37,59.22,2.06-3.08,4.75-4.67,6.27-7.93a26.78,26.78,0,0,1,1.81-2.85c20.77,5.21,43.51-2.68,59.69-16.92,14.67-12.93,24.63-30.87,31.38-49.46a2.4,2.4,0,0,0,.12-1.19c-2.61-18.12-5.64-35.29-10.15-51.81a312.29,312.29,0,0,0-42.9-94.32,393.43,393.43,0,0,0-26.61-34.81,2.39,2.39,0,0,1,2.83-3.7c13.85,6.75,26.35,16.36,37.31,27.44a167.72,167.72,0,0,1,32.11,47.23,163.74,163.74,0,0,1,14.52,55.23,136.48,136.48,0,0,1-3.53,45.2,2.37,2.37,0,0,0,2.57,3c57.54-8,70.9-79.17,61.15-128.23-26-131.48-173.21-118-265.16-173-37.66-22.55-77.24-95.91-99-216a2.44,2.44,0,0,0-1.76-1.93c-23.54-6-47.36,2.71-62.91,21.42a2.38,2.38,0,0,0-.21,2.72c18.64,32,25.15,73.79,31.52,109.53,7.65,43.12,13.88,85.09,1.77,128.07C225.21,1554.31,168,1611.77,152,1688c-9.73,46.47-3,102.46,32.44,137.14"/><path class="cls-2" d="M1906.59,1251.26c26.61,26.1,67,35.82,101.29,21.45a2.35,2.35,0,0,1,2.69.64c1.2,1.42,2.45,2.81,3.77,4.09-12.11-13.62-25.68-26.37-35.47-41.89-10.28-16.15-21.48-33.75-27.37-52.39-5.68-18.71-8.3-38.75-6.43-58.39,1.34-14.78,8.3-30.31,16.88-43.49a2.36,2.36,0,0,1,4.26,1.89,150.79,150.79,0,0,0-4.48,40.79,195.87,195.87,0,0,0,9.17,53.27c5.24,17.44,12.76,34.23,20.68,51.06,7.91,16.52,16.64,32.82,24.14,50.07l.09.05A63.39,63.39,0,0,0,2063,1295.2c19-1.52,36.58-13.52,46.94-29.7a2.37,2.37,0,0,0-.82-3.29,154.17,154.17,0,0,1-37.9-33,173.49,173.49,0,0,1-39.59-124.82c1.58-18.73,9.73-51.3,15.85-60.33a2.39,2.39,0,0,1,4.37,1.07c1.05,10.52-4.14,42.15-2.78,59.37a256.34,256.34,0,0,0,36.4,114.52c10.36,17.42,22.85,33.77,37,50a2.65,2.65,0,0,0,.87.65,61.08,61.08,0,0,0,40.52,3.93c13.08-3.36,24.37-12.18,32.28-23.35a2.59,2.59,0,0,0,.46-1.43c.27-20.58-2.31-39.19-4.35-58.84-2.16-19.94-8.91-38.66-14-57.93s-11.62-37-19.41-55.55c-6.72-15.8-20.55-40.34-22.57-52.7a2.41,2.41,0,0,1,3.84-2.28c15.41,12.11,28.14,27.56,38.41,44.37a215.46,215.46,0,0,1,24.86,58.91c5.4,20.72,13.15,43.41,12.15,64.73-.86,20.73-2.53,42.44-18.37,59.22,2.06-3.09,4.75-4.67,6.28-7.93a25.2,25.2,0,0,1,1.81-2.85c20.76,5.21,43.5-2.68,59.68-16.92,14.67-12.93,24.64-30.87,31.39-49.46a2.53,2.53,0,0,0,.12-1.19c-2.62-18.12-5.65-35.29-10.15-51.81a312.64,312.64,0,0,0-42.91-94.32,393.43,393.43,0,0,0-26.61-34.81,2.39,2.39,0,0,1,2.84-3.7c13.85,6.75,26.34,16.36,37.3,27.44a167.72,167.72,0,0,1,32.11,47.23,163.51,163.51,0,0,1,14.52,55.23,136.48,136.48,0,0,1-3.53,45.2,2.38,2.38,0,0,0,2.57,3c57.54-8,70.9-79.17,61.15-128.23-26-131.48-173.21-118-265.16-173-37.66-22.55-77.24-95.91-99-216a2.47,2.47,0,0,0-1.77-1.92c-23.54-6-47.35,2.71-62.91,21.42a2.38,2.38,0,0,0-.21,2.72c18.64,32,25.16,73.79,31.52,109.53,7.65,43.11,13.89,85.09,1.77,128.07-20.64,74-77.86,131.41-93.83,207.59-9.73,46.47-3,102.46,32.44,137.14"/><path class="cls-2" d="M174.42,1169.11c16.73,5.71,34.88,5.08,51.62,10.72,8.72-35.18,15-110.29,21.52-109.73,7.05,1.05,8.61,73.16,4.12,107.62a231.61,231.61,0,0,0,74.84-16.61c-5-26.52-34.24-72.18-27.63-75.63,3.59-2.84,42.82,37.51,61.93,58.6,16.45-10.81,50.52-43.16,50.54-46.78s-57.43-54.17-51.45-60.85c3.32-4,44.36,27.52,67.51,41,19.65-22.13,35.17-46.63,51.44-71.37-29.91-9.16-93-19.85-90.49-24.91,3.14-5.39,70.41-7.79,97.62-9.21,6.23-28.23,11.35-54.86,14.91-83.56-19.12,8.46-80.23,35.37-92.43,30.48-3-7,81.12-54.23,85.22-59.31L479.61,773.3C455.54,795,396.91,855,390.76,847.23c-5.21-8.18,42.49-74.51,63.61-111.79-9.91-13.5-19.67-24.86-28-39.34-25.56,36.14-68.27,112.32-77.66,108.72-8.89-8,25.45-66.56,59.72-129.45-27.43-14-54.71-25.52-82.15-39.42-10,38.68-29.18,131.6-41.79,130-13.24-3.83,2.22-88.71,13-132.49-14.59-4-28.26-6.65-42.81-10.54-10.95,48.69-11.74,149.4-21,152-9.89-.6-12-91.27-18.06-136.87-6.51,4.18-44.11,15.89-44.11,15.89s2.28,16.83,3,22.81c4.34,32.69,13.58,108.25,10,109.42-7.75,2.46-36-75.56-46-110.19-7.78,15.84-23.11,56.64-23.11,56.64s16.52,46.84,30.7,87.57c1.09,3.07-.73,7.69-3.92,7.63-1.95,0-3.31-1.76-4.43-3.37C121.4,800.84,101,776.55,84.51,753c-5.36,16.74-9.4,35.91-14.76,52.65,21.19,26,61.94,69.41,60.18,72.44C127.64,883,85,860,57.09,849.37c-5.74,17.41-8.89,31.52-14.65,49,31.71,12.77,90,29.95,88.65,36.91-1,5.66-35.52,3.4-87.58-1-3.07,17.61-1.82,40.86-4.89,58.47,41.95-2.37,116.61-9.34,115.24-4.05.71,8.34-66,22.25-101.85,34.33A202.53,202.53,0,0,1,80,1094.46c30-21.75,90.35-63.78,94.71-58.54,2.52,7.54-51.69,44.46-71.75,72.81,13.57,15.77,36.52,34.64,50.1,50.41,17.21-28.89,32.43-59.53,39.38-58.09C197.27,1102.65,183,1148.19,174.42,1169.11Zm63.8-178.65c-22-9.34-39.49-28-37.64-51.3a125.77,125.77,0,0,1,4.14-24.44c4.27-15.21,12.23-29.88,24.65-39.93,11-8.81,24.9-14.63,39.17-13.75,15.58,1,29.83,9.22,40.59,20.22,31.06,31.73,27.06,93.73-18,111.84C275.47,999.39,255.46,997.78,238.22,990.46Z"/><path class="cls-2" d="M1613.45,1792.91c16.73,5.7,34.87,5.08,51.62,10.72,8.72-35.18,15-110.29,21.52-109.73,7.05,1,8.61,73.16,4.12,107.62a231.93,231.93,0,0,0,74.84-16.61c-5-26.53-34.25-72.18-27.64-75.63,3.59-2.84,42.83,37.51,61.94,58.6,16.45-10.81,50.51-43.16,50.54-46.78s-57.43-54.17-51.46-60.85c3.32-4,44.36,27.52,67.52,41,19.64-22.12,35.16-46.63,51.44-71.36-29.92-9.17-93.05-19.85-90.49-24.91,3.13-5.39,70.4-7.79,97.61-9.22,6.23-28.22,11.35-54.85,14.92-83.55-19.13,8.45-80.23,35.37-92.43,30.48-3-7,81.12-54.23,85.22-59.31l-14.09-86.29c-24.06,21.68-82.69,81.71-88.84,73.92-5.21-8.17,42.49-74.5,63.6-111.78-9.9-13.5-19.66-24.86-28-39.34-25.56,36.14-68.28,112.32-77.67,108.72-8.88-8,25.45-66.56,59.72-129.45-27.42-14-54.7-25.52-82.14-39.42-10,38.68-29.18,131.6-41.8,130-13.23-3.82,2.23-88.7,13-132.48-14.6-4-28.27-6.65-42.81-10.54-11,48.69-11.74,149.4-21,152-9.89-.6-12-91.27-18.06-136.87-6.52,4.18-44.12,15.89-44.12,15.89s2.29,16.83,3,22.81c4.33,32.69,13.58,108.25,10,109.42-7.74,2.46-36-75.56-46-110.19-7.77,15.84-23.1,56.64-23.1,56.64s16.51,46.83,30.69,87.57c1.09,3.06-.72,7.68-3.92,7.63-1.94,0-3.31-1.76-4.43-3.37-16.38-23.53-36.82-47.82-53.27-71.36-5.36,16.74-9.4,35.91-14.76,52.65,21.18,26,61.94,69.41,60.18,72.44-2.29,4.85-44.9-18.12-72.84-28.73-5.74,17.41-8.89,31.51-14.65,49,31.71,12.77,90,29.95,88.65,36.91-1,5.66-35.53,3.4-87.58-1-3.08,17.61-1.82,40.86-4.89,58.47,41.95-2.37,116.6-9.34,115.24-4,.71,8.34-66,22.25-101.86,34.33a202.36,202.36,0,0,1,28,71.46c30-21.75,90.34-63.78,94.71-58.55,2.51,7.55-51.69,44.47-71.76,72.82,13.58,15.77,36.53,34.64,50.11,50.41,17.2-28.89,32.42-59.54,39.37-58.09C1636.3,1726.45,1622.05,1772,1613.45,1792.91Zm63.8-178.65c-22-9.34-39.49-28-37.65-51.3a126.4,126.4,0,0,1,4.14-24.44c4.27-15.21,12.24-29.89,24.66-39.93,11-8.81,24.89-14.63,39.17-13.75,15.58,1,29.83,9.22,40.59,20.22,31,31.73,27.06,93.73-18,111.84C1714.5,1623.19,1694.49,1621.57,1677.25,1614.26Z"/><g class="cls-3"><path class="cls-4" d="M1706.31,1050.69c14.69.26,30.3-1.22,39.74-7,12.25-7.55,19.36-22.23,21.27-40.14s-2.27-41.23-11.88-56.7a2.77,2.77,0,0,1-.31.22,343.67,343.67,0,0,0-.05-42.26c-3.26-46.78-17-84.26-43-122.67v0c-.36-.5-.7-1-1-1.51-1.53-2.19-3.18-4.39-4.82-6.57a35.63,35.63,0,0,1-10.56-3.61l-24-32.74c-.87-2.36-1.82-4.91-2.5-7.45-3.73-4-7.49-8-11.36-11.73l0,0c-17.34-16.84-34.75-31.8-55-44.43-25.1-15.65-58.08-20.91-88-23.17l.17-.14c-20.75-18.4-59.62-27.74-86.11-18.12-11.65,4.21-22.79,17.61-29.75,34.93-6.85-6.2-15.13-11.29-22.72-12.51a40.75,40.75,0,0,0-31.13,8.17c-5.36,4.09-10.17,10.06-10.94,17.16-.64,5.77,1.46,11.33,3.69,16.5a302.58,302.58,0,0,0,25.48,47.42c-32.18,39.59-72.73,84.52-70.57,138.27,1.24,30.87,11.27,62.93,24.66,90.92,34.64,72.28,98.9,157.76,189.62,152.6,39.74-2.25,83-32.89,117.94-49.67,3.1,5,7.29,7.9,11.28,12.61,12.62,12.19,33.68,25.44,52.15,23.92,31.9-2.58,30.72-42.77,17.75-62.26m-66.57-325.54a36.35,36.35,0,0,1,5.79,5.08c.39.42,2.86,2.61,6.46,6a12.3,12.3,0,0,0,.3,1.54.43.43,0,0,0,0,.19s0,.12.05.17c.18.7.35,1.41.56,2.12s.44,1.4.67,2.1c.45,1.39.94,2.75,1.42,4l0,0h0c-.09-.11-.36-.4-.78-.82a1.31,1.31,0,0,1-.23-.24l-.56-.59c-.32-.31-.66-.66-1-1.06-.21-.22-.47-.47-.72-.71s-.36-.34-.53-.51l-.94-.91q-.93-.87-2-1.8c-.24-.22-.48-.45-.74-.67l-.59-.51c-.35-.32-.72-.63-1.11-.94-.19-.16-.39-.34-.61-.5-1.12-.93-2.31-1.86-3.54-2.74l-1.2-.84a8.77,8.77,0,0,0-1-.64c-.66-.43-1.33-.87-2-1.27s-1.36-.79-2-1.16c-.17-.06-.33-.16-.48-.23l-.86-.44a13.28,13.28,0,0,0-1.35-.6l-.67-.27-.43-.17c-.37-.15-.76-.28-1.16-.42a10.54,10.54,0,0,0-1.15-.33,3.43,3.43,0,0,0-.46-.11c-.35-.08-.7-.17-1.06-.22a13.14,13.14,0,0,0-2.13-.25h-1.06c-.35,0-.7.05-1.05.11a2.09,2.09,0,0,0-.52.09,9.69,9.69,0,0,0-3.54,1.35c-.28.17-.53.35-.8.54s-.45.36-.65.56a3.11,3.11,0,0,0-.32.31v0a2.16,2.16,0,0,0-.29.31,6,6,0,0,0-.83,1.14,3.67,3.67,0,0,0-.34.62,6.13,6.13,0,0,0-.4.91,8.1,8.1,0,0,0-.26.79,11.73,11.73,0,0,0-.47,2.62c0,.55-.05,1.1-.06,1.67a11.75,11.75,0,0,0,.07,1.31c0,.45.08.9.14,1.36.09.77.25,1.56.42,2.35.08.42.18.82.27,1.23a44.29,44.29,0,0,0,1.29,4.31c.11.34.23.7.37,1s.25.7.39,1.07c.27.69.56,1.42.86,2.14.43,1,.89,2,1.36,3.06.09.21.21.43.3.64.21.43.4.84.62,1.28s.53,1.08.82,1.64.7,1.38,1.07,2.08a.49.49,0,0,0,.08.13c.32.59.63,1.19,1,1.77.06.1.09.18.15.28.28.48.57,1,.83,1.48s.67,1.16,1,1.73c.52.88,1,1.76,1.57,2.63,1.06,1.75,2.14,3.42,3.22,5l1.6,2.38c.42.62.84,1.24,1.27,1.83s.8,1.17,1.2,1.72l0,0c.38.54.75,1.07,1.14,1.57,1.36,1.85,2.62,3.49,3.73,4.85,2.88,3.57,7.22,8.68,12.27,14,.49.48.95,1,1.43,1.47,1.41,1.41,2.87,2.86,4.36,4.26.9.85,1.8,1.68,2.71,2.5.16.15.35.31.52.45.45.41.88.8,1.32,1.17.29.25.61.53.93.78.62.52,1.23,1,1.86,1.52.92.75,1.87,1.49,2.81,2.16,1.27.93,2.51,1.79,3.75,2.57v0l1.85,1.11c.61.37,1.24.72,1.86,1s1.06.53,1.58.76a5.78,5.78,0,0,0,.58.26c.34.16.68.3,1,.43s.88.34,1.31.5a.38.38,0,0,1,.16,0,10.91,10.91,0,0,0,1.45.43,17,17,0,0,0,3.29.56l1.08,0a13.65,13.65,0,0,0,1.58-.12,8,8,0,0,0,1.2-.24,10.86,10.86,0,0,0,1.07-.32,12.92,12.92,0,0,0,1.43-.65,9.81,9.81,0,0,0,1.37-.86,10.36,10.36,0,0,0,2.07-2.06,7.15,7.15,0,0,0,.66-1,8.45,8.45,0,0,0,.56-1,7.31,7.31,0,0,0,.4-1,9.87,9.87,0,0,0,.55-2.6c0-.36.07-.72.09-1.07s0-.63,0-1a6.9,6.9,0,0,0-.06-1c0-.28-.06-.55-.1-.86s-.12-.73-.2-1.11-.19-.9-.3-1.35-.18-.7-.3-1.06c-.21-.71-.45-1.42-.73-2.13-.33-.87-.68-1.72-1.07-2.57a55.35,55.35,0,0,0-2.73-5.16c-.27-.48-.56-.93-.84-1.38-.42-.68-.84-1.3-1.24-1.94l-.83-1.22c-.27-.41-.53-.79-.81-1.17-.41-.57-.82-1.11-1.19-1.63-1-1.31-1.89-2.46-2.67-3.42-1.38-1.72-2.36-2.82-2.54-3l0,0c.92.47,1.88.91,2.82,1.3l1.17.46a10,10,0,0,0,1.2.42c.53.2,1.07.38,1.62.53l1.17.32c.52.15,1,.26,1.57.36a3.5,3.5,0,0,0,.73.15c.5.1,1,.2,1.52.27.28,0,.54.07.83.08,2.79,4.29,4.4,7.06,4.38,7.08,4.16,7.15,8.61,16,8.8,24.71a22.27,22.27,0,0,1-2.44,11c-5.92,11.34-21.16,9-30.84,4.65-18.44-8.3-34-23.57-46.68-38.95-10.24-12.44-19.56-26.44-24.1-42-2.86-9.81-5.88-27.71,3.6-35,7.94-6,24.36,1.38,33,7.32m-274.25-23.43c-2.19-3.63-3.08-8-4.31-12.07s-1.43-8.83.33-12.74c2.16-4.82,7.35-7.66,12.09-6.62,5,1.13,8.61,5.76,11.84,10.17,2.36,3.13,3.21,5,5.79,8.28a113.58,113.58,0,0,0-1.54,24.32c-2.94,3.33-6,6.15-8.94,9.55-6.31-5.78-10.81-13.39-15.26-20.89M1382.83,794c-4.65,2-10.41,2.95-14.5,0-4.77-3.44-5-10.83-2.11-16s8-8.46,13-11.63l-.18.26c4.79-3.46,11.37-1.69,14.78,2.35s3.4,10.26.91,14.93-7,8-11.88,10.05m11.62,49.9a12.28,12.28,0,0,1-10-.76c-3.77-2.29-5.51-7.15-4.87-11.51s3.33-8.24,6.64-11.15c5.4-4.73,14.69-11.8,19.27-2.87,2.4,4.6,4.82,10,2.91,14.81-1,2.54-3.08,4.47-5.2,6.22a27,27,0,0,1-8.78,5.26m32.14,50.6c-3.51,1.33-7.8,1.2-10.75-1.17-11.28-9,5-23.7,14-26,14-3.59,12.36,13.26,5.74,20.48-2.56,2.77-5.47,5.37-9,6.71M1453,939.34c-4.47.44-9.26-2.05-10.91-6.23-3.7-9.37,8.18-19.11,16.66-19.93,10.54-1,8.79,12.34,5,18.85a14.56,14.56,0,0,1-10.74,7.31m28.77,40.8c-5.53-.26-10.45-5.59-9.78-11.08.93-7.88,13.17-16,19.47-9,6.73,7.41,0,20.59-9.69,20.11m41.88,31.59c-16.1-.33-13-24.36,1.61-24.31s13.3,24.62-1.61,24.31m37.83,30.46a10.4,10.4,0,0,1-10.07-1.58c-10.87-9.26,3.67-22.87,11.91-24.74,12.82-2.89,12.09,13.46,6.23,20.16-2.25,2.61-4.86,5-8.07,6.16M1607.7,1059c-16.09-.33-13-24.36,1.61-24.31s13.3,24.62-1.61,24.31m61.37-25.67c-69.36-13.3-133.48-73.92-178.41-127.78-47.66-57.12-85.6-131.79-86.34-207.76,2.78-19.82,11.86-45.39,30.18-53.09,14.86-6.21,39.23-2,54.57,5.17-6.17-.08-14.45,1.68-20.51,2-28.17,1.61-48.3,30.55-46.25,58.52,1.35,18.29,6.7,39.06,14,56.06,43.86,103,109.73,189.79,205.62,236.18,22.91,11.1,50.76,18.64,77.16,10.26,15.86-5,27.81-25,30.13-32.94a1.62,1.62,0,0,1,3.17.37,67.85,67.85,0,0,1,.65,19.21c-1.57,13.74-7.26,24.59-15.79,29.11-18.45,9.76-47.15,8.71-68.14,4.67m-19.31,30.4c9.26-4.94,18.27-10,26.91-15.16,10.13,11.36,27.68,20.14,18.6,31.15-11.44,15.63-27.75-4.35-45.51-16"/><path class="cls-4" d="M1694.78,819.18a6.87,6.87,0,0,0,.66-1,8.45,8.45,0,0,0,.56-1,7.31,7.31,0,0,0,.4-1,9.87,9.87,0,0,0,.55-2.6c0-.36.07-.72.09-1.07s0-.63,0-1a8.59,8.59,0,0,0-.07-1,7,7,0,0,0-.11-.86,9.56,9.56,0,0,0-.19-1.11c-.08-.45-.2-.89-.31-1.35s-.18-.7-.29-1.06c-.21-.71-.45-1.42-.73-2.13-.33-.87-.68-1.72-1.07-2.57a55.35,55.35,0,0,0-2.73-5.16c-.27-.47-.56-.93-.84-1.38-.42-.68-.84-1.3-1.24-1.94l-.83-1.23c-.27-.4-.53-.78-.81-1.15-.41-.58-.82-1.12-1.19-1.64-1-1.31-1.89-2.46-2.67-3.42-1.38-1.72-2.36-2.82-2.54-3l0,0c.92.47,1.88.91,2.82,1.3.39.17.77.31,1.18.46a9.3,9.3,0,0,0,1.19.42c.53.2,1.07.38,1.62.53l1.17.32c.52.14,1,.26,1.57.36a3.55,3.55,0,0,0,.72.15c.51.1,1,.2,1.53.27.28,0,.54.07.83.08a265.8,265.8,0,0,0-18.62-25.54A306.39,306.39,0,0,0,1652,736.24a12,12,0,0,0,.3,1.54.43.43,0,0,0,0,.19s0,.12.05.16c.18.71.35,1.42.56,2.13s.44,1.4.67,2.1c.45,1.39.94,2.75,1.42,4l0,0h0a10.73,10.73,0,0,0-.77-.82,1.31,1.31,0,0,1-.23-.24l-.57-.59-1-1.06c-.21-.22-.47-.47-.72-.71l-.53-.51-.94-.91c-.61-.58-1.28-1.18-2-1.8-.24-.22-.48-.45-.74-.67s-.39-.33-.59-.51c-.35-.32-.72-.63-1.11-.94-.19-.16-.39-.34-.61-.5-1.13-.93-2.31-1.86-3.54-2.74l-1.2-.84a8.77,8.77,0,0,0-1-.64c-.66-.43-1.33-.87-2-1.27s-1.35-.79-2-1.16c-.17-.06-.33-.16-.48-.23l-.86-.44a13.28,13.28,0,0,0-1.35-.6l-.68-.27-.42-.17c-.37-.15-.76-.28-1.16-.42a10.54,10.54,0,0,0-1.15-.33,3.43,3.43,0,0,0-.46-.11c-.35-.08-.71-.17-1.06-.22a13.14,13.14,0,0,0-2.13-.25h-1.06c-.35,0-.7.06-1.05.11a2.09,2.09,0,0,0-.52.09,9.52,9.52,0,0,0-3.54,1.35c-.28.17-.53.35-.8.54s-.45.36-.65.56-.21.2-.32.31h0c-.09.11-.21.2-.29.32a6,6,0,0,0-.83,1.14,3.67,3.67,0,0,0-.34.62,7.38,7.38,0,0,0-.4.91,8.1,8.1,0,0,0-.26.79,11.73,11.73,0,0,0-.47,2.62c0,.55-.05,1.1-.06,1.67a11.75,11.75,0,0,0,.07,1.31c0,.45.08.9.14,1.36.09.77.25,1.56.42,2.35.08.42.18.82.27,1.24.34,1.39.77,2.83,1.29,4.3.11.34.23.7.37,1s.25.7.39,1.07c.27.69.56,1.42.86,2.14.43,1,.89,2,1.36,3.06.09.21.21.43.3.64.21.43.4.84.62,1.28s.53,1.08.82,1.64.7,1.38,1.07,2.08c0,.06.06.09.08.13.32.59.63,1.19,1,1.77.06.1.09.18.15.28.28.48.57,1,.83,1.48s.67,1.16,1,1.73c.53.88,1.05,1.76,1.58,2.63,1.06,1.75,2.14,3.42,3.22,5l1.6,2.38c.42.62.84,1.24,1.27,1.83s.8,1.17,1.2,1.72l0,0c.38.54.75,1.06,1.14,1.57,1.36,1.85,2.62,3.49,3.73,4.85,2.88,3.57,7.22,8.68,12.27,14,.49.48.95,1,1.43,1.47,1.41,1.41,2.87,2.86,4.36,4.26.9.85,1.8,1.68,2.72,2.5.15.15.34.31.51.45.45.41.88.8,1.32,1.17.29.25.61.53.93.78.62.52,1.23,1,1.86,1.52.92.75,1.87,1.49,2.81,2.16,1.27.93,2.51,1.79,3.75,2.57v0l1.84,1.11c.62.38,1.25.72,1.87,1s1.06.53,1.58.76a5.05,5.05,0,0,0,.59.26,9.64,9.64,0,0,0,1,.43c.44.19.87.34,1.31.5a.33.33,0,0,1,.15,0,11.51,11.51,0,0,0,1.46.43,17,17,0,0,0,3.3.56c.35,0,.73,0,1.07,0a13.65,13.65,0,0,0,1.58-.12,6.89,6.89,0,0,0,1.2-.24,10.86,10.86,0,0,0,1.07-.32,12.92,12.92,0,0,0,1.43-.65,9.81,9.81,0,0,0,1.37-.86,10.11,10.11,0,0,0,2.07-2.06"/><path class="cls-4" d="M1692.71,821.23c-14.34,10.83-42.65-21.25-52.82-33.81s-33.81-48.37-21.16-57.95S1655,746.4,1655,746.4a85.85,85.85,0,0,1-2.65-8.26c-.15-.62-.28-1.26-.37-1.9a21.46,21.46,0,0,1,0-9.37,15.32,15.32,0,0,1,5.69-8.38,19.15,19.15,0,0,1,9-3.75c23.19-3.35,44.45,20.7,50.63,40.68,2.68,8.6,2.49,20.89-5.32,26.72-.26.21-.53.4-.8.59a25.37,25.37,0,0,1-17.22,3.64c-.29,0-.54,0-.81-.08a38.56,38.56,0,0,1-11.83-3.81s25.67,27.89,11.36,38.75"/></g><g class="cls-3"><path class="cls-4" d="M820.52,509.74c14.7.26,30.3-1.22,39.74-7,12.25-7.54,19.36-22.23,21.28-40.14s-2.28-41.22-11.89-56.7a1.54,1.54,0,0,1-.31.22,343.67,343.67,0,0,0-.05-42.26c-3.26-46.78-17-84.26-43-122.67l0,0c-.35-.5-.69-1-1-1.51-1.53-2.19-3.19-4.39-4.83-6.57a35.67,35.67,0,0,1-10.55-3.61l-24-32.74c-.87-2.36-1.81-4.91-2.49-7.45-3.73-4-7.5-8-11.36-11.72l0,0c-17.34-16.84-34.75-31.8-55-44.43-25.1-15.65-58.07-20.91-88-23.16l.18-.14c-20.76-18.41-59.62-27.75-86.12-18.13-11.64,4.21-22.78,17.61-29.75,34.94-6.85-6.2-15.12-11.3-22.71-12.52a40.77,40.77,0,0,0-31.14,8.18c-5.36,4.08-10.17,10.05-10.94,17.15-.63,5.77,1.46,11.33,3.69,16.5a302.29,302.29,0,0,0,25.49,47.43c-32.19,39.58-72.73,84.51-70.58,138.26,1.25,30.88,11.27,62.94,24.67,90.92,34.63,72.28,98.89,157.77,189.61,152.61,39.75-2.25,83-32.9,117.94-49.68,3.11,5,7.3,7.91,11.28,12.61,12.62,12.2,33.68,25.44,52.15,23.92,31.9-2.58,30.73-42.77,17.75-62.26M754,184.21a35.38,35.38,0,0,1,5.79,5.07c.4.42,2.87,2.61,6.46,6,.08.51.17,1,.3,1.54a.49.49,0,0,0,0,.2s0,.11,0,.16c.18.7.36,1.41.57,2.12s.43,1.4.66,2.1c.45,1.39.94,2.75,1.42,4l0,0h0a9.68,9.68,0,0,0-.78-.82,1.31,1.31,0,0,1-.23-.24l-.56-.59-1-1.06c-.21-.22-.46-.47-.72-.71s-.36-.33-.53-.51-.59-.59-.94-.91c-.61-.58-1.27-1.18-2-1.79-.25-.23-.49-.46-.75-.67l-.59-.52c-.34-.31-.72-.63-1.11-.94-.19-.16-.38-.33-.61-.5-1.12-.93-2.31-1.86-3.53-2.74l-1.2-.84a11.29,11.29,0,0,0-.95-.64c-.66-.43-1.34-.87-2-1.27s-1.36-.79-2-1.16a3.42,3.42,0,0,1-.47-.23l-.87-.43a10.66,10.66,0,0,0-1.34-.61l-.68-.27-.42-.17c-.38-.15-.77-.28-1.16-.41a11.5,11.5,0,0,0-1.16-.34,3.1,3.1,0,0,0-.46-.11c-.35-.08-.7-.16-1.05-.22a12.2,12.2,0,0,0-2.14-.24l-1.06,0c-.35,0-.69.06-1.05.11a4,4,0,0,0-.52.09,9.65,9.65,0,0,0-3.53,1.35c-.28.17-.54.35-.81.54s-.44.36-.65.56a3,3,0,0,0-.31.31l0,0a2.06,2.06,0,0,0-.28.31,5.89,5.89,0,0,0-.84,1.14,5.22,5.22,0,0,0-.34.62,6.19,6.19,0,0,0-.39.92,5.54,5.54,0,0,0-.27.78,12.3,12.3,0,0,0-.47,2.63c0,.54,0,1.09-.06,1.67,0,.42,0,.86.07,1.3s.08.9.15,1.36c.09.78.24,1.56.41,2.36.08.41.18.81.27,1.23a43.33,43.33,0,0,0,1.3,4.31,10.52,10.52,0,0,0,.36,1c.12.36.26.7.39,1.08.28.68.56,1.41.87,2.13.42,1,.88,2,1.36,3.06.09.22.21.43.29.64l.62,1.29c.28.54.54,1.07.82,1.63s.71,1.38,1.07,2.08a.48.48,0,0,0,.09.13q.47.9,1,1.77l.14.28c.28.48.57,1,.84,1.48s.66,1.16,1,1.73c.52.88,1,1.76,1.58,2.63,1.06,1.75,2.14,3.42,3.21,5.05.54.8,1.09,1.61,1.6,2.38.42.62.85,1.25,1.27,1.84s.81,1.16,1.2,1.72l0,.05c.39.54.76,1.06,1.15,1.56,1.36,1.85,2.61,3.49,3.73,4.86,2.87,3.56,7.22,8.68,12.27,14,.48.48,1,1,1.43,1.47,1.4,1.41,2.87,2.86,4.35,4.26.9.86,1.8,1.68,2.72,2.5l.52.46c.44.4.87.79,1.32,1.16.28.25.6.53.92.78.62.52,1.24,1,1.86,1.52.93.75,1.87,1.49,2.82,2.17,1.27.92,2.51,1.78,3.74,2.56l0,0,1.84,1.11c.62.38,1.24.72,1.87,1s1.05.53,1.58.75a3.33,3.33,0,0,0,.58.26c.33.16.68.31,1,.44s.88.34,1.32.49a.66.66,0,0,1,.15.05,15.21,15.21,0,0,0,1.46.43,17.66,17.66,0,0,0,3.29.55l1.07,0a13.49,13.49,0,0,0,1.58-.12,6.89,6.89,0,0,0,1.2-.24c.35-.09.72-.19,1.08-.31s1-.41,1.43-.65a9.88,9.88,0,0,0,1.37-.87,10.32,10.32,0,0,0,2.07-2.05,8.32,8.32,0,0,0,.66-1,8.45,8.45,0,0,0,.56-1c.15-.33.28-.66.4-1a10.28,10.28,0,0,0,.54-2.6,9.45,9.45,0,0,0,.09-1.07,8,8,0,0,0,0-1,7,7,0,0,0-.07-1,5.17,5.17,0,0,0-.1-.85,9.45,9.45,0,0,0-.2-1.12c-.08-.44-.19-.89-.3-1.34s-.18-.71-.3-1.06c-.21-.71-.45-1.43-.72-2.14-.34-.87-.69-1.71-1.07-2.57a56.33,56.33,0,0,0-2.73-5.15c-.28-.48-.56-.93-.85-1.39-.41-.68-.83-1.3-1.24-1.94l-.83-1.22c-.27-.41-.53-.79-.8-1.16-.41-.58-.83-1.12-1.2-1.64-1-1.31-1.89-2.46-2.67-3.42-1.37-1.72-2.36-2.82-2.54-3l0,0c.92.47,1.88.91,2.82,1.3.4.17.77.32,1.18.47a11.92,11.92,0,0,0,1.19.41c.53.2,1.07.38,1.62.53.38.12.78.22,1.18.32a15.61,15.61,0,0,0,1.57.36,3.41,3.41,0,0,0,.72.15c.51.1,1,.2,1.52.27.28,0,.54.07.84.08,2.78,4.29,4.39,7.07,4.38,7.08,4.15,7.15,8.6,16,8.8,24.71a22.34,22.34,0,0,1-2.45,11c-5.92,11.33-21.16,9-30.83,4.64-18.45-8.3-34-23.56-46.69-38.94-10.23-12.44-19.56-26.45-24.09-42-2.87-9.82-5.88-27.72,3.6-35,7.93-6,24.36,1.38,33,7.33M479.71,160.77c-2.2-3.63-3.09-8-4.32-12.07s-1.43-8.83.33-12.73c2.17-4.83,7.35-7.67,12.09-6.62,5,1.13,8.62,5.75,11.84,10.16,2.36,3.13,3.21,5.05,5.8,8.28a113,113,0,0,0-1.55,24.32c-2.93,3.33-6,6.15-8.93,9.56-6.32-5.79-10.81-13.4-15.26-20.9M497,253c-4.65,2-10.41,2.94-14.5,0-4.77-3.44-5-10.83-2.1-16s8-8.46,13-11.63l-.18.26C498,222.22,504.6,224,508,228s3.4,10.26.91,14.93-7,8-11.88,10.06m11.62,49.89a12.22,12.22,0,0,1-10-.76c-3.77-2.29-5.52-7.14-4.87-11.51s3.32-8.24,6.64-11.14c5.39-4.74,14.68-11.81,19.27-2.88,2.39,4.61,4.82,10,2.91,14.81-1,2.54-3.09,4.47-5.21,6.23a26.87,26.87,0,0,1-8.78,5.25m32.14,50.61c-3.51,1.33-7.8,1.19-10.75-1.17-11.28-9,5-23.7,14-26,13.94-3.59,12.35,13.27,5.74,20.48-2.57,2.77-5.47,5.37-9,6.72m26.37,44.88c-4.47.44-9.25-2-10.91-6.23-3.69-9.37,8.19-19.11,16.67-19.92,10.54-1,8.79,12.34,5,18.85a14.53,14.53,0,0,1-10.74,7.3m28.77,40.8c-5.52-.26-10.44-5.59-9.77-11.08.92-7.88,13.17-16,19.47-9,6.72,7.41,0,20.6-9.7,20.11m41.88,31.6c-16.09-.34-13-24.36,1.61-24.32s13.3,24.62-1.61,24.32m37.83,30.45a10.4,10.4,0,0,1-10.07-1.58c-10.87-9.25,3.67-22.87,11.92-24.74,12.81-2.89,12.09,13.46,6.23,20.17-2.26,2.6-4.86,5-8.08,6.15M721.92,518c-16.1-.33-13-24.36,1.61-24.31s13.29,24.62-1.61,24.31m61.37-25.67C713.92,479,649.81,418.42,604.87,364.56c-47.65-57.12-85.59-131.79-86.34-207.76,2.78-19.81,11.86-45.39,30.18-53.08,14.87-6.22,39.23-2,54.57,5.16-6.17-.08-14.45,1.68-20.51,2-28.17,1.61-48.3,30.55-46.24,58.52,1.35,18.29,6.7,39.06,14,56.06,43.87,103,109.74,189.79,205.62,236.18,22.92,11.11,50.77,18.64,77.17,10.26,15.85-5,27.8-25,30.12-32.94a1.62,1.62,0,0,1,3.17.37,67.48,67.48,0,0,1,.65,19.21c-1.57,13.74-7.26,24.6-15.79,29.11-18.45,9.76-47.14,8.71-68.13,4.67M764,522.74c9.27-4.94,18.28-10,26.92-15.16,10.12,11.37,27.68,20.14,18.6,31.15-11.45,15.64-27.75-4.35-45.52-16"/><path class="cls-4" d="M809,278.24a8.32,8.32,0,0,0,.66-1,8.45,8.45,0,0,0,.56-1,8.84,8.84,0,0,0,.4-1,10.28,10.28,0,0,0,.54-2.6,9.65,9.65,0,0,0,.09-1.07,8.17,8.17,0,0,0,0-1,7,7,0,0,0-.07-1,5.17,5.17,0,0,0-.1-.85,9.45,9.45,0,0,0-.2-1.12c-.08-.44-.19-.89-.3-1.34s-.18-.71-.3-1.06c-.21-.71-.45-1.43-.72-2.14-.34-.87-.69-1.71-1.07-2.57a56.33,56.33,0,0,0-2.73-5.15c-.28-.48-.56-.94-.85-1.39-.41-.68-.83-1.3-1.24-1.94l-.83-1.22c-.27-.41-.53-.79-.8-1.16-.41-.58-.83-1.12-1.2-1.64-1-1.31-1.89-2.46-2.67-3.42-1.37-1.72-2.36-2.82-2.54-3l0,0c.92.47,1.88.91,2.83,1.3.38.17.76.32,1.17.46a9.88,9.88,0,0,0,1.19.42c.53.2,1.08.38,1.62.53l1.17.32c.52.15,1,.26,1.58.36a3.41,3.41,0,0,0,.72.15c.5.1,1,.2,1.52.27.28,0,.54.07.84.08a268.09,268.09,0,0,0-18.62-25.53,308.6,308.6,0,0,0-23.39-24.6,13.89,13.89,0,0,0,.29,1.54.71.71,0,0,0,0,.2,1,1,0,0,1,.05.16c.18.71.36,1.41.57,2.12s.43,1.41.66,2.1c.45,1.39.94,2.75,1.42,4l0,0h0c-.09-.11-.35-.4-.78-.82a1.31,1.31,0,0,1-.23-.24l-.56-.59-1-1.06c-.21-.22-.46-.47-.72-.71s-.36-.33-.53-.51-.59-.59-.94-.91c-.61-.58-1.27-1.18-2-1.79-.24-.23-.48-.46-.74-.67l-.59-.52c-.34-.31-.72-.63-1.11-.94l-.6-.5c-1.13-.93-2.32-1.86-3.54-2.73-.41-.3-.81-.57-1.2-.84a9.42,9.42,0,0,0-.95-.65c-.66-.43-1.34-.87-2-1.27s-1.36-.79-2-1.16a3.42,3.42,0,0,1-.47-.23l-.87-.43a10.66,10.66,0,0,0-1.34-.61l-.68-.27-.42-.17c-.38-.15-.77-.28-1.16-.41a9.38,9.38,0,0,0-1.16-.34,3.1,3.1,0,0,0-.46-.11c-.35-.08-.7-.16-1.05-.22a12.2,12.2,0,0,0-2.14-.24l-1.06,0c-.35,0-.69.06-1,.11a3.89,3.89,0,0,0-.53.09,9.65,9.65,0,0,0-3.53,1.35c-.28.17-.54.35-.81.54s-.44.36-.65.56-.2.2-.31.31l0,0a2.7,2.7,0,0,0-.28.31,5.84,5.84,0,0,0-.83,1.14,4.14,4.14,0,0,0-.35.62,6.56,6.56,0,0,0-.39.91,6.14,6.14,0,0,0-.27.79,12.3,12.3,0,0,0-.47,2.63c0,.54,0,1.09-.06,1.66a11.62,11.62,0,0,0,.07,1.31c0,.46.08.9.15,1.36.09.78.24,1.56.41,2.36.09.41.19.81.27,1.23a43.33,43.33,0,0,0,1.3,4.31,10.52,10.52,0,0,0,.36,1c.12.36.26.7.39,1.08.28.68.56,1.41.87,2.13.42,1,.89,2,1.36,3.06.09.22.2.43.29.64l.62,1.29c.28.54.54,1.07.82,1.63s.71,1.38,1.07,2.08a.48.48,0,0,0,.09.13q.47.9,1,1.77c0,.1.09.19.14.28.28.48.57,1,.84,1.48s.66,1.16,1,1.73c.52.88,1,1.76,1.58,2.63,1.06,1.75,2.14,3.42,3.21,5.05.54.8,1.09,1.61,1.6,2.38.42.62.85,1.25,1.27,1.84s.81,1.16,1.2,1.71l0,0c.38.55.75,1.07,1.13,1.57,1.37,1.85,2.62,3.49,3.74,4.86,2.87,3.56,7.22,8.68,12.27,14,.48.48,1,1,1.43,1.47,1.4,1.41,2.87,2.86,4.35,4.26.9.86,1.8,1.68,2.72,2.5.16.15.34.31.52.45.44.41.87.8,1.32,1.17.29.25.6.53.92.79.62.51,1.24,1,1.86,1.51.93.75,1.87,1.49,2.82,2.17,1.26.92,2.51,1.78,3.74,2.56l0,0c.61.38,1.23.75,1.84,1.11s1.24.72,1.86,1,1.06.53,1.59.75a3.33,3.33,0,0,0,.58.26,9.84,9.84,0,0,0,1,.44c.43.18.87.34,1.31.49a.66.66,0,0,1,.15.05,15.21,15.21,0,0,0,1.46.43,17.53,17.53,0,0,0,3.29.55c.36,0,.73,0,1.08,0a13.48,13.48,0,0,0,1.57-.12,6.89,6.89,0,0,0,1.2-.24c.35-.09.72-.19,1.08-.31s1-.41,1.43-.65a9.88,9.88,0,0,0,1.37-.87,10.32,10.32,0,0,0,2.07-2.05"/><path class="cls-4" d="M806.92,280.28c-14.33,10.84-42.64-21.25-52.82-33.8s-33.81-48.38-21.15-58,36.28,16.94,36.28,16.94a84.19,84.19,0,0,1-2.65-8.27c-.15-.62-.28-1.26-.38-1.9a21.73,21.73,0,0,1,0-9.36,15.3,15.3,0,0,1,5.7-8.38,19,19,0,0,1,9-3.76c23.18-3.35,44.44,20.71,50.63,40.68,2.67,8.6,2.48,20.89-5.32,26.73-.26.21-.54.39-.81.58a25.35,25.35,0,0,1-17.21,3.64c-.3,0-.55,0-.82-.08a38.2,38.2,0,0,1-11.83-3.81s25.68,27.9,11.36,38.75"/></g><g class="cls-3"><path class="cls-4" d="M3126,367.49c-34.5,18.12-66.18,52.92-89,84-5.56,7.54-10.92,16-20.26,21-8.58,4.61-19,5.33-28.65,5.52-36.75.7-74.07.35-111.06.51,31.91-59.8,64.89-115.2,83.17-180.94,20.37-73.42,28.9-149,39-224.19.59-4.49-4-7.8-7-5.63-39.7,27.91-77.34,30.58-124.37,34.46-89.94,7.39-183.68-1.86-278-5.16,2.33,22.12,3.84,31.61,7,48.93,6.31,55.28,19.67,110.34,22.44,166.06,2.94,58.68-6.68,117.6-12.35,175.61-4.84,49.48,1.25,95.51,16.16,141.43,7.37,22.73,19.46,45.78,31,67.65,14.3,27,28.91,55.5,51,77.11,46.45,45.2,118.24,62.09,181.23,57.53,38.58-2.77,78.68-9.15,114.13-25.13,21.08-9.51,39.48-23.79,56.46-39.33,17.87-16.46,35-34.52,47.58-55,51.87-84.45,37.26-192,62.88-285.67a16.88,16.88,0,0,1,3.11-7.07c2.08-2.31,5.08-3.12,7.9-3.76a310.77,310.77,0,0,1,32.41-5.68C3202.53,371.43,3159.67,349.84,3126,367.49ZM2965,761.72c-10.07.8-22.6,4.75-32.68,5.51-4.87-29.09-8.43-48.28-11.7-48.05-4,.19-5.24,34.51-7.8,53.65-10.38-.7-18.54-.44-28.89-1.18,1.91-16.76,8.54-43.28,5.58-43.86-1.94-.55-20,27.84-31.26,43.06-9.94-.6-21-.12-30.89-.72,10.57-12.29,21-26.86,31.62-39.11.72-.85,1.47-1.83,1.23-2.92-.44-1.74-3.23-2.09-4.73-1.07-20.34,13.46-43.68,29-43.68,29s-24.45-2.67-34.21-4.7c17.54-10.3,56.32-36.68,53.87-40.56-1.11-1.8-41.19,13.82-58.49,20.76-3.17,1.25-12.06,4.84-12.06,4.84s-11.69-18.94-14.89-21.91c24.15-9.67,73.48-23.51,72.43-29-2.71-4.74-58,8.92-86.13,9.74.09-8.5-.37-16.36-.22-24.89,25.49-.22,74.11-3.62,74.37-11.41-.87-7.14-54.43-4.6-77-4.69,3.78-17,6.3-33.52,10.11-50.48,39.21,10,76.07,20.57,79.21,14.59.66-5.65-47-18.37-70.37-27.3,6.75-6.58,11.63-13.51,17.63-20.81,23.36,6.35,66.33,23.17,70.08,19.17,3.42-4.45-37.63-28.14-52.89-38.28l45.3-19.76c3.33,1.53,40.94,41,44.38,38.32,1-7.34-22.3-37-29.6-46.29,16.2-2.07,31.48-3,47.81-3.53,4.6,14.7,15.3,51.15,18.7,52.11,3.13.72.15-35.34,1-53,15.81,5.44,31.38,10.51,46.27,18.2-4.15,14.54-15.67,41.39-13,42.65,4.48,2.36,24.06-36.17,26.11-36.64s24.46,13.62,32.68,21.09c-8.87,13.42-25.47,40.52-23.43,42.09,2.82,3.14,23.72-19.23,37.55-25.7a130.49,130.49,0,0,1,19.55,38.65c-19.5,2.34-58.76,13.27-58.36,17.29.61,3.64,42.61-3.42,63.09-3.58-.74,10,2.14,19.8,1.37,29.77-12.66-1.8-39.6-3.22-39.78-.33.16,4,19.07,8,37.3,13.42-6.73,9.64-13.87,24.83-20.59,34.47-18.33-7-46.1-31.52-49.89-29.08-2.28,3.12,29.16,30.26,45.3,43.63a114.93,114.93,0,0,0-35.24,25.3m-33-51-18.53-71c-19.23-32.45-74.43-10.9-67.38,26.06C2869.85,701.92,2960.87,683.5,2928.15,628.27Z"/><path class="cls-4" d="M3126,367.49c-34.5,18.12-66.18,52.92-89,84-5.56,7.54-10.92,16-20.26,21-8.58,4.61-19,5.33-28.65,5.52-36.75.7-74.07.35-111.06.51,31.91-59.8,64.89-115.2,83.17-180.94,20.37-73.42,28.9-149,39-224.19.59-4.49-4-7.8-7-5.63-39.7,27.91-77.34,30.58-124.37,34.46-89.94,7.39-183.68-1.86-278-5.16,2.33,22.12,3.84,31.61,7,48.93,6.31,55.28,19.67,110.34,22.44,166.06,2.94,58.68-6.68,117.6-12.35,175.61-4.84,49.48,1.25,95.51,16.16,141.43,7.37,22.73,19.46,45.78,31,67.65,14.3,27,28.91,55.5,51,77.11,46.45,45.2,118.24,62.09,181.23,57.53,38.58-2.77,78.68-9.15,114.13-25.13,21.08-9.51,39.48-23.79,56.46-39.33,17.87-16.46,35-34.52,47.58-55,51.87-84.45,37.26-192,62.88-285.67a16.88,16.88,0,0,1,3.11-7.07c2.08-2.31,5.08-3.12,7.9-3.76a310.77,310.77,0,0,1,32.41-5.68C3202.53,371.43,3159.67,349.84,3126,367.49ZM2946.68,699.24"/></g><path class="cls-2" d="M2193.75,282.74c-3.23-.26-6.48-.67-9.79-1.2,7.7,16.75,16.42,32.85,24.32,50.11,3.68-5.78,7.54-11.62,12.24-15.73a109,109,0,0,1,8-9.39c.79-.65,1.68-1.26,2.35-1.9,22.85-20.86,60.72-23.52,88.78-11,5.14,2.25,10.13,5.48,14.7,8.17,54.49,32.23,102,153.47,55.48,202.61-35.09,37-75.26,68-123.57,90.55a231.94,231.94,0,0,1-21.94,8.81c-33.53,11.44-70.37,21.87-106,18.8a98.43,98.43,0,0,1-20.09-4c-41.12-12.46-71.87-60.42-84.82-96-10.66-29.31-13.6-66.22-6.17-98.42a115.46,115.46,0,0,1,7.42-21.9c15.14-33.64,47.29-66,86.68-62.94,6.73.52,14.4,1.11,21.6,2.38,10.05,1.76,20,4.18,29.59,6.55-15.3-28.9-24.9-61.5-31.67-94.15-2.95,5.66-6.22,11.1-9.6,16.27-35,53.56-148.2,74-185.92,18-37.81-56.19,134.79-69.95,163.85-61.48a99.39,99.39,0,0,1,17.68,7.5c3.75,2,7.58,4.22,11.39,6.72-1.49-7.93-2.8-15.82-4.05-23.66a213.92,213.92,0,0,1-2.34-27.18c9.71-5.43,20.11-11.54,31.1-12.54a203.28,203.28,0,0,0,.37,30.49,240.06,240.06,0,0,0,4.81,30.87,230.18,230.18,0,0,0,8.38,25.31c.25-2.4.57-4.82.92-7.18a199.21,199.21,0,0,1,4.32-21.38,149.83,149.83,0,0,1,6.47-20.32c26.27-62.3,71-110.36,135.75-128.06,6.05-1.64,12.58-2,18.43-2-14.2,78.75-53.38,183.14-130.76,197.55-5.16.95-11.8.36-17.88-.12"/><path class="cls-2" d="M2467.9,1580c-1.79-2.69-3.48-5.5-5.1-8.43-8.41,16.42-15.66,33.22-24.33,50.11,6.81-.68,13.79-1.27,19.92-.12a107.24,107.24,0,0,1,12.31.45c1,.22,2,.54,2.94.67,30.53,5,56.05,33.16,63.6,62.93,1.41,5.43,2,11.34,2.67,16.59,8.4,62.76-57.47,175.1-124.86,168.94-50.81-4.67-99.94-17.1-147.59-41.08a229.64,229.64,0,0,1-20.49-11.79c-29.73-19.26-60.72-41.76-80.35-71.64a99.31,99.31,0,0,1-9.25-18.28c-15.65-40,3-93.84,23-126,16.44-26.51,43.63-51.64,73.52-65.73a116.44,116.44,0,0,1,21.79-7.72c35.8-8.91,81.08-3.64,103.08,29.17,3.75,5.61,8,12,11.49,18.44,4.83,9,9.1,18.33,13.16,27.31,13.24-29.9,32.92-57.61,54.38-83.13-6.27,1.19-12.57,2-18.72,2.52-63.73,5.64-149.8-70.67-129.15-134.94,20.75-64.46,138.33,62.63,149.65,90.7a98.63,98.63,0,0,1,5.05,18.54c.77,4.16,1.37,8.57,1.77,13.11,5.31-6.08,10.7-12,16.08-17.82a211.18,211.18,0,0,1,19.91-18.65c10.27,4.26,21.51,8.65,29.09,16.67a202.84,202.84,0,0,0-23.72,19.15,239.83,239.83,0,0,0-21.29,22.88,231.9,231.9,0,0,0-14.7,22.24c2-1.28,4.14-2.53,6.21-3.72a199.68,199.68,0,0,1,19.48-9.83,147.36,147.36,0,0,1,20-7.48c65.2-17.91,130.6-12.52,184.59,27.43,5,3.74,9.34,8.65,13,13.22-70.66,37.56-176.91,71.36-236.11,19.47-3.94-3.47-7.58-9.05-11-14.13"/><path class="cls-2" d="M1064.52,1079.08c24.21,57.53,56.31,112,82.29,167.69,29.92,64.13,58.29,133,82.83,198.74,12.84,34.39,38.15,79.64,73.17,96.75,18.75,9.17,51,12,70.48-3.22,18-14.09,34.59-42.65,30.43-63.84-5.84-29.68-23.15-58.48-40.67-82.56-83.09-114.1-177.78-221.46-265.89-332.88,32.27-37.28,37.68-89.93,22.57-131.32-12.54-34.35-34.07-62-62.46-86.26-24.55-21-59.61-34.32-92.86-39.29-33.49-5-58.92,29.5-64.17,58.57-7.75,42.91-3.06,99.62,12.55,138.14,22.82,56.36,94.66,71.23,151.73,79.48"/><path class="cls-2" d="M2641.17,1072.28c24.22,57.53,56.31,112,82.29,167.68,29.93,64.14,58.29,133,82.83,198.75,12.85,34.38,38.15,79.64,73.17,96.75,18.75,9.16,51.06,12,70.49-3.22,18.05-14.1,34.58-42.65,30.42-63.84-5.83-29.69-23.14-58.48-40.67-82.56-83.08-114.11-177.78-221.46-265.89-332.89,32.27-37.27,37.68-89.92,22.57-131.31-12.53-34.35-34.07-62-62.46-86.26-24.54-21-59.6-34.32-92.86-39.29-33.48-5-58.92,29.5-64.17,58.57-7.75,42.91-3,99.61,12.55,138.14,22.82,56.36,94.67,71.23,151.73,79.48"/><path class="cls-5" d="M446.68,1422.68a1.09,1.09,0,0,0,0-2.17,1.09,1.09,0,0,0,0,2.17Z"/></g></svg>