<svg id="Layer_1" data-name="Layer 1" xmlns="http://www.w3.org/2000/svg" viewBox="0 0 464 361"><defs><style>.cls-1{fill:#fff;}</style></defs><path class="cls-1" d="M119.29,286.05v-.59l1.86.11h1.14c.32,0,.82,0,1.5-.05l.72,0a7.79,7.79,0,0,1,1.49.11,3,3,0,0,1,1.21.5,2.78,2.78,0,0,1,.77,1,2.61,2.61,0,0,1,.33,1.18,3,3,0,0,1-.86,2.21,2.92,2.92,0,0,1-2.16.85,3.43,3.43,0,0,1-.86-.11,2.76,2.76,0,0,1-.77-.33,3.42,3.42,0,0,1,0-.62l.34,0h.27a1.7,1.7,0,0,0,1.12-.37,1.87,1.87,0,0,0,.6-1.55,2.74,2.74,0,0,0-.26-1.26,1.54,1.54,0,0,0-.62-.66,2.75,2.75,0,0,0-1.13-.23,1.53,1.53,0,0,0-.83.17.62.62,0,0,0-.1.2l.06,3.68,0,.31,0,.33a2.73,2.73,0,0,1,0,.32v1.67l0,1.22c0,.17,0,.4.05.69l1.56.2a1.89,1.89,0,0,1,0,.29,2.86,2.86,0,0,1,0,.33l-.3,0c-.16,0-.46,0-.91-.06s-1-.05-1.53-.05a13.69,13.69,0,0,0-1.85.12,3.56,3.56,0,0,1-.47,0,2.75,2.75,0,0,1,0-.34s0-.12,0-.21l.47-.16a4,4,0,0,0,.86-.36,1.68,1.68,0,0,0,.07-.41c0-.06,0-.12,0-.18s0-.39,0-.68l0-2.2-.09-2.48c0-1.17-.06-1.81-.08-1.9a.78.78,0,0,0-.19-.36,1,1,0,0,0-.45-.18A6.08,6.08,0,0,1,119.29,286.05Z"/><path class="cls-1" d="M129.11,291.5a3.88,3.88,0,0,1,.36-.89,4.13,4.13,0,0,1,.94-1,2.86,2.86,0,0,1,.89-.47,3.11,3.11,0,0,1,.84-.15,4.77,4.77,0,0,1,1.18.11,2.32,2.32,0,0,1,.76.32,4.09,4.09,0,0,1,.71.62,2.76,2.76,0,0,1,.43.73,3.11,3.11,0,0,1,.18,1l-.86,0c-.24,0-.77,0-1.58-.07l-.63,0-.84,0h-.67a1.54,1.54,0,0,0,0,.19,3.87,3.87,0,0,0,.1.87,2.68,2.68,0,0,0,.31.81,2.22,2.22,0,0,0,.5.6,2.32,2.32,0,0,0,.62.36l.46.15a6.12,6.12,0,0,0,.8,0,3.44,3.44,0,0,0,.66-.2,4,4,0,0,0,.69-.41,4.3,4.3,0,0,1,.47.37,4.4,4.4,0,0,1-1.43,1.09,3.84,3.84,0,0,1-1.65.34,3.57,3.57,0,0,1-1-.11,2.87,2.87,0,0,1-.94-.43,2.93,2.93,0,0,1-.73-.72,3.33,3.33,0,0,1-.45-.88,3.28,3.28,0,0,1-.2-.95A6.46,6.46,0,0,1,129.11,291.5Zm4.54-.33a2.14,2.14,0,0,0-.17-.84,1.33,1.33,0,0,0-.51-.63,1.2,1.2,0,0,0-1.64.24,2,2,0,0,0-.47,1.25l1.78,0,.48,0,.32,0Z"/><path class="cls-1" d="M136.26,295.25a1.65,1.65,0,0,1,.38-.12,2.3,2.3,0,0,0,.5-.12.39.39,0,0,0,.15-.17,3.16,3.16,0,0,0,.05-.69v-1.24l0-.82v-.49a3.63,3.63,0,0,0-.07-.81.46.46,0,0,0-.2-.23,2.32,2.32,0,0,0-.74-.31v-.37l.18-.05a4.37,4.37,0,0,0,.63-.15,4.25,4.25,0,0,0,.56-.22l.12-.07.21-.15a3,3,0,0,0,.57-.57l.42,0,0,.88a1.79,1.79,0,0,0,0,.21s0,.16,0,.36a4.25,4.25,0,0,1,1.18-.78,3.29,3.29,0,0,1,1.32-.29,2.32,2.32,0,0,1,1.29.36,1.72,1.72,0,0,1,.72.84,6.69,6.69,0,0,1,.17,1.93l0,2.55a.67.67,0,0,0,.06.3,1.87,1.87,0,0,0,.43.11l.39.07a.49.49,0,0,1,.07.25c0,.06,0,.14,0,.25l-1.53-.11-.46,0h-.36l-1,.07h-.26a1,1,0,0,1,0-.15c0-.09,0-.19,0-.3l.54-.08a1.32,1.32,0,0,0,.26-.05c.1,0,.16-.08.18-.13a1.34,1.34,0,0,0,.06-.5c0-.44,0-.78,0-1v-.91a5.89,5.89,0,0,0-.21-2.06.93.93,0,0,0-.89-.58,2.05,2.05,0,0,0-.9.22,4.35,4.35,0,0,0-1,.67v1.15l0,1.25,0,.2a4.74,4.74,0,0,0,.11,1.44q.09.17.78.36c0,.09,0,.16,0,.2a1.58,1.58,0,0,1,0,.29h-.41a3.21,3.21,0,0,1-.52-.05l-.84,0c-.41,0-1,0-1.8.06a.32.32,0,0,1,0-.16S136.26,295.37,136.26,295.25Zm6.34-9.41h.45a2.23,2.23,0,0,1-.48,1.52,1.47,1.47,0,0,1-1.15.53,2.72,2.72,0,0,1-.63-.08,6.72,6.72,0,0,1-.8-.29,5,5,0,0,0-.67-.26,1,1,0,0,0-.31,0,.6.6,0,0,0-.42.13,1,1,0,0,0-.26.53h-.46a1.88,1.88,0,0,0,0-.29,1.8,1.8,0,0,1,.5-1.25,1.47,1.47,0,0,1,1.09-.51,2.8,2.8,0,0,1,.59.07,7,7,0,0,1,.82.3l.69.27a1.84,1.84,0,0,0,.39,0,.56.56,0,0,0,.39-.13A1.17,1.17,0,0,0,142.6,285.84Z"/><path class="cls-1" d="M152,294.17l.18.12a.22.22,0,0,1,.09.13v0a1.94,1.94,0,0,1-.49,1,1.12,1.12,0,0,1-.76.26,1.24,1.24,0,0,1-.79-.25,2.11,2.11,0,0,1-.61-.9,2.12,2.12,0,0,1-.95.9,3.32,3.32,0,0,1-1.49.3,1.73,1.73,0,0,1-1.19-.34,1.14,1.14,0,0,1-.39-.9,1.27,1.27,0,0,1,.12-.52,1.66,1.66,0,0,1,.36-.53,4,4,0,0,1,.82-.57l.59-.27,1.95-.78c0-.2,0-.4,0-.6a2.73,2.73,0,0,0-.26-1.44.6.6,0,0,0-.54-.23,1.72,1.72,0,0,0-.72.15,1,1,0,0,0-.48.38,1.93,1.93,0,0,0-.18.65,1.26,1.26,0,0,1-.11.4,1,1,0,0,1-.42.27l-.42.17a1.65,1.65,0,0,1-.67.21.33.33,0,0,1-.11-.27,1.47,1.47,0,0,1,.19-.77,3.25,3.25,0,0,1,.84-.87,3.75,3.75,0,0,1,1.06-.6,5.25,5.25,0,0,1,1.64-.22,2.39,2.39,0,0,1,1.08.23,1.21,1.21,0,0,1,.62.68,5.09,5.09,0,0,1,.18,1.64l0,1.29,0,.94v.24a.8.8,0,0,0,.09.45.26.26,0,0,0,.22.12.24.24,0,0,0,.15,0l.23-.37Zm-2.56-1.81a4.89,4.89,0,0,0-1,.5,2.37,2.37,0,0,0-.78.7,1.23,1.23,0,0,0-.16.63.75.75,0,0,0,.21.55.6.6,0,0,0,.47.22,1.12,1.12,0,0,0,.74-.25,1.49,1.49,0,0,0,.48-.53,4.79,4.79,0,0,0,.07-1.13Q149.47,292.71,149.44,292.36Z"/><path class="cls-1" d="M152.5,295.29a.92.92,0,0,1,.45-.15c.36,0,.57-.09.62-.16a1.44,1.44,0,0,0,.16-.83V292l0-.52v-3.69a3.17,3.17,0,0,0-.1-.95,1.14,1.14,0,0,0-.59-.16,2,2,0,0,1-.36,0c0-.13,0-.23,0-.29a.71.71,0,0,1,0-.14,5.22,5.22,0,0,0,1.28-.32,4.2,4.2,0,0,0,1-.5h.42c0,1.8,0,3,0,3.7,0,.2,0,.36,0,.48v3.65l0,1.14v.18a.74.74,0,0,0,.11.48.61.61,0,0,0,.39.13l.65.07a1.76,1.76,0,0,1,0,.27c0,.05,0,.12,0,.22l-.62,0q-.51,0-1.29,0h-.29c-.3,0-.73,0-1.29.07h-.57Z"/><path class="cls-1" d="M163.38,290a3,3,0,0,1,.74,1.11,3.13,3.13,0,0,1,.25,1.18,3.83,3.83,0,0,1-.32,1.69,3.21,3.21,0,0,1-1.31,1.43,4.2,4.2,0,0,1-4-.08,3.33,3.33,0,0,1-1.21-1.25,3.59,3.59,0,0,1-.37-1.72,3.49,3.49,0,0,1,.17-1.05,3.08,3.08,0,0,1,.48-.92,3.33,3.33,0,0,1,1.71-1.19,4.34,4.34,0,0,1,1.28-.16A3.35,3.35,0,0,1,163.38,290Zm-4.27,2.7c0,.64.08,1,.1,1.12a2.59,2.59,0,0,0,.32.9,1.32,1.32,0,0,0,.49.43,1.74,1.74,0,0,0,.82.18,1.36,1.36,0,0,0,1-.36,2.11,2.11,0,0,0,.56-1.14,8.23,8.23,0,0,0,.11-1.66,3.26,3.26,0,0,0-.47-2,1.5,1.5,0,0,0-1.23-.59,1.48,1.48,0,0,0-1,.34,1.83,1.83,0,0,0-.55,1A11.41,11.41,0,0,0,159.11,292.65Z"/><path class="cls-1" d="M165,295.29a.92.92,0,0,1,.45-.15c.36,0,.57-.09.62-.16a1.44,1.44,0,0,0,.16-.83V292l0-.52v-3.69a3.17,3.17,0,0,0-.1-.95,1.14,1.14,0,0,0-.59-.16,2,2,0,0,1-.36,0c0-.13,0-.23,0-.29a.71.71,0,0,1,0-.14,5.22,5.22,0,0,0,1.28-.32,4.2,4.2,0,0,0,1-.5h.42c0,1.8,0,3,0,3.7,0,.2,0,.36,0,.48v3.65l0,1.14v.18a.74.74,0,0,0,.11.48.61.61,0,0,0,.39.13l.65.07a1.76,1.76,0,0,1,0,.27c0,.05,0,.12,0,.22l-.62,0q-.51,0-1.29,0h-.29c-.3,0-.73,0-1.29.07H165Z"/><path class="cls-1" d="M169.78,291.5a3.13,3.13,0,0,1,.36-.89,4.11,4.11,0,0,1,.93-1,2.86,2.86,0,0,1,.89-.47,3.24,3.24,0,0,1,.84-.15,4.86,4.86,0,0,1,1.19.11,2.52,2.52,0,0,1,.76.32,4,4,0,0,1,.7.62,2.51,2.51,0,0,1,.43.73,2.87,2.87,0,0,1,.19,1l-.87,0c-.24,0-.77,0-1.58-.07l-.62,0-.85,0h-.67a1.54,1.54,0,0,0,0,.19,3.91,3.91,0,0,0,.11.87,2.67,2.67,0,0,0,.3.81,2.26,2.26,0,0,0,.51.6,2.18,2.18,0,0,0,.62.36l.45.15a6,6,0,0,0,.8,0,3.44,3.44,0,0,0,.66-.2,4.38,4.38,0,0,0,.7-.41,5.25,5.25,0,0,1,.46.37,4.37,4.37,0,0,1-1.42,1.09,3.84,3.84,0,0,1-1.65.34,3.53,3.53,0,0,1-1-.11,2.83,2.83,0,0,1-1-.43,2.74,2.74,0,0,1-.72-.72,3.1,3.1,0,0,1-.46-.88,3.21,3.21,0,0,1-.19-.95A5.74,5.74,0,0,1,169.78,291.5Zm4.54-.33a2.34,2.34,0,0,0-.18-.84,1.31,1.31,0,0,0-1.2-.85,1.24,1.24,0,0,0-.94.46,2,2,0,0,0-.48,1.25l1.78,0,.49,0,.32,0Zm-2.28-3c.16-.58.42-1.41.79-2.51l2.14,0-2.35,2.5h-.34Z"/><path class="cls-1" d="M176.93,295.25a1.58,1.58,0,0,1,.37-.12,2.13,2.13,0,0,0,.5-.12.42.42,0,0,0,.16-.17,3.4,3.4,0,0,0,0-.69v-1.24l0-.82v-.49a3.56,3.56,0,0,0-.08-.81.46.46,0,0,0-.2-.23,2.32,2.32,0,0,0-.74-.31v-.37l.19-.05a5.14,5.14,0,0,0,.63-.15,3.92,3.92,0,0,0,.55-.22l.13-.07.21-.15a3.35,3.35,0,0,0,.56-.57l.42,0v.88c0,.09,0,.16,0,.21s0,.16,0,.36a4.23,4.23,0,0,1,1.17-.78,3.36,3.36,0,0,1,1.32-.29,2.32,2.32,0,0,1,1.29.36,1.67,1.67,0,0,1,.72.84,6.58,6.58,0,0,1,.18,1.93l0,2.55a.67.67,0,0,0,.06.3,1.59,1.59,0,0,0,.43.11l.38.07a.41.41,0,0,1,.07.25c0,.06,0,.14,0,.25l-1.53-.11-.45,0h-.36l-1,.07h-.27c0-.07,0-.12,0-.15s0-.19,0-.3l.55-.08a1.38,1.38,0,0,0,.25-.05c.11,0,.17-.08.18-.13a1.11,1.11,0,0,0,.07-.5c0-.44,0-.78,0-1v-.91a5.89,5.89,0,0,0-.21-2.06,1,1,0,0,0-.89-.58,2.13,2.13,0,0,0-.91.22,4.1,4.1,0,0,0-1,.67l0,.14,0,.49,0,.52,0,1.25v.2a4.93,4.93,0,0,0,.1,1.44,1.61,1.61,0,0,0,.78.36.87.87,0,0,1,0,.2,1,1,0,0,1,0,.29h-.41a3,3,0,0,1-.51-.05l-.84,0c-.42,0-1,0-1.81.06a.45.45,0,0,1,0-.16S176.92,295.37,176.93,295.25Z"/><path class="cls-1" d="M190,291.67h3.71a3.38,3.38,0,0,1,.47,0c0,.25,0,.43.05.55v.13l0,.41a1.55,1.55,0,0,0,0,.23v.14H190v-.35c0-.12,0-.27,0-.43a1.53,1.53,0,0,0,0-.18v-.39Z"/><path class="cls-1" d="M208.38,285.69c.07.16.2.6.41,1.34a3.62,3.62,0,0,1,.15,1.06h-.71a5.19,5.19,0,0,0-1.55-1.53,3.45,3.45,0,0,0-1.78-.46,2.34,2.34,0,0,0-2,.94,5.68,5.68,0,0,0-1,3.57,7.41,7.41,0,0,0,.17,1.89,5,5,0,0,0,.71,1.49,2.28,2.28,0,0,0,.86.7,3.25,3.25,0,0,0,1.47.35,3,3,0,0,0,1.66-.53,6,6,0,0,0,1.54-1.59,4.58,4.58,0,0,1,.76-.07c0,.2-.06.41-.11.62s-.07.41-.18,1l-.07.23-.11.37a3.28,3.28,0,0,1-1.34.55,10.53,10.53,0,0,1-2.12.18,8.75,8.75,0,0,1-1.81-.18,4.42,4.42,0,0,1-1.47-.57,5.32,5.32,0,0,1-1.4-1.22,4.55,4.55,0,0,1-.75-1.43,5.78,5.78,0,0,1-.25-1.73,5.22,5.22,0,0,1,1.54-3.85A5.34,5.34,0,0,1,205,285.3a15,15,0,0,1,1.82.1A10.84,10.84,0,0,1,208.38,285.69Z"/><path class="cls-1" d="M209.91,295.15l.7-.09a.51.51,0,0,0,.31-.11,1.24,1.24,0,0,0,.08-.56v-.55l0-.59v-1.19l0-.13,0-2.83v-.22a11.86,11.86,0,0,0-.08-1.8.52.52,0,0,0-.22-.32,2.59,2.59,0,0,0-.83-.22v-.16c0-.08,0-.18,0-.29l.66-.14.37-.1a5.76,5.76,0,0,0,1.11-.39l.21-.11.43,0,0,4.67a5.52,5.52,0,0,1,1.3-.8,3.33,3.33,0,0,1,1.21-.23,2.46,2.46,0,0,1,1.05.21,2,2,0,0,1,.68.53,2.08,2.08,0,0,1,.34.77,6.15,6.15,0,0,1,.07,1.18v1.6l0,1.59c0,.05,0,.08.07.09a2.14,2.14,0,0,0,.46.11l.33.07a.45.45,0,0,1,.06.19v.06a1.78,1.78,0,0,0,0,.26h-.18l-.46,0c-.44,0-.81-.06-1.1-.06l-.78,0h-.87a.41.41,0,0,1-.16,0v-.29a.67.67,0,0,1,0-.17,1.08,1.08,0,0,1,.42-.11l.45-.06c0-.1,0-.16,0-.19l0-1.14v-1.92a4.8,4.8,0,0,0-.09-1.15,1,1,0,0,0-.39-.49,1.29,1.29,0,0,0-.72-.19,2.19,2.19,0,0,0-1,.23,3.06,3.06,0,0,0-.79.54v1.37c0,.75,0,1.31,0,1.69,0,.22,0,.36,0,.42a2.46,2.46,0,0,0,.07.74.31.31,0,0,0,.17.17l.48,0a.9.9,0,0,1,.31,0c0,.12,0,.21,0,.26a1.48,1.48,0,0,1,0,.27l-.87,0-.88,0-1.1,0h-.77a1.57,1.57,0,0,1-.16-.39Z"/><path class="cls-1" d="M225.68,294.17l.18.12a.26.26,0,0,1,.08.13v0a1.94,1.94,0,0,1-.49,1,1.12,1.12,0,0,1-.76.26,1.24,1.24,0,0,1-.79-.25,2.2,2.2,0,0,1-.61-.9,2.15,2.15,0,0,1-.94.9,3.4,3.4,0,0,1-1.5.3,1.73,1.73,0,0,1-1.19-.34,1.14,1.14,0,0,1-.38-.9,1.25,1.25,0,0,1,.11-.52,1.71,1.71,0,0,1,.37-.53,3.65,3.65,0,0,1,.81-.57l.6-.27,1.94-.78c0-.2,0-.4,0-.6a2.86,2.86,0,0,0-.25-1.44.63.63,0,0,0-.55-.23,1.72,1.72,0,0,0-.72.15,1,1,0,0,0-.48.38,1.93,1.93,0,0,0-.18.65,1.39,1.39,0,0,1-.1.4,1,1,0,0,1-.43.27l-.42.17a1.61,1.61,0,0,1-.67.21.37.37,0,0,1-.11-.27,1.47,1.47,0,0,1,.19-.77,3.3,3.3,0,0,1,.85-.87,3.71,3.71,0,0,1,1-.6,5.25,5.25,0,0,1,1.64-.22,2.39,2.39,0,0,1,1.08.23,1.21,1.21,0,0,1,.62.68,5.09,5.09,0,0,1,.18,1.64l0,1.29,0,.94v.24a.8.8,0,0,0,.09.45.27.27,0,0,0,.23.12.23.23,0,0,0,.14,0l.24-.37Zm-2.57-1.81a5.15,5.15,0,0,0-1,.5,2.37,2.37,0,0,0-.78.7,1.22,1.22,0,0,0-.15.63.75.75,0,0,0,.2.55.6.6,0,0,0,.47.22,1.11,1.11,0,0,0,.74-.25,1.39,1.39,0,0,0,.48-.53,4.79,4.79,0,0,0,.07-1.13Q223.14,292.71,223.11,292.36Z"/><path class="cls-1" d="M226.43,295.25a1.65,1.65,0,0,1,.38-.12,2.3,2.3,0,0,0,.5-.12.34.34,0,0,0,.15-.17,2.62,2.62,0,0,0,0-.69v-1.24l0-.82v-.49a3.56,3.56,0,0,0-.08-.81.46.46,0,0,0-.2-.23,2.32,2.32,0,0,0-.74-.31v-.37l.19-.05a5.14,5.14,0,0,0,.63-.15,3.92,3.92,0,0,0,.55-.22l.12-.07.22-.15a3.35,3.35,0,0,0,.56-.57l.42,0,0,.88a1.79,1.79,0,0,0,0,.21s0,.16,0,.36a4.4,4.4,0,0,1,1.18-.78,3.32,3.32,0,0,1,1.32-.29,2.32,2.32,0,0,1,1.29.36,1.67,1.67,0,0,1,.72.84,6.69,6.69,0,0,1,.17,1.93l0,2.55a.56.56,0,0,0,.07.3,1.59,1.59,0,0,0,.43.11l.38.07a.49.49,0,0,1,.07.25c0,.06,0,.14,0,.25l-1.53-.11-.45,0h-.36l-1,.07h-.27a1,1,0,0,1,0-.15c0-.09,0-.19,0-.3l.54-.08a1.32,1.32,0,0,0,.26-.05c.11,0,.17-.08.18-.13a1.34,1.34,0,0,0,.06-.5v-1.92a5.89,5.89,0,0,0-.21-2.06.93.93,0,0,0-.88-.58,2.06,2.06,0,0,0-.91.22,4.1,4.1,0,0,0-1,.67l0,.14,0,.49,0,.52,0,1.25v.2a4.93,4.93,0,0,0,.1,1.44,1.61,1.61,0,0,0,.78.36c0,.09,0,.16,0,.2a1.58,1.58,0,0,1-.05.29h-.41a3.21,3.21,0,0,1-.52-.05l-.83,0c-.42,0-1,0-1.81.06a.45.45,0,0,1,0-.16Zm6.34-9.41h.45a2.18,2.18,0,0,1-.48,1.52,1.47,1.47,0,0,1-1.15.53,2.72,2.72,0,0,1-.63-.08,6.72,6.72,0,0,1-.8-.29,5.84,5.84,0,0,0-.66-.26,1.12,1.12,0,0,0-.32,0,.6.6,0,0,0-.42.13,1.08,1.08,0,0,0-.26.53H228a1.88,1.88,0,0,0,0-.29,1.8,1.8,0,0,1,.5-1.25,1.47,1.47,0,0,1,1.09-.51,2.8,2.8,0,0,1,.59.07,7,7,0,0,1,.82.3l.7.27a1.84,1.84,0,0,0,.39,0,.55.55,0,0,0,.38-.13A1.17,1.17,0,0,0,232.77,285.84Z"/><path class="cls-1" d="M242.18,294.17l.18.12a.26.26,0,0,1,.08.13v0a1.94,1.94,0,0,1-.49,1,1.12,1.12,0,0,1-.76.26,1.24,1.24,0,0,1-.79-.25,2.2,2.2,0,0,1-.61-.9,2.15,2.15,0,0,1-.94.9,3.4,3.4,0,0,1-1.5.3,1.73,1.73,0,0,1-1.19-.34,1.14,1.14,0,0,1-.38-.9,1.25,1.25,0,0,1,.11-.52,1.71,1.71,0,0,1,.37-.53,3.65,3.65,0,0,1,.81-.57l.6-.27,1.94-.78c0-.2,0-.4,0-.6a2.86,2.86,0,0,0-.25-1.44.63.63,0,0,0-.55-.23,1.72,1.72,0,0,0-.72.15,1,1,0,0,0-.48.38,1.93,1.93,0,0,0-.18.65,1.39,1.39,0,0,1-.1.4,1,1,0,0,1-.43.27l-.42.17a1.61,1.61,0,0,1-.67.21.37.37,0,0,1-.11-.27,1.47,1.47,0,0,1,.19-.77,3.3,3.3,0,0,1,.85-.87,3.71,3.71,0,0,1,1-.6,5.25,5.25,0,0,1,1.64-.22,2.39,2.39,0,0,1,1.08.23,1.21,1.21,0,0,1,.62.68,5.09,5.09,0,0,1,.18,1.64l0,1.29,0,.94v.24a.8.8,0,0,0,.09.45.27.27,0,0,0,.23.12.23.23,0,0,0,.14,0l.24-.37Zm-2.57-1.81a5.15,5.15,0,0,0-1,.5,2.37,2.37,0,0,0-.78.7,1.22,1.22,0,0,0-.15.63.75.75,0,0,0,.2.55.6.6,0,0,0,.47.22,1.11,1.11,0,0,0,.74-.25,1.39,1.39,0,0,0,.48-.53,4.79,4.79,0,0,0,.07-1.13Q239.64,292.71,239.61,292.36Z"/><path class="cls-1" d="M242.92,295.25a.64.64,0,0,1,.26-.13,2.39,2.39,0,0,0,.76-.31,5.78,5.78,0,0,0,.07-1.27c0-1.31,0-2.2-.08-2.66a.34.34,0,0,0-.13-.22,2.17,2.17,0,0,0-.53-.18.24.24,0,0,1-.19-.17l0-.29a2.49,2.49,0,0,0,1.05-.4,2.76,2.76,0,0,0,.7-.64,1.33,1.33,0,0,1,.22-.27l.54,0a1.24,1.24,0,0,1,0,.3v.21c0,.18,0,.33,0,.45s0,.27,0,.65c.21-.36.37-.61.46-.74l.42-.38a1.06,1.06,0,0,1,1.32.09.86.86,0,0,1,.3.65,1,1,0,0,1-.23.66.75.75,0,0,1-.61.29,1.14,1.14,0,0,1-.7-.28.63.63,0,0,0-.36-.17h-.05a.62.62,0,0,0-.3.3,1.7,1.7,0,0,0-.22.81l0,.21c0,.38,0,1.28.05,2.7a.79.79,0,0,0,.15.39.88.88,0,0,0,.28.16,2.94,2.94,0,0,0,.5.07,1.2,1.2,0,0,1,.44.1.29.29,0,0,1,.08.22.8.8,0,0,1,0,.23h-.73l-1.49-.07c-.38,0-.72,0-1,0h-.13l-.81,0a1,1,0,0,1,0-.2A.82.82,0,0,1,242.92,295.25Z"/><path class="cls-1" d="M255.34,294.17l.18.12a.28.28,0,0,1,.09.13v0a1.86,1.86,0,0,1-.49,1,1.08,1.08,0,0,1-.76.26,1.26,1.26,0,0,1-.79-.25,2.19,2.19,0,0,1-.6-.9,2.17,2.17,0,0,1-.95.9,3.35,3.35,0,0,1-1.49.3,1.77,1.77,0,0,1-1.2-.34,1.17,1.17,0,0,1-.38-.9,1.43,1.43,0,0,1,.11-.52,1.89,1.89,0,0,1,.37-.53,3.76,3.76,0,0,1,.82-.57l.59-.27,1.95-.78c0-.2,0-.4,0-.6a2.83,2.83,0,0,0-.26-1.44.62.62,0,0,0-.55-.23,1.64,1.64,0,0,0-.71.15,1,1,0,0,0-.48.38,1.88,1.88,0,0,0-.19.65,1.39,1.39,0,0,1-.1.4,1,1,0,0,1-.43.27l-.41.17a1.69,1.69,0,0,1-.68.21.37.37,0,0,1-.11-.27,1.57,1.57,0,0,1,.19-.77,3.3,3.3,0,0,1,.85-.87,3.75,3.75,0,0,1,1.06-.6,5.21,5.21,0,0,1,1.64-.22,2.35,2.35,0,0,1,1.07.23,1.27,1.27,0,0,1,.63.68,5.16,5.16,0,0,1,.17,1.64v2.47a.8.8,0,0,0,.09.45.28.28,0,0,0,.23.12.21.21,0,0,0,.14,0l.24-.37Zm-2.56-1.81a5.2,5.2,0,0,0-1,.5,2.23,2.23,0,0,0-.77.7,1.14,1.14,0,0,0-.16.63.79.79,0,0,0,.2.55.62.62,0,0,0,.47.22,1.11,1.11,0,0,0,.74-.25,1.55,1.55,0,0,0,.49-.53,4.79,4.79,0,0,0,.07-1.13Q252.81,292.71,252.78,292.36Z"/><path class="cls-1" d="M255.83,295.29a1,1,0,0,1,.46-.15c.36,0,.57-.09.62-.16a1.53,1.53,0,0,0,.16-.83V292l0-.52v-3.69a3.1,3.1,0,0,0-.11-.95,1.11,1.11,0,0,0-.59-.16,2,2,0,0,1-.35,0,2.16,2.16,0,0,1,0-.29.78.78,0,0,1,0-.14,5.33,5.33,0,0,0,1.28-.32,4.1,4.1,0,0,0,1-.5h.42c0,1.8.05,3,.05,3.7,0,.2,0,.36,0,.48v0l0,.15v4.78a.8.8,0,0,0,.11.48.64.64,0,0,0,.4.13l.64.07a1,1,0,0,1,0,.27,2,2,0,0,1,0,.22l-.62,0c-.35,0-.78,0-1.3,0h-.29c-.29,0-.72,0-1.29.07h-.57Z"/><path class="cls-1" d="M266,289.65a2.9,2.9,0,0,1,.74-.38,4.63,4.63,0,0,1,1-.18h.43a2.69,2.69,0,0,1,1.64.58V289l0-.83a4,4,0,0,0-.21-1.67.44.44,0,0,0-.41-.23,1.21,1.21,0,0,1-.47-.1v-.38a1.35,1.35,0,0,1,.38-.05,4.79,4.79,0,0,0,.92-.16l.26-.05.78-.18.28-.06.13,0a1.13,1.13,0,0,1,.05.24v.26c0,.14,0,.53,0,1.16v1l0,.81,0,.48c0,.21,0,.54,0,1,0,.08,0,.14,0,.2v.29c0,.08,0,.14,0,.19a2.63,2.63,0,0,0,0,.33v.6c0,.15,0,.36,0,.62s0,.52,0,.74,0,.16,0,.24V294c0,.19,0,.41,0,.68a2.37,2.37,0,0,0,.69.12l.31,0a.86.86,0,0,1,0,.17.52.52,0,0,1-.05.21,6.66,6.66,0,0,1-.67.12,4.89,4.89,0,0,0-1.53.37.67.67,0,0,1-.3.13l-.2,0a1.53,1.53,0,0,0,0-.18c0-.35,0-.58,0-.68l-.29.16a4.11,4.11,0,0,1-.95.44,3.73,3.73,0,0,1-1,.12,2.9,2.9,0,0,1-1.57-.37,3,3,0,0,1-1.2-1.31,4.2,4.2,0,0,1-.33-1.68A3.34,3.34,0,0,1,266,289.65Zm2.41,5.16a1.47,1.47,0,0,0,.28,0,1.63,1.63,0,0,0,.55-.11,3,3,0,0,0,.62-.31c0-.17,0-.28,0-.32,0-1.65,0-2.65-.07-3a1.59,1.59,0,0,0-.51-1,1.52,1.52,0,0,0-1-.37,1.78,1.78,0,0,0-.65.12,1.34,1.34,0,0,0-.5.36,2.32,2.32,0,0,0-.44.78,3.55,3.55,0,0,0-.21,1.14,3.06,3.06,0,0,0,.54,2A2,2,0,0,0,268.41,294.81Z"/><path class="cls-1" d="M273.45,291.5a3.13,3.13,0,0,1,.36-.89,4.11,4.11,0,0,1,.93-1,2.79,2.79,0,0,1,.9-.47,3.11,3.11,0,0,1,.83-.15,4.86,4.86,0,0,1,1.19.11,2.52,2.52,0,0,1,.76.32,4,4,0,0,1,.7.62,2.51,2.51,0,0,1,.43.73,2.87,2.87,0,0,1,.19,1l-.87,0c-.24,0-.76,0-1.58-.07l-.62,0-.85,0h-.67a1.34,1.34,0,0,0,0,.19,3.87,3.87,0,0,0,.1.87,3,3,0,0,0,.3.81,2.46,2.46,0,0,0,.51.6,2.18,2.18,0,0,0,.62.36l.45.15a6.31,6.31,0,0,0,.81,0,3.44,3.44,0,0,0,.66-.2,4,4,0,0,0,.69-.41c.18.13.34.26.47.37a4.5,4.5,0,0,1-1.43,1.09,3.84,3.84,0,0,1-1.65.34,3.57,3.57,0,0,1-1-.11,2.92,2.92,0,0,1-1-.43,2.74,2.74,0,0,1-.72-.72,3.06,3.06,0,0,1-.45-.88,3.28,3.28,0,0,1-.2-.95A6.46,6.46,0,0,1,273.45,291.5Zm4.54-.33a2.33,2.33,0,0,0-.17-.84,1.33,1.33,0,0,0-.51-.63,1.25,1.25,0,0,0-.7-.22,1.24,1.24,0,0,0-.94.46,2,2,0,0,0-.48,1.25l1.78,0,.49,0,.32,0Z"/><path class="cls-1" d="M284.07,295.64l0-.54a4.24,4.24,0,0,1,.52-.11,2.53,2.53,0,0,0,.73-.21,1.4,1.4,0,0,0,.32-.46l1.58-4.13,1.85-4.85h.85l.07.14,1.36,3.22c.3.68.58,1.34.82,2s.46,1.16.64,1.57c.1.25.24.61.42,1.1.1.27.24.6.43,1a1.2,1.2,0,0,0,.24.38.87.87,0,0,0,.46.16,3.45,3.45,0,0,1,.68.18c0,.17,0,.3,0,.38s0,.1,0,.18c-.39,0-.81,0-1.27-.06s-.88-.05-1.25-.05h-.89l-1.33.07-.39,0a4.45,4.45,0,0,1,0-.53l.87-.18a1.49,1.49,0,0,0,.45-.16.25.25,0,0,0,.08-.18.78.78,0,0,0,0-.21l-.31-.77-.62-1.53h-3c-.11.25-.34.87-.69,1.84a2.39,2.39,0,0,0-.14.56.35.35,0,0,0,.1.29,1.39,1.39,0,0,0,.69.21l.56.09v.39a1.09,1.09,0,0,1,0,.18c-.32,0-1.09,0-2.31-.13l-.32.05a7.37,7.37,0,0,1-1.11.1Zm3.68-4.4,2.15,0h.2c-.16-.46-.36-1-.61-1.62s-.45-1.09-.61-1.41Z"/><path class="cls-1" d="M301.46,293.6l.19.1a.77.77,0,0,1,.29.19,2.43,2.43,0,0,1-1,1.35,3.5,3.5,0,0,1-2.06.57,3.83,3.83,0,0,1-1.54-.32,3.21,3.21,0,0,1-1.22-.87,2.67,2.67,0,0,1-.53-1,3.66,3.66,0,0,1-.18-1,3.79,3.79,0,0,1,.22-1.15,3.48,3.48,0,0,1,.74-1.22,3.52,3.52,0,0,1,1.3-.9,4.33,4.33,0,0,1,1.77-.34,3.12,3.12,0,0,1,1.88.42,1.13,1.13,0,0,1,.53.85,1,1,0,0,1-.21.65.76.76,0,0,1-.59.24.93.93,0,0,1-.59-.21,1.55,1.55,0,0,1-.45-.71,1.3,1.3,0,0,0-.36-.53.91.91,0,0,0-.52-.15,1.79,1.79,0,0,0-1.32.62,2.48,2.48,0,0,0-.58,1.72,2.94,2.94,0,0,0,.71,2.07,2.12,2.12,0,0,0,1.61.77,2.46,2.46,0,0,0,.76-.1,3.19,3.19,0,0,0,.53-.3,4.22,4.22,0,0,0,.32-.34C301.3,293.79,301.41,293.67,301.46,293.6Z"/><path class="cls-1" d="M303,291.5a3.13,3.13,0,0,1,.36-.89,4.11,4.11,0,0,1,.93-1,2.79,2.79,0,0,1,.9-.47A3.11,3.11,0,0,1,306,289a4.86,4.86,0,0,1,1.19.11,2.52,2.52,0,0,1,.76.32,4,4,0,0,1,.7.62,2.51,2.51,0,0,1,.43.73,2.87,2.87,0,0,1,.19,1l-.87,0c-.24,0-.76,0-1.58-.07l-.62,0-.85,0h-.67a1.34,1.34,0,0,0,0,.19,3.87,3.87,0,0,0,.1.87,3,3,0,0,0,.3.81,2.46,2.46,0,0,0,.51.6,2.18,2.18,0,0,0,.62.36l.45.15a6.31,6.31,0,0,0,.81,0,3.44,3.44,0,0,0,.66-.2,4,4,0,0,0,.69-.41c.18.13.34.26.47.37a4.5,4.5,0,0,1-1.43,1.09,3.84,3.84,0,0,1-1.65.34,3.57,3.57,0,0,1-1-.11,2.92,2.92,0,0,1-1-.43,2.74,2.74,0,0,1-.72-.72,3.06,3.06,0,0,1-.45-.88,3.28,3.28,0,0,1-.2-.95A6.46,6.46,0,0,1,303,291.5Zm4.54-.33a2.33,2.33,0,0,0-.17-.84,1.33,1.33,0,0,0-.51-.63,1.25,1.25,0,0,0-.7-.22,1.24,1.24,0,0,0-.94.46,2,2,0,0,0-.48,1.25l1.78,0,.49,0,.32,0Z"/><path class="cls-1" d="M310,295.64l0-.5.88-.12a.5.5,0,0,0,.27-.16.93.93,0,0,0,.08-.47v-.09c0-.06,0-.18,0-.34s0-.31,0-.43,0-.29,0-.57v-.76l0-1.28a2.23,2.23,0,0,0-.05-.5.72.72,0,0,0-.31-.2,2.83,2.83,0,0,0-.79-.12v-.44a3.66,3.66,0,0,0,1.41-.34,3.14,3.14,0,0,0,.9-.66h.52c0,.64,0,1.48,0,2.51l-.05,3.19a5.47,5.47,0,0,0,0,.6,6.1,6.1,0,0,0,.79.17,1.14,1.14,0,0,1,.33.08v.43h-.67c-.53,0-1.24,0-2.13,0-.26,0-.5,0-.74,0Zm1.09-9.32a.93.93,0,0,1,.27-.69,1,1,0,0,1,.71-.27,1.06,1.06,0,0,1,.76.29.84.84,0,0,1,.31.64,1.24,1.24,0,0,1-.12.53,1,1,0,0,1-.39.43,1.05,1.05,0,0,1-.53.16,1,1,0,0,1-.69-.32A1.07,1.07,0,0,1,311.12,286.32Z"/><path class="cls-1" d="M314.74,289.72a4.8,4.8,0,0,0,1.33-.77,4.91,4.91,0,0,0,.88-1.21h.44a1.49,1.49,0,0,1,.07.43c0,.27,0,.48,0,.63l0,.46v.18h.18l.74,0,.58,0a1.8,1.8,0,0,1,.05.37,2.37,2.37,0,0,1-.05.42,2.91,2.91,0,0,1-.39.05l-.25,0h-.55l-.38,0v3a6.84,6.84,0,0,0,0,1.08,1,1,0,0,0,.19.41,1.11,1.11,0,0,0,.71,0,1.73,1.73,0,0,0,.34-.22l.15-.11a1.7,1.7,0,0,1,.3.3l0,.09a2,2,0,0,1-.77.68,2.45,2.45,0,0,1-1.06.24,1.56,1.56,0,0,1-1.18-.46,2,2,0,0,1-.46-1.43l0-1.37v-2.22l-.25,0-.56,0-.1,0a.27.27,0,0,1,0-.13S314.73,289.92,314.74,289.72Z"/><path class="cls-1" d="M319.64,289.32l.15,0h2.5v.52l0,.77V293a7.91,7.91,0,0,0,.08,1.24,1,1,0,0,0,.38.52,1.2,1.2,0,0,0,.64.17,1.6,1.6,0,0,0,1.07-.33,4.6,4.6,0,0,0,.37-.28,1.77,1.77,0,0,0,.31-.46l.05-1.95c0-.2,0-.36,0-.49s0-.31,0-.52,0-.32,0-.34v-.46a1.19,1.19,0,0,0-.53-.15l-.52,0a.24.24,0,0,1-.08-.06.84.84,0,0,1,0-.23,1.8,1.8,0,0,1,0-.27l.44,0h2.4l0,.58,0,.75v3.28c0,.27,0,.43,0,.46a.54.54,0,0,0,.07.29c.05.07.1.1.14.1l.72,0,.09,0a2.83,2.83,0,0,1,0,.31.59.59,0,0,1,0,.17,3.13,3.13,0,0,0-.59.06,14.11,14.11,0,0,0-1.83.55h-.31v-1.28l-.28.25a4.69,4.69,0,0,1-1.18.82,2.56,2.56,0,0,1-1,.21,2.22,2.22,0,0,1-1.11-.26,1.73,1.73,0,0,1-.68-.66,2.19,2.19,0,0,1-.22-.87c0-.1,0-.61,0-1.53v-.25c0-.51,0-.89,0-1.13,0-.42,0-.69,0-.84a1.06,1.06,0,0,0-.08-.23l-.26-.07a2.65,2.65,0,0,1-.63-.16.13.13,0,0,1,0-.1.62.62,0,0,1,0-.13C319.62,289.53,319.63,289.44,319.64,289.32Z"/><path class="cls-1" d="M328.43,295.25a1.65,1.65,0,0,1,.38-.12,2.3,2.3,0,0,0,.5-.12.34.34,0,0,0,.15-.17,2.62,2.62,0,0,0,.05-.69v-1.24l0-.82v-.49a3.56,3.56,0,0,0-.08-.81.46.46,0,0,0-.2-.23,2.32,2.32,0,0,0-.74-.31v-.37l.19-.05a5.14,5.14,0,0,0,.63-.15,3.92,3.92,0,0,0,.55-.22l.12-.07.22-.15a3.35,3.35,0,0,0,.56-.57l.42,0,0,.88a1.79,1.79,0,0,0,0,.21s0,.16,0,.36a4.4,4.4,0,0,1,1.18-.78,3.32,3.32,0,0,1,1.32-.29,2.32,2.32,0,0,1,1.29.36,1.67,1.67,0,0,1,.72.84,6.69,6.69,0,0,1,.17,1.93l0,2.55a.56.56,0,0,0,.07.3,1.59,1.59,0,0,0,.43.11l.38.07a.49.49,0,0,1,.07.25c0,.06,0,.14,0,.25l-1.53-.11-.45,0h-.36l-1,.07h-.27a1,1,0,0,1,0-.15c0-.09,0-.19,0-.3l.54-.08a1.32,1.32,0,0,0,.26-.05c.11,0,.17-.08.18-.13a1.34,1.34,0,0,0,.06-.5v-1.92a5.89,5.89,0,0,0-.21-2.06.93.93,0,0,0-.88-.58,2.06,2.06,0,0,0-.91.22,4.1,4.1,0,0,0-1,.67l0,.14,0,.49,0,.52,0,1.25v.2a4.93,4.93,0,0,0,.1,1.44,1.61,1.61,0,0,0,.78.36c0,.09,0,.16,0,.2a1.58,1.58,0,0,1-.05.29h-.41a3.21,3.21,0,0,1-.52-.05l-.83,0c-.42,0-1,0-1.81.06a.45.45,0,0,1,0-.16Z"/><path class="cls-1" d="M343.72,290a3.08,3.08,0,0,1,.75,1.11,3.31,3.31,0,0,1,.24,1.18,3.69,3.69,0,0,1-.32,1.69,3.19,3.19,0,0,1-1.3,1.43,4.22,4.22,0,0,1-4-.08A3.41,3.41,0,0,1,337.9,294a3.71,3.71,0,0,1-.36-1.72,3.21,3.21,0,0,1,.17-1.05,2.85,2.85,0,0,1,.47-.92,3.33,3.33,0,0,1,1.71-1.19,4.38,4.38,0,0,1,1.28-.16A3.35,3.35,0,0,1,343.72,290Zm-4.27,2.7c.05.64.08,1,.1,1.12a3.07,3.07,0,0,0,.32.9,1.32,1.32,0,0,0,.49.43,1.77,1.77,0,0,0,.82.18,1.36,1.36,0,0,0,1-.36,2.11,2.11,0,0,0,.57-1.14,9.06,9.06,0,0,0,.11-1.66,3.33,3.33,0,0,0-.47-2,1.52,1.52,0,0,0-1.24-.59,1.44,1.44,0,0,0-1,.34,1.71,1.71,0,0,0-.55,1A9.93,9.93,0,0,0,339.45,292.65Z"/><path class="cls-1" d="M119,80.66a26,26,0,0,0-13.86-3.86c-.47,0-1.14,0-2,.09s-1.52.08-1.93.08l8.34-14.82-1.84-1.23-2,3.6c-3-.94-5.82-1.88-8.51-2.81s-5.33-1.9-7.9-2.9c-2.51,2-4.55,3.78-6.1,5.18s-2.64,2.43-3.29,3.07q-5.43,6-5,10.88-6.93,2.9-6.75,8.33t5.61,8.78a20.19,20.19,0,0,0,10.53,2.72h3.16l-2.2,4c-1.34-.23-2.66-.39-3.94-.48s-2.52-.13-3.69-.13a17,17,0,0,0-8.16,2.11,7.68,7.68,0,0,0-4,6.93,6.19,6.19,0,0,0,3.42,5.7,12.45,12.45,0,0,0,6.84,1.84q7.29,0,17.81-5.09l10.44,4.3q10.19-5.08,14.66-9.3,7.37-6.75,7.28-15.09A13.89,13.89,0,0,0,119,80.66ZM82.77,68.2a6.91,6.91,0,0,1,4.65-1.58q7.18.18,14.12,5.35l-2.89,5.27L94,77.68c-2,.17-3.66.26-4.83.26q-8.51,0-8.51-5.35A5.84,5.84,0,0,1,82.77,68.2Zm4.38,22.07c-.64,0-1.08,0-1.31,0q-12.37,0-12.46-6.67,0-1.85,2.19-4.12Q78,85.84,86.8,85.75c1.76-.12,3.25-.21,4.48-.27s2.16-.11,2.81-.17l-2.55,4.74-1.84.09ZM75.22,115.93a10.54,10.54,0,0,1-4.21-.79c-1.58-.76-2.37-1.81-2.37-3.16a3.76,3.76,0,0,1,1.84-3.24,7.48,7.48,0,0,1,3.69-.79,40.33,40.33,0,0,1,15.88,3.77A28.86,28.86,0,0,1,75.22,115.93ZM101.54,106c-2.45-.82-4.84-1.55-7.15-2.2s-4.57-1.2-6.8-1.66l2.28-4.39q4-.43,7.2-.66c2.11-.14,3.92-.22,5.44-.22a10.81,10.81,0,0,1,3.16.35,2.11,2.11,0,0,1,1.75,2.11Q107.33,102.5,101.54,106Zm10.36,3.86-7.2-2.81q10.71-5.44,10.53-10.44Q115.23,89,104,89a71.8,71.8,0,0,0-9.65.79l2.46-4.73a41.34,41.34,0,0,1,7.89-.62q14.92,0,15.09,11.5Q119.88,103.21,111.9,109.88Z"/><polygon class="cls-1" points="179.19 61.53 174.02 61.53 172.09 71.18 172.79 71.18 179.19 61.53"/><path class="cls-1" d="M167.17,107.24q0,7.11,5.44,9.39l7.72-6.58-1.31-1.4L177.61,110a3.42,3.42,0,0,1-2.1-3.07V83.2l2.19-2.54-6.58-6.23-6.49,5.79,2.54,2.9Z"/><path class="cls-1" d="M269.65,81.62a5.41,5.41,0,0,1,1.58,3.6v19a7.62,7.62,0,0,1-2.37,5.88,26.43,26.43,0,0,1,10.79,6.58l7.64-7.1-1.15-1.41-2.28,2-4.47-3.51V83.82l3.16-2.72,4.82,5.44,5.79-5.35-5.7-6.76-8.16,7.19q0-4.73-5.09-7.19l-7.37,7.11,1.32,1.31Z"/><path class="cls-1" d="M319.84,107.68l-1.23-1.31-5.35,3.77L306.59,107V97.86q3.77-3.17,7.37-6.06t7-5.53L310,74.43a48.06,48.06,0,0,1-11.32,7v24c0,3-.82,5.18-2.46,6.4A30,30,0,0,1,308,116.63Q315.71,110.59,319.84,107.68Zm-13.69-27,7.9,8.42-7.9,6.49Z"/><path class="cls-1" d="M345.19,108.39l-1.14-1.32-3.6,2.89-6.84-3.51V81.27l7.2,4.92,3.68-5.71-8.69-6a25,25,0,0,1-10.09,7v22.81c0,3-.82,5.21-2.45,6.49a20,20,0,0,1,11.67,6Z"/><path class="cls-1" d="M351.16,105.23q0,3.94-2.37,5.52a40.15,40.15,0,0,1,5.92,2.37,67.15,67.15,0,0,1,6.19,3.51l7.72-8.68q.35,5.88,4,8.68l7.81-6.67-1.4-1.57-1.32,1.22a10.62,10.62,0,0,1-1.66-4.12l-.71-4.56a17.34,17.34,0,0,0-6-10l7.81-7.72-7.64-8.77-10.53,10.7V50.56c0-2.68,1.32-5.14,3.95-7.36l-.17-.36a9.85,9.85,0,0,0-8.08,4.39h-1a10.18,10.18,0,0,0-5.44-2.81l-.26.35c2,1.88,3.07,3.69,3.07,5.44V76.1h-4.3v4.65h4.3ZM359.05,88l6.23-6.49,5,5.61L359.05,98Zm0,12.72,4.48-4.39a10.68,10.68,0,0,1,4.56,8.78l-4.39,5.18-4.65-2.64Z"/><path class="cls-1" d="M152.87,74.34,141.29,84V50.48q0-4.12,4-7.46l-.18-.35A9.85,9.85,0,0,0,137,47.06h-1a10.64,10.64,0,0,0-5.44-2.9l-.27.44q3.08,2.81,3.07,5.44V75.92h-4.3v4.65h4.3v27.64L130.67,111l6.5,5.61,6.49-6-2.37-2.46V86.45l6.32-5.18a4.88,4.88,0,0,1,2.81,4.57v35.53a10.7,10.7,0,0,1-4.74,8.95,40.22,40.22,0,0,1-9.57,4.91l.27.88a34.47,34.47,0,0,0,7.89-2.28,40.66,40.66,0,0,0,7-3.86q7-4.74,7-11.49v-33A13.25,13.25,0,0,0,152.87,74.34Z"/><path class="cls-1" d="M392.5,114.7l-.94,1,1.51,1.72-3.23,4.67H199.31v-3.45h-2.75V112.6a43.9,43.9,0,0,1,6.76,3.68A49.77,49.77,0,0,1,213.41,108V87a14,14,0,0,0-2.28-7.64,11.69,11.69,0,0,0-6.23-4.91,45.79,45.79,0,0,1-8.34,9,9.54,9.54,0,0,0-5.61-9l-7.28,7.19L184.89,83l2-1.76a4.39,4.39,0,0,1,1.76,3.86v21a38.48,38.48,0,0,0-4.48,1.23v3l1.67-.09a6.73,6.73,0,0,1,2.81.44v8h-3v3.45H170.38a8.52,8.52,0,0,1-7-3.23l-.21.07q.13,3.66,3.59,6.83v.93a8.27,8.27,0,0,0-2.3,4.46l.29.21a6.13,6.13,0,0,1,4.6-2.51h16.4v4.27h3v29.21c0,2.58-1.17,5.06-3.51,7.46q2.72-.09,6.58-3.68c2.86,3.62,5.85,5.47,8.95,5.52q-4.12-5.34-4.13-9.3V133.13h2.75v-4.27H387.54a7.49,7.49,0,0,1,5.53,1.94A24.09,24.09,0,0,1,398.6,121ZM196.56,86.45l4.83-4.74a7.13,7.13,0,0,1,2.81,2.11,4.89,4.89,0,0,1,1.31,3.07v22.28q-2.19-1-4.43-1.71c-1.49-.49-3-.92-4.52-1.27Zm-4.23,43.29a19,19,0,0,1-3.88-4l4.29-4.09c.59.76,1.2,1.48,1.83,2.17s1.3,1.38,2,2.07Z"/><path class="cls-1" d="M220.6,102.51c0,3.51-.84,6-2.54,7.37A41.93,41.93,0,0,1,233,116.63q4.38-3.42,7.89-3.33a11.85,11.85,0,0,1,4.83,1.14c.47.23,1.09.53,1.88.88s1.68.79,2.68,1.31a32.82,32.82,0,0,1,11.67-6.49V83.38q0-3.51-5.53-8.95l-8,6.76v2.9l3.49-2.82q2.72,3,2.72,5.09v23.69c-1.82-.47-3.48-1-5-1.49a30.71,30.71,0,0,1-4.13-1.75V91.11h0V83.69l-.15.13q.17-4.74-5.44-9.39l-8.47,7V84l3.29-2.74c1.93,1.76,2.9,3.48,2.9,5.18v23.6q-2.46-.87-4.7-1.8t-4.43-1.88V83.91a16.26,16.26,0,0,0-2.89-8.34c-1.82-2.63-2.78-4.44-2.9-5.44q0-2.37,3.51-5.61l-.7-1.14q-8.43,4.73-8.34,10.79a12.62,12.62,0,0,0,3.42,8.16Z"/><path class="cls-1" d="M224.21,146.8a2.56,2.56,0,0,1-1.45.46,2.88,2.88,0,0,1-1.29-.3,2.17,2.17,0,0,1-.75-.61,4.56,4.56,0,0,1-.62-1.31,6.34,6.34,0,0,1-.15-1.65,4.94,4.94,0,0,1,.88-3.13,2.07,2.07,0,0,1,1.71-.82,3,3,0,0,1,1.56.4,4.49,4.49,0,0,1,1.35,1.34h.63a3.94,3.94,0,0,0-.13-.93c-.19-.64-.31-1-.37-1.17a10.91,10.91,0,0,0-1.4-.26,15.8,15.8,0,0,0-1.59-.08,4.7,4.7,0,0,0-3.43,1.32,4.57,4.57,0,0,0-1.34,3.37A5.17,5.17,0,0,0,218,145a4.42,4.42,0,0,0,.66,1.25,4.86,4.86,0,0,0,1.23,1.06,3.61,3.61,0,0,0,1.28.5,7.39,7.39,0,0,0,1.59.16,8.84,8.84,0,0,0,1.85-.16,3,3,0,0,0,1.18-.48l.09-.32.06-.21c.09-.5.15-.79.16-.86s.07-.37.09-.54a3.77,3.77,0,0,0-.66.05A5.18,5.18,0,0,1,224.21,146.8Z"/><path class="cls-1" d="M234.85,146.61l-.16-.11-.12.05-.2.32a.2.2,0,0,1-.13,0,.23.23,0,0,1-.2-.1.71.71,0,0,1-.08-.39v-2.17a4.58,4.58,0,0,0-.15-1.43,1.11,1.11,0,0,0-.55-.6,2.07,2.07,0,0,0-.94-.2,4.59,4.59,0,0,0-1.43.19,3.69,3.69,0,0,0-.93.52,2.94,2.94,0,0,0-.74.77,1.3,1.3,0,0,0-.16.67.32.32,0,0,0,.09.24,1.46,1.46,0,0,0,.59-.18c.06,0,.18-.09.36-.16a1,1,0,0,0,.38-.23,1.67,1.67,0,0,0,.09-.35,1.66,1.66,0,0,1,.16-.57,1,1,0,0,1,.42-.33,1.45,1.45,0,0,1,.63-.13.54.54,0,0,1,.47.2,2.45,2.45,0,0,1,.23,1.26c0,.18,0,.35,0,.53l-1.7.68-.52.23a2.92,2.92,0,0,0-.72.51,1.67,1.67,0,0,0-.32.46,1.22,1.22,0,0,0-.1.45,1,1,0,0,0,.34.79,1.52,1.52,0,0,0,1,.29,2.89,2.89,0,0,0,1.31-.26,1.89,1.89,0,0,0,.83-.78,1.89,1.89,0,0,0,.53.78,1.08,1.08,0,0,0,.69.22.93.93,0,0,0,.66-.23,1.64,1.64,0,0,0,.43-.83v0A.21.21,0,0,0,234.85,146.61Zm-2.43-.1a1.37,1.37,0,0,1-.43.47,1,1,0,0,1-.64.21.55.55,0,0,1-.42-.19.7.7,0,0,1-.17-.48,1.08,1.08,0,0,1,.13-.56,2.19,2.19,0,0,1,.68-.61,4.13,4.13,0,0,1,.88-.43q0,.3,0,.6A4.54,4.54,0,0,1,232.42,146.51Z"/><path class="cls-1" d="M243,142.69a2.39,2.39,0,0,0-.81-.54A3.06,3.06,0,0,0,241,142a2.6,2.6,0,0,0-.58.07,2.53,2.53,0,0,0-.5.19,2.31,2.31,0,0,0-.37.2,3.73,3.73,0,0,0-.53.45l0-1-.05-2.58v-.28c0-.05,0-.14,0-.27h-.5c-.62.32-1,.51-1.15.56l-.58.22v.32l.71.27a.23.23,0,0,1,.05.1,6.25,6.25,0,0,1,.05,1v5a3.25,3.25,0,0,1,0,.39l0,.17v.51c0,.1,0,.21,0,.32s0,.23,0,.34h.35l.22-.37.31-.48.35.21a3.46,3.46,0,0,0,1.71.56,3.89,3.89,0,0,0,1.17-.13,3.13,3.13,0,0,0,.91-.52,2.67,2.67,0,0,0,.62-.65,3.53,3.53,0,0,0,.44-.95,3.35,3.35,0,0,0,.13-.88,2.8,2.8,0,0,0-.16-1A2.93,2.93,0,0,0,243,142.69Zm-.91,3.06a2.7,2.7,0,0,1-.23.72,1.59,1.59,0,0,1-.36.48,1.34,1.34,0,0,1-.45.27,1.62,1.62,0,0,1-.61.12,1.31,1.31,0,0,1-.77-.25,1,1,0,0,1-.46-.61,13.93,13.93,0,0,1-.08-2.12V143.3a1.76,1.76,0,0,1,.54-.3,1.81,1.81,0,0,1,.71-.17,1.59,1.59,0,0,1,.9.27,1.68,1.68,0,0,1,.64.82,2.69,2.69,0,0,1,.23,1.11A5.88,5.88,0,0,1,242,145.75Z"/><path class="cls-1" d="M251,146.73a3.66,3.66,0,0,1-.58.17,5.16,5.16,0,0,1-.7,0l-.4-.13a1.57,1.57,0,0,1-.54-.31,1.89,1.89,0,0,1-.44-.53,2.32,2.32,0,0,1-.27-.7,3.51,3.51,0,0,1-.09-.77,1.15,1.15,0,0,1,0-.16h1.32l.55,0,1.38.06h.76a2.53,2.53,0,0,0-.16-.89,2.36,2.36,0,0,0-.38-.64,3.08,3.08,0,0,0-.62-.54,1.91,1.91,0,0,0-.66-.29,4.74,4.74,0,0,0-1-.1,3,3,0,0,0-.73.13,2.75,2.75,0,0,0-.78.42,3.51,3.51,0,0,0-.82.88,2.79,2.79,0,0,0-.31.77,5.09,5.09,0,0,0-.1,1.08,3,3,0,0,0,.17.83,2.83,2.83,0,0,0,.4.77,2.36,2.36,0,0,0,.63.63,2.73,2.73,0,0,0,.83.38,3.5,3.5,0,0,0,.88.1,3.39,3.39,0,0,0,1.45-.3,4.11,4.11,0,0,0,1.25-1c-.11-.1-.25-.2-.41-.32A3.27,3.27,0,0,1,251,146.73Zm-2.55-3.93a1.08,1.08,0,0,1,.82-.4,1.09,1.09,0,0,1,.61.19,1.17,1.17,0,0,1,.45.55,2.26,2.26,0,0,1,.15.73h-.19a1.76,1.76,0,0,0-.28,0l-.42,0-1.56,0A1.71,1.71,0,0,1,248.49,142.8Z"/><path class="cls-1" d="M258.15,142a.83.83,0,0,0-.53.18,3.67,3.67,0,0,0-.36.33,4.89,4.89,0,0,0-.41.64c0-.32,0-.51,0-.56s0-.24,0-.4V142a1.38,1.38,0,0,0,0-.25h-.48a1.42,1.42,0,0,0-.19.24,2.3,2.3,0,0,1-.62.56,2.06,2.06,0,0,1-.91.35l0,.25a.19.19,0,0,0,.16.15,2.31,2.31,0,0,1,.47.16.31.31,0,0,1,.11.19c.05.4.07,1.18.07,2.33a5.34,5.34,0,0,1-.06,1.11,2.09,2.09,0,0,1-.66.27.45.45,0,0,0-.23.11.67.67,0,0,0,0,.17.86.86,0,0,0,0,.17l.71,0h.11a8.28,8.28,0,0,1,.9,0l1.3.06h.65a1,1,0,0,0,0-.2.26.26,0,0,0-.07-.19.84.84,0,0,0-.38-.09,1.75,1.75,0,0,1-.45-.07.71.71,0,0,1-.24-.13.72.72,0,0,1-.13-.34c0-1.24,0-2-.05-2.37v-.18a1.4,1.4,0,0,1,.19-.71.54.54,0,0,1,.26-.26h.05a.57.57,0,0,1,.31.15,1,1,0,0,0,.61.24.64.64,0,0,0,.54-.25,1,1,0,0,0,.2-.58.75.75,0,0,0-.27-.57A.89.89,0,0,0,258.15,142Z"/><path class="cls-1" d="M268.47,147.32a.88.88,0,0,1-.37-.1A.48.48,0,0,1,268,147l0-2.23a6,6,0,0,0-.15-1.68,1.51,1.51,0,0,0-.63-.74,2,2,0,0,0-1.13-.32,3,3,0,0,0-1.15.26,3.56,3.56,0,0,0-1,.68c0-.17,0-.28,0-.32s0-.1,0-.18v-.77l-.37,0a2.32,2.32,0,0,1-.49.5l-.19.14-.11.06a4.17,4.17,0,0,1-.48.19l-.55.14-.16,0v.33a2.2,2.2,0,0,1,.65.27.45.45,0,0,1,.18.2,3.48,3.48,0,0,1,.06.71v.43l0,.72v1.08a3.23,3.23,0,0,1,0,.6.33.33,0,0,1-.14.15,1.48,1.48,0,0,1-.44.11,1,1,0,0,0-.33.11v.21a.59.59,0,0,0,0,.14c.69,0,1.22-.05,1.59-.05l.73,0,.45,0h.36a1.19,1.19,0,0,0,.05-.25,1.49,1.49,0,0,0,0-.17,1.52,1.52,0,0,1-.69-.32,4.36,4.36,0,0,1-.09-1.26l0-.17,0-1.1v-1a3.45,3.45,0,0,1,.85-.59,1.85,1.85,0,0,1,.79-.2.85.85,0,0,1,.78.51,5.26,5.26,0,0,1,.18,1.8v.8c0,.2,0,.5,0,.88a1.44,1.44,0,0,1-.05.45.38.38,0,0,1-.16.11l-.23,0-.48.07c0,.09,0,.18,0,.26a.66.66,0,0,0,0,.13h.23l.9-.06h.71l1.34.09a1.86,1.86,0,0,0,0-.22.35.35,0,0,0-.06-.21Z"/><path class="cls-1" d="M275.85,146.73a3.66,3.66,0,0,1-.58.17,5.34,5.34,0,0,1-.71,0l-.39-.13a1.61,1.61,0,0,1-.55-.31,2.14,2.14,0,0,1-.7-1.23,3.51,3.51,0,0,1-.09-.77,1,1,0,0,1,0-.16h1.33l.54,0,1.39.06h.75a2.53,2.53,0,0,0-.16-.89,1.94,1.94,0,0,0-.38-.64,3,3,0,0,0-.61-.54,2,2,0,0,0-.66-.29,4.87,4.87,0,0,0-1-.1,3,3,0,0,0-.73.13,2.66,2.66,0,0,0-.79.42,3.31,3.31,0,0,0-.81.88,2.73,2.73,0,0,0-.32.77,5.89,5.89,0,0,0-.09,1.08,2.64,2.64,0,0,0,.17.83,2.54,2.54,0,0,0,.39.77,2.26,2.26,0,0,0,.64.63,2.52,2.52,0,0,0,.83.38,3.44,3.44,0,0,0,.88.1,3.37,3.37,0,0,0,1.44-.3,4,4,0,0,0,1.25-1c-.11-.1-.25-.2-.41-.32A3.61,3.61,0,0,1,275.85,146.73Zm-2.56-3.93a1.1,1.1,0,0,1,.83-.4,1.12,1.12,0,0,1,.61.19,1.1,1.1,0,0,1,.44.55,1.83,1.83,0,0,1,.15.73h-.18a1.69,1.69,0,0,0-.28,0l-.43,0-1.55,0A1.76,1.76,0,0,1,273.29,142.8Z"/><path class="cls-1" d="M283,146.71l-.13.09a1.34,1.34,0,0,1-.3.2.64.64,0,0,1-.27,0,.82.82,0,0,1-.35-.08,1,1,0,0,1-.16-.36,8.35,8.35,0,0,1,0-.94V143l.33,0h.48l.22,0,.34,0a1.8,1.8,0,0,0,0-.37,1.33,1.33,0,0,0,0-.32h-.51l-.65,0h-.15a1.18,1.18,0,0,1,0-.16l0-.4c0-.13,0-.32,0-.55a1,1,0,0,0-.07-.38h-.38a4.29,4.29,0,0,1-.77,1.07,4.34,4.34,0,0,1-1.16.66c0,.18,0,.28,0,.31a.25.25,0,0,0,0,.11l.09,0,.5,0,.21,0V145l0,1.21a1.71,1.71,0,0,0,.4,1.25,1.39,1.39,0,0,0,1,.4,1.92,1.92,0,0,0,.92-.22,1.64,1.64,0,0,0,.68-.59l0-.08A1.69,1.69,0,0,0,283,146.71Z"/><path class="cls-1" d="M296.28,143.23a3.12,3.12,0,0,0-.9-.6,7.22,7.22,0,0,0-1-.39,4,4,0,0,1-1.63-.77,1.21,1.21,0,0,1-.39-.84,1.16,1.16,0,0,1,.4-.88,1.54,1.54,0,0,1,1.06-.35A1.6,1.6,0,0,1,295,140a3.64,3.64,0,0,1,.61,1.22l.08,0,.49,0,.07,0a1.39,1.39,0,0,0,0-.27,9.18,9.18,0,0,0-.09-1.09,3.64,3.64,0,0,0-.12-.71,7.2,7.2,0,0,0-1-.28,5.78,5.78,0,0,0-1-.12,3.16,3.16,0,0,0-2.3.76,2.49,2.49,0,0,0-.78,1.85,2.54,2.54,0,0,0,.28,1.12,2.46,2.46,0,0,0,.77.94,7.77,7.77,0,0,0,1.74.79,5.71,5.71,0,0,1,1.55.71,1.2,1.2,0,0,1,.2,1.71,1.53,1.53,0,0,1-.72.52,2.49,2.49,0,0,1-.81.15,2.43,2.43,0,0,1-.77-.12,1.91,1.91,0,0,1-.61-.35,2.21,2.21,0,0,1-.47-.56c-.06-.11-.2-.41-.42-.92h-.64v.26c0,.12,0,.33,0,.63,0,.57,0,.89,0,.94v.07a.31.31,0,0,0,.06.13,1.36,1.36,0,0,0,.43.17l.82.24a6,6,0,0,0,1.15.14,4.81,4.81,0,0,0,1.18-.12,3.38,3.38,0,0,0,.89-.4,4.13,4.13,0,0,0,.64-.49,1.89,1.89,0,0,0,.42-.62A3.44,3.44,0,0,0,297,145a2.81,2.81,0,0,0-.16-1A2.52,2.52,0,0,0,296.28,143.23Z"/><path class="cls-1" d="M305.66,146.61l-.16-.11-.12.05-.21.32a.18.18,0,0,1-.13,0,.22.22,0,0,1-.19-.1.63.63,0,0,1-.08-.39v-.22l0-.82,0-1.13a4.22,4.22,0,0,0-.16-1.43,1.09,1.09,0,0,0-.54-.6,2.1,2.1,0,0,0-.94-.2,4.61,4.61,0,0,0-1.44.19,3.64,3.64,0,0,0-.92.52,3,3,0,0,0-.75.77,1.3,1.3,0,0,0-.16.67.3.3,0,0,0,.1.24,1.43,1.43,0,0,0,.58-.18l.37-.16a.94.94,0,0,0,.37-.23.92.92,0,0,0,.09-.35,1.92,1.92,0,0,1,.16-.57,1,1,0,0,1,.42-.33,1.45,1.45,0,0,1,.63-.13.55.55,0,0,1,.48.2,2.47,2.47,0,0,1,.22,1.26,4.7,4.7,0,0,1,0,.53l-1.7.68-.52.23a2.83,2.83,0,0,0-.71.51,1.33,1.33,0,0,0-.32.46,1,1,0,0,0-.1.45,1,1,0,0,0,.33.79,1.55,1.55,0,0,0,1.05.29,2.84,2.84,0,0,0,1.3-.26,1.79,1.79,0,0,0,.83-.78,2,2,0,0,0,.53.78,1.1,1.1,0,0,0,.69.22,1,1,0,0,0,.67-.23,1.64,1.64,0,0,0,.43-.83v0A.19.19,0,0,0,305.66,146.61Zm-2.44-.1a1.42,1.42,0,0,1-.42.47,1,1,0,0,1-.65.21.53.53,0,0,1-.41-.19.66.66,0,0,1-.18-.48,1.08,1.08,0,0,1,.14-.56,2.08,2.08,0,0,1,.68-.61,3.91,3.91,0,0,1,.88-.43c0,.2,0,.4,0,.6A4.54,4.54,0,0,1,303.22,146.51Z"/><path class="cls-1" d="M315,147l-.63,0s-.07,0-.11-.09a.34.34,0,0,1-.07-.25s0-.16,0-.4v-.36l0-.52v-2l0-.65,0-.51h-2.09l-.39,0a1.11,1.11,0,0,0,0,.23.9.9,0,0,0,0,.21l.08.05.46,0a1,1,0,0,1,.45.13l0,.15v.25s0,.13,0,.31,0,.33,0,.44,0,.26,0,.44l-.05,1.7a1.41,1.41,0,0,1-.27.4,2,2,0,0,1-.32.25,1.88,1.88,0,0,1-.44.23,1.75,1.75,0,0,1-.5.06,1,1,0,0,1-.56-.15.86.86,0,0,1-.33-.45,6.31,6.31,0,0,1-.07-1.09v-2.08l0-.67,0-.46H308l-.12,0c0,.1,0,.18,0,.22a.54.54,0,0,0,0,.11s0,.08,0,.09a1.74,1.74,0,0,0,.55.15.71.71,0,0,1,.22.06.44.44,0,0,1,.07.2,6.29,6.29,0,0,1,0,.73q0,.33,0,1V145c0,.81,0,1.25,0,1.34a1.9,1.9,0,0,0,.19.76,1.53,1.53,0,0,0,.6.58,2,2,0,0,0,1,.23,2.17,2.17,0,0,0,.9-.19,3.89,3.89,0,0,0,1-.72l.24-.21v1.11l.27,0a11.82,11.82,0,0,1,1.6-.49,3.93,3.93,0,0,1,.52-.05.5.5,0,0,0,0-.15,2.16,2.16,0,0,0,0-.27Z"/><path class="cls-1" d="M323.37,142.2l-.55,0c-.22,0-.44,0-.64,0h-.93l-.24,0a.38.38,0,0,0-.06.24,2,2,0,0,0,0,.23h.19a5.14,5.14,0,0,1,.75.06,3.18,3.18,0,0,1-.16.72c-.37,1.14-.72,2.08-1,2.81q-.07-.16-.21-.51a17.27,17.27,0,0,0-.73-1.65,4.88,4.88,0,0,1-.22-.5c-.11-.25-.17-.4-.2-.44a.61.61,0,0,1-.08-.29.12.12,0,0,1,.06-.09,1.26,1.26,0,0,1,.41-.11l.3,0a1.49,1.49,0,0,0,0-.25.58.58,0,0,0,0-.19h-.16l-.9,0h-.42l-1.42,0H317a.41.41,0,0,0,0,.21,1.1,1.1,0,0,0,0,.18,2.1,2.1,0,0,0,.63.23.33.33,0,0,1,.09.14c.29.62.55,1.2.78,1.75l.93,2.08c.19.44.38.81.55,1.12h.56c.05-.12.12-.25.2-.41l.21-.47.74-1.79c.39-.9.68-1.62.87-2.17l0-.06.06-.13a4.34,4.34,0,0,1,1-.3v-.39Z"/><path class="cls-1" d="M327.68,140.44a.76.76,0,0,0,.34-.37,1.09,1.09,0,0,0,.1-.46.79.79,0,0,0-.26-.57,1,1,0,0,0-.67-.25.84.84,0,0,0-.62.24.81.81,0,0,0-.24.6.89.89,0,0,0,.28.67.81.81,0,0,0,1.07.14Z"/><path class="cls-1" d="M327.93,147.19a4.17,4.17,0,0,1,0-.52l.05-2.79c0-.9,0-1.64,0-2.2h-.46a3,3,0,0,1-.79.58,3.14,3.14,0,0,1-1.24.29v.39a3.33,3.33,0,0,1,.7.1.58.58,0,0,1,.27.18,2.28,2.28,0,0,1,0,.44l0,1.11v.67c0,.24,0,.41,0,.5s0,.23,0,.38,0,.24,0,.29v.08a.88.88,0,0,1-.06.41.39.39,0,0,1-.24.14l-.77.1,0,.45.43,0c.2,0,.42,0,.64,0,.78,0,1.4,0,1.87,0h.58l0-.37a1.48,1.48,0,0,0-.3-.07A4.2,4.2,0,0,1,327.93,147.19Z"/><path class="cls-1" d="M338.06,142.46a1.53,1.53,0,0,0-.44.07,8.61,8.61,0,0,1-.95.24,6.45,6.45,0,0,0-.61-.45l-.26-.1a3.78,3.78,0,0,0-.48-.15,5,5,0,0,0-.73,0,3.6,3.6,0,0,0-1.72.35,2.45,2.45,0,0,0-1.05,1,2.62,2.62,0,0,0-.18.91,1.71,1.71,0,0,0,.33,1,3,3,0,0,0,.93.78,12.62,12.62,0,0,0-1.5.93.62.62,0,0,0-.16.47,1,1,0,0,0,.31.69,2.72,2.72,0,0,0,1.23.55,3.87,3.87,0,0,0-1.37.63.8.8,0,0,0-.27.6.9.9,0,0,0,.32.64,2.38,2.38,0,0,0,1.13.58,6.72,6.72,0,0,0,1.63.18,6.64,6.64,0,0,0,1.58-.19,4.26,4.26,0,0,0,1.12-.44,1.78,1.78,0,0,0,.62-.63,1.54,1.54,0,0,0,.23-.79,1.59,1.59,0,0,0-.65-1.27,3.77,3.77,0,0,0-2.29-.52h-.2l-.49,0q-.6,0-1,0l-.15,0a.65.65,0,0,1-.4-.15.31.31,0,0,1-.12-.24.34.34,0,0,1,.12-.26,4,4,0,0,1,.81-.55,5.74,5.74,0,0,0,.67.12,4.18,4.18,0,0,0,.62,0,3,3,0,0,0,1.4-.38,2.07,2.07,0,0,0,.8-.72,1.79,1.79,0,0,0,.29-1,2.66,2.66,0,0,0-.16-.89,2.23,2.23,0,0,1,.74.22.77.77,0,0,0,.24.1q.1,0,.21-.15a.93.93,0,0,0,.11-.52,1.05,1.05,0,0,0-.09-.55A.25.25,0,0,0,338.06,142.46Zm-3.81,6.46h.85a4.58,4.58,0,0,1,.92.07,1.34,1.34,0,0,1,.44.19.9.9,0,0,1,.27.29.59.59,0,0,1,.07.29.79.79,0,0,1-.35.56,3.27,3.27,0,0,1-1.57.54l-.5,0a4.07,4.07,0,0,1-1.07-.14,1.43,1.43,0,0,1-.71-.37.73.73,0,0,1-.21-.47.83.83,0,0,1,.38-.73A2.78,2.78,0,0,1,334.25,148.92Zm1-3.36a1,1,0,0,1-.78.4,1.31,1.31,0,0,1-.47-.09,1.1,1.1,0,0,1-.36-.25,1.2,1.2,0,0,1-.25-.41,1.17,1.17,0,0,1-.11-.4c0-.37,0-.61,0-.73a1.92,1.92,0,0,1,.27-1.08,1,1,0,0,1,.59-.47l.37,0a1,1,0,0,1,.81.37,2.53,2.53,0,0,1,.29,1.47A1.86,1.86,0,0,1,335.27,145.56Z"/><path class="cls-1" d="M347.24,147.32a.88.88,0,0,1-.37-.1.48.48,0,0,1-.06-.26l0-2.23a6,6,0,0,0-.15-1.68,1.49,1.49,0,0,0-.64-.74,2,2,0,0,0-1.12-.32,3,3,0,0,0-1.16.26,3.7,3.7,0,0,0-1,.68c0-.17,0-.28,0-.32a1.36,1.36,0,0,1,0-.18l0-.77-.37,0a2.57,2.57,0,0,1-.49.5l-.19.14-.11.06a4.17,4.17,0,0,1-.48.19l-.55.14-.16,0v.33a2.33,2.33,0,0,1,.65.27.42.42,0,0,1,.17.2,2.83,2.83,0,0,1,.07.71v.43l0,.72v1.08a2.52,2.52,0,0,1,0,.6.27.27,0,0,1-.13.15,1.48,1.48,0,0,1-.44.11,1,1,0,0,0-.33.11c0,.1,0,.18,0,.21a.32.32,0,0,0,0,.14c.69,0,1.22-.05,1.58-.05l.74,0a3.54,3.54,0,0,0,.45,0h.36a1,1,0,0,0,0-.25.59.59,0,0,0,0-.17,1.53,1.53,0,0,1-.68-.32,4.36,4.36,0,0,1-.09-1.26v-.17l0-1.1v-1a3.27,3.27,0,0,1,.85-.59,1.81,1.81,0,0,1,.79-.2.82.82,0,0,1,.77.51,4.92,4.92,0,0,1,.19,1.8v.8c0,.2,0,.5,0,.88a1.14,1.14,0,0,1-.06.45s-.06.07-.15.11l-.23,0-.48.07a2.35,2.35,0,0,0,0,.26.66.66,0,0,0,0,.13h.23l.9-.06h.71l1.34.09a1.86,1.86,0,0,0,0-.22.35.35,0,0,0-.06-.21Z"/><path class="cls-1" d="M355.46,142.81a3,3,0,0,0-2.24-.85,3.59,3.59,0,0,0-1.11.15,2.94,2.94,0,0,0-.92.46,2.9,2.9,0,0,0-.58.58,2.54,2.54,0,0,0-.42.8,3,3,0,0,0-.15.92,3.25,3.25,0,0,0,.32,1.51,3,3,0,0,0,1.06,1.09,3.28,3.28,0,0,0,1.81.48,3.33,3.33,0,0,0,1.67-.41,2.79,2.79,0,0,0,1.14-1.25,3.23,3.23,0,0,0,.29-1.47,2.94,2.94,0,0,0-.22-1A2.63,2.63,0,0,0,355.46,142.81Zm-.89,3.35a2,2,0,0,1-.49,1,1.2,1.2,0,0,1-.84.31,1.47,1.47,0,0,1-.72-.16,1,1,0,0,1-.43-.38,2.48,2.48,0,0,1-.28-.78c0-.09-.05-.42-.09-1a9,9,0,0,1,.1-1.58,1.53,1.53,0,0,1,.48-.87,1.28,1.28,0,0,1,.87-.3,1.29,1.29,0,0,1,1.08.52,2.83,2.83,0,0,1,.41,1.76A8.26,8.26,0,0,1,354.57,146.16Z"/><path class="cls-1" d="M365.68,147.32a.88.88,0,0,1-.37-.1.48.48,0,0,1-.06-.26l0-2.23a6,6,0,0,0-.15-1.68,1.49,1.49,0,0,0-.64-.74,2,2,0,0,0-1.12-.32,2.94,2.94,0,0,0-1.15.26,3.73,3.73,0,0,0-1,.68c0-.17,0-.28,0-.32s0-.1,0-.18l0-.77-.37,0a2.57,2.57,0,0,1-.49.5l-.19.14-.11.06a4.17,4.17,0,0,1-.48.19l-.55.14-.16,0v.33a2.2,2.2,0,0,1,.65.27.37.37,0,0,1,.17.2,2.83,2.83,0,0,1,.07.71v.43l0,.72v1.08a3.23,3.23,0,0,1,0,.6.33.33,0,0,1-.14.15,1.48,1.48,0,0,1-.44.11,1,1,0,0,0-.33.11v.21a.32.32,0,0,0,0,.14c.69,0,1.22-.05,1.59-.05l.73,0a3.54,3.54,0,0,0,.45,0H362a1.19,1.19,0,0,0,.05-.25.67.67,0,0,0,0-.17,1.53,1.53,0,0,1-.68-.32,4.36,4.36,0,0,1-.09-1.26l0-.17,0-1.1v-1a3.27,3.27,0,0,1,.85-.59,1.81,1.81,0,0,1,.79-.2.85.85,0,0,1,.78.51,5.26,5.26,0,0,1,.18,1.8v.8c0,.2,0,.5,0,.88a1.44,1.44,0,0,1-.05.45.38.38,0,0,1-.16.11l-.23,0-.48.07a2.35,2.35,0,0,0,0,.26.66.66,0,0,0,0,.13h.23l.9-.06h.71l1.34.09a1.86,1.86,0,0,0,0-.22.35.35,0,0,0-.06-.21Z"/><path class="cls-1" d="M87.08,200.43a4.57,4.57,0,0,0-.77.15,4.15,4.15,0,0,0-.76.34,2.93,2.93,0,0,0-.81.66,4.65,4.65,0,0,0-.57.95c-.25.57-.6,1.39-1.06,2.46s-1,2.31-1.56,3.68-1.09,2.6-1.69,4.07-1.19,2.88-1.74,4.24H75.67q-1.71-4.2-3.48-8.51c-1.18-2.88-2-4.89-2.49-6a4,4,0,0,0-.55-.92,3,3,0,0,0-.83-.64,3.37,3.37,0,0,0-.74-.32,5.11,5.11,0,0,0-.84-.17v-.95h9.39v.93a8.53,8.53,0,0,0-1.79.33c-.31.12-.47.27-.47.45a1.45,1.45,0,0,0,0,.28c0,.11.08.24.13.41.26.72.73,1.89,1.42,3.51s1.69,4.09,3,7.42c.82-2,1.5-3.74,2-5.13S81.57,205,82,204c.2-.52.37-1,.5-1.46a3.8,3.8,0,0,0,.21-1c0-.26-.19-.47-.57-.65a6.85,6.85,0,0,0-2.07-.39v-1h7Z"/><path class="cls-1" d="M97.35,216.78H89.64v-.89l.62-.06a2.87,2.87,0,0,0,.52-.12,1,1,0,0,0,.55-.42,1.44,1.44,0,0,0,.16-.73v-7.11a1.44,1.44,0,0,0-.19-.75,1.74,1.74,0,0,0-.49-.52,3,3,0,0,0-.67-.28,4.91,4.91,0,0,0-.81-.17v-.89l6-.32.19.19v9.69a1.41,1.41,0,0,0,.18.73,1.12,1.12,0,0,0,.52.44,3.79,3.79,0,0,0,.54.2,6,6,0,0,0,.61.12Zm-1.78-16.65a2,2,0,0,1-.72,1.58,2.54,2.54,0,0,1-3.39,0,2,2,0,0,1-.71-1.58,2.07,2.07,0,0,1,.71-1.59,2.52,2.52,0,0,1,3.4,0A2.11,2.11,0,0,1,95.57,200.13Z"/><path class="cls-1" d="M116.94,216.78H109.6v-.89l.56-.06a1.92,1.92,0,0,0,.5-.12.78.78,0,0,0,.37-.39,2.14,2.14,0,0,0,.11-.76v-5.71a3.16,3.16,0,0,0-.46-1.88,1.57,1.57,0,0,0-1.35-.63,2.67,2.67,0,0,0-.91.15,3.28,3.28,0,0,0-.83.43,2.61,2.61,0,0,0-.57.5l-.36.45v6.55a1.87,1.87,0,0,0,.12.72.88.88,0,0,0,.4.43,2.26,2.26,0,0,0,.49.2l.58.12v.89h-7.43v-.89l.62-.07a4,4,0,0,0,.53-.11.91.91,0,0,0,.54-.42,1.55,1.55,0,0,0,.15-.73v-7.11a1.55,1.55,0,0,0-.2-.74,1.85,1.85,0,0,0-.51-.6,1.82,1.82,0,0,0-.56-.24,3.89,3.89,0,0,0-.74-.14v-.89l5.83-.32.18.19v1.77h0c.23-.21.5-.45.83-.73a7.69,7.69,0,0,1,.9-.7,4.3,4.3,0,0,1,1.19-.5,5.55,5.55,0,0,1,1.56-.21,3.77,3.77,0,0,1,3,1.13,4.33,4.33,0,0,1,1,3v6a1.63,1.63,0,0,0,.13.72,1,1,0,0,0,.5.43l.48.17a5.23,5.23,0,0,0,.66.12Z"/><path class="cls-1" d="M132.89,206.11a5.45,5.45,0,0,1,1.37,2,6.6,6.6,0,0,1,.48,2.54,7,7,0,0,1-.47,2.55,5.6,5.6,0,0,1-1.37,2.06,6.56,6.56,0,0,1-2.3,1.4,8.77,8.77,0,0,1-3.06.49,8.29,8.29,0,0,1-2.74-.43,6.39,6.39,0,0,1-2.22-1.28,5.77,5.77,0,0,1-1.46-2,6.5,6.5,0,0,1-.54-2.69,6.9,6.9,0,0,1,.47-2.61,5.82,5.82,0,0,1,1.41-2,6.09,6.09,0,0,1,2.23-1.32,9.71,9.71,0,0,1,6,0A6.53,6.53,0,0,1,132.89,206.11Zm-3.13,8.46a7.22,7.22,0,0,0,.4-1.66,18.69,18.69,0,0,0,.13-2.27,18.34,18.34,0,0,0-.13-1.95,7.37,7.37,0,0,0-.36-1.74,3,3,0,0,0-.81-1.2,2,2,0,0,0-1.32-.44,1.93,1.93,0,0,0-1.38.47,3,3,0,0,0-.8,1.23,7.15,7.15,0,0,0-.36,1.63q-.09.95-.09,2c0,.89,0,1.62.08,2.2a7,7,0,0,0,.42,1.76,2.7,2.7,0,0,0,.8,1.19,2,2,0,0,0,1.33.44,2,2,0,0,0,1.26-.41A2.66,2.66,0,0,0,129.76,214.57Z"/><path class="cls-1" d="M166.3,216.78h-9.44v-.95a11,11,0,0,0,1.55-.24c.59-.13.89-.28.89-.47a1.8,1.8,0,0,0,0-.22,1.39,1.39,0,0,0-.11-.33L157.7,211h-6c-.14.34-.29.73-.46,1.17s-.31.85-.43,1.2a7.11,7.11,0,0,0-.27,1,3.52,3.52,0,0,0-.05.43q0,.39.6.66a6.43,6.43,0,0,0,2,.4v.95H146v-.95a7.09,7.09,0,0,0,.91-.13,2.24,2.24,0,0,0,.8-.29,3,3,0,0,0,.85-.72,3.93,3.93,0,0,0,.58-1q1.41-3.44,2.84-6.87t3.14-7.6h2.44q2.4,5.89,3.75,9.31t2.31,5.66a2.83,2.83,0,0,0,.4.67,2.74,2.74,0,0,0,.69.56,3,3,0,0,0,.8.3,7.07,7.07,0,0,0,.82.12Zm-9.11-7-2.5-6.26-2.47,6.26Z"/><path class="cls-1" d="M184.78,216.78h-7.33v-.89l.56-.06a1.92,1.92,0,0,0,.5-.12.82.82,0,0,0,.37-.39,2.14,2.14,0,0,0,.11-.76v-5.71a3.23,3.23,0,0,0-.46-1.88,1.58,1.58,0,0,0-1.36-.63,2.71,2.71,0,0,0-.91.15,3.4,3.4,0,0,0-.82.43,2.61,2.61,0,0,0-.57.5,5,5,0,0,0-.36.45v6.55a1.87,1.87,0,0,0,.12.72.84.84,0,0,0,.4.43,2.07,2.07,0,0,0,.49.2l.57.12v.89h-7.42v-.89l.62-.07a4.42,4.42,0,0,0,.53-.11.91.91,0,0,0,.54-.42,1.69,1.69,0,0,0,.14-.73v-7.11a1.54,1.54,0,0,0-.19-.74,1.58,1.58,0,0,0-1.07-.84,4,4,0,0,0-.74-.14v-.89l5.82-.32.19.19v1.77h0l.83-.73a7.72,7.72,0,0,1,.91-.7,4.22,4.22,0,0,1,1.18-.5,5.67,5.67,0,0,1,1.57-.21,3.77,3.77,0,0,1,3,1.13,4.38,4.38,0,0,1,1,3v6a1.62,1.62,0,0,0,.14.72.94.94,0,0,0,.5.43l.48.17a5.06,5.06,0,0,0,.65.12ZM182,198.73a6,6,0,0,1-.49,1.17,5.21,5.21,0,0,1-.81,1.19,5.33,5.33,0,0,1-1.1,1,2.43,2.43,0,0,1-1.3.35,5.08,5.08,0,0,1-1.54-.21,8.88,8.88,0,0,1-1.12-.46q-.42-.22-.93-.45a2.17,2.17,0,0,0-1-.23,1.19,1.19,0,0,0-.93.41,7.83,7.83,0,0,0-.87,1.39l-.88-.36a9,9,0,0,1,.49-1.1,7.82,7.82,0,0,1,.79-1.21,4.32,4.32,0,0,1,1.05-.93,2.36,2.36,0,0,1,1.27-.4,4.86,4.86,0,0,1,1.44.2,7.44,7.44,0,0,1,1.18.47l.92.47a1.82,1.82,0,0,0,.88.19,1.56,1.56,0,0,0,1.34-.49,4.62,4.62,0,0,0,.62-1.26Z"/><path class="cls-1" d="M201.39,213.86a7.07,7.07,0,0,1-1,1.31,5.91,5.91,0,0,1-1.37,1.06,7.64,7.64,0,0,1-1.66.7,7,7,0,0,1-1.92.24,8.64,8.64,0,0,1-3.12-.51,6.12,6.12,0,0,1-2.17-1.38,5.63,5.63,0,0,1-1.27-2.05,7.5,7.5,0,0,1-.42-2.55,6.28,6.28,0,0,1,.46-2.39,6.13,6.13,0,0,1,1.3-2,6.21,6.21,0,0,1,2.09-1.41,7.28,7.28,0,0,1,2.83-.53,8.16,8.16,0,0,1,2.8.41,4.94,4.94,0,0,1,1.82,1.15,4.17,4.17,0,0,1,1,1.64,6.22,6.22,0,0,1,.31,2v.8h-8.25a6.37,6.37,0,0,0,1,3.81,4,4,0,0,0,5.13.67,5.77,5.77,0,0,0,1.56-1.59Zm-4.66-4.64c0-.48,0-1-.07-1.5a5,5,0,0,0-.26-1.25,1.89,1.89,0,0,0-.57-.87,1.36,1.36,0,0,0-.91-.29,1.68,1.68,0,0,0-1.5.95,6.47,6.47,0,0,0-.61,3Z"/><path class="cls-1" d="M210.92,215.34a7.88,7.88,0,0,1-.43,2.54,6.35,6.35,0,0,1-1.22,2.2,6.13,6.13,0,0,1-2.09,1.56,6.79,6.79,0,0,1-2.82.56,3.86,3.86,0,0,1-2.27-.57,1.77,1.77,0,0,1-.8-1.53,2.47,2.47,0,0,1,.08-.63,1.6,1.6,0,0,1,.33-.61,1.49,1.49,0,0,1,.61-.46,2.1,2.1,0,0,1,.92-.19,1.83,1.83,0,0,1,1.56.72,10,10,0,0,1,1.13,2.18,1.75,1.75,0,0,0,.73-1.19,20.08,20.08,0,0,0,.24-4V207.5a1.54,1.54,0,0,0-.18-.75,1.71,1.71,0,0,0-.5-.54,2.43,2.43,0,0,0-.74-.3,6.48,6.48,0,0,0-.9-.18v-.89l6.17-.32.18.19Zm.05-15.21a2,2,0,0,1-.72,1.58,2.39,2.39,0,0,1-1.69.65,2.43,2.43,0,0,1-1.7-.65,2,2,0,0,1-.71-1.58,2.07,2.07,0,0,1,.71-1.59,2.44,2.44,0,0,1,1.7-.66,2.4,2.4,0,0,1,1.7.66A2.11,2.11,0,0,1,211,200.13Z"/><path class="cls-1" d="M229.87,216.52a8.53,8.53,0,0,1-1.27.43,5.91,5.91,0,0,1-1.54.2,4.22,4.22,0,0,1-2.21-.45,2.23,2.23,0,0,1-1-1.28h-.07a8,8,0,0,1-.8.71,4.16,4.16,0,0,1-.83.5,6,6,0,0,1-1.11.41,6.35,6.35,0,0,1-1.48.13,3.64,3.64,0,0,1-2.42-.84,2.72,2.72,0,0,1-1-2.22,3.6,3.6,0,0,1,.22-1.35,2.87,2.87,0,0,1,.62-1,3.2,3.2,0,0,1,.85-.65,8,8,0,0,1,1.06-.47q1.09-.41,2.64-.84a15.31,15.31,0,0,0,2.25-.78v-1.17c0-.2,0-.47,0-.81a2.46,2.46,0,0,0-.21-.84,1.54,1.54,0,0,0-1.5-.93,2.16,2.16,0,0,0-.9.16,2.8,2.8,0,0,0-.58.31,4.75,4.75,0,0,0,.21.74,3.15,3.15,0,0,1,.17,1,1.79,1.79,0,0,1-.11.52,1.13,1.13,0,0,1-.32.49,2.25,2.25,0,0,1-.63.38,3.18,3.18,0,0,1-1.07.13,2.17,2.17,0,0,1-1.55-.49,1.66,1.66,0,0,1-.53-1.29,1.71,1.71,0,0,1,.54-1.23,4.37,4.37,0,0,1,1.33-.89,7.07,7.07,0,0,1,1.77-.57,8.92,8.92,0,0,1,1.85-.2,14.71,14.71,0,0,1,2.18.14,5,5,0,0,1,1.78.58,3.12,3.12,0,0,1,1.2,1.24,4.32,4.32,0,0,1,.45,2.11c0,.92,0,2-.06,3.28s0,2.09,0,2.49a1.88,1.88,0,0,0,.16.86,1.08,1.08,0,0,0,.51.48,1.82,1.82,0,0,0,.65.11c.3,0,.57,0,.81,0Zm-6.05-6.36c-.46.16-.91.34-1.36.54a5.62,5.62,0,0,0-1.11.63,2.43,2.43,0,0,0-.71.87,2.89,2.89,0,0,0-.25,1.26,1.89,1.89,0,0,0,.43,1.38,1.5,1.5,0,0,0,1.07.43A2.07,2.07,0,0,0,223,215a3.11,3.11,0,0,0,.77-.68Z"/><path class="cls-1" d="M248.93,216.52l-6,.36-.18-.17v-1.13l-.08,0a5.22,5.22,0,0,1-1.62,1.13,4.76,4.76,0,0,1-2.05.48,5.13,5.13,0,0,1-4.06-1.83,6.92,6.92,0,0,1-1.6-4.74,6.15,6.15,0,0,1,1.79-4.42,5.82,5.82,0,0,1,4.32-1.84,7.48,7.48,0,0,1,1.87.23,5.35,5.35,0,0,1,1.41.53v-4a1.89,1.89,0,0,0-.19-.85,1.52,1.52,0,0,0-.48-.62,2.4,2.4,0,0,0-.95-.38,9,9,0,0,0-1.14-.17v-.89l6.6-.32.19.2v16a1.81,1.81,0,0,0,.15.78,1,1,0,0,0,.49.5,2.22,2.22,0,0,0,.74.2c.33,0,.6.06.81.07Zm-6.22-2.17v-6.9c-.06-.18-.14-.39-.24-.62a2.57,2.57,0,0,0-.42-.65,2.19,2.19,0,0,0-.65-.45,2.1,2.1,0,0,0-.92-.19,2.29,2.29,0,0,0-2,1.38,8,8,0,0,0-.78,3.89,10.63,10.63,0,0,0,.14,1.78,5,5,0,0,0,.49,1.43,2.79,2.79,0,0,0,.91,1,2.68,2.68,0,0,0,2.57.08A3.72,3.72,0,0,0,242.71,214.35Z"/><path class="cls-1" d="M264.55,206.11a5.59,5.59,0,0,1,1.38,2,6.6,6.6,0,0,1,.48,2.54,7,7,0,0,1-.47,2.55,5.62,5.62,0,0,1-1.38,2.06,6.47,6.47,0,0,1-2.3,1.4,8.77,8.77,0,0,1-3.06.49,8.33,8.33,0,0,1-2.74-.43,6.35,6.35,0,0,1-2.21-1.28,5.79,5.79,0,0,1-1.47-2,7.28,7.28,0,0,1-.06-5.3,5.82,5.82,0,0,1,1.41-2,6.13,6.13,0,0,1,2.22-1.32,9.71,9.71,0,0,1,6,0A6.44,6.44,0,0,1,264.55,206.11Zm-3.12,8.46a6.76,6.76,0,0,0,.39-1.66,16.86,16.86,0,0,0,.13-2.27,18.11,18.11,0,0,0-.12-1.95,6.85,6.85,0,0,0-.37-1.74,2.77,2.77,0,0,0-.81-1.2,1.92,1.92,0,0,0-1.31-.44,2,2,0,0,0-1.39.47,3.24,3.24,0,0,0-.8,1.23,7.17,7.17,0,0,0-.35,1.63,17.67,17.67,0,0,0-.1,2c0,.89,0,1.62.09,2.2a6.6,6.6,0,0,0,.41,1.76,2.8,2.8,0,0,0,.81,1.19,2.19,2.19,0,0,0,2.59,0A2.73,2.73,0,0,0,261.43,214.57Z"/><path class="cls-1" d="M292.15,213.86a7.07,7.07,0,0,1-1,1.31,5.91,5.91,0,0,1-1.37,1.06,7.64,7.64,0,0,1-1.66.7,7,7,0,0,1-1.92.24,8.64,8.64,0,0,1-3.12-.51,6.12,6.12,0,0,1-2.17-1.38,5.63,5.63,0,0,1-1.27-2.05,7.5,7.5,0,0,1-.42-2.55,6.28,6.28,0,0,1,.46-2.39,6.13,6.13,0,0,1,1.3-2,6.21,6.21,0,0,1,2.09-1.41,7.28,7.28,0,0,1,2.83-.53,8.2,8.2,0,0,1,2.8.41,4.94,4.94,0,0,1,1.82,1.15,4,4,0,0,1,1,1.64,6,6,0,0,1,.32,2v.8h-8.25a6.37,6.37,0,0,0,1,3.81,4,4,0,0,0,5.13.67,5.77,5.77,0,0,0,1.56-1.59Zm-4.66-4.64c0-.48,0-1-.07-1.5a5,5,0,0,0-.26-1.25,1.89,1.89,0,0,0-.57-.87,1.36,1.36,0,0,0-.91-.29,1.68,1.68,0,0,0-1.5.95,6.47,6.47,0,0,0-.61,3Z"/><path class="cls-1" d="M311.79,216.78h-7.34v-.89l.56-.06a1.92,1.92,0,0,0,.5-.12.78.78,0,0,0,.37-.39,2.14,2.14,0,0,0,.11-.76v-5.71a3.16,3.16,0,0,0-.46-1.88,1.57,1.57,0,0,0-1.35-.63,2.67,2.67,0,0,0-.91.15,3.28,3.28,0,0,0-.83.43,2.61,2.61,0,0,0-.57.5l-.36.45v6.55a1.87,1.87,0,0,0,.12.72.86.86,0,0,0,.41.43,2.17,2.17,0,0,0,.48.2l.58.12v.89h-7.43v-.89l.62-.07a4,4,0,0,0,.53-.11.91.91,0,0,0,.54-.42,1.55,1.55,0,0,0,.15-.73v-7.11a1.55,1.55,0,0,0-.2-.74,1.85,1.85,0,0,0-.51-.6,1.82,1.82,0,0,0-.56-.24,3.89,3.89,0,0,0-.74-.14v-.89l5.83-.32.18.19v1.77h.05c.23-.21.5-.45.83-.73a7.69,7.69,0,0,1,.9-.7,4.3,4.3,0,0,1,1.19-.5,5.6,5.6,0,0,1,1.56-.21,3.76,3.76,0,0,1,3,1.13,4.33,4.33,0,0,1,1,3v6a1.63,1.63,0,0,0,.13.72,1,1,0,0,0,.5.43l.48.17a5.23,5.23,0,0,0,.66.12Z"/><path class="cls-1" d="M347.91,216.78h-9.39v-.95l1-.12a3.29,3.29,0,0,0,.82-.19,1.26,1.26,0,0,0,.65-.5,1.51,1.51,0,0,0,.2-.8V201.28l-6,15.22h-1.54c-.07-.27-.25-.8-.54-1.6s-.53-1.44-.7-1.92l-4.39-11.9v10.54a9.53,9.53,0,0,0,.21,2.3,2.07,2.07,0,0,0,.65,1.15,3.11,3.11,0,0,0,1.09.49,10.09,10.09,0,0,0,1.1.27v.95h-7.44v-.95c.2,0,.53-.08,1-.17a2.7,2.7,0,0,0,1.13-.44,1.75,1.75,0,0,0,.66-1.16,11.44,11.44,0,0,0,.17-2.31v-8.58a3.76,3.76,0,0,0-.19-1.3,1.8,1.8,0,0,0-.59-.82,2.33,2.33,0,0,0-1-.49,6.06,6.06,0,0,0-1-.15v-.95h8l4.28,11.41,3.59-9.26c.12-.34.24-.75.36-1.22a7.45,7.45,0,0,0,.18-.93h7.67v.95a8.13,8.13,0,0,0-.81.1,6.56,6.56,0,0,0-.82.19,1,1,0,0,0-.63.5,1.87,1.87,0,0,0-.15.76v12.27a1.65,1.65,0,0,0,.15.74,1.26,1.26,0,0,0,.63.52,3.63,3.63,0,0,0,.8.2l.86.14Z"/><path class="cls-1" d="M365.86,216.52a8.53,8.53,0,0,1-1.27.43,6,6,0,0,1-1.55.2,4.2,4.2,0,0,1-2.2-.45,2.23,2.23,0,0,1-1-1.28h-.08a6.28,6.28,0,0,1-.8.71,3.83,3.83,0,0,1-.82.5,5,5,0,0,1-2.59.54,3.62,3.62,0,0,1-2.42-.84,2.73,2.73,0,0,1-1-2.22,3.81,3.81,0,0,1,.22-1.35,3.24,3.24,0,0,1,1.48-1.63,8.5,8.5,0,0,1,1.05-.47q1.11-.41,2.64-.84a14.5,14.5,0,0,0,2.25-.78v-1.17a6.9,6.9,0,0,0-.05-.81,2.73,2.73,0,0,0-.2-.84,1.72,1.72,0,0,0-.54-.66,1.58,1.58,0,0,0-1-.27,2.16,2.16,0,0,0-.9.16,2.56,2.56,0,0,0-.58.31,3.83,3.83,0,0,0,.21.74,3.15,3.15,0,0,1,.17,1,1.79,1.79,0,0,1-.11.52,1.23,1.23,0,0,1-.32.49,2.25,2.25,0,0,1-.63.38,3.18,3.18,0,0,1-1.07.13,2.2,2.2,0,0,1-1.56-.49,1.69,1.69,0,0,1-.52-1.29,1.71,1.71,0,0,1,.54-1.23,4.32,4.32,0,0,1,1.32-.89,7.35,7.35,0,0,1,1.77-.57,9.08,9.08,0,0,1,1.86-.2,14.57,14.57,0,0,1,2.17.14,4.85,4.85,0,0,1,1.78.58,3.08,3.08,0,0,1,1.21,1.24,4.44,4.44,0,0,1,.44,2.11c0,.92,0,2-.05,3.28s-.06,2.09-.06,2.49a1.87,1.87,0,0,0,.17.86,1.11,1.11,0,0,0,.5.48,1.93,1.93,0,0,0,.66.11c.29,0,.56,0,.81,0Zm-6.06-6.36c-.45.16-.91.34-1.36.54a5.82,5.82,0,0,0-1.1.63,2.33,2.33,0,0,0-.71.87,2.89,2.89,0,0,0-.26,1.26,1.89,1.89,0,0,0,.44,1.38,1.5,1.5,0,0,0,1.07.43A2.07,2.07,0,0,0,359,215a2.9,2.9,0,0,0,.76-.68Z"/><path class="cls-1" d="M381.31,206.91a2.44,2.44,0,0,1-.58,1.62,1.84,1.84,0,0,1-1.51.71,2.48,2.48,0,0,1-1.51-.45,1.55,1.55,0,0,1-.62-1.33,2.76,2.76,0,0,1,.07-.66c0-.16.07-.31.11-.44a2.54,2.54,0,0,0-1.19.38,4,4,0,0,0-1.1,1v6.7a1.63,1.63,0,0,0,.14.71,1,1,0,0,0,.45.44,3.48,3.48,0,0,0,.87.23c.4.06.7.09.88.1v.89h-8.17v-.89l.61-.07a4.63,4.63,0,0,0,.54-.11.86.86,0,0,0,.53-.42,1.55,1.55,0,0,0,.15-.73v-7.11a1.47,1.47,0,0,0-.21-.78,1.71,1.71,0,0,0-.5-.56,1.86,1.86,0,0,0-.55-.24,4,4,0,0,0-.74-.14v-.89l5.82-.32.18.19v1.77h0a7.19,7.19,0,0,1,1.79-1.53,3.85,3.85,0,0,1,2-.56,2.44,2.44,0,0,1,1.83.7A2.48,2.48,0,0,1,381.31,206.91Z"/><path class="cls-1" d="M70.66,260.72a10.22,10.22,0,0,1-3.57-.62,8.1,8.1,0,0,1-4.8-4.63,10.36,10.36,0,0,1,0-7.46,8.91,8.91,0,0,1,2-3,8.66,8.66,0,0,1,3-1.91,10.3,10.3,0,0,1,3.74-.68,9,9,0,0,1,2.62.36,10.41,10.41,0,0,1,2,.79l.76-.67h1.06l.11,6.32H76.48a11.07,11.07,0,0,0-2.2-4.26,4.13,4.13,0,0,0-3.12-1.35,3.8,3.8,0,0,0-3.48,2,11.19,11.19,0,0,0-1.2,5.68,13.37,13.37,0,0,0,.41,3.53A7.13,7.13,0,0,0,68,257.21a4.25,4.25,0,0,0,1.67,1.36,5.1,5.1,0,0,0,2.13.44,5.18,5.18,0,0,0,3-.93,8.71,8.71,0,0,0,2.44-2.81l1.05.64a10.77,10.77,0,0,1-1.2,1.92,7.39,7.39,0,0,1-1.55,1.46,7.83,7.83,0,0,1-2.13,1A9,9,0,0,1,70.66,260.72Z"/><path class="cls-1" d="M95.62,260a8,8,0,0,1-1.26.43,6,6,0,0,1-1.55.2,4.18,4.18,0,0,1-2.2-.45,2.2,2.2,0,0,1-1-1.28h-.07a7,7,0,0,1-.8.71,3.9,3.9,0,0,1-.83.5,6.22,6.22,0,0,1-1.1.41,6.44,6.44,0,0,1-1.49.13,3.66,3.66,0,0,1-2.42-.84,2.72,2.72,0,0,1-1-2.22,3.6,3.6,0,0,1,.22-1.35,3,3,0,0,1,.62-1,3.37,3.37,0,0,1,.85-.65,8.66,8.66,0,0,1,1.06-.47q1.09-.41,2.64-.84a14.5,14.5,0,0,0,2.25-.78v-1.17c0-.2,0-.47,0-.81a2.46,2.46,0,0,0-.21-.84,1.51,1.51,0,0,0-1.5-.93,2.12,2.12,0,0,0-.89.16,2.66,2.66,0,0,0-.59.31,6.25,6.25,0,0,0,.21.74,2.88,2.88,0,0,1,.17,1,1.51,1.51,0,0,1-.11.52,1.21,1.21,0,0,1-.31.49,2.25,2.25,0,0,1-.63.38,3.24,3.24,0,0,1-1.08.13A2.19,2.19,0,0,1,83,252a1.74,1.74,0,0,1,0-2.52,4.32,4.32,0,0,1,1.32-.89,7.07,7.07,0,0,1,1.77-.57,9.08,9.08,0,0,1,1.86-.2,14.57,14.57,0,0,1,2.17.14,4.91,4.91,0,0,1,1.78.58,3,3,0,0,1,1.2,1.24,4.32,4.32,0,0,1,.45,2.11q0,1.38-.06,3.27c0,1.27-.05,2.1-.05,2.5a1.88,1.88,0,0,0,.16.86,1.08,1.08,0,0,0,.51.48,1.91,1.91,0,0,0,.65.11c.3,0,.57,0,.81,0Zm-6.05-6.36c-.46.16-.91.34-1.36.54a5.24,5.24,0,0,0-1.1.63,2.33,2.33,0,0,0-.71.87,2.89,2.89,0,0,0-.26,1.26,1.89,1.89,0,0,0,.44,1.38,1.48,1.48,0,0,0,1.07.43,2.07,2.07,0,0,0,1.11-.28,3.07,3.07,0,0,0,.76-.68Z"/><path class="cls-1" d="M114.69,260l-6,.36-.18-.17V259l-.09,0a5.29,5.29,0,0,1-1.61,1.13,4.81,4.81,0,0,1-2.06.48,5.16,5.16,0,0,1-4.06-1.83,7,7,0,0,1-1.59-4.74,6.14,6.14,0,0,1,1.78-4.42,5.82,5.82,0,0,1,4.32-1.84,7.56,7.56,0,0,1,1.88.23,5.27,5.27,0,0,1,1.4.53v-4a2,2,0,0,0-.18-.85,1.54,1.54,0,0,0-.49-.62,2.34,2.34,0,0,0-1-.38,8.46,8.46,0,0,0-1.14-.17v-.89l6.61-.32.18.2v16a1.81,1.81,0,0,0,.15.78,1.08,1.08,0,0,0,.49.5,2.22,2.22,0,0,0,.75.2c.33,0,.6.06.81.07Zm-6.23-2.17v-6.9a3.87,3.87,0,0,0-.24-.62,2.57,2.57,0,0,0-.42-.65,2.19,2.19,0,0,0-.65-.45,2.1,2.1,0,0,0-.92-.19,2.28,2.28,0,0,0-2,1.38,8,8,0,0,0-.78,3.89,9.67,9.67,0,0,0,.14,1.78,4.48,4.48,0,0,0,.49,1.43,2.79,2.79,0,0,0,.91,1,2.66,2.66,0,0,0,2.56.08A3.37,3.37,0,0,0,108.46,257.81Z"/><path class="cls-1" d="M131.79,260a8,8,0,0,1-1.26.43,6,6,0,0,1-1.55.2,4.18,4.18,0,0,1-2.2-.45,2.2,2.2,0,0,1-1-1.28h-.07a7,7,0,0,1-.8.71,3.9,3.9,0,0,1-.83.5,6.22,6.22,0,0,1-1.1.41,6.44,6.44,0,0,1-1.49.13,3.66,3.66,0,0,1-2.42-.84,2.72,2.72,0,0,1-1-2.22,3.6,3.6,0,0,1,.22-1.35,3,3,0,0,1,.62-1,3.37,3.37,0,0,1,.85-.65,8.66,8.66,0,0,1,1.06-.47q1.09-.41,2.64-.84a14.5,14.5,0,0,0,2.25-.78v-1.17c0-.2,0-.47,0-.81a2.46,2.46,0,0,0-.21-.84,1.51,1.51,0,0,0-1.5-.93,2.2,2.2,0,0,0-.9.16,2.8,2.8,0,0,0-.58.31,6.25,6.25,0,0,0,.21.74,2.88,2.88,0,0,1,.17,1,1.51,1.51,0,0,1-.11.52,1.21,1.21,0,0,1-.31.49,2.25,2.25,0,0,1-.63.38,3.24,3.24,0,0,1-1.08.13,2.19,2.19,0,0,1-1.55-.49,1.74,1.74,0,0,1,0-2.52,4.32,4.32,0,0,1,1.32-.89,7.07,7.07,0,0,1,1.77-.57,9.08,9.08,0,0,1,1.86-.2,14.57,14.57,0,0,1,2.17.14,4.91,4.91,0,0,1,1.78.58,3,3,0,0,1,1.2,1.24,4.32,4.32,0,0,1,.45,2.11q0,1.38-.06,3.27c0,1.27-.05,2.1-.05,2.5a1.88,1.88,0,0,0,.16.86,1.08,1.08,0,0,0,.51.48,1.91,1.91,0,0,0,.65.11c.3,0,.57,0,.81,0Zm-6-6.36c-.46.16-.91.34-1.36.54a5.24,5.24,0,0,0-1.1.63,2.33,2.33,0,0,0-.71.87,2.89,2.89,0,0,0-.26,1.26,1.89,1.89,0,0,0,.44,1.38,1.48,1.48,0,0,0,1.07.43,2.07,2.07,0,0,0,1.11-.28,3.07,3.07,0,0,0,.76-.68Z"/><path class="cls-1" d="M158.35,254.27a6.21,6.21,0,0,1-6.41,6.36,9.8,9.8,0,0,1-1.85-.15,7.26,7.26,0,0,1-1.31-.37,5.28,5.28,0,0,1-.9-.46c-.23-.15-.4-.28-.53-.37l-1.75,1.58-.72-.28c0-.59.08-1.24.11-1.93s0-1.64,0-2.82V244.41a2,2,0,0,0-.19-.86,1.48,1.48,0,0,0-.51-.61,2.49,2.49,0,0,0-.67-.25,4.64,4.64,0,0,0-.83-.14v-.89l6-.32.19.2v7.93h.07A6.18,6.18,0,0,1,151,248.2a4.85,4.85,0,0,1,1.88-.4,5,5,0,0,1,4,1.75A7.1,7.1,0,0,1,158.35,254.27Zm-4.39.15a10.39,10.39,0,0,0-.14-1.79,5.53,5.53,0,0,0-.46-1.52,2.94,2.94,0,0,0-.87-1.06,2.2,2.2,0,0,0-1.33-.39,2.81,2.81,0,0,0-1.23.24,2.66,2.66,0,0,0-.87.72v7.11a5.1,5.1,0,0,0,.27.64,2.39,2.39,0,0,0,.41.61,1.83,1.83,0,0,0,1.55.65,2.18,2.18,0,0,0,2-1.36A8.52,8.52,0,0,0,154,254.42Z"/><path class="cls-1" d="M174.73,249.57a5.36,5.36,0,0,1,1.38,2,6.59,6.59,0,0,1,.48,2.53,7,7,0,0,1-.47,2.56,5.6,5.6,0,0,1-1.37,2.06,6.56,6.56,0,0,1-2.3,1.4,8.81,8.81,0,0,1-3.06.49,8.25,8.25,0,0,1-2.74-.43,6.3,6.3,0,0,1-2.22-1.28,5.65,5.65,0,0,1-1.46-2,6.5,6.5,0,0,1-.54-2.69,6.9,6.9,0,0,1,.47-2.61,5.82,5.82,0,0,1,1.41-2,6.09,6.09,0,0,1,2.23-1.32,9.71,9.71,0,0,1,6,0A6.39,6.39,0,0,1,174.73,249.57ZM171.61,258a7.22,7.22,0,0,0,.4-1.66,18.86,18.86,0,0,0,.12-2.27,18.11,18.11,0,0,0-.12-1.95,7.37,7.37,0,0,0-.36-1.74,2.88,2.88,0,0,0-.82-1.2,1.91,1.91,0,0,0-1.31-.44,1.93,1.93,0,0,0-1.38.47,3,3,0,0,0-.8,1.23,7.15,7.15,0,0,0-.36,1.63c-.06.63-.1,1.28-.1,2,0,.89,0,1.62.09,2.2a7.48,7.48,0,0,0,.41,1.76,2.8,2.8,0,0,0,.81,1.19,2.19,2.19,0,0,0,2.59,0A2.66,2.66,0,0,0,171.61,258Z"/><path class="cls-1" d="M189.6,259.68a14.34,14.34,0,0,1-1.68.61,7.15,7.15,0,0,1-2.17.28,3.8,3.8,0,0,1-2.82-.93A3.56,3.56,0,0,1,182,257v-7.49h-2.19v-1.33h2.24v-3.7h4v3.7h3.43v1.33H186v6.68a3.83,3.83,0,0,0,.4,2,1.59,1.59,0,0,0,1.43.6,9.18,9.18,0,0,0,.92-.05,5.41,5.41,0,0,0,.82-.11Z"/><path class="cls-1" d="M205.92,257.32a7.07,7.07,0,0,1-1,1.31,5.91,5.91,0,0,1-1.37,1.06,7.64,7.64,0,0,1-1.66.7,6.9,6.9,0,0,1-1.92.24,8.64,8.64,0,0,1-3.12-.51,6.08,6.08,0,0,1-2.16-1.38,5.52,5.52,0,0,1-1.28-2.05,7.5,7.5,0,0,1-.42-2.55,6.42,6.42,0,0,1,1.76-4.42,6.21,6.21,0,0,1,2.09-1.41,7.28,7.28,0,0,1,2.83-.53,8.16,8.16,0,0,1,2.8.41,4.94,4.94,0,0,1,1.82,1.15,4.17,4.17,0,0,1,1,1.64,6.22,6.22,0,0,1,.31,2v.8h-8.25a6.3,6.3,0,0,0,1,3.81,4,4,0,0,0,5.12.67,5.94,5.94,0,0,0,1.57-1.59Zm-4.66-4.64c0-.48,0-1-.07-1.5a5,5,0,0,0-.26-1.25,1.89,1.89,0,0,0-.57-.87,1.36,1.36,0,0,0-.91-.29,1.69,1.69,0,0,0-1.5.95,6.47,6.47,0,0,0-.61,3Z"/><path class="cls-1" d="M216.9,260.24h-7.69v-.89l.62-.06a3.35,3.35,0,0,0,.54-.12.93.93,0,0,0,.53-.42A1.56,1.56,0,0,0,211,258V244.49a2.07,2.07,0,0,0-.18-.86,1.51,1.51,0,0,0-.51-.6,2.82,2.82,0,0,0-.74-.31,4.13,4.13,0,0,0-.87-.17v-.89l6.15-.32.18.2v16.32a1.52,1.52,0,0,0,.16.73,1,1,0,0,0,.52.44,3.52,3.52,0,0,0,.52.2,4.43,4.43,0,0,0,.63.12Z"/><path class="cls-1" d="M227.86,260.24h-7.69v-.89l.62-.06a3.22,3.22,0,0,0,.53-.12,1,1,0,0,0,.54-.42A1.69,1.69,0,0,0,222,258V244.49a1.93,1.93,0,0,0-.19-.86,1.44,1.44,0,0,0-.51-.6,2.73,2.73,0,0,0-.73-.31,4.09,4.09,0,0,0-.88-.17v-.89l6.16-.32.18.2v16.32a1.41,1.41,0,0,0,.16.73,1,1,0,0,0,.52.44,3.86,3.86,0,0,0,.51.2,4.32,4.32,0,0,0,.64.12Z"/><path class="cls-1" d="M245.31,260a8.53,8.53,0,0,1-1.27.43,6,6,0,0,1-1.54.2,4.22,4.22,0,0,1-2.21-.45,2.23,2.23,0,0,1-1-1.28h-.08a6.28,6.28,0,0,1-.8.71,3.83,3.83,0,0,1-.82.5,6,6,0,0,1-1.11.41,6.35,6.35,0,0,1-1.48.13,3.62,3.62,0,0,1-2.42-.84,2.73,2.73,0,0,1-1-2.22,3.81,3.81,0,0,1,.22-1.35,3.24,3.24,0,0,1,1.48-1.63,8.5,8.5,0,0,1,1.05-.47q1.11-.41,2.64-.84a14.5,14.5,0,0,0,2.25-.78v-1.17c0-.2,0-.47,0-.81a3,3,0,0,0-.21-.84,1.63,1.63,0,0,0-.54-.66,1.58,1.58,0,0,0-1-.27,2.16,2.16,0,0,0-.9.16,2.8,2.8,0,0,0-.58.31,3.83,3.83,0,0,0,.21.74,3.15,3.15,0,0,1,.17,1,1.79,1.79,0,0,1-.11.52,1.23,1.23,0,0,1-.32.49,2.25,2.25,0,0,1-.63.38,3.18,3.18,0,0,1-1.07.13,2.2,2.2,0,0,1-1.56-.49,1.69,1.69,0,0,1-.52-1.29,1.71,1.71,0,0,1,.54-1.23,4.32,4.32,0,0,1,1.32-.89,7.35,7.35,0,0,1,1.77-.57,9.08,9.08,0,0,1,1.86-.2,14.57,14.57,0,0,1,2.17.14,4.85,4.85,0,0,1,1.78.58,3.08,3.08,0,0,1,1.21,1.24,4.44,4.44,0,0,1,.44,2.11c0,.92,0,2-.05,3.27s-.06,2.1-.06,2.5a1.87,1.87,0,0,0,.17.86,1.11,1.11,0,0,0,.5.48,1.93,1.93,0,0,0,.66.11c.29,0,.56,0,.81,0Zm-6.06-6.36c-.45.16-.91.34-1.36.54a5.82,5.82,0,0,0-1.1.63,2.33,2.33,0,0,0-.71.87,2.89,2.89,0,0,0-.26,1.26,1.89,1.89,0,0,0,.44,1.38,1.5,1.5,0,0,0,1.07.43,2.07,2.07,0,0,0,1.11-.28,3.11,3.11,0,0,0,.77-.68Z"/><path class="cls-1" d="M270.42,257.32a7.51,7.51,0,0,1-1,1.31,5.76,5.76,0,0,1-1.38,1.06,7.36,7.36,0,0,1-1.65.7,7,7,0,0,1-1.92.24,8.57,8.57,0,0,1-3.12-.51,6,6,0,0,1-2.17-1.38,5.49,5.49,0,0,1-1.27-2.05,7.5,7.5,0,0,1-.42-2.55,6.35,6.35,0,0,1,1.75-4.42,6.25,6.25,0,0,1,2.1-1.41,7.27,7.27,0,0,1,2.82-.53,8.22,8.22,0,0,1,2.81.41,5,5,0,0,1,1.82,1.15,4.15,4.15,0,0,1,1,1.64,6.22,6.22,0,0,1,.32,2v.8h-8.25a6.37,6.37,0,0,0,1,3.81,4,4,0,0,0,5.13.67,5.77,5.77,0,0,0,1.56-1.59Zm-4.66-4.64c0-.48,0-1-.08-1.5a5.08,5.08,0,0,0-.25-1.25,1.89,1.89,0,0,0-.57-.87,1.36,1.36,0,0,0-.91-.29,1.67,1.67,0,0,0-1.5.95,6.35,6.35,0,0,0-.61,3Z"/><path class="cls-1" d="M279.59,260.66a7.84,7.84,0,0,1-2.31-.35,7.44,7.44,0,0,1-1.75-.74l-.37.83h-1l-.16-4.55h.89a7,7,0,0,0,.61,1.23,6.7,6.7,0,0,0,1,1.24,5.36,5.36,0,0,0,1.31.93,3.44,3.44,0,0,0,1.58.38,2.66,2.66,0,0,0,1.66-.43,1.62,1.62,0,0,0,.54-1.34,1.32,1.32,0,0,0-.24-.81,2.33,2.33,0,0,0-.67-.55,6.2,6.2,0,0,0-1-.41l-1.4-.42a12.83,12.83,0,0,1-1.42-.49,4.92,4.92,0,0,1-1.22-.79,3.53,3.53,0,0,1-.88-1.14,3.63,3.63,0,0,1-.33-1.6,3.31,3.31,0,0,1,1.44-2.79,6.32,6.32,0,0,1,3.79-1.06,8.75,8.75,0,0,1,2.05.23,10.53,10.53,0,0,1,1.57.49l.25-.72h.93l.2,4.16h-.86a5.07,5.07,0,0,0-1.46-2.19,3.35,3.35,0,0,0-2.24-.92,2.44,2.44,0,0,0-1.47.39,1.26,1.26,0,0,0-.54,1.09,1.41,1.41,0,0,0,.78,1.34,10.28,10.28,0,0,0,2.2.78,7.34,7.34,0,0,1,3.2,1.53,3.32,3.32,0,0,1,1,2.48,3.57,3.57,0,0,1-1.57,3.1A7,7,0,0,1,279.59,260.66Z"/><path class="cls-1" d="M313.72,260l-5.82.36-.18-.17v-1.6h-.07l-.82.74a4.57,4.57,0,0,1-.94.65,6.31,6.31,0,0,1-1.18.49,6.43,6.43,0,0,1-1.61.16,3.55,3.55,0,0,1-2.82-1.11,4.58,4.58,0,0,1-1-3.14v-5.49a1.41,1.41,0,0,0-.19-.78,1.85,1.85,0,0,0-.48-.53,1.52,1.52,0,0,0-.63-.26,5.39,5.39,0,0,0-.71-.11v-.89l5.9-.32.13.19v8.12a2.88,2.88,0,0,0,.49,1.85,1.6,1.6,0,0,0,1.32.6,2.79,2.79,0,0,0,1.56-.45,3.21,3.21,0,0,0,1-1v-6.58a1.78,1.78,0,0,0-.15-.74,1.36,1.36,0,0,0-.47-.54,1.38,1.38,0,0,0-.63-.19c-.27,0-.55-.06-.83-.08v-.89l5.93-.32.18.19v9.42a1.49,1.49,0,0,0,.17.73,1.41,1.41,0,0,0,.5.5,1.51,1.51,0,0,0,.6.21l.73.06ZM309,242.42a1.48,1.48,0,0,1-.25.88,3,3,0,0,1-.8.69c-.4.26-1,.63-1.9,1.11s-1.83,1-2.93,1.7l-.51-.46c.72-1,1.27-1.71,1.66-2.28s.73-1.05,1-1.45a3.36,3.36,0,0,1,1-1,2.34,2.34,0,0,1,1.18-.27,1.89,1.89,0,0,1,1.06.32A.91.91,0,0,1,309,242.42Z"/><path class="cls-1" d="M333.19,260.24h-7.34v-.89l.57-.06a2.15,2.15,0,0,0,.5-.12.76.76,0,0,0,.36-.39,2.14,2.14,0,0,0,.11-.76v-5.71a3.16,3.16,0,0,0-.46-1.88,1.56,1.56,0,0,0-1.35-.63,2.67,2.67,0,0,0-.91.15,3.46,3.46,0,0,0-.83.43,2.87,2.87,0,0,0-.57.5l-.36.45v6.55a1.87,1.87,0,0,0,.12.72.86.86,0,0,0,.41.43,2.17,2.17,0,0,0,.48.2l.58.12v.89h-7.42v-.89l.61-.07a4,4,0,0,0,.53-.11.91.91,0,0,0,.54-.42,1.55,1.55,0,0,0,.15-.73v-7.11a1.55,1.55,0,0,0-.2-.74,1.85,1.85,0,0,0-.51-.6,1.82,1.82,0,0,0-.56-.24,3.94,3.94,0,0,0-.73-.14v-.89l5.82-.32.18.19v1.77h0c.23-.21.5-.45.83-.73a8.63,8.63,0,0,1,.9-.7,4.3,4.3,0,0,1,1.19-.5,5.65,5.65,0,0,1,1.56-.21,3.76,3.76,0,0,1,3,1.13,4.33,4.33,0,0,1,1,3v6a1.63,1.63,0,0,0,.13.72,1,1,0,0,0,.5.43l.49.17a5.06,5.06,0,0,0,.65.12Z"/><path class="cls-1" d="M344.39,260.24h-7.72v-.89l.63-.06a3.08,3.08,0,0,0,.52-.12,1.06,1.06,0,0,0,.55-.42,1.44,1.44,0,0,0,.16-.73v-7.11a1.45,1.45,0,0,0-.2-.75,1.72,1.72,0,0,0-.48-.52,3,3,0,0,0-.67-.28,4.91,4.91,0,0,0-.81-.17v-.89l6-.32.18.19v9.69a1.32,1.32,0,0,0,.19.73,1.08,1.08,0,0,0,.52.44,3.39,3.39,0,0,0,.54.2,5.49,5.49,0,0,0,.61.12Zm-1.78-16.65a2,2,0,0,1-.72,1.58,2.54,2.54,0,0,1-3.39,0,2,2,0,0,1-.72-1.58,2.08,2.08,0,0,1,.72-1.59,2.52,2.52,0,0,1,3.4,0A2.11,2.11,0,0,1,342.61,243.59Z"/><path class="cls-1" d="M354.83,260.63a8.33,8.33,0,0,1-3-.49,5.9,5.9,0,0,1-2.15-1.35,5.45,5.45,0,0,1-1.25-2.05,7.67,7.67,0,0,1-.42-2.58,5.9,5.9,0,0,1,.51-2.42,6.64,6.64,0,0,1,1.37-2,6.52,6.52,0,0,1,2.22-1.42,7.63,7.63,0,0,1,2.92-.53,6.5,6.5,0,0,1,3.55.84,2.62,2.62,0,0,1,1.31,2.29,2.1,2.1,0,0,1-.47,1.42,2,2,0,0,1-1.59.54,2.6,2.6,0,0,1-1.54-.44,1.36,1.36,0,0,1-.61-1.15,3.69,3.69,0,0,1,.19-1.18,4.65,4.65,0,0,0,.23-.89.92.92,0,0,0-.34-.34,1.34,1.34,0,0,0-.65-.12,2,2,0,0,0-1,.26,2.46,2.46,0,0,0-.84.9,5.43,5.43,0,0,0-.6,1.64,11.56,11.56,0,0,0-.23,2.46,5.63,5.63,0,0,0,1,3.51,3,3,0,0,0,2.44,1.33,3.43,3.43,0,0,0,2.15-.61,5.36,5.36,0,0,0,1.42-1.71l.92.63a7,7,0,0,1-.9,1.37,5.82,5.82,0,0,1-1.26,1.09,7,7,0,0,1-1.56.76A6.42,6.42,0,0,1,354.83,260.63Z"/><path class="cls-1" d="M377.45,260a8.53,8.53,0,0,1-1.27.43,6,6,0,0,1-1.55.2,4.18,4.18,0,0,1-2.2-.45,2.24,2.24,0,0,1-1-1.28h-.07a7,7,0,0,1-.8.71,3.9,3.9,0,0,1-.83.5,6.22,6.22,0,0,1-1.1.41,6.44,6.44,0,0,1-1.49.13,3.66,3.66,0,0,1-2.42-.84,2.72,2.72,0,0,1-1-2.22,3.6,3.6,0,0,1,.22-1.35,3,3,0,0,1,.62-1,3.37,3.37,0,0,1,.85-.65,8.66,8.66,0,0,1,1.06-.47q1.1-.41,2.64-.84a14.5,14.5,0,0,0,2.25-.78v-1.17a6.9,6.9,0,0,0-.05-.81,2.46,2.46,0,0,0-.21-.84,1.51,1.51,0,0,0-1.5-.93,2.12,2.12,0,0,0-.89.16,2.56,2.56,0,0,0-.58.31,4.46,4.46,0,0,0,.2.74,2.9,2.9,0,0,1,.18,1,1.57,1.57,0,0,1-.12.52,1.12,1.12,0,0,1-.31.49,2.25,2.25,0,0,1-.63.38,3.24,3.24,0,0,1-1.08.13,2.19,2.19,0,0,1-1.55-.49,1.74,1.74,0,0,1,0-2.52,4.32,4.32,0,0,1,1.32-.89A7.07,7.07,0,0,1,368,248a9.08,9.08,0,0,1,1.86-.2,14.57,14.57,0,0,1,2.17.14,4.91,4.91,0,0,1,1.78.58,3,3,0,0,1,1.2,1.24,4.32,4.32,0,0,1,.45,2.11q0,1.38-.06,3.27c0,1.27-.05,2.1-.05,2.5a1.88,1.88,0,0,0,.16.86,1.08,1.08,0,0,0,.51.48,1.91,1.91,0,0,0,.65.11c.3,0,.57,0,.82,0Zm-6.06-6.36c-.46.16-.91.34-1.36.54a5.24,5.24,0,0,0-1.1.63,2.33,2.33,0,0,0-.71.87,2.89,2.89,0,0,0-.26,1.26,1.89,1.89,0,0,0,.44,1.38,1.48,1.48,0,0,0,1.07.43,2.07,2.07,0,0,0,1.11-.28,3.07,3.07,0,0,0,.76-.68Z"/><path class="cls-1" d="M386.55,258.21a2.29,2.29,0,0,1-.72,1.68,2.4,2.4,0,0,1-3.39,0,2.25,2.25,0,0,1-.72-1.68,2.42,2.42,0,0,1,4.83,0Z"/></svg>