<?xml version="1.0" encoding="utf-8"?>
<!-- Generator: Adobe Illustrator 25.2.0, SVG Export Plug-In . SVG Version: 6.00 Build 0)  -->
<svg version="1.1" id="Layer_1" focusable="false" xmlns="http://www.w3.org/2000/svg" xmlns:xlink="http://www.w3.org/1999/xlink"
	 x="0px" y="0px" viewBox="0 0 512 512" style="enable-background:new 0 0 512 512;" xml:space="preserve">
<style type="text/css">
	.st0{fill:#FFFFFF;}
</style>
<g>
	<path class="st0" d="M259.8,23.9C134.2,23.9,32.1,126,32.1,251.6s102.1,227.2,227.7,227.2s227.7-102.1,227.7-227.2
		S385.4,23.9,259.8,23.9z M147.3,286.4c-19.3,0-35.3-15.5-35.3-35.3s15.5-35.3,35.3-35.3s35.3,15.5,35.3,35.3
		S166.6,286.4,147.3,286.4z M259.8,286.4c-19.3,0-35.3-15.5-35.3-35.3s15.5-35.3,35.3-35.3s35.3,15.5,35.3,35.3
		S279.1,286.4,259.8,286.4z M372.2,286.4c-19.3,0-35.3-15.5-35.3-35.3s15.5-35.3,35.3-35.3s35.3,15.5,35.3,35.3
		S392,286.4,372.2,286.4z"/>
</g>
</svg>
