<?xml version="1.0" encoding="utf-8"?>
<!-- Generator: Adobe Illustrator 25.2.0, SVG Export Plug-In . SVG Version: 6.00 Build 0)  -->
<svg version="1.1" id="Layer_1" xmlns="http://www.w3.org/2000/svg" xmlns:xlink="http://www.w3.org/1999/xlink" x="0px" y="0px"
	 viewBox="0 0 3260.4 1932.3" style="enable-background:new 0 0 3260.4 1932.3;" xml:space="preserve">
<style type="text/css">
	.st0{fill:#FCCC00;}
	.st1{opacity:0.65;fill:#FFFF99;enable-background:new    ;}
	.st2{opacity:0.65;}
	.st3{fill:#FFFF99;}
</style>
<g>
	<g id="Layer_4">
		<rect y="0.3" class="st0" width="3260.4" height="1937.4"/>
		<path class="st1" d="M720.1,1876.4c49.3,26.6,105.1,19.8,158.4,14.1c52-5.6,103.7-12.9,155.2-21.8c8-1.3,15.9-2.7,23.9-4.2
			c19.4-3.5,39.1-7.4,58.5-12.4c16.3-4.1,32.4-9.2,48.1-15.4c22.6-9.1,44-20.7,62.9-36.4c45.6-37.6,71.3-96.1,43.6-152.5
			c-33.4-67.9-123.5-118.6-193.6-133.6c-96.9-20.8-181.5-19.9-280.8-21.8c-13.2-0.2-26.6-0.2-39.2,3.8s-24.4,12.5-29.3,24.8
			c-3.8,9.7-3.6,17.9-0.6,25c1.6,3.6,3.8,6.9,6.5,9.7c2.9,3.1,6.2,5.8,9.8,8.2c3.9,2.6,7.9,4.8,12.1,6.8
			c21.6,10.4,49.2,15.9,63,20.8c17,6,33.9,12.3,50.7,18.9c-7.6-3-26.4,3.9-34.2,5.2c-13.4,2.4-26.9,4.9-38.6,12.3
			c-10.3,6.6-18.8,18.5-15.9,30.3c2.6,10.8,13.3,17.4,23.2,22.4c17.9,9.2,39.9,14.9,56.3,25.7c-26.2,9.2-54.4,3.5-79.4,19.5
			c-7.7,4.9-15,12.3-15,21.4c0,9.7,8.3,17.3,16.9,21.6c7.9,3.9,25.7,11.7,25.7,11.7s-27.9,2.8-40,5c-13.7,2.5-27.2,6-40.3,10.4
			c-16,5.4-33.2,14.2-37.9,30.3c-3,10.2,0,21.5,6,30.2S710.7,1871.3,720.1,1876.4 M995.7,1544.8c-0.5,12.6-0.4,22.9-0.9,35.5
			c-47.2-0.2-94.3-3.5-141-9.7c-8.8-1.2-17.8-2.5-25.5-7s-13.7-12.8-12.9-21.7c0.9-9.2,9-16.4,17.8-19s18.3-1.8,27.5-0.8
			C906,1527.2,951.1,1534.8,995.7,1544.8 M984.6,1690.9c-47.8,0.1-91.8-6.2-138.3-16.8c-4.2-0.9-8.7-2.2-11.2-5.7
			c-3.7-5.1-0.8-12.8,4.4-16.4s11.8-4.2,18.1-4.7c44-3,85.1-2.7,129.1-0.3L984.6,1690.9z M838.2,1743.2
			c43.7-10.7,93.2-8.5,138.1-5.8l-6.7,39.6c-44,3.3-92.2-1.9-133.6-17.2c-3.7-1.3-7.9-3.4-8.4-7.3
			C827,1747.4,833.2,1744.4,838.2,1743.2 M954.1,1860.3c-49,4.1-98.1,8.2-147.2,5.9c-8.1-0.4-16.4-1-23.6-4.5s-13.2-10.8-13-18.8
			c0.2-5.8,3.5-11.1,8.2-14.4c6-4.3,13.8-5.4,21.2-6.3c54.7-6.7,109.6-13.4,164.7-12.5C960.6,1826.8,957.9,1843.1,954.1,1860.3"/>
		<path class="st1" d="M1094.9,508.3c49.3,26.6,105.1,19.9,158.4,14.1c52-5.6,103.7-12.9,155.2-21.8c7.9-1.3,15.9-2.7,23.9-4.2
			c19.4-3.5,39.1-7.4,58.5-12.4c16.3-4.1,32.4-9.2,48-15.4c22.6-9.1,44-20.7,62.9-36.4c45.6-37.6,71.3-96.1,43.6-152.5
			c-33.4-67.9-123.5-118.6-193.6-133.6c-96.8-20.8-181.5-19.9-280.8-21.8c-13.2-0.2-26.6-0.2-39.2,3.8s-24.4,12.5-29.3,24.8
			c-3.8,9.7-3.6,17.9-0.6,25c1.6,3.6,3.8,6.9,6.5,9.7c2.9,3.1,6.2,5.8,9.8,8.2c3.9,2.6,7.9,4.8,12.1,6.8
			c21.7,10.4,49.2,15.9,63,20.8c17,6,33.9,12.3,50.7,18.9c-7.6-3-26.4,3.9-34.2,5.2c-13.4,2.4-26.9,4.9-38.6,12.3
			c-10.3,6.6-18.8,18.5-15.9,30.3c2.6,10.8,13.3,17.4,23.2,22.4c17.9,9.2,39.9,14.9,56.3,25.7c-26.2,9.2-54.4,3.5-79.4,19.5
			c-7.7,4.9-15,12.3-15,21.4c0,9.6,8.3,17.4,17,21.5c7.9,3.9,25.7,11.7,25.7,11.7s-27.9,2.8-40,5c-13.7,2.5-27.2,6-40.3,10.4
			c-16,5.4-33.2,14.2-37.9,30.4c-3,10.2,0,21.5,6,30.2S1085.6,503.2,1094.9,508.3 M1370.6,176.7c-0.5,12.6-0.4,22.9-0.9,35.5
			c-47.2-0.2-94.3-3.5-141-9.7c-8.8-1.2-17.8-2.5-25.5-7s-13.8-12.8-12.9-21.7c0.9-9.1,9-16.4,17.8-19s18.3-1.8,27.5-0.8
			C1280.9,159.1,1326,166.7,1370.6,176.7 M1359.5,322.8c-47.8,0.1-91.8-6.2-138.3-16.8c-4.2-1-8.7-2.2-11.2-5.7
			c-3.7-5.1-0.8-12.8,4.4-16.4s11.8-4.2,18.1-4.7c44-3,85.2-2.7,129.1-0.3L1359.5,322.8z M1213,375.1c43.7-10.7,93.2-8.5,138.2-5.8
			l-6.7,39.7c-44,3.3-92.2-1.9-133.6-17.1c-3.7-1.3-7.9-3.4-8.4-7.3C1201.8,379.3,1208,376.3,1213,375.1 M1328.9,492.2
			c-49,4.1-98.1,8.2-147.2,5.9c-8.1-0.4-16.4-1-23.6-4.5s-13.2-10.8-13-18.9c0.2-5.8,3.5-11.1,8.2-14.4c6-4.3,13.8-5.4,21.2-6.3
			c54.7-6.7,109.6-13.4,164.7-12.5C1335.4,458.7,1332.7,475.1,1328.9,492.2"/>
		<path class="st1" d="M184.5,1825.1c26.6,26.1,67,35.8,101.3,21.4c0.9-0.4,2-0.1,2.7,0.6c1.2,1.4,2.5,2.8,3.8,4.1
			c-12.1-13.6-25.7-26.4-35.5-41.9c-10.3-16.2-21.5-33.8-27.4-52.4c-5.7-18.7-8.3-38.8-6.4-58.4c1.3-14.8,8.3-30.3,16.9-43.5
			c0.7-1.1,2.2-1.4,3.3-0.7c0.8,0.6,1.2,1.6,1,2.5c-3.3,13.3-4.9,27.1-4.5,40.8c0.6,18.1,3.7,36,9.2,53.3
			c5.2,17.4,12.8,34.2,20.7,51.1c7.9,16.5,16.6,32.8,24.1,50.1h0.1c12.8,11.8,29.8,17.9,47.2,16.8c19-1.5,36.6-13.5,46.9-29.7
			c0.7-1.1,0.4-2.6-0.7-3.3c0,0,0,0-0.1,0c-14.4-8.9-27.2-20-37.9-33c-29-34.8-43.2-79.6-39.6-124.8c1.6-18.7,9.7-51.3,15.9-60.3
			c0.7-1.1,2.2-1.4,3.3-0.7c0.6,0.4,1,1,1.1,1.7c1,10.5-4.1,42.2-2.8,59.4c2.9,40.5,15.4,79.8,36.4,114.5c10.4,17.4,22.9,33.8,37,50
			c0.2,0.3,0.5,0.5,0.9,0.7c12.7,5.9,27,7.3,40.5,3.9c13.1-3.4,24.4-12.2,32.3-23.3c0.3-0.4,0.4-0.9,0.5-1.4
			c0.3-20.6-2.3-39.2-4.4-58.8c-2.2-19.9-8.9-38.7-14-57.9s-11.6-37-19.4-55.6c-6.7-15.8-20.5-40.3-22.6-52.7
			c-0.2-1.3,0.7-2.5,2-2.7c0.6-0.1,1.3,0.1,1.8,0.5c15.4,12.1,28.1,27.6,38.4,44.4c11.2,18.3,19.6,38.1,24.9,58.9
			c5.4,20.7,13.2,43.4,12.2,64.7c-0.9,20.7-2.5,42.4-18.4,59.2c2.1-3.1,4.8-4.7,6.3-7.9c0.5-1,1.1-1.9,1.8-2.8
			c20.8,5.2,43.5-2.7,59.7-16.9c14.7-12.9,24.6-30.9,31.4-49.5c0.1-0.4,0.2-0.8,0.1-1.2c-2.6-18.1-5.6-35.3-10.2-51.8
			c-8.9-33.6-23.4-65.5-42.9-94.3c-8.2-12.1-17.1-23.7-26.6-34.8c-0.8-1-0.7-2.5,0.3-3.4c0.7-0.6,1.7-0.7,2.5-0.3
			c13.9,6.8,26.4,16.4,37.3,27.4c13.3,13.8,24.2,29.8,32.1,47.2c8,17.4,13,36.1,14.5,55.2c1.4,15.2,0.2,30.4-3.5,45.2
			c-0.4,1.3,0.4,2.6,1.6,2.9c0.3,0.1,0.6,0.1,0.9,0.1c57.5-8,70.9-79.2,61.2-128.2c-26-131.5-173.2-118-265.2-173
			c-37.7-22.6-77.2-95.9-99-216c-0.2-0.9-0.8-1.7-1.8-1.9c-23.5-6-47.4,2.7-62.9,21.4c-0.6,0.8-0.7,1.9-0.2,2.7
			c18.6,32,25.1,73.8,31.5,109.5c7.6,43.1,13.9,85.1,1.8,128.1c-20.6,74.1-77.9,131.5-93.9,207.8
			C142.3,1734.5,149,1790.5,184.5,1825.1"/>
		<path class="st1" d="M1906.6,1251.3c26.6,26.1,67,35.8,101.3,21.4c0.9-0.4,2-0.1,2.7,0.6c1.2,1.4,2.4,2.8,3.8,4.1
			c-12.1-13.6-25.7-26.4-35.5-41.9c-10.3-16.2-21.5-33.8-27.4-52.4c-5.7-18.7-8.3-38.8-6.4-58.4c1.3-14.8,8.3-30.3,16.9-43.5
			c0.7-1.1,2.2-1.4,3.3-0.7c0.9,0.6,1.3,1.6,1,2.6c-3.3,13.3-4.9,27.1-4.5,40.8c0.6,18.1,3.7,36,9.2,53.3
			c5.2,17.4,12.8,34.2,20.7,51.1c7.9,16.5,16.6,32.8,24.1,50.1l0.1,0.1c12.8,11.8,29.8,17.9,47.2,16.8c19-1.5,36.6-13.5,46.9-29.7
			c0.7-1.1,0.3-2.6-0.8-3.3c0,0,0,0,0,0c-14.4-8.9-27.2-20-37.9-33c-29-34.8-43.2-79.6-39.6-124.8c1.6-18.7,9.7-51.3,15.8-60.3
			c0.7-1.1,2.2-1.4,3.3-0.7c0.6,0.4,1,1,1.1,1.7c1.1,10.5-4.1,42.2-2.8,59.4c2.9,40.5,15.4,79.8,36.4,114.5
			c10.4,17.4,22.9,33.8,37,50c0.2,0.3,0.5,0.5,0.9,0.7c12.7,5.9,27,7.3,40.5,3.9c13.1-3.4,24.4-12.2,32.3-23.3
			c0.3-0.4,0.5-0.9,0.5-1.4c0.3-20.6-2.3-39.2-4.4-58.8c-2.2-19.9-8.9-38.7-14-57.9s-11.6-37-19.4-55.6
			c-6.7-15.8-20.6-40.3-22.6-52.7c-0.2-1.3,0.7-2.5,2-2.7c0.6-0.1,1.3,0.1,1.8,0.5c15.4,12.1,28.1,27.6,38.4,44.4
			c11.2,18.3,19.5,38.1,24.9,58.9c5.4,20.7,13.1,43.4,12.1,64.7c-0.9,20.7-2.5,42.4-18.4,59.2c2.1-3.1,4.8-4.7,6.3-7.9
			c0.5-1,1.1-1.9,1.8-2.8c20.8,5.2,43.5-2.7,59.7-16.9c14.7-12.9,24.6-30.9,31.4-49.5c0.1-0.4,0.2-0.8,0.1-1.2
			c-2.6-18.1-5.6-35.3-10.1-51.8c-9-33.6-23.5-65.5-42.9-94.3c-8.2-12.1-17.1-23.7-26.6-34.8c-0.8-1-0.7-2.5,0.3-3.4
			c0.7-0.6,1.7-0.7,2.5-0.3c13.9,6.8,26.3,16.4,37.3,27.4c13.3,13.8,24.2,29.8,32.1,47.2c8,17.4,13,36.1,14.5,55.2
			c1.4,15.2,0.2,30.4-3.5,45.2c-0.4,1.3,0.4,2.6,1.7,2.9c0.3,0.1,0.6,0.1,0.9,0.1c57.5-8,70.9-79.2,61.1-128.2
			c-26-131.5-173.2-118-265.2-173c-37.7-22.5-77.2-95.9-99-216c-0.2-0.9-0.9-1.7-1.8-1.9c-23.5-6-47.3,2.7-62.9,21.4
			c-0.6,0.8-0.7,1.9-0.2,2.7c18.6,32,25.2,73.8,31.5,109.5c7.7,43.1,13.9,85.1,1.8,128.1c-20.6,74-77.9,131.4-93.8,207.6
			C1864.4,1160.5,1871.1,1216.5,1906.6,1251.3"/>
		<path class="st1" d="M174.4,1169.1c16.7,5.7,34.9,5.1,51.6,10.7c8.7-35.2,15-110.3,21.5-109.7c7.1,1.1,8.6,73.2,4.1,107.6
			c25.7-1.3,51-7,74.8-16.6c-5-26.5-34.2-72.2-27.6-75.6c3.6-2.8,42.8,37.5,61.9,58.6c16.5-10.8,50.5-43.2,50.5-46.8
			s-57.4-54.2-51.5-60.8c3.3-4,44.4,27.5,67.5,41c19.6-22.1,35.2-46.6,51.4-71.4c-29.9-9.2-93-19.8-90.5-24.9
			c3.1-5.4,70.4-7.8,97.6-9.2c6.2-28.2,11.4-54.9,14.9-83.6c-19.1,8.5-80.2,35.4-92.4,30.5c-3-7,81.1-54.2,85.2-59.3l-14.1-86.3
			c-24.1,21.7-82.7,81.7-88.8,73.9c-5.2-8.2,42.5-74.5,63.6-111.8c-9.9-13.5-19.7-24.9-28-39.3c-25.6,36.1-68.3,112.3-77.7,108.7
			c-8.9-8,25.5-66.6,59.7-129.5c-27.4-14-54.7-25.5-82.1-39.4c-10,38.7-29.2,131.6-41.8,130c-13.2-3.8,2.2-88.7,13-132.5
			c-14.6-4-28.3-6.7-42.8-10.5c-10.9,48.7-11.7,149.4-21,152c-9.9-0.6-12-91.3-18.1-136.9c-6.5,4.2-44.1,15.9-44.1,15.9
			s2.3,16.8,3,22.8c4.3,32.7,13.6,108.2,10,109.4c-7.8,2.5-36-75.6-46-110.2c-7.8,15.8-23.1,56.6-23.1,56.6s16.5,46.8,30.7,87.6
			c1.1,3.1-0.7,7.7-3.9,7.6c-1.9,0-3.3-1.8-4.4-3.4c-16.3-23.6-36.8-47.9-53.2-71.5c-5.4,16.7-9.4,35.9-14.8,52.7
			c21.2,26,61.9,69.4,60.2,72.4C127.6,883,85,860,57.1,849.4c-5.7,17.4-8.9,31.5-14.6,49c31.7,12.8,90,30,88.6,36.9
			c-1,5.7-35.5,3.4-87.6-1c-3.1,17.6-1.8,40.9-4.9,58.5c41.9-2.4,116.6-9.3,115.2-4c0.7,8.3-66,22.2-101.8,34.3
			c13.8,21.8,23.3,46.1,28,71.4c30-21.8,90.4-63.8,94.7-58.5c2.5,7.5-51.7,44.5-71.8,72.8c13.6,15.8,36.5,34.6,50.1,50.4
			c17.2-28.9,32.4-59.5,39.4-58.1C197.3,1102.7,183,1148.2,174.4,1169.1z M238.2,990.5c-22-9.3-39.5-28-37.6-51.3
			c0.6-8.3,2-16.4,4.1-24.4c4.3-15.2,12.2-29.9,24.6-39.9c11-8.8,24.9-14.6,39.2-13.8c15.6,1,29.8,9.2,40.6,20.2
			c31.1,31.7,27.1,93.7-18,111.8C275.5,999.4,255.5,997.8,238.2,990.5L238.2,990.5z"/>
		<path class="st1" d="M1613.4,1792.9c16.7,5.7,34.9,5.1,51.6,10.7c8.7-35.2,15-110.3,21.5-109.7c7.1,1,8.6,73.2,4.1,107.6
			c25.7-1.3,51-7,74.8-16.6c-5-26.5-34.2-72.2-27.6-75.6c3.6-2.8,42.8,37.5,61.9,58.6c16.4-10.8,50.5-43.2,50.5-46.8
			s-57.4-54.2-51.5-60.8c3.3-4,44.4,27.5,67.5,41c19.6-22.1,35.2-46.6,51.4-71.4c-29.9-9.2-93.1-19.8-90.5-24.9
			c3.1-5.4,70.4-7.8,97.6-9.2c6.2-28.2,11.3-54.8,14.9-83.6c-19.1,8.4-80.2,35.4-92.4,30.5c-3-7,81.1-54.2,85.2-59.3l-14.1-86.3
			c-24.1,21.7-82.7,81.7-88.8,73.9c-5.2-8.2,42.5-74.5,63.6-111.8c-9.9-13.5-19.7-24.9-28-39.3c-25.6,36.1-68.3,112.3-77.7,108.7
			c-8.9-8,25.4-66.6,59.7-129.4c-27.4-14-54.7-25.5-82.1-39.4c-10,38.7-29.2,131.6-41.8,130c-13.2-3.8,2.2-88.7,13-132.5
			c-14.6-4-28.3-6.7-42.8-10.5c-11,48.7-11.7,149.4-21,152c-9.9-0.6-12-91.3-18.1-136.9c-6.5,4.2-44.1,15.9-44.1,15.9
			s2.3,16.8,3,22.8c4.3,32.7,13.6,108.2,10,109.4c-7.7,2.5-36-75.6-46-110.2c-7.8,15.8-23.1,56.6-23.1,56.6s16.5,46.8,30.7,87.6
			c1.1,3.1-0.7,7.7-3.9,7.6c-1.9,0-3.3-1.8-4.4-3.4c-16.4-23.5-36.8-47.8-53.3-71.4c-5.4,16.7-9.4,35.9-14.8,52.7
			c21.2,26,61.9,69.4,60.2,72.4c-2.3,4.8-44.9-18.1-72.8-28.7c-5.7,17.4-8.9,31.5-14.7,49c31.7,12.8,90,29.9,88.7,36.9
			c-1,5.7-35.5,3.4-87.6-1c-3.1,17.6-1.8,40.9-4.9,58.5c41.9-2.4,116.6-9.3,115.2-4c0.7,8.3-66,22.2-101.9,34.3
			c13.8,21.8,23.3,46.1,28,71.5c30-21.8,90.3-63.8,94.7-58.6c2.5,7.6-51.7,44.5-71.8,72.8c13.6,15.8,36.5,34.6,50.1,50.4
			c17.2-28.9,32.4-59.5,39.4-58.1C1636.3,1726.4,1622.1,1772,1613.4,1792.9z M1677.2,1614.3c-22-9.3-39.5-28-37.7-51.3
			c0.6-8.3,2-16.4,4.1-24.4c4.3-15.2,12.2-29.9,24.7-39.9c11-8.8,24.9-14.6,39.2-13.8c15.6,1,29.8,9.2,40.6,20.2
			c31,31.7,27.1,93.7-18,111.8C1714.5,1623.2,1694.5,1621.6,1677.2,1614.3z"/>
		<g class="st2">
			<path class="st3" d="M1706.3,1050.7c14.7,0.3,30.3-1.2,39.7-7c12.2-7.6,19.4-22.2,21.3-40.1s-2.3-41.2-11.9-56.7
				c-0.1,0.1-0.2,0.2-0.3,0.2c0.9-14.1,0.8-28.2-0.1-42.3c-3.3-46.8-17-84.3-43-122.7l0,0c-0.4-0.5-0.7-1-1-1.5
				c-1.5-2.2-3.2-4.4-4.8-6.6c-3.7-0.6-7.3-1.9-10.6-3.6l-24-32.7c-0.9-2.4-1.8-4.9-2.5-7.5c-3.7-4-7.5-8-11.4-11.7l0,0
				c-17.3-16.8-34.8-31.8-55-44.4c-25.1-15.7-58.1-20.9-88-23.2l0.2-0.1c-20.8-18.4-59.6-27.7-86.1-18.1
				c-11.7,4.2-22.8,17.6-29.8,34.9c-6.8-6.2-15.1-11.3-22.7-12.5c-11.1-1.7-22.3,1.3-31.1,8.2c-5.4,4.1-10.2,10.1-10.9,17.2
				c-0.6,5.8,1.5,11.3,3.7,16.5c7.1,16.5,15.6,32.4,25.5,47.4c-32.2,39.6-72.7,84.5-70.6,138.3c1.2,30.9,11.3,62.9,24.7,90.9
				c34.6,72.3,98.9,157.8,189.6,152.6c39.7-2.2,83-32.9,117.9-49.7c3.1,5,7.3,7.9,11.3,12.6c12.6,12.2,33.7,25.4,52.2,23.9
				C1720.5,1110.4,1719.3,1070.2,1706.3,1050.7 M1639.8,725.2c2.1,1.5,4,3.2,5.8,5.1c0.4,0.4,2.9,2.6,6.5,6c0.1,0.5,0.2,1,0.3,1.5
				c0,0.1,0,0.1,0,0.2c0,0,0,0.1,0.1,0.2c0.2,0.7,0.3,1.4,0.6,2.1s0.4,1.4,0.7,2.1c0.4,1.4,0.9,2.8,1.4,4l0,0l0,0
				c-0.1-0.1-0.4-0.4-0.8-0.8c-0.1-0.1-0.2-0.2-0.2-0.2l-0.6-0.6c-0.3-0.3-0.7-0.7-1-1.1c-0.2-0.2-0.5-0.5-0.7-0.7s-0.4-0.3-0.5-0.5
				l-0.9-0.9c-0.6-0.6-1.3-1.2-2-1.8c-0.2-0.2-0.5-0.5-0.7-0.7l-0.6-0.5c-0.3-0.3-0.7-0.6-1.1-0.9c-0.2-0.2-0.4-0.3-0.6-0.5
				c-1.1-0.9-2.3-1.9-3.5-2.7l-1.2-0.8c-0.3-0.2-0.7-0.4-1-0.6c-0.7-0.4-1.3-0.9-2-1.3s-1.4-0.8-2-1.2c-0.2-0.1-0.3-0.2-0.5-0.2
				l-0.9-0.4c-0.4-0.2-0.9-0.4-1.3-0.6l-0.7-0.3l-0.4-0.2c-0.4-0.2-0.8-0.3-1.2-0.4c-0.4-0.1-0.8-0.2-1.2-0.3
				c-0.2,0-0.3-0.1-0.5-0.1c-0.3-0.1-0.7-0.2-1.1-0.2c-0.7-0.1-1.4-0.2-2.1-0.2h-1.1c-0.3,0-0.7,0-1.1,0.1c-0.2,0-0.4,0-0.5,0.1
				c-1.3,0.2-2.5,0.7-3.5,1.3c-0.3,0.2-0.5,0.3-0.8,0.5s-0.4,0.4-0.7,0.6c-0.1,0.1-0.2,0.2-0.3,0.3l0,0c-0.1,0.1-0.2,0.2-0.3,0.3
				c-0.3,0.3-0.6,0.7-0.8,1.1c-0.1,0.2-0.2,0.4-0.3,0.6c-0.2,0.3-0.3,0.6-0.4,0.9c-0.1,0.3-0.2,0.5-0.3,0.8
				c-0.3,0.9-0.4,1.7-0.5,2.6c0,0.5-0.1,1.1-0.1,1.7c0,0.4,0,0.9,0.1,1.3c0,0.5,0.1,0.9,0.1,1.4c0.1,0.8,0.2,1.6,0.4,2.3
				c0.1,0.4,0.2,0.8,0.3,1.2c0.4,1.5,0.8,2.9,1.3,4.3c0.1,0.3,0.2,0.7,0.4,1s0.2,0.7,0.4,1.1c0.3,0.7,0.6,1.4,0.9,2.1
				c0.4,1,0.9,2,1.4,3.1c0.1,0.2,0.2,0.4,0.3,0.6c0.2,0.4,0.4,0.8,0.6,1.3s0.5,1.1,0.8,1.6s0.7,1.4,1.1,2.1c0,0,0,0.1,0.1,0.1
				c0.3,0.6,0.6,1.2,1,1.8c0.1,0.1,0.1,0.2,0.2,0.3c0.3,0.5,0.6,1,0.8,1.5s0.7,1.2,1,1.7c0.5,0.9,1,1.8,1.6,2.6
				c1.1,1.8,2.1,3.4,3.2,5l1.6,2.4c0.4,0.6,0.8,1.2,1.3,1.8s0.8,1.2,1.2,1.7l0,0c0.4,0.5,0.8,1.1,1.1,1.6c1.4,1.8,2.6,3.5,3.7,4.8
				c2.9,3.6,7.2,8.7,12.3,14c0.5,0.5,0.9,1,1.4,1.5c1.4,1.4,2.9,2.9,4.4,4.3c0.9,0.8,1.8,1.7,2.7,2.5c0.2,0.2,0.3,0.3,0.5,0.5
				c0.4,0.4,0.9,0.8,1.3,1.2c0.3,0.2,0.6,0.5,0.9,0.8c0.6,0.5,1.2,1,1.9,1.5c0.9,0.8,1.9,1.5,2.8,2.2c1.3,0.9,2.5,1.8,3.8,2.6l0,0
				l1.8,1.1c0.6,0.4,1.2,0.7,1.9,1s1.1,0.5,1.6,0.8c0.2,0.1,0.4,0.2,0.6,0.3c0.3,0.2,0.7,0.3,1,0.4s0.9,0.3,1.3,0.5
				c0.1,0,0.1,0,0.2,0c0.5,0.2,1,0.3,1.4,0.4c1.1,0.3,2.2,0.5,3.3,0.6h1.1c0.5,0,1.1,0,1.6-0.1c0.4,0,0.8-0.1,1.2-0.2
				c0.4-0.1,0.7-0.2,1.1-0.3c0.5-0.2,1-0.4,1.4-0.7c0.5-0.2,0.9-0.5,1.4-0.9c0.8-0.6,1.5-1.3,2.1-2.1c0.2-0.3,0.5-0.6,0.7-1
				c0.2-0.3,0.4-0.7,0.6-1c0.2-0.3,0.3-0.7,0.4-1c0.3-0.8,0.5-1.7,0.6-2.6c0-0.4,0.1-0.7,0.1-1.1s0-0.6,0-1c0-0.3,0-0.7-0.1-1
				c0-0.3-0.1-0.5-0.1-0.9s-0.1-0.7-0.2-1.1s-0.2-0.9-0.3-1.3s-0.2-0.7-0.3-1.1c-0.2-0.7-0.4-1.4-0.7-2.1c-0.3-0.9-0.7-1.7-1.1-2.6
				c-0.8-1.8-1.7-3.5-2.7-5.2c-0.3-0.5-0.6-0.9-0.8-1.4c-0.4-0.7-0.8-1.3-1.2-1.9l-0.8-1.2c-0.3-0.4-0.5-0.8-0.8-1.2
				c-0.4-0.6-0.8-1.1-1.2-1.6c-1-1.3-1.9-2.5-2.7-3.4c-1.4-1.7-2.4-2.8-2.5-3l0,0c0.9,0.5,1.9,0.9,2.8,1.3l1.2,0.5
				c0.4,0.2,0.8,0.3,1.2,0.4c0.5,0.2,1.1,0.4,1.6,0.5l1.2,0.3c0.5,0.2,1,0.3,1.6,0.4c0.2,0.1,0.5,0.1,0.7,0.2c0.5,0.1,1,0.2,1.5,0.3
				c0.3,0,0.5,0.1,0.8,0.1c2.8,4.3,4.4,7.1,4.4,7.1c4.2,7.2,8.6,16,8.8,24.7c0.1,3.8-0.7,7.6-2.4,11c-5.9,11.3-21.2,9-30.8,4.7
				c-18.4-8.3-34-23.6-46.7-39c-10.2-12.4-19.6-26.4-24.1-42c-2.9-9.8-5.9-27.7,3.6-35c7.9-6,24.4,1.4,33,7.3 M1365.5,701.6
				c-2.2-3.6-3.1-8-4.3-12.1s-1.4-8.8,0.3-12.7c2.2-4.8,7.3-7.7,12.1-6.6c5,1.1,8.6,5.8,11.8,10.2c2.4,3.1,3.2,5,5.8,8.3
				c-1.4,8-1.9,16.2-1.5,24.3c-2.9,3.3-6,6.2-8.9,9.5C1374.5,716.7,1370,709.1,1365.5,701.6 M1382.8,794c-4.7,2-10.4,3-14.5,0
				c-4.8-3.4-5-10.8-2.1-16s8-8.5,13-11.6l-0.2,0.3c4.8-3.5,11.4-1.7,14.8,2.3s3.4,10.3,0.9,14.9S1387.7,791.9,1382.8,794
				 M1394.5,843.9c-3.3,1.2-6.9,0.9-10-0.8c-3.8-2.3-5.5-7.2-4.9-11.5s3.3-8.2,6.6-11.2c5.4-4.7,14.7-11.8,19.3-2.9
				c2.4,4.6,4.8,10,2.9,14.8c-1,2.5-3.1,4.5-5.2,6.2C1400.7,840.9,1397.7,842.7,1394.5,843.9 M1426.6,894.5
				c-3.5,1.3-7.8,1.2-10.8-1.2c-11.3-9,5-23.7,14-26c14-3.6,12.4,13.3,5.7,20.5C1433,890.5,1430.1,893.1,1426.6,894.5 M1453,939.3
				c-4.5,0.4-9.3-2-10.9-6.2c-3.7-9.4,8.2-19.1,16.7-19.9c10.5-1,8.8,12.3,5,18.8C1461.5,936,1457.5,938.7,1453,939.3 M1481.8,980.1
				c-5.5-0.3-10.4-5.6-9.8-11.1c0.9-7.9,13.2-16,19.5-9C1498.2,967.5,1491.5,980.7,1481.8,980.1 M1523.7,1011.8
				c-16.1-0.3-13-24.4,1.6-24.3S1538.6,1012.1,1523.7,1011.8 M1561.5,1042.2c-3.4,1.3-7.2,0.7-10.1-1.6
				c-10.9-9.3,3.7-22.9,11.9-24.7c12.8-2.9,12.1,13.5,6.2,20.2C1567.3,1038.7,1564.7,1041.1,1561.5,1042.2 M1607.7,1059
				c-16.1-0.3-13-24.4,1.6-24.3S1622.6,1059.3,1607.7,1059 M1669.1,1033.3c-69.4-13.3-133.5-73.9-178.4-127.8
				c-47.7-57.1-85.6-131.8-86.3-207.8c2.8-19.8,11.9-45.4,30.2-53.1c14.9-6.2,39.2-2,54.6,5.2c-6.2-0.1-14.4,1.7-20.5,2
				c-28.2,1.6-48.3,30.5-46.2,58.5c1.3,18.3,6.7,39.1,14,56.1c43.9,103,109.7,189.8,205.6,236.2c22.9,11.1,50.8,18.6,77.2,10.3
				c15.9-5,27.8-25,30.1-32.9c0.3-0.9,1.2-1.3,2-1.1c0.7,0.2,1.1,0.8,1.2,1.5c1.1,6.3,1.3,12.8,0.7,19.2
				c-1.6,13.7-7.3,24.6-15.8,29.1C1718.8,1038.4,1690.1,1037.3,1669.1,1033.3 M1649.8,1063.7c9.3-4.9,18.3-10,26.9-15.2
				c10.1,11.4,27.7,20.1,18.6,31.2C1683.9,1095.3,1667.6,1075.3,1649.8,1063.7"/>
			<path class="st3" d="M1694.8,819.2c0.2-0.3,0.5-0.6,0.7-1c0.2-0.3,0.4-0.7,0.6-1c0.2-0.3,0.3-0.7,0.4-1c0.3-0.8,0.5-1.7,0.6-2.6
				c0-0.4,0.1-0.7,0.1-1.1s0-0.6,0-1c0-0.3,0-0.7-0.1-1c0-0.3-0.1-0.6-0.1-0.9c0-0.4-0.1-0.7-0.2-1.1c-0.1-0.5-0.2-0.9-0.3-1.3
				s-0.2-0.7-0.3-1.1c-0.2-0.7-0.4-1.4-0.7-2.1c-0.3-0.9-0.7-1.7-1.1-2.6c-0.8-1.8-1.7-3.5-2.7-5.2c-0.3-0.5-0.6-0.9-0.8-1.4
				c-0.4-0.7-0.8-1.3-1.2-1.9l-0.8-1.2c-0.3-0.4-0.5-0.8-0.8-1.2c-0.4-0.6-0.8-1.1-1.2-1.6c-1-1.3-1.9-2.5-2.7-3.4
				c-1.4-1.7-2.4-2.8-2.5-3l0,0c0.9,0.5,1.9,0.9,2.8,1.3c0.4,0.2,0.8,0.3,1.2,0.5c0.4,0.2,0.8,0.3,1.2,0.4c0.5,0.2,1.1,0.4,1.6,0.5
				l1.2,0.3c0.5,0.1,1,0.3,1.6,0.4c0.2,0.1,0.5,0.1,0.7,0.2c0.5,0.1,1,0.2,1.5,0.3c0.3,0,0.5,0.1,0.8,0.1
				c-5.7-8.9-11.9-17.4-18.6-25.5c-7.3-8.6-15.2-16.9-23.4-24.6c0.1,0.5,0.2,1,0.3,1.5c0,0.1,0,0.1,0,0.2c0,0,0,0.1,0.1,0.2
				c0.2,0.7,0.3,1.4,0.6,2.1s0.4,1.4,0.7,2.1c0.4,1.4,0.9,2.8,1.4,4l0,0l0,0c-0.2-0.3-0.5-0.6-0.8-0.8c-0.1-0.1-0.2-0.2-0.2-0.2
				l-0.6-0.6l-1-1.1c-0.2-0.2-0.5-0.5-0.7-0.7l-0.5-0.5l-0.9-0.9c-0.6-0.6-1.3-1.2-2-1.8c-0.2-0.2-0.5-0.5-0.7-0.7s-0.4-0.3-0.6-0.5
				c-0.3-0.3-0.7-0.6-1.1-0.9c-0.2-0.2-0.4-0.3-0.6-0.5c-1.1-0.9-2.3-1.9-3.5-2.7l-1.2-0.8c-0.3-0.2-0.7-0.4-1-0.6
				c-0.7-0.4-1.3-0.9-2-1.3s-1.3-0.8-2-1.2c-0.2-0.1-0.3-0.2-0.5-0.2l-0.9-0.4c-0.4-0.2-0.9-0.4-1.3-0.6l-0.7-0.3l-0.4-0.2
				c-0.4-0.2-0.8-0.3-1.2-0.4c-0.4-0.1-0.8-0.2-1.2-0.3c-0.2,0-0.3-0.1-0.5-0.1c-0.3-0.1-0.7-0.2-1.1-0.2c-0.7-0.1-1.4-0.2-2.1-0.2
				h-1.1c-0.3,0-0.7,0.1-1.1,0.1c-0.2,0-0.4,0-0.5,0.1c-1.3,0.2-2.5,0.7-3.5,1.3c-0.3,0.2-0.5,0.3-0.8,0.5s-0.4,0.4-0.7,0.6
				s-0.2,0.2-0.3,0.3l0,0c-0.1,0.1-0.2,0.2-0.3,0.3c-0.3,0.3-0.6,0.7-0.8,1.1c-0.1,0.2-0.2,0.4-0.3,0.6c-0.2,0.3-0.3,0.6-0.4,0.9
				c-0.1,0.3-0.2,0.5-0.3,0.8c-0.3,0.9-0.4,1.7-0.5,2.6c0,0.5-0.1,1.1-0.1,1.7c0,0.4,0,0.9,0.1,1.3c0,0.5,0.1,0.9,0.1,1.4
				c0.1,0.8,0.2,1.6,0.4,2.3c0.1,0.4,0.2,0.8,0.3,1.2c0.3,1.4,0.8,2.8,1.3,4.3c0.1,0.3,0.2,0.7,0.4,1s0.2,0.7,0.4,1.1
				c0.3,0.7,0.6,1.4,0.9,2.1c0.4,1,0.9,2,1.4,3.1c0.1,0.2,0.2,0.4,0.3,0.6c0.2,0.4,0.4,0.8,0.6,1.3s0.5,1.1,0.8,1.6s0.7,1.4,1.1,2.1
				c0,0.1,0.1,0.1,0.1,0.1c0.3,0.6,0.6,1.2,1,1.8c0.1,0.1,0.1,0.2,0.2,0.3c0.3,0.5,0.6,1,0.8,1.5s0.7,1.2,1,1.7
				c0.5,0.9,1.1,1.8,1.6,2.6c1.1,1.8,2.1,3.4,3.2,5l1.6,2.4c0.4,0.6,0.8,1.2,1.3,1.8s0.8,1.2,1.2,1.7l0,0c0.4,0.5,0.8,1.1,1.1,1.6
				c1.4,1.8,2.6,3.5,3.7,4.8c2.9,3.6,7.2,8.7,12.3,14c0.5,0.5,0.9,1,1.4,1.5c1.4,1.4,2.9,2.9,4.4,4.3c0.9,0.8,1.8,1.7,2.7,2.5
				c0.2,0.2,0.3,0.3,0.5,0.5c0.4,0.4,0.9,0.8,1.3,1.2c0.3,0.2,0.6,0.5,0.9,0.8c0.6,0.5,1.2,1,1.9,1.5c0.9,0.8,1.9,1.5,2.8,2.2
				c1.3,0.9,2.5,1.8,3.8,2.6l0,0l1.8,1.1c0.6,0.4,1.2,0.7,1.9,1s1.1,0.5,1.6,0.8c0.2,0.1,0.4,0.2,0.6,0.3c0.3,0.2,0.7,0.3,1,0.4
				c0.4,0.2,0.9,0.3,1.3,0.5c0,0,0.1,0,0.2,0c0.5,0.2,1,0.3,1.5,0.4c1.1,0.3,2.2,0.5,3.3,0.6c0.3,0,0.7,0,1.1,0c0.5,0,1.1,0,1.6-0.1
				c0.4,0,0.8-0.1,1.2-0.2c0.4-0.1,0.7-0.2,1.1-0.3c0.5-0.2,1-0.4,1.4-0.7c0.5-0.2,0.9-0.5,1.4-0.9c0.8-0.6,1.5-1.3,2.1-2.1"/>
			<path class="st3" d="M1692.7,821.2c-14.3,10.8-42.7-21.2-52.8-33.8s-33.8-48.4-21.2-58s36.3,16.9,36.3,16.9
				c-1-2.7-1.9-5.5-2.7-8.3c-0.2-0.6-0.3-1.3-0.4-1.9c-0.7-3.1-0.7-6.3,0-9.4c0.9-3.4,2.9-6.3,5.7-8.4c2.6-2,5.7-3.3,9-3.8
				c23.2-3.3,44.4,20.7,50.6,40.7c2.7,8.6,2.5,20.9-5.3,26.7c-0.3,0.2-0.5,0.4-0.8,0.6c-5.1,3.2-11.2,4.5-17.2,3.6
				c-0.3,0-0.5,0-0.8-0.1c-4.1-0.6-8.1-1.9-11.8-3.8C1681.3,782.5,1707,810.4,1692.7,821.2"/>
		</g>
		<g class="st2">
			<path class="st3" d="M820.5,509.7c14.7,0.3,30.3-1.2,39.7-7c12.2-7.5,19.4-22.2,21.3-40.1s-2.3-41.2-11.9-56.7
				c-0.1,0.1-0.2,0.2-0.3,0.2c0.9-14.1,0.8-28.2,0-42.3c-3.3-46.8-17-84.3-43-122.7l0,0c-0.3-0.5-0.7-1-1-1.5
				c-1.5-2.2-3.2-4.4-4.8-6.6c-3.7-0.6-7.2-1.9-10.5-3.6l-24-32.7c-0.9-2.4-1.8-4.9-2.5-7.4c-3.7-4-7.5-8-11.4-11.7l0,0
				c-17.3-16.8-34.8-31.8-55-44.4c-25.1-15.7-58.1-20.9-88-23.2l0.2-0.1c-20.8-18.4-59.6-27.8-86.1-18.1
				c-11.6,4.2-22.8,17.6-29.8,34.9c-6.9-6.2-15.1-11.3-22.7-12.5c-11.1-1.7-22.3,1.3-31.1,8.2c-5.4,4.1-10.2,10-10.9,17.2
				c-0.6,5.8,1.5,11.3,3.7,16.5c7.1,16.5,15.6,32.4,25.5,47.4c-32.2,39.6-72.7,84.5-70.6,138.3c1.2,30.9,11.3,62.9,24.7,90.9
				c34.6,72.3,98.9,157.8,189.6,152.6c39.8-2.2,83-32.9,117.9-49.7c3.1,5,7.3,7.9,11.3,12.6c12.6,12.2,33.7,25.4,52.2,23.9
				C834.7,569.5,833.6,529.3,820.5,509.7 M754,184.2c2.1,1.5,4.1,3.2,5.8,5.1c0.4,0.4,2.9,2.6,6.5,6c0.1,0.5,0.2,1,0.3,1.5
				c0,0.1,0,0.1,0,0.2c0,0,0,0.1,0,0.2c0.2,0.7,0.4,1.4,0.6,2.1s0.4,1.4,0.7,2.1c0.5,1.4,0.9,2.8,1.4,4l0,0l0,0
				c-0.2-0.3-0.5-0.6-0.8-0.8c-0.1-0.1-0.2-0.2-0.2-0.2l-0.6-0.6l-1-1.1c-0.2-0.2-0.5-0.5-0.7-0.7s-0.4-0.3-0.5-0.5
				s-0.6-0.6-0.9-0.9c-0.6-0.6-1.3-1.2-2-1.8c-0.2-0.2-0.5-0.5-0.8-0.7l-0.6-0.5c-0.3-0.3-0.7-0.6-1.1-0.9c-0.2-0.2-0.4-0.3-0.6-0.5
				c-1.1-0.9-2.3-1.9-3.5-2.7l-1.2-0.8c-0.3-0.2-0.6-0.4-1-0.6c-0.7-0.4-1.3-0.9-2-1.3s-1.4-0.8-2-1.2c-0.2-0.1-0.3-0.1-0.5-0.2
				l-0.9-0.4c-0.4-0.2-0.9-0.4-1.3-0.6l-0.7-0.3l-0.4-0.2c-0.4-0.1-0.8-0.3-1.2-0.4c-0.4-0.1-0.8-0.2-1.2-0.3
				c-0.2,0-0.3-0.1-0.5-0.1c-0.3-0.1-0.7-0.2-1-0.2c-0.7-0.1-1.4-0.2-2.1-0.2h-1.1c-0.3,0-0.7,0.1-1,0.1c-0.2,0-0.3,0-0.5,0.1
				c-1.3,0.2-2.5,0.7-3.5,1.4c-0.3,0.2-0.5,0.4-0.8,0.5s-0.4,0.4-0.7,0.6c-0.1,0.1-0.2,0.2-0.3,0.3l0,0c-0.1,0.1-0.2,0.2-0.3,0.3
				c-0.3,0.3-0.6,0.7-0.8,1.1c-0.1,0.2-0.2,0.4-0.3,0.6c-0.2,0.3-0.3,0.6-0.4,0.9c-0.1,0.3-0.2,0.5-0.3,0.8
				c-0.3,0.9-0.4,1.7-0.5,2.6c0,0.5,0,1.1-0.1,1.7c0,0.4,0,0.9,0.1,1.3s0.1,0.9,0.2,1.4c0.1,0.8,0.2,1.6,0.4,2.4
				c0.1,0.4,0.2,0.8,0.3,1.2c0.4,1.5,0.8,2.9,1.3,4.3c0.1,0.3,0.2,0.7,0.4,1c0.1,0.4,0.3,0.7,0.4,1.1c0.3,0.7,0.6,1.4,0.9,2.1
				c0.4,1,0.9,2,1.4,3.1c0.1,0.2,0.2,0.4,0.3,0.6l0.6,1.3c0.3,0.5,0.5,1.1,0.8,1.6s0.7,1.4,1.1,2.1c0,0,0.1,0.1,0.1,0.1
				c0.3,0.6,0.6,1.2,1,1.8l0.1,0.3c0.3,0.5,0.6,1,0.8,1.5s0.7,1.2,1,1.7c0.5,0.9,1,1.8,1.6,2.6c1.1,1.8,2.1,3.4,3.2,5.1
				c0.5,0.8,1.1,1.6,1.6,2.4c0.4,0.6,0.8,1.2,1.3,1.8s0.8,1.2,1.2,1.7v0.1c0.4,0.5,0.8,1.1,1.2,1.6c1.4,1.9,2.6,3.5,3.7,4.9
				c2.9,3.6,7.2,8.7,12.3,14c0.5,0.5,1,1,1.4,1.5c1.4,1.4,2.9,2.9,4.3,4.3c0.9,0.9,1.8,1.7,2.7,2.5l0.5,0.5c0.4,0.4,0.9,0.8,1.3,1.2
				c0.3,0.2,0.6,0.5,0.9,0.8c0.6,0.5,1.2,1,1.9,1.5c0.9,0.8,1.9,1.5,2.8,2.2c1.3,0.9,2.5,1.8,3.7,2.6l0,0l1.8,1.1
				c0.6,0.4,1.2,0.7,1.9,1s1,0.5,1.6,0.8c0.2,0.1,0.4,0.2,0.6,0.3c0.3,0.2,0.7,0.3,1,0.4s0.9,0.3,1.3,0.5c0.1,0,0.1,0,0.2,0
				c0.5,0.2,1,0.3,1.5,0.4c1.1,0.3,2.2,0.5,3.3,0.5h1.1c0.5,0,1.1,0,1.6-0.1c0.4,0,0.8-0.1,1.2-0.2c0.3-0.1,0.7-0.2,1.1-0.3
				s1-0.4,1.4-0.6c0.5-0.3,0.9-0.5,1.4-0.9c0.8-0.6,1.5-1.3,2.1-2c0.2-0.3,0.5-0.7,0.7-1c0.2-0.3,0.4-0.7,0.6-1
				c0.2-0.3,0.3-0.7,0.4-1c0.3-0.8,0.5-1.7,0.5-2.6c0.1-0.4,0.1-0.7,0.1-1.1c0-0.3,0-0.7,0-1c0-0.3,0-0.7-0.1-1c0-0.3,0-0.6-0.1-0.9
				c0-0.4-0.1-0.8-0.2-1.1c-0.1-0.4-0.2-0.9-0.3-1.3s-0.2-0.7-0.3-1.1c-0.2-0.7-0.5-1.4-0.7-2.1c-0.3-0.9-0.7-1.7-1.1-2.6
				c-0.8-1.8-1.7-3.5-2.7-5.1c-0.3-0.5-0.6-0.9-0.8-1.4c-0.4-0.7-0.8-1.3-1.2-1.9l-0.8-1.2c-0.3-0.4-0.5-0.8-0.8-1.2
				c-0.4-0.6-0.8-1.1-1.2-1.6c-1-1.3-1.9-2.5-2.7-3.4c-1.4-1.7-2.4-2.8-2.5-3l0,0c0.9,0.5,1.9,0.9,2.8,1.3c0.4,0.2,0.8,0.3,1.2,0.5
				c0.4,0.2,0.8,0.3,1.2,0.4c0.5,0.2,1.1,0.4,1.6,0.5c0.4,0.1,0.8,0.2,1.2,0.3c0.5,0.1,1,0.3,1.6,0.4c0.2,0.1,0.5,0.1,0.7,0.1
				c0.5,0.1,1,0.2,1.5,0.3c0.3,0,0.5,0.1,0.8,0.1c2.8,4.3,4.4,7.1,4.4,7.1c4.2,7.1,8.6,16,8.8,24.7c0.1,3.8-0.7,7.6-2.5,11
				c-5.9,11.3-21.2,9-30.8,4.6c-18.5-8.3-34-23.6-46.7-38.9c-10.2-12.4-19.6-26.4-24.1-42c-2.9-9.8-5.9-27.7,3.6-35
				C728.9,170.9,745.4,178.2,754,184.2 M479.7,160.8c-2.2-3.6-3.1-8-4.3-12.1s-1.4-8.8,0.3-12.7c2.2-4.8,7.4-7.7,12.1-6.6
				c5,1.1,8.6,5.8,11.8,10.2c2.4,3.1,3.2,5.1,5.8,8.3c-1.4,8-1.9,16.2-1.5,24.3c-2.9,3.3-6,6.1-8.9,9.6
				C488.6,175.9,484.2,168.3,479.7,160.8 M497,253c-4.6,2-10.4,2.9-14.5,0c-4.8-3.4-5-10.8-2.1-16s8-8.5,13-11.6l-0.2,0.3
				c4.8-3.4,11.4-1.6,14.8,2.4s3.4,10.3,0.9,14.9S501.9,250.9,497,253 M508.6,302.9c-3.3,1.2-6.9,0.9-10-0.8
				c-3.8-2.3-5.5-7.1-4.9-11.5s3.3-8.2,6.6-11.1c5.4-4.7,14.7-11.8,19.3-2.9c2.4,4.6,4.8,10,2.9,14.8c-1,2.5-3.1,4.5-5.2,6.2
				C514.8,299.9,511.8,301.7,508.6,302.9 M540.7,353.5c-3.5,1.3-7.8,1.2-10.8-1.2c-11.3-9,5-23.7,14-26c13.9-3.6,12.3,13.3,5.7,20.5
				C547.2,349.6,544.3,352.2,540.7,353.5 M567.1,398.4c-4.5,0.4-9.2-2-10.9-6.2c-3.7-9.4,8.2-19.1,16.7-19.9c10.5-1,8.8,12.3,5,18.9
				C575.6,395.1,571.7,397.8,567.1,398.4 M595.9,439.2c-5.5-0.3-10.4-5.6-9.8-11.1c0.9-7.9,13.2-16,19.5-9
				C612.3,426.5,605.6,439.7,595.9,439.2 M637.8,470.8c-16.1-0.3-13-24.4,1.6-24.3S652.7,471.1,637.8,470.8 M675.6,501.3
				c-3.4,1.3-7.2,0.7-10.1-1.6c-10.9-9.2,3.7-22.9,11.9-24.7c12.8-2.9,12.1,13.5,6.2,20.2C681.4,497.7,678.8,500.1,675.6,501.3
				 M721.9,518c-16.1-0.3-13-24.4,1.6-24.3S736.8,518.3,721.9,518 M783.3,492.3c-69.4-13.3-133.5-73.9-178.4-127.8
				c-47.7-57.1-85.6-131.8-86.3-207.8c2.8-19.8,11.9-45.4,30.2-53.1c14.9-6.2,39.2-2,54.6,5.2c-6.2-0.1-14.5,1.7-20.5,2
				c-28.2,1.6-48.3,30.6-46.2,58.5c1.3,18.3,6.7,39.1,14,56.1c43.9,103,109.7,189.8,205.6,236.2c22.9,11.1,50.8,18.6,77.2,10.3
				c15.8-5,27.8-25,30.1-32.9c0.3-0.9,1.2-1.3,2-1.1c0.7,0.2,1.1,0.8,1.2,1.5c1.1,6.3,1.4,12.8,0.7,19.2
				c-1.6,13.7-7.3,24.6-15.8,29.1C833,497.4,804.3,496.4,783.3,492.3 M764,522.7c9.3-4.9,18.3-10,26.9-15.2
				c10.1,11.4,27.7,20.1,18.6,31.1C798.1,554.4,781.8,534.4,764,522.7"/>
			<path class="st3" d="M809,278.2c0.2-0.3,0.5-0.7,0.7-1c0.2-0.3,0.4-0.7,0.6-1c0.2-0.3,0.3-0.7,0.4-1c0.3-0.8,0.5-1.7,0.5-2.6
				c0-0.4,0.1-0.7,0.1-1.1c0-0.3,0-0.7,0-1c0-0.3,0-0.7-0.1-1c0-0.3,0-0.6-0.1-0.9c0-0.4-0.1-0.8-0.2-1.1c-0.1-0.4-0.2-0.9-0.3-1.3
				s-0.2-0.7-0.3-1.1c-0.2-0.7-0.5-1.4-0.7-2.1c-0.3-0.9-0.7-1.7-1.1-2.6c-0.8-1.8-1.7-3.5-2.7-5.1c-0.3-0.5-0.6-0.9-0.8-1.4
				c-0.4-0.7-0.8-1.3-1.2-1.9l-0.8-1.2c-0.3-0.4-0.5-0.8-0.8-1.2c-0.4-0.6-0.8-1.1-1.2-1.6c-1-1.3-1.9-2.5-2.7-3.4
				c-1.4-1.7-2.4-2.8-2.5-3l0,0c0.9,0.5,1.9,0.9,2.8,1.3c0.4,0.2,0.8,0.3,1.2,0.5c0.4,0.2,0.8,0.3,1.2,0.4c0.5,0.2,1.1,0.4,1.6,0.5
				l1.2,0.3c0.5,0.1,1,0.3,1.6,0.4c0.2,0.1,0.5,0.1,0.7,0.1c0.5,0.1,1,0.2,1.5,0.3c0.3,0,0.5,0.1,0.8,0.1
				c-5.7-8.9-11.9-17.4-18.6-25.5c-7.3-8.6-15.1-16.8-23.4-24.6c0.1,0.5,0.2,1,0.3,1.5c0,0.1,0,0.1,0,0.2c0,0.1,0,0.1,0,0.2
				c0.2,0.7,0.4,1.4,0.6,2.1s0.4,1.4,0.7,2.1c0.5,1.4,0.9,2.8,1.4,4l0,0l0,0c-0.1-0.1-0.3-0.4-0.8-0.8c-0.1-0.1-0.2-0.2-0.2-0.2
				l-0.6-0.6l-1-1.1c-0.2-0.2-0.5-0.5-0.7-0.7s-0.4-0.3-0.5-0.5s-0.6-0.6-0.9-0.9c-0.6-0.6-1.3-1.2-2-1.8c-0.2-0.2-0.5-0.5-0.7-0.7
				l-0.6-0.5c-0.3-0.3-0.7-0.6-1.1-0.9l-0.6-0.5c-1.1-0.9-2.3-1.9-3.5-2.7c-0.4-0.3-0.8-0.6-1.2-0.8c-0.3-0.2-0.6-0.5-1-0.6
				c-0.7-0.4-1.3-0.9-2-1.3s-1.4-0.8-2-1.2c-0.2-0.1-0.3-0.1-0.5-0.2l-0.9-0.4c-0.4-0.2-0.9-0.4-1.3-0.6l-0.7-0.3l-0.4-0.2
				c-0.4-0.1-0.8-0.3-1.2-0.4c-0.4-0.1-0.8-0.3-1.2-0.3c-0.2,0-0.3-0.1-0.5-0.1c-0.3-0.1-0.7-0.2-1-0.2c-0.7-0.1-1.4-0.2-2.1-0.2
				H739c-0.3,0-0.7,0.1-1,0.1c-0.2,0-0.4,0-0.5,0.1c-1.3,0.2-2.5,0.7-3.5,1.4c-0.3,0.2-0.5,0.4-0.8,0.5s-0.4,0.4-0.7,0.6
				s-0.2,0.2-0.3,0.3l0,0c-0.1,0.1-0.2,0.2-0.3,0.3c-0.3,0.3-0.6,0.7-0.8,1.1c-0.1,0.2-0.3,0.4-0.3,0.6c-0.2,0.3-0.3,0.6-0.4,0.9
				c-0.1,0.3-0.2,0.5-0.3,0.8c-0.3,0.9-0.4,1.7-0.5,2.6c0,0.5,0,1.1-0.1,1.7c0,0.4,0,0.9,0.1,1.3c0,0.5,0.1,0.9,0.2,1.4
				c0.1,0.8,0.2,1.6,0.4,2.4c0.1,0.4,0.2,0.8,0.3,1.2c0.4,1.5,0.8,2.9,1.3,4.3c0.1,0.3,0.2,0.7,0.4,1c0.1,0.4,0.3,0.7,0.4,1.1
				c0.3,0.7,0.6,1.4,0.9,2.1c0.4,1,0.9,2,1.4,3.1c0.1,0.2,0.2,0.4,0.3,0.6l0.6,1.3c0.3,0.5,0.5,1.1,0.8,1.6s0.7,1.4,1.1,2.1
				c0,0,0.1,0.1,0.1,0.1c0.3,0.6,0.6,1.2,1,1.8c0,0.1,0.1,0.2,0.1,0.3c0.3,0.5,0.6,1,0.8,1.5s0.7,1.2,1,1.7c0.5,0.9,1,1.8,1.6,2.6
				c1.1,1.8,2.1,3.4,3.2,5.1c0.5,0.8,1.1,1.6,1.6,2.4c0.4,0.6,0.8,1.2,1.3,1.8s0.8,1.2,1.2,1.7l0,0c0.4,0.6,0.8,1.1,1.1,1.6
				c1.4,1.9,2.6,3.5,3.7,4.9c2.9,3.6,7.2,8.7,12.3,14c0.5,0.5,1,1,1.4,1.5c1.4,1.4,2.9,2.9,4.3,4.3c0.9,0.9,1.8,1.7,2.7,2.5
				c0.2,0.1,0.3,0.3,0.5,0.5c0.4,0.4,0.9,0.8,1.3,1.2c0.3,0.2,0.6,0.5,0.9,0.8c0.6,0.5,1.2,1,1.9,1.5c0.9,0.8,1.9,1.5,2.8,2.2
				c1.3,0.9,2.5,1.8,3.7,2.6l0,0c0.6,0.4,1.2,0.8,1.8,1.1s1.2,0.7,1.9,1s1.1,0.5,1.6,0.8c0.2,0.1,0.4,0.2,0.6,0.3
				c0.3,0.2,0.7,0.3,1,0.4c0.4,0.2,0.9,0.3,1.3,0.5c0.1,0,0.1,0,0.2,0c0.5,0.2,1,0.3,1.5,0.4c1.1,0.3,2.2,0.5,3.3,0.5
				c0.4,0,0.7,0,1.1,0c0.5,0,1,0,1.6-0.1c0.4,0,0.8-0.1,1.2-0.2c0.3-0.1,0.7-0.2,1.1-0.3s1-0.4,1.4-0.6c0.5-0.3,0.9-0.5,1.4-0.9
				C807.8,279.6,808.5,278.9,809,278.2"/>
			<path class="st3" d="M806.9,280.3c-14.3,10.8-42.6-21.2-52.8-33.8s-33.8-48.4-21.2-58s36.3,16.9,36.3,16.9
				c-1-2.7-1.9-5.5-2.7-8.3c-0.2-0.6-0.3-1.3-0.4-1.9c-0.7-3.1-0.7-6.3,0-9.4c0.9-3.4,2.9-6.3,5.7-8.4c2.6-2,5.7-3.3,9-3.8
				c23.2-3.4,44.4,20.7,50.6,40.7c2.7,8.6,2.5,20.9-5.3,26.7c-0.3,0.2-0.5,0.4-0.8,0.6c-5.1,3.2-11.2,4.5-17.2,3.6
				c-0.3,0-0.5,0-0.8-0.1c-4.1-0.6-8.1-1.9-11.8-3.8C795.5,241.5,821.2,269.4,806.9,280.3"/>
		</g>
		<g class="st2">
			<path class="st3" d="M3126,367.5c-34.5,18.1-66.2,52.9-89,84c-5.6,7.5-10.9,16-20.3,21c-8.6,4.6-19,5.3-28.6,5.5
				c-36.8,0.7-74.1,0.4-111.1,0.5c31.9-59.8,64.9-115.2,83.2-180.9c20.4-73.4,28.9-149,39-224.2c0.6-4.5-4-7.8-7-5.6
				c-39.7,27.9-77.3,30.6-124.4,34.5c-89.9,7.4-183.7-1.9-278-5.2c2.3,22.1,3.8,31.6,7,48.9c6.3,55.3,19.7,110.3,22.4,166.1
				c2.9,58.7-6.7,117.6-12.4,175.6c-4.8,49.5,1.2,95.5,16.2,141.4c7.4,22.7,19.5,45.8,31,67.7c14.3,27,28.9,55.5,51,77.1
				c46.4,45.2,118.2,62.1,181.2,57.5c38.6-2.8,78.7-9.2,114.1-25.1c21.1-9.5,39.5-23.8,56.5-39.3c17.9-16.5,35-34.5,47.6-55
				c51.9-84.5,37.3-192,62.9-285.7c0.5-2.6,1.5-5,3.1-7.1c2.1-2.3,5.1-3.1,7.9-3.8c10.7-2.5,21.5-4.4,32.4-5.7
				C3202.5,371.4,3159.7,349.8,3126,367.5z M2965,761.7c-10.1,0.8-22.6,4.8-32.7,5.5c-4.9-29.1-8.4-48.3-11.7-48
				c-4,0.2-5.2,34.5-7.8,53.7c-10.4-0.7-18.5-0.4-28.9-1.2c1.9-16.8,8.5-43.3,5.6-43.9c-1.9-0.5-20,27.8-31.3,43.1
				c-9.9-0.6-21-0.1-30.9-0.7c10.6-12.3,21-26.9,31.6-39.1c0.7-0.8,1.5-1.8,1.2-2.9c-0.4-1.7-3.2-2.1-4.7-1.1
				c-20.3,13.5-43.7,29-43.7,29s-24.4-2.7-34.2-4.7c17.5-10.3,56.3-36.7,53.9-40.6c-1.1-1.8-41.2,13.8-58.5,20.8
				c-3.2,1.2-12.1,4.8-12.1,4.8s-11.7-18.9-14.9-21.9c24.1-9.7,73.5-23.5,72.4-29c-2.7-4.7-58,8.9-86.1,9.7
				c0.1-8.5-0.4-16.4-0.2-24.9c25.5-0.2,74.1-3.6,74.4-11.4c-0.9-7.1-54.4-4.6-77-4.7c3.8-17,6.3-33.5,10.1-50.5
				c39.2,10,76.1,20.6,79.2,14.6c0.7-5.7-47-18.4-70.4-27.3c6.8-6.6,11.6-13.5,17.6-20.8c23.4,6.3,66.3,23.2,70.1,19.2
				c3.4-4.5-37.6-28.1-52.9-38.3l45.3-19.8c3.3,1.5,40.9,41,44.4,38.3c1-7.3-22.3-37-29.6-46.3c16.2-2.1,31.5-3,47.8-3.5
				c4.6,14.7,15.3,51.2,18.7,52.1c3.1,0.7,0.1-35.3,1-53c15.8,5.4,31.4,10.5,46.3,18.2c-4.1,14.5-15.7,41.4-13,42.7
				c4.5,2.4,24.1-36.2,26.1-36.6s24.5,13.6,32.7,21.1c-8.9,13.4-25.5,40.5-23.4,42.1c2.8,3.1,23.7-19.2,37.6-25.7
				c8.6,11.7,15.2,24.8,19.6,38.7c-19.5,2.3-58.8,13.3-58.4,17.3c0.6,3.6,42.6-3.4,63.1-3.6c-0.7,10,2.1,19.8,1.4,29.8
				c-12.7-1.8-39.6-3.2-39.8-0.3c0.2,4,19.1,8,37.3,13.4c-6.7,9.6-13.9,24.8-20.6,34.5c-18.3-7-46.1-31.5-49.9-29.1
				c-2.3,3.1,29.2,30.3,45.3,43.6c-13.2,6.1-25.2,14.7-35.2,25.3 M2946.8,699.2l-18.5-71c-19.2-32.5-74.4-10.9-67.4,26.1
				c9,47.7,100,29.3,67.3-26L2946.8,699.2z"/>
			<path class="st3" d="M3126,367.5c-34.5,18.1-66.2,52.9-89,84c-5.6,7.5-10.9,16-20.3,21c-8.6,4.6-19,5.3-28.6,5.5
				c-36.8,0.7-74.1,0.4-111.1,0.5c31.9-59.8,64.9-115.2,83.2-180.9c20.4-73.4,28.9-149,39-224.2c0.6-4.5-4-7.8-7-5.6
				c-39.7,27.9-77.3,30.6-124.4,34.5c-89.9,7.4-183.7-1.9-278-5.2c2.3,22.1,3.8,31.6,7,48.9c6.3,55.3,19.7,110.3,22.4,166.1
				c2.9,58.7-6.7,117.6-12.4,175.6c-4.8,49.5,1.2,95.5,16.2,141.4c7.4,22.7,19.5,45.8,31,67.7c14.3,27,28.9,55.5,51,77.1
				c46.4,45.2,118.2,62.1,181.2,57.5c38.6-2.8,78.7-9.2,114.1-25.1c21.1-9.5,39.5-23.8,56.5-39.3c17.9-16.5,35-34.5,47.6-55
				c51.9-84.5,37.3-192,62.9-285.7c0.5-2.6,1.5-5,3.1-7.1c2.1-2.3,5.1-3.1,7.9-3.8c10.7-2.5,21.5-4.4,32.4-5.7
				C3202.5,371.4,3159.7,349.8,3126,367.5z"/>
		</g>
		<path class="st1" d="M2193.8,282.7c-3.2-0.3-6.5-0.7-9.8-1.2c7.7,16.8,16.4,32.9,24.3,50.1c3.7-5.8,7.5-11.6,12.2-15.7
			c2.5-3.3,5.2-6.4,8-9.4c0.8-0.6,1.7-1.3,2.4-1.9c22.9-20.9,60.7-23.5,88.8-11c5.1,2.2,10.1,5.5,14.7,8.2
			c54.5,32.2,102,153.5,55.5,202.6c-35.1,37-75.3,68-123.6,90.5c-7.2,3.3-14.5,6.2-21.9,8.8c-33.5,11.4-70.4,21.9-106,18.8
			c-6.8-0.6-13.6-2-20.1-4c-41.1-12.5-71.9-60.4-84.8-96c-10.7-29.3-13.6-66.2-6.2-98.4c1.7-7.5,4.2-14.9,7.4-21.9
			c15.1-33.6,47.3-66,86.7-62.9c6.7,0.5,14.4,1.1,21.6,2.4c10.1,1.8,20,4.2,29.6,6.5c-15.3-28.9-24.9-61.5-31.7-94.1
			c-2.9,5.7-6.2,11.1-9.6,16.3c-35,53.6-148.2,74-185.9,18c-37.8-56.2,134.8-69.9,163.8-61.5c6.1,1.9,12,4.4,17.7,7.5
			c3.8,2,7.6,4.2,11.4,6.7c-1.5-7.9-2.8-15.8-4.1-23.7c-1.4-9-2.1-18.1-2.3-27.2c9.7-5.4,20.1-11.5,31.1-12.5
			c-0.6,10.2-0.5,20.4,0.4,30.5c0.9,10.4,2.5,20.7,4.8,30.9c2.3,8.6,5.1,17,8.4,25.3c0.2-2.4,0.6-4.8,0.9-7.2
			c1-7.2,2.5-14.3,4.3-21.4c1.7-6.9,3.8-13.7,6.5-20.3c26.3-62.3,71-110.4,135.8-128.1c6.1-1.6,12.6-2,18.4-2
			c-14.2,78.8-53.4,183.1-130.8,197.5c-5.2,1-11.8,0.4-17.9-0.1"/>
		<path class="st1" d="M2467.9,1580c-1.8-2.7-3.5-5.5-5.1-8.4c-8.4,16.4-15.7,33.2-24.3,50.1c6.8-0.7,13.8-1.3,19.9-0.1
			c4.1-0.1,8.2,0.1,12.3,0.4c1,0.2,2,0.5,2.9,0.7c30.5,5,56.1,33.2,63.6,62.9c1.4,5.4,2,11.3,2.7,16.6
			c8.4,62.8-57.5,175.1-124.9,168.9c-50.8-4.7-99.9-17.1-147.6-41.1c-7-3.6-13.9-7.5-20.5-11.8c-29.7-19.3-60.7-41.8-80.4-71.6
			c-3.7-5.8-6.8-11.9-9.2-18.3c-15.6-40,3-93.8,23-126c16.4-26.5,43.6-51.6,73.5-65.7c7-3.3,14.3-5.9,21.8-7.7
			c35.8-8.9,81.1-3.6,103.1,29.2c3.8,5.6,8,12,11.5,18.4c4.8,9,9.1,18.3,13.2,27.3c13.2-29.9,32.9-57.6,54.4-83.1
			c-6.3,1.2-12.6,2-18.7,2.5c-63.7,5.6-149.8-70.7-129.1-134.9c20.8-64.5,138.3,62.6,149.6,90.7c2.3,6,4,12.2,5.1,18.5
			c0.8,4.2,1.4,8.6,1.8,13.1c5.3-6.1,10.7-12,16.1-17.8c6.2-6.6,12.9-12.9,19.9-18.7c10.3,4.3,21.5,8.7,29.1,16.7
			c-8.4,5.8-16.3,12.2-23.7,19.2c-7.6,7.2-14.7,14.8-21.3,22.9c-5.3,7.1-10.2,14.6-14.7,22.2c2-1.3,4.1-2.5,6.2-3.7
			c6.3-3.6,12.8-6.9,19.5-9.8c6.5-3,13.2-5.5,20-7.5c65.2-17.9,130.6-12.5,184.6,27.4c5,3.7,9.3,8.7,13,13.2
			c-70.7,37.6-176.9,71.4-236.1,19.5C2475,1590.7,2471.3,1585.1,2467.9,1580"/>
		<path class="st1" d="M1064.5,1079.1c24.2,57.5,56.3,112,82.3,167.7c29.9,64.1,58.3,133,82.8,198.7c12.8,34.4,38.2,79.6,73.2,96.8
			c18.8,9.2,51,12,70.5-3.2c18-14.1,34.6-42.7,30.4-63.8c-5.8-29.7-23.2-58.5-40.7-82.6c-83.1-114.1-177.8-221.5-265.9-332.9
			c32.3-37.3,37.7-89.9,22.6-131.3c-12.5-34.3-34.1-62-62.5-86.3c-24.6-21-59.6-34.3-92.9-39.3c-33.5-5-58.9,29.5-64.2,58.6
			c-7.8,42.9-3.1,99.6,12.5,138.1C935.6,1056,1007.5,1070.8,1064.5,1079.1"/>
		<path class="st1" d="M2641.2,1072.3c24.2,57.5,56.3,112,82.3,167.7c29.9,64.1,58.3,133,82.8,198.8c12.9,34.4,38.1,79.6,73.2,96.8
			c18.8,9.2,51.1,12,70.5-3.2c18.1-14.1,34.6-42.7,30.4-63.8c-5.8-29.7-23.1-58.5-40.7-82.6c-83.1-114.1-177.8-221.5-265.9-332.9
			c32.3-37.3,37.7-89.9,22.6-131.3c-12.5-34.3-34.1-62-62.5-86.3c-24.5-21-59.6-34.3-92.9-39.3c-33.5-5-58.9,29.5-64.2,58.6
			c-7.8,42.9-3,99.6,12.6,138.1C2512.3,1049.2,2584.1,1064,2641.2,1072.3"/>
		<path class="st0" d="M446.7,1422.7c0.6-0.1,1-0.6,1-1.2c0-0.5-0.5-0.9-1-1c-0.6,0.1-1,0.6-1,1.2
			C445.7,1422.2,446.2,1422.6,446.7,1422.7z"/>
	</g>
</g>
</svg>
