<?xml version="1.0" encoding="utf-8"?>
<!-- Generator: Adobe Illustrator 25.2.0, SVG Export Plug-In . SVG Version: 6.00 Build 0)  -->
<svg version="1.1" id="Layer_1" xmlns="http://www.w3.org/2000/svg" xmlns:xlink="http://www.w3.org/1999/xlink" x="0px" y="0px"
	 viewBox="0 0 1190.76 538.3" style="enable-background:new 0 0 1190.76 538.3;" xml:space="preserve">
<style type="text/css">
	.st0{fill:#FFFFFF;}
</style>
<g>
	<path class="st0" d="M265.66,459.48c0-11.41-10.37-12.66-10.37-12.66c0,5.53-4.11,14.51-8.65,18.99
		c-4.64,4.57-8.54,12.83-39.76,12.83c-33.23,0-46.34-12.79-86.45-38.73c-19.73-12.76-35.83-19.6-49.91-21.45
		c30.67-13.38,35.19-43.26,32.85-80.01c-2.67-41.86-2.67-96.19,0-113.12c2.67-16.92,12.47-43.64,36.52-42.75
		s16.03,30.28,16.03,30.28s20.49-9.8,24.05-20.49s5.34-19.6,0-20.49s-40.08-18.7-66.8,4.45c-20.96,18.17-32.96,44.53-32.96,44.53
		s-9.35-0.39-15.14,18.15c-7.13,22.82-0.82,63.32,1.78,80.19c7.34,47.7,2.98,80.59-8.84,94.24c-1.61,1.86-2.76,3.6-3.59,5.12
		c-8.01,1.27-15.46,4.37-22.76,9.09c-19.68,12.73-15.13,28.17-13.12,32.87c0.15,0.34,0.64,0.29,0.72-0.07
		c0.24-1.19,1.01-3.12,3.18-5.9c1.34-1.71,2.8-3.93,5.25-6.11c12.45-11.07,33.28-11.22,47.91-3.86
		c15.63,7.87,28.81,19.15,45.01,35.47c25.49,25.69,40.63,30.9,60.34,31.94s29.4-11.93,29.4-11.93s28.81,2.75,42.3-10.04
		C266.12,477.22,265.66,470.89,265.66,459.48z"/>
	<path class="st0" d="M160.54,226.52c3.39,16.37-2.04,34.21-5.64,50.97c-7.81,36.37-12.8,55.45-25.35,90.47
		c-2.4,6.7-8.32,23.74-12.42,29.55c-2.32,3.29-8.2,6.56-14.15,8.97c11.63,4.95,24.17,9.6,37.53,13.64
		c-1.1-8.24-0.68-16.63,0.6-25.01c2.76,2.9,6.29,5.21,10.55,6.78c-3.6-3.3-7.07-14.94-6.61-20.71c0.44-5.6,2.22-14.05,13.8-24.88
		c5.48-5.12,16.96-9.05,28.43-10.91c2.28,30.5,4.49,63.83,3.34,69.76c-1.37,7.05-4.32,11.73-8.07,14.88
		c19.51,3.31,40.26,5.04,62.04,4.48c0.96-0.02,1.96-0.06,2.94-0.09c-3.19-1.9-6.21-4.05-8.73-6.76c-7.29-7.85-9.4-19.06-11.02-29.64
		c-2.53-16.55-4.58-33.17-6.21-49.83c2.39,0.9,4.24,1.75,5.3,2.26c22.6,12.15,26.18,29.55,26.26,46.45
		c1.85,0.31,3.99-5.66,4.49-7.13c4.34-14.77,2.43-32.35-6.88-44.91c-7.98-9.79-19.22-17.76-31.27-21.84
		c-0.85-12.07-1.48-24.16-1.86-36.25c-0.51-16.49-0.1-34.35,7.87-48.33C202.39,236.99,180.65,232.65,160.54,226.52z M173.91,324.7
		c-5.92,2.24-10.98,4.67-15.47,7.73c7.1-22.73,14.43-45.38,22.01-67.95c-0.22,3,2.35,20.73,3.04,31.28
		c0.33,4.99,1.07,14.42,1.96,25.91C181.28,322.41,177.27,323.43,173.91,324.7z"/>
	<path class="st0" d="M428.7,411.34c16.9-3.54,34.14-7.53,51.55-12c0.6-0.15,1.2-0.31,1.8-0.46c-4.35-10.92-7.89-22.1-9.31-33.73
		c-1.05-8.58-0.91-17.26-0.97-25.89c-0.04-11.81-0.09-23.63-0.13-35.44c-0.1-33.4-2.15-66.23,4.58-98.67
		c-15.19,3.85-24.76,6.79-39.56,9.93c-1.86,0.4-3.72,0.78-5.58,1.17c-0.72,0.15-1.44,0.3-2.15,0.45c-7.57,1.55-15.07,3.02-22.48,4.4
		c-0.53,0.1-0.81,0.65-0.61,1.15c0.96,2.41,1.54,5.05,1.74,7.5c1.52,18.76-4.37,37.25-10.18,55.15c-1.68,5.18-3.37,10.37-5.05,15.55
		c-1.69,0.1-3.38,0.28-5.06,0.56c-14.19,2.39-23.57,5.34-34.46,15.16c-6.2,5.59-11.75,12.15-14.8,19.92
		c-3.05,7.77-3.35,16.89,0.55,24.26c3.91,7.38,12.46,12.44,20.68,10.98c-5.79-6.55-6-16.73-2.36-24.67s10.49-13.98,17.74-18.86
		c3.64-2.45,6.95-3.81,10.35-4.69c-6.9,21.25-13.8,42.5-20.7,63.75c-4.01,12.34-8.06,24.79-12.93,36.83
		c-0.24,0.6,0.25,1.23,0.89,1.14c13.21-1.89,26.87-4.08,40.88-6.58c0.54-0.1,0.83-0.66,0.62-1.16c-2.12-4.93-3.39-10.3-3.78-15.61
		c-0.98-13.33,2.59-26.53,6.13-39.42c3.75-13.66,7.51-27.33,11.26-40.99c8.02,1.47,15.93,6.67,20,13.33
		c2.46,4.01,3.39,8.4,3.56,13.1c0.24,6.57-1.33,9.39-6.25,13.75c4.1-0.13,7.43-1.49,10-4.3c-0.88,21.52-2.27,38.02-2.86,41.41
		C431.05,402.75,430,407.08,428.7,411.34z M412.23,303.34c5.43-19.76,10.85-39.51,16.28-59.27c0.03-0.13,0.04-0.26,0.01-0.39
		c0.01,0.06,0.03,0.13,0.04,0.19c5.28,17.89,6.89,47.6,6.89,76.26C429.63,312.39,421.39,306.59,412.23,303.34z"/>
	<path class="st0" d="M371.32,486.93c-2.93,1.54-9,5.01-14.59,3.37c-8.62-2.53-26.12-30.66-27.56-55.18
		c-0.82-14.04-0.67-81.52-1.25-139.12c11.65-6.03,22.45-11.55,23.57-11.99c5.18-2.03,9.17-3.8,14.73-3.95
		c3.59-0.09,6.25,0.26,9.28,2.2s4.65,6.47,2.35,9.23c2.78-2.84,5.54-5.85,7.04-9.53s1.51-8.22-0.94-11.35s-7.72-4-10.46-1.11
		c1.1-7.77-8.17-16.58-16-17.2c-7.82-0.62-13.98,0.32-20.28,5.01c-3.49,2.6-6.69,5.08-9.73,7.51c-0.51-28.75-1.36-50.71-2.83-54.93
		c-0.56-1.6-1.22-3.15-1.99-4.62c45.82-15.87,85.8-34.75,143.45-34.41c10.6,0.06,15.54,1.34,24.8,6.51
		c9.48,5.3,10.84,9.07,12.58,13.5c7.7-13.63,2.66-32.63-7.73-41.14c-13.76-11.27-28.77-10.75-36.03-5.77
		c-4.87-5.41-18.91-14.67-41.27-10.5c-51.77,9.67-103.9,40.76-122.38,50.33c-13.91,7.2-32.82,15.74-48.48,15.83
		c-12.65,0.07-25.02-6.78-28.49-18.95c-7.82,2.73-11.27,12.86-8.54,20.68c2.73,7.82,10.12,13.26,17.96,15.93
		c14.81,5.05,41.5,3.24,56.68-0.6c3.27-0.83,6.47-1.7,9.65-2.59c0.46,16.45,1.21,45.45,1.77,76.19
		c-5.28,4.58-12.78,11.41-18.06,12.6c-6.33,1.43-11.68,2.05-15.91,0.51c-6.09-2.22-10.51-7.15-6.47-12.23
		c-6.3,4.85-6.4,15.17-1.4,21.35s13.66,8.49,21.56,7.6c7.35-0.83,14.19-4.04,20.65-7.68c0.45,31.45,0.57,62.02-0.14,80.32
		c-2,51.16-0.48,70.78-12.45,95.56c-11.97,24.77-26.82,23.76-26.82,23.76l-10.06,0.01c0,0,1.17,5.78,7.18,10.36
		c6.13,4.67,17.18,8.14,24.09,8.37c10.99,0.37,21.41-4.08,26.2-10.65s6.43-9.84,6.43-9.84s19.25,8.17,36.01,0.59
		c16.76-7.58,22.89-19.59,25.28-23.64C373.57,485.82,372.91,486.09,371.32,486.93z"/>
	<path class="st0" d="M609.32,329.74c2.49,8.94,8.4,17.46,17.13,20.59c3.85,1.38,8.23,2.34,12.32,2.37
		c4.87,0.03,10.84,0.04,15.48-1.45c8.37-2.69,18.43-8.56,22.75-16.62c4.15-7.75,5.87-14.82,10.6-22.23c2-3.13,3.33-4.99,6.34-7.17
		c3.01-2.18,10.24-4.37,10.81-4.24c0,0-4.04-0.91-5.72-1.79c-7.84-4.1-6.88-39-6.88-47.86c0-22.34-0.44-45.99-0.35-67.93
		c0.1-24.45-1.33-25.11,8.26-43.76c-9.91,3.23-23.95,7.51-34.25,10.85c1.63,2.78,2.34,5.02,2.94,7.67
		c8.14,36.15,4.52,145.38-2.32,162.42c-1.44,3.58-3.21,7.19-6.6,9.29c-1.98,1.22-4.38,1.7-6.58,0.97
		c-4.36-1.46-5.97-6.57-6.29-11.03c-3.24-45.5-1.24-98.67-0.88-144.66c0.07-8.33,1.66-13.79,5.1-19.08
		c0.15-0.24-0.07-0.54-0.34-0.45c-19.98,6.43-40.48,12.93-61.23,19.3c-0.9,0.28-1.09,1.49-0.29,2c5.15,3.32,9.33,8.43,11.93,14.03
		c4.39,9.48,5.09,20.2,5.57,30.64c1.23,26.81,1.45,53.66,0.66,80.49C607.2,311.35,606.83,320.8,609.32,329.74z"/>
	<path class="st0" d="M931.92,326.48c9.7-9.7,10.76-24.92,5.25-37.13c-6.6-15.07-23.77-14.5-31.24-11.09c0,0,11.5,4.07,11.5,12.45
		s-5.03,18.2-18.44,27.06c-17.83,11.69-62.59,8.57-106.1-2.87c-25.94-6.85-46.14-12.02-62.67-11.52
		c12.44-12.31,23.87-29.79,23.87-46.92c0-15.99,0.96-74.24,0.96-74.24s1.01-38.13,8.5-61.6c0.22-0.69-0.43-1.33-1.11-1.12
		c-15.18,4.8-31.28,10.01-48.08,15.48c-0.67,0.22-0.81,1.08-0.26,1.53c0.44,0.36,0.82,0.77,1.12,1.22c1.58,2.39,2.36,5.54,2.86,8.35
		c3.51,19.62,1.87,39.98,1.63,59.91c-0.35,29.41-0.72,59.07-7.15,87.76c-1.14,5.1-2.52,10.23-4.47,15.07
		c-4.23,2.26-8.19,5.26-11.95,9.19c-5.27,6.16-7.09,16.55-6.61,22.3s3.03,11.42,4.81,11.02c-3.01-17.93,13.57-32.32,36.32-30.55
		c34.25,2.37,88.58,33.15,99.36,38.18c10.78,5.03,27.07,12.04,47.91,12.04c20.84,0,34.71-19.94,34.71-19.94s4.12-5.25,4.12-11.71
		c0-6.47-1.04-7.81-1.04-7.81S922.22,336.18,931.92,326.48z"/>
	<path class="st0" d="M491.3,396.58c2.37-1.01,4.99-1.9,7.76-2.71c18.72-5.46,44.68-9.78,60.29-15.79
		c13.73-5.28,24.47-13.49,31.87-26.2c3.09-5.31,5.6-13.88,7.09-19.84c3.98-15.96,0.21-36.34-8.04-50.58
		c-4.11-7.09-12.24-13.05-20.2-15.02c13.78-6.66,22.23-22.43,21.2-37.69c-1.03-15.26-5.88-30.47-19.45-37.55
		c-5.3-2.76-13.18-6.34-22.85-4.9c-5.78,0.87-26.14,7.06-43.11,11.95c-6.94,1.87-13.86,3.71-20.76,5.48
		c-0.14,0.04-0.27,0.07-0.41,0.1c0.04,0.06,0.08,0.11,0.13,0.17c1.4,1.9,9.49,19.67,9.49,35.1c0,34.51,2.41,138.63-2.17,154.76
		L491.3,396.58z M563.33,320.37c-0.48,18.24-4.79,31.65-16.05,42.67c-6.43,6.29-17.54,9.61-25.89,11.31
		c1.39-2.16,2.53-4.49,3.4-6.88c3.02-8.32,3.27-17.35,3.49-26.2c0.31-12.57,1.31-53.96,1.36-62.08c3.85,0.1,8.23,0.77,12.37,2.67
		C553.03,286.88,563.81,302.13,563.33,320.37z M537.66,208.41c3.09,0.6,6.12,1.83,8.44,3.97c1.75,1.61,3.03,3.68,4.07,5.82
		c2.31,4.77,3.53,10.06,3.54,15.35c0.01,3.65-0.57,7.35-2.16,10.63c-2.8,5.78-8.39,9.65-14.02,12.75c-2.53,1.39-5.12,2.67-7.76,3.85
		c-0.25-15.47-1.66-36.27-7.41-46.4c-0.86-1.51-1.69-3.01-2.68-4.41C525.58,208.33,531.69,207.25,537.66,208.41z"/>
	<circle class="st0" cx="842.74" cy="194.78" r="11.38"/>
	<path class="st0" d="M795.85,126.25c-16.29,19.81-27.11,50.18-27.11,80.64c0,22.7,2.99,44.47,12,59.54
		c14.82,24.79,41.15,35.89,62,35.89c33.53,0,74-48.65,74-108.67s-34.01-95.74-67.54-95.74C832.69,97.92,811.66,107.03,795.85,126.25
		z M847.23,114.9c18.85,0,29.28,36.53,29.28,86.58s-15.28,84.16-34.13,84.16s-34.13-34.11-34.13-84.16S828.38,114.9,847.23,114.9z"
		/>
	<path class="st0" d="M1020.08,302.33c0-20.44-7.79-40.02-12.53-49.21c-5.17-10.03-28.78-41.51-37.83-55.22
		c-9.97-15.09-19.2-30.44-21.27-40.35c-2.29-10.93-0.93-18.25,1.95-23.67c3.19-6,9.89-10.28,18-10.11
		c15.43,0.32,32.15,17.68,33.43,26.68c0.74,5.2,0.32,7.56-0.16,8.63c-0.21,0.47,0.29,0.93,0.76,0.71
		c4.66-2.22,15.77-14.39,18.54-23.09c2.31-7.28,5.47-22.19-17.36-32.8c-22.83-10.61-39.23-5.14-42.12-3.86
		c-2.89,1.29-18.1,8.75-26.44,22.72c-8.22,13.77-11.3,25.89-8.15,45.83c0.12,0.79,5.12,18.63,5.12,18.63s-8.47,3.16-7.18,12.16
		s0.64,18.97,29.58,61.73s27.3,70.44,27.3,79.49c0,63.4-56.4,101.84-98.07,101.84c-48.14,0-71.18-30.54-71.18-49.39
		c0-19.14,10.35-22.15,10.35-22.15s-4.63-9.74-16.54-9.65c-11.9,0.09-26.89,10.41-27.24,28.41s10.29,33,13.17,34.02
		c2.87,1.02,1.89,2.29,1.89,2.29s-3.05,7.98,0.66,15.77c3.71,7.79,18.48,50.28,88.9,50.28c126.09,0,122.86-138.62,122.86-138.62
		S1020.08,345.09,1020.08,302.33z"/>
	<path class="st0" d="M1173.82,382.31c0,0-11.48,21.39-31.52,21.22c-15.67-0.13-34.52-4.98-41.83-9.94c-1.01-0.69-2-1.36-2.97-2.02
		c18.05-8.85,16.87-24.26,16.87-24.26v-39.52v-74.03c8.91,5.29,15.11,12.88,17.09,15.49c14.67,21.04,10.01,38.19,2.45,53.3
		c1.51,1.11,26.33,1.38,26.33-44.62c0-24.61-20.37-37.95-35.87-46.29c-3.2-1.7-6.56-3-10-4.01v-73.35c0-0.05,0.35-2.59,1.13-3.82
		s2.26-1.9,2.26-1.9c0.09-0.15,0.03-0.33-0.13-0.4c-6.53-2.69-58.67-21.87-67.52-24.86c-0.24-0.08-0.45,0.18-0.33,0.4
		c1.65,2.99,3.12,5.88,4.24,8.49c6.32,14.75-42.05,113.4-42.05,113.4c-0.03,0.08,2.93,4.51,2.98,4.59
		c4.09,6.65,8.06,15.91,10.79,26.1c0.26,0.96,1.01,5.5,1.12,6.41c0.03,0.29,0.43,0.33,0.53,0.07l6.38-16.47
		c0.77,5.36,3.24,10.47,7.37,14.91c-1.72-4.57,0.44-16.52,3.45-21.46c2.92-4.79,8.33-11.53,23.54-15.97
		c0.65-0.19,1.34-0.35,2.06-0.48l2.47,132.14c-3.38-1.96-6.62-3.68-9.9-5.2c-9.13-4.21-12.91-5.83-22.15-5.83
		c-25.38,0-24.3,26.47-24.3,26.47s6.25-12.29,15.9-12.29c9.89,0,13.62-0.66,23.99,9.64c13.91,13.82,34.79,41.86,66.32,41.86
		c15.3,0,20.86-10.45,20.86-10.45s14.41,3.25,23.73-6.35C1176.44,403.69,1173.82,382.31,1173.82,382.31z M1057.32,229.96
		c-5.37,2.99-9.8,6.34-13.33,9.91l24.42-63.01c0.11-0.28,0.53-0.21,0.53,0.09l0.9,48.2
		C1065.63,226.12,1061.47,227.65,1057.32,229.96z"/>
	<path class="st0" d="M767.11,365.79c-1.07-2.21-2.75-4.37-4.93-6.07c-5.44-4.25-9.03-5.92-15.43-7.01
		c-31.55-5.37-68.33,9.43-99.95,22.23c-38.03,15.39-69.29,34.72-115.3,52.25c-38.37,14.61-99.71,30.93-140.69,24.08
		c-12.7-2.12-19.59-13.03-21.87-19.49c0,0-1.06,0.79-1.51,1.24c-6.28,6.31-6.6,24.91,12.74,39.3c16.72,12.44,51.17,5.13,87.7-3.76
		c8.98,5.97,26.53,12.95,53.65,4.24c31.38-10.09,77.35-34.79,109.18-52.89c0,0,19.53-11.26,25.93-15.03
		c25.72-15.16,63.97-33.86,75.89-36.47c7.67-1.68,13.34-1.83,17.5-1.49c7.88,0.64,10.42,3.72,11.61,6.03
		c1.82,3.53,1.43,6.22,1.29,8.14c-0.31,4.12-1.87,5.6-1.87,5.6c2.87-1.1,8.13-2.98,7.68-14.33
		C768.67,371.45,768.18,368,767.11,365.79z"/>
	<path class="st0" d="M528.31,145.12c1.51,1.96,3.26,3.24,5.2,3.8s3.9,0.54,5.83-0.07s3.65-1.71,5.13-3.28
		c1.47-1.57,2.54-3.54,3.16-5.87c0.51-2.1,0.57-4.19,0.19-6.21c-0.39-2.02-1.2-3.74-2.42-5.1c-1.22-1.37-2.83-2.13-4.77-2.27
		c-1.94-0.13-4.23,0.62-6.8,2.26c-0.61,0.42-0.94,0.85-0.97,1.3c-0.03,0.47,0.2,0.77,0.68,0.88c0.46,0.11,1.07-0.1,1.86-0.66
		c2.07-1.41,3.93-1.99,5.55-1.74c1.62,0.26,2.94,1.06,3.95,2.38c1.01,1.33,1.62,2.95,1.83,4.82c0.21,1.87-0.07,3.75-0.85,5.58
		c-0.77,1.83-2.15,3.38-4.08,4.62c-2.78,1.64-5.13,2.23-6.96,1.75s-3.23-1.75-4.17-3.79c-0.95-2.05-1.46-4.67-1.52-7.78
		s0.31-6.54,1.12-10.18c0.8-3.64,2.04-7.34,3.69-11c1.64-3.66,3.73-7.09,6.19-10.22c2.36-2.96,5.18-5.56,8.38-7.73
		c3.2-2.17,6.67-3.71,10.31-4.58c3.63-0.87,7.35-0.83,11.03,0.11c2.04,0.59,3.82,1.76,5.28,3.48c1.47,1.73,2.59,3.83,3.35,6.23
		c0.76,2.4,1.08,4.94,0.95,7.53c-0.26,3.69-1.11,7.49-2.52,11.28c-1.41,3.8-3.23,7.39-5.39,10.68c-2.16,3.29-4.52,6.06-7.02,8.23
		c-2.44,2.13-4.89,3.43-7.26,3.87c0.11-2.22,0.19-4.51,0.24-6.81c0.05-3.45,0.21-7.13,0.49-10.94c0.28-3.81,0.77-7.62,1.47-11.34
		c0.7-3.72,1.74-7.21,3.1-10.4c1.35-3.18,3.18-5.91,5.43-8.12l0.25-0.25l-0.34,0.08c-3.14,0.75-5.77,2.1-7.82,4.01
		s-3.71,4.29-4.93,7.07s-2.14,5.88-2.74,9.21c-0.61,3.33-1.03,6.84-1.27,10.44s-0.42,7.23-0.54,10.78
		c-0.12,3.63-0.31,7.12-0.55,10.38c-0.24,3.25-0.66,6.23-1.25,8.84c-0.59,2.6-1.5,4.76-2.71,6.4c-1.06,1.35-2.29,2.22-3.66,2.59
		s-2.67,0.33-3.86-0.11s-2.03-1.23-2.51-2.34c-0.45-1.18-0.49-2.39-0.12-3.6c0.38-1.22,1.03-2.37,1.95-3.43
		c0.92-1.07,1.99-1.97,3.16-2.7c1.17-0.72,2.35-1.21,3.53-1.45c0.38-0.18,0.55-0.48,0.49-0.88c-0.06-0.37-0.24-0.72-0.53-1.03
		c-0.3-0.31-0.62-0.48-0.97-0.48h-0.02l-0.02,0.01c-2.07,1-3.94,2.23-5.55,3.65c-1.61,1.43-2.81,3.04-3.56,4.81
		s-0.84,3.68-0.27,5.66c0.56,1.86,1.67,3.27,3.31,4.21c1.1,0.63,2.32,0.94,3.64,0.94c0.65,0,1.32-0.07,2.02-0.22
		c1.58-0.31,3.19-0.91,4.81-1.78c1.61-0.87,3.1-2.06,4.41-3.53c1.32-1.48,2.32-3.29,2.99-5.39c0.52-1.81,0.92-3.77,1.21-5.83
		c0.28-2.01,0.49-4.15,0.63-6.35c3.05,1.94,6.28,3.86,9.6,5.7c3.35,1.86,6.88,3.45,10.5,4.72s7.44,1.99,11.35,2.13
		c2.27,0.05,4.72-0.47,7.28-1.55c2.55-1.08,4.95-2.65,7.13-4.65s3.9-4.39,5.12-7.11c0.19-0.45,0.23-0.84,0.12-1.14
		c-0.05-0.15-0.14-0.25-0.26-0.3c-0.15-0.07-0.34-0.06-0.59,0.04l-0.02,0.01l-0.02,0.02c-0.48,0.61-0.93,1.21-1.36,1.79
		c-0.62,0.96-1.32,1.85-2.09,2.66c-0.76,0.8-1.78,1.5-3.01,2.07c-1.24,0.57-2.93,0.98-5.04,1.19c-3.17,0.31-6.5,0.25-9.89-0.18
		s-6.79-1.15-10.12-2.14c-3.32-0.99-6.53-2.16-9.53-3.48c-0.58-0.26-2.05-0.82-4.38-1.65c4.92-2.12,9.14-4.73,12.54-7.74
		c3.46-3.06,6.21-6.43,8.18-10.01c1.97-3.58,3.25-7.22,3.81-10.85c0.55-3.62,0.43-7.11-0.36-10.38s-2.24-6.16-4.29-8.61
		c-2.06-2.44-4.76-4.29-8.03-5.49s-7.16-1.56-11.55-1.08c-4.39,0.49-9.38,2.06-14.83,4.68c-4.49,2.24-8.34,5.1-11.45,8.5
		s-5.6,7.15-7.38,11.13c-1.79,3.98-2.99,8.01-3.56,11.98c-0.58,3.97-0.57,7.68,0,11.02C525.7,140.37,526.8,143.16,528.31,145.12z"/>
	<path class="st0" d="M596.29,136.33c0.99,0.57,2.11,0.86,3.32,0.86c0.39,0,0.8-0.03,1.21-0.09c1.68-0.25,3.3-0.8,4.83-1.65
		c1.53-0.85,2.72-1.85,3.53-2.97l0,0c1.17-1.76,2.14-3.84,2.88-6.18l-0.97,25.2l-0.01,0.14l6.99-2.27l0.8-21.19
		c0.42,0.4,0.93,0.75,1.51,1.03c0.65,0.31,1.49,0.48,2.47,0.5c0.99,0.02,2.2-0.21,3.63-0.67c1.09-0.35,2.05-0.91,2.84-1.65
		c0.79-0.74,1.46-1.64,2-2.67c0.53-1.02,0.97-2.15,1.3-3.36c0.08-0.31,0.16-0.66,0.24-1.05c1.51-1.05,2.85-2.36,3.98-3.89
		c0.76-1.04,1.41-2.14,1.96-3.3l-0.03,0.89c0.01,2.69,0.48,4.77,1.4,6.17c0.92,1.41,2.12,2.24,3.55,2.47
		c0.41,0.07,0.81,0.1,1.19,0.1c1.04,0,1.96-0.24,2.75-0.73c1.07-0.66,1.99-1.64,2.72-2.9c1.1-1.85,1.98-4.07,2.59-6.6
		c0.34,1.61,0.91,2.88,1.67,3.77c0.84,0.98,1.86,1.57,3.03,1.75c1.53,0.25,2.86,0.03,3.94-0.63c1.07-0.66,1.99-1.64,2.72-2.9
		c1.13-1.89,2.08-4.09,2.82-6.53c0.05-0.18,0.1-0.35,0.15-0.52l-0.23,8.16v0.14l6.93-2.33l0.13-3.37c0.41,0.4,0.91,0.74,1.5,1.01
		c0.67,0.3,1.51,0.46,2.48,0.47c0.02,0,0.04,0,0.06,0c0.96,0,2.17-0.24,3.58-0.72c1.06-0.36,2-0.92,2.79-1.67
		c0.78-0.75,1.45-1.65,1.97-2.69c0.52-1.03,0.95-2.16,1.27-3.37c0.06-0.28,0.13-0.57,0.2-0.87c1.6-1.08,3.02-2.44,4.2-4.04
		c0.77-1.05,1.42-2.15,1.96-3.3l-0.02,0.71c0.07,2.69,0.57,4.76,1.49,6.15c0.93,1.4,2.14,2.22,3.59,2.42
		c0.39,0.06,0.77,0.09,1.13,0.09c1.05,0,1.97-0.25,2.77-0.76c1.06-0.68,1.97-1.66,2.69-2.93c1.13-1.92,2.07-4.13,2.78-6.57
		c0.14-0.48,0.27-0.96,0.39-1.44c0.22,1.74,0.68,3.14,1.38,4.16c0.95,1.39,2.16,2.2,3.6,2.4c0.37,0.05,0.72,0.08,1.07,0.08
		c1.09,0,2.05-0.26,2.86-0.79c1.06-0.68,1.96-1.68,2.67-2.95c1.12-1.92,2.04-4.14,2.73-6.59c0.34-1.2,0.63-2.39,0.89-3.57
		c0.23,1.01,0.49,1.91,0.77,2.7c0.85,2.18,2.04,3.68,3.51,4.44c0.93,0.49,1.95,0.73,3.05,0.73c0.49,0,0.99-0.05,1.51-0.15
		c1.67-0.31,3.27-0.93,4.76-1.85c1.49-0.91,2.64-1.96,3.41-3.11l0,0c1.15-1.87,2.06-4.08,2.72-6.56c0.31-1.15,0.57-2.3,0.79-3.43
		c0.18,0.84,0.37,1.62,0.6,2.29c0.54,1.64,1.23,2.93,2.05,3.84c0.83,0.91,1.75,1.5,2.73,1.74c0.41,0.1,0.83,0.15,1.25,0.15
		c0.59,0,1.18-0.1,1.77-0.29c0.64-0.21,1.28-0.74,1.88-1.56c0.6-0.81,1.15-1.81,1.62-2.97c0.43-1.05,0.79-2.18,1.06-3.37
		c0.39,1.21,0.95,2.16,1.65,2.84c0.77,0.75,1.67,1.2,2.67,1.36c1.51,0.25,2.83,0.05,3.92-0.62c1.08-0.67,2.01-1.64,2.74-2.91
		c1.13-1.89,2.08-4.08,2.83-6.53c0.74-2.44,1.31-4.84,1.7-7.13c0.39-2.29,0.63-4.19,0.71-5.62c0.03-0.95-0.07-1.46-0.31-1.62
		c-0.12-0.08-0.22-0.07-0.28-0.04c-0.15,0.06-0.26,0.23-0.35,0.56c-0.21,0.78-0.46,1.72-0.72,2.8c-0.49,2.03-1.06,4.26-1.71,6.64
		c-0.64,2.36-1.37,4.5-2.17,6.38c-0.79,1.86-1.66,3.11-2.58,3.7c-0.26,0.14-0.49,0.18-0.69,0.11c-0.25-0.09-0.46-0.34-0.64-0.75
		c-0.34-0.79-0.51-2.03-0.5-3.69l0.72-21.04l-6.98,2.3l-0.1,2.83c-0.81-0.62-1.75-1.02-2.77-1.17c-1.09-0.16-2.39,0-3.87,0.48
		c-1.36,0.45-2.5,1.21-3.41,2.26c-0.9,1.05-1.62,2.29-2.14,3.71c-0.52,1.41-0.89,2.94-1.1,4.54c-0.15,1.18-0.22,2.37-0.24,3.56
		c-0.39,1.9-0.86,3.97-1.39,6.19c-0.04,0.18-0.08,0.38-0.12,0.57c-0.21,0.97-0.55,2.2-1,3.66c-0.45,1.46-1.08,2.93-1.86,4.37
		c-0.77,1.31-1.77,2.25-2.98,2.79c-1.21,0.53-2.45,0.46-3.69-0.21c-0.77-0.45-1.4-1.39-1.89-2.78c-0.49-1.41-0.77-3.28-0.84-5.59
		c-0.06-1.99,0.02-3.97,0.22-5.89c0.21-1.92,0.56-3.57,1.06-4.92c0.49-1.32,1.13-2.15,1.89-2.45c1.07-0.31,1.86-0.17,2.42,0.44
		c0.57,0.62,0.95,1.44,1.15,2.43c0.2,1.01,0.26,1.93,0.19,2.75c-0.06,0.37,0.03,0.59,0.25,0.63c0.17,0.04,0.38,0.03,0.6-0.03
		c0.07,0.01,0.11,0,0.15-0.01l0.06-0.02c0.24-0.01,0.47-0.06,0.68-0.15c0.23-0.1,0.36-0.3,0.38-0.58c0.15-1.14,0.11-2.28-0.13-3.4
		c-0.23-1.12-0.72-2.16-1.44-3.1c-0.8-1.05-1.87-1.71-3.19-1.96s-2.92-0.04-4.75,0.63c-1.34,0.49-2.46,1.29-3.33,2.37
		c-0.86,1.08-1.54,2.35-2.02,3.78c-0.48,1.43-0.8,2.97-0.96,4.58c-0.16,1.52-0.18,3.07-0.1,4.6c-0.35,1.55-0.74,3.2-1.18,4.93
		c-0.61,2.37-1.3,4.54-2.06,6.43c-0.75,1.88-1.59,3.14-2.47,3.73c-0.27,0.15-0.52,0.19-0.72,0.12c-0.25-0.08-0.46-0.33-0.64-0.74
		c-0.34-0.79-0.54-2.03-0.59-3.67l0.29-21.05l-6.89,2.43l-0.18,12.19c-0.4,1.78-0.86,3.68-1.39,5.68c-0.62,2.37-1.33,4.52-2.1,6.41
		c-0.77,1.87-1.61,3.13-2.5,3.72c-0.28,0.15-0.52,0.19-0.73,0.12c-0.25-0.09-0.46-0.34-0.64-0.74c-0.34-0.79-0.53-2.03-0.57-3.68
		l0.85-38.76v-0.14l-6.95,2.39l-0.65,30.23c-0.46,1.29-1.09,2.69-1.92,4.19c-0.99,1.68-2.24,3.05-3.72,4.06
		c0.12-1.83,0.13-3.73,0-5.65c-0.13-2-0.47-3.87-1.01-5.56c-0.54-1.7-1.38-3.01-2.47-3.91c-1.11-0.91-2.59-1.17-4.42-0.81
		c-1.24,0.31-2.43,1.02-3.51,2.11c-0.98,0.98-1.8,2.08-2.45,3.27l0.59-21.28l-6.93,2.33l-0.86,30.43c-0.4,1.65-0.85,3.4-1.36,5.23
		c-0.65,2.37-1.39,4.52-2.18,6.39c-0.79,1.86-1.66,3.11-2.58,3.7c-0.26,0.14-0.49,0.18-0.69,0.11c-0.25-0.09-0.47-0.34-0.64-0.75
		c-0.34-0.79-0.51-2.03-0.5-3.69l0.7-20.9v-0.14l-6.98,2.3l-0.19,5.92c-0.24,3.37-0.65,6.58-1.2,9.54c-0.56,2.97-1.23,5.54-2,7.65
		c-0.77,2.1-1.59,3.54-2.43,4.29c-0.26,0.19-0.49,0.26-0.69,0.21c-0.23-0.06-0.43-0.28-0.61-0.65c-0.35-0.75-0.54-1.96-0.56-3.61
		l0.7-20.91v-0.14l-6.88,2.27l-0.06,0.02L639,107.29c-0.48,1.36-1.17,2.84-2.07,4.45c-0.91,1.54-2.06,2.8-3.4,3.77
		c0.1-1.23,0.14-2.5,0.12-3.8c-0.02-1.37-0.12-2.74-0.3-4.07s-0.47-2.56-0.87-3.67s-0.94-2.06-1.61-2.83
		c-0.67-0.77-1.51-1.28-2.49-1.53s-2.17-0.15-3.53,0.3c-0.71,0.23-1.58,0.87-2.6,1.91c-0.92,0.95-1.76,2.02-2.48,3.21l0.16-3.52
		l-6.99,2.27l-0.49,12.77c-0.4,1.56-0.85,3.22-1.35,4.95c-0.05,0.18-0.1,0.37-0.14,0.56c-0.25,0.94-0.63,2.16-1.15,3.61
		c-0.51,1.44-1.2,2.89-2.03,4.29c-0.82,1.28-1.86,2.18-3.09,2.67c-1.23,0.49-2.47,0.36-3.67-0.35c-0.78-0.58-1.35-1.48-1.7-2.68
		c-0.35-1.22-0.56-2.51-0.62-3.84c-0.06-1.23-0.07-2.3-0.04-3.19c0.84,0.89,1.81,1.23,2.87,1c1.12-0.24,2.22-0.9,3.25-1.97
		s1.86-2.37,2.45-3.89c0.6-1.52,0.83-3.07,0.69-4.63c-0.14-1.57-0.84-2.96-2.08-4.15c-0.77-0.72-1.76-1.16-2.94-1.29
		c-1.17-0.14-2.56,0.06-4.13,0.56c-1.12,0.36-2.1,0.94-2.92,1.73c-0.82,0.78-1.51,1.72-2.06,2.8c-0.55,1.07-0.98,2.25-1.29,3.53
		c-0.56,2.31-0.81,4.9-0.74,7.72s0.47,5.43,1.2,7.78C593.72,133.96,594.84,135.5,596.29,136.33z M598.79,120.64v-0.24
		c0.07-0.94,0.2-2.01,0.41-3.17c0.21-1.15,0.49-2.29,0.84-3.37c0.35-1.07,0.8-1.92,1.33-2.53c0.69-0.73,1.35-1.03,1.98-0.9
		c0.64,0.14,1.16,0.61,1.56,1.42c0.41,0.82,0.59,1.87,0.53,3.13c-0.05,1.26-0.45,2.65-1.19,4.11c-0.54,0.98-1.23,1.72-2.03,2.2
		c-0.8,0.48-1.55,0.67-2.22,0.56C599.35,121.76,598.95,121.36,598.79,120.64z M626.68,109.42c0.05,0.64,0.06,1.77,0.02,3.36
		c-0.04,1.57-0.18,3.29-0.41,5.13c-0.33,0.01-0.65,0-0.97-0.02c-0.67,0.05-1.22,0.35-1.63,0.89c-0.4,0.53-0.64,1.13-0.69,1.79
		c-0.06,0.67,0.11,1.24,0.49,1.7c0.37,0.44,0.98,0.63,1.8,0.56c-0.41,1.33-0.91,2.4-1.51,3.18c-0.61,0.79-1.34,1.11-2.23,0.96
		c-0.72-0.17-1.31-0.75-1.77-1.73c-0.46-0.99-0.68-2.32-0.63-3.96v-0.02l-0.02-0.07c0.05-0.85,0.18-2.14,0.38-3.83
		c0.21-1.72,0.53-3.57,0.96-5.5c0.43-1.92,0.99-3.63,1.67-5.08c0.67-1.43,1.49-2.3,2.45-2.58c0.41-0.11,0.8,0.22,1.16,0.97
		C626.13,105.96,626.44,107.39,626.68,109.42z M680.79,99.59c-0.65,0.05-1.18,0.34-1.58,0.85c-0.39,0.5-0.63,1.08-0.7,1.72
		c-0.07,0.65,0.06,1.21,0.38,1.69c0.31,0.46,0.84,0.69,1.58,0.7c-0.36,1.36-0.86,2.45-1.47,3.26c-0.62,0.82-1.34,1.15-2.21,1
		c-0.72-0.17-1.32-0.74-1.79-1.71c-0.47-0.98-0.71-2.3-0.71-3.93l0.01-0.1c0.01-0.82,0.12-2.11,0.31-3.84
		c0.19-1.72,0.49-3.57,0.91-5.5c0.41-1.92,0.95-3.64,1.62-5.1c0.65-1.43,1.47-2.31,2.43-2.61c0.05-0.01,0.11-0.02,0.16-0.02
		c0.35,0,0.69,0.33,1.01,0.98c0.38,0.79,0.71,2.22,0.97,4.25c0.08,0.64,0.11,1.75,0.08,3.31c-0.03,1.53-0.16,3.24-0.38,5.06
		C681.2,99.59,681,99.59,680.79,99.59z M751.13,67.68c0.25-2.18,0.66-4.09,1.22-5.66c0.56-1.55,1.27-2.49,2.12-2.8
		c0.08-0.03,0.17-0.04,0.26-0.04c0.23,0,0.49,0.08,0.77,0.25c0.41,0.24,0.79,0.71,1.14,1.41c0.35,0.71,0.55,1.46,0.6,2.24
		c0.05,0.79,0.04,2.2-0.02,4.29c-0.12,1.14-0.31,2.38-0.55,3.67s-0.52,2.55-0.84,3.75s-0.67,2.3-1.04,3.25
		c-0.37,0.96-0.76,1.69-1.14,2.19c-0.36,0.48-0.72,0.69-1.05,0.62s-0.65-0.55-0.94-1.42c-0.44-1.33-0.7-3.09-0.79-5.23
		C750.8,72.06,750.89,69.86,751.13,67.68z"/>
	<path class="st0" d="M710.81,66.8c0.52,0.25,1.05,0.38,1.59,0.38c0.41,0,0.83-0.07,1.26-0.22c0.95-0.34,1.65-0.97,2.09-1.89
		c0.43-0.92,0.48-1.87,0.14-2.82c-0.34-0.95-0.97-1.66-1.88-2.11c-0.92-0.45-1.86-0.51-2.81-0.17c-0.98,0.34-1.69,0.98-2.12,1.9
		c-0.43,0.92-0.48,1.87-0.14,2.82C709.26,65.65,709.89,66.36,710.81,66.8z"/>
	<path class="st0" d="M787.7,66.72c0.41,1.68,0.99,3.02,1.74,3.99c0.75,0.98,1.62,1.63,2.59,1.96c0.54,0.18,1.09,0.27,1.66,0.27
		c0.45,0,0.91-0.06,1.37-0.17c0.66-0.16,1.32-0.63,1.98-1.4c0.65-0.76,1.27-1.71,1.83-2.83c0.51-1.02,0.96-2.12,1.33-3.29
		c0.32,1.23,0.81,2.23,1.46,2.96c0.71,0.8,1.57,1.33,2.55,1.57c1.49,0.37,2.81,0.27,3.94-0.31c1.12-0.57,2.13-1.48,2.98-2.68
		c1.28-1.79,2.4-3.91,3.33-6.28c0.37-0.94,0.7-1.88,1.02-2.81c0.06,0.7,0.14,1.39,0.26,2.06c0.47,2.3,1.39,3.97,2.71,4.97
		c1.17,0.9,2.6,1.35,4.25,1.35c0.05,0,0.1,0,0.15,0c1.7-0.03,3.38-0.37,5-1.02c1.63-0.65,2.93-1.48,3.89-2.49l0,0
		c1.45-1.66,2.72-3.68,3.78-6c1.06-2.33,1.94-4.64,2.61-6.88c0.67-2.23,1.13-4.09,1.38-5.53c0.16-0.9,0.14-1.42-0.06-1.62
		c-0.1-0.1-0.2-0.11-0.27-0.1c-0.16,0.03-0.3,0.19-0.46,0.51c-0.33,0.81-0.7,1.72-1.09,2.71c-0.75,1.97-1.62,4.09-2.59,6.3
		c-0.07,0.17-0.15,0.35-0.21,0.54c-0.37,0.91-0.91,2.07-1.6,3.43c-0.69,1.37-1.56,2.71-2.57,3.99c-0.97,1.16-2.12,1.92-3.41,2.24
		c-1.28,0.32-2.49,0.04-3.6-0.82c-0.7-0.67-1.15-1.64-1.34-2.88c-0.19-1.25-0.23-2.56-0.12-3.89c0.1-1.23,0.23-2.29,0.37-3.17
		c0.72,0.99,1.64,1.46,2.72,1.36c1.14-0.09,2.31-0.61,3.48-1.54c1.16-0.92,2.15-2.11,2.93-3.53c0.79-1.42,1.22-2.94,1.28-4.5
		c0.06-1.57-0.45-3.05-1.53-4.38c-0.67-0.82-1.6-1.38-2.74-1.66s-2.55-0.28-4.17,0.02c-1.16,0.21-2.21,0.66-3.12,1.33
		c-0.91,0.67-1.72,1.52-2.4,2.51c-0.68,0.99-1.27,2.11-1.74,3.33c-0.72,1.88-1.24,4-1.56,6.31c-0.57,1.7-1.2,3.5-1.89,5.4
		c-0.84,2.3-1.74,4.38-2.69,6.19c-0.94,1.8-1.89,2.96-2.83,3.47c-0.29,0.12-0.53,0.14-0.73,0.05c-0.24-0.11-0.43-0.38-0.56-0.8
		c-0.26-0.82-0.34-2.07-0.23-3.72l4.42-38.51l0.02-0.14l-7.14,1.74l-2.34,20.54c-0.78-0.68-1.69-1.15-2.69-1.39
		c-1.06-0.25-2.37-0.2-3.87,0.17c-1.41,0.34-2.63,1.01-3.61,1.99c-0.98,0.97-1.8,2.16-2.43,3.53s-1.12,2.86-1.45,4.44
		c-0.33,1.58-0.54,3.18-0.62,4.78c-0.08,1.59-0.06,3.13,0.05,4.57C787.25,64.4,787.44,65.66,787.7,66.72z M793.8,61.04
		c0.09-2.14,0.34-4.32,0.74-6.48c0.41-2.15,0.96-4.02,1.65-5.54c0.68-1.5,1.46-2.38,2.33-2.62c0.06-0.02,0.13-0.02,0.19-0.02
		c0.25,0,0.52,0.1,0.82,0.31c0.39,0.27,0.73,0.77,1.02,1.5c0.29,0.73,0.44,1.47,0.43,2.18c0,0.89-0.02,1.21-0.03,1.33l-0.35,3.05
		c-0.21,1.16-0.48,2.38-0.81,3.63s-0.72,2.48-1.14,3.65c-0.43,1.18-0.87,2.24-1.31,3.16c-0.45,0.92-0.89,1.63-1.31,2.1
		c-0.4,0.45-0.76,0.63-1.07,0.53c-0.22-0.07-0.53-0.38-0.81-1.5C793.84,64.95,793.71,63.18,793.8,61.04z M822.98,49.51l0.03-0.24
		c0.19-0.92,0.46-1.96,0.82-3.09c0.35-1.12,0.78-2.21,1.27-3.23c0.48-1.01,1.04-1.8,1.64-2.34c0.77-0.64,1.47-0.85,2.08-0.63
		c0.61,0.22,1.07,0.76,1.37,1.61c0.3,0.86,0.34,1.93,0.12,3.17c-0.22,1.24-0.79,2.56-1.71,3.92c-0.67,0.9-1.44,1.55-2.3,1.92
		s-1.62,0.46-2.28,0.27C823.38,50.69,823.04,50.24,822.98,49.51z"/>
	<path class="st0" d="M854.2,60.48c0.84,0.35,1.64,0.52,2.41,0.52c0.53,0,1.05-0.08,1.54-0.25c1.19-0.41,2.3-1.15,3.3-2.22
		c1.55-1.59,2.98-3.52,4.25-5.74c0.6-1.05,1.15-2.09,1.67-3.13c-0.07,0.86-0.09,1.65-0.07,2.36c0.06,1.72,0.36,3.16,0.9,4.26
		c0.54,1.11,1.26,1.93,2.14,2.44c0.82,0.47,1.73,0.71,2.73,0.71c0.07,0,0.15,0,0.22,0c0.67-0.02,1.43-0.35,2.24-0.97
		c0.8-0.61,1.6-1.42,2.39-2.4c0.71-0.89,1.37-1.88,1.96-2.94c0.04,1.27,0.31,2.34,0.79,3.19c0.53,0.93,1.27,1.62,2.18,2.05
		c1.38,0.67,2.7,0.84,3.94,0.5c1.23-0.34,2.39-1.02,3.45-2.02c1.62-1.5,3.15-3.34,4.54-5.47c1.39-2.14,2.61-4.28,3.62-6.37
		c1.02-2.1,1.78-3.85,2.26-5.2c0.29-0.9,0.34-1.42,0.16-1.64c-0.1-0.11-0.2-0.13-0.26-0.12c-0.16,0.01-0.32,0.15-0.49,0.44
		c-0.43,0.7-0.93,1.53-1.47,2.49c-1.04,1.81-2.21,3.8-3.5,5.89c-1.28,2.09-2.58,3.94-3.87,5.52c-1.28,1.57-2.47,2.52-3.51,2.83
		c-0.29,0.06-0.52,0.03-0.69-0.09c-0.21-0.15-0.35-0.46-0.41-0.9c-0.1-0.85,0.08-2.09,0.55-3.68l6.53-19.87l0.04-0.13l-7.34,0.25
		l-0.89,2.69c-0.61-0.82-1.39-1.46-2.33-1.9c-1-0.46-2.28-0.67-3.85-0.62c-1.43,0.05-2.74,0.46-3.9,1.21
		c-1.16,0.75-2.2,1.75-3.09,2.96s-1.68,2.57-2.32,4.05c-0.41,0.94-0.76,1.91-1.08,2.89c-0.02,0.04-0.04,0.08-0.06,0.13
		c-0.91,1.87-1.96,3.92-3.13,6.09c-1.16,2.15-2.36,4.09-3.56,5.74c-1.19,1.64-2.3,2.66-3.3,3.02c-0.3,0.08-0.55,0.07-0.73-0.05
		c-0.22-0.14-0.37-0.43-0.44-0.87c-0.14-0.85-0.04-2.1,0.32-3.71l9.95-37.47L868,14.8l-7.25,0.68l-0.07,0.01l-9.4,35.47
		c-0.57,2.63-0.57,4.76,0,6.33S852.83,59.94,854.2,60.48z M873.72,52.94c-0.05-1.4,0.19-3.16,0.71-5.24s1.21-4.17,2.06-6.19
		c0.85-2.03,1.78-3.74,2.76-5.09c0.97-1.33,1.92-2.04,2.81-2.09c0.01,0,0.02,0,0.03,0c0.29,0,0.59,0.16,0.91,0.49
		c0.33,0.34,0.56,0.9,0.7,1.67c0.14,0.77,0.12,1.55-0.05,2.32s-0.59,2.16-1.22,4.11c-0.44,1.08-0.96,2.21-1.55,3.37
		c-0.59,1.17-1.21,2.3-1.86,3.36c-0.64,1.06-1.28,2.02-1.91,2.83c-0.63,0.81-1.2,1.41-1.7,1.79c-0.48,0.36-0.88,0.46-1.18,0.3
		C873.92,54.41,873.75,53.86,873.72,52.94z"/>
	<path class="st0" d="M921.27,40.84c1.96,1.11,4.57,1.54,7.78,1.28c2.35-0.24,4.62-0.95,6.77-2.09c2.15-1.15,3.91-2.7,5.24-4.62
		c1.34-1.92,1.98-4.17,1.91-6.69c-0.1-0.59-0.36-0.96-0.77-1.09c-0.4-0.13-0.81-0.08-1.2,0.16s-0.62,0.63-0.68,1.18
		c0.06,2.01-0.42,3.83-1.42,5.43s-2.34,2.91-3.98,3.91c-1.64,0.99-3.41,1.59-5.26,1.78c-1.97,0.19-3.5-0.1-4.54-0.85
		s-1.7-1.86-1.95-3.29c-0.25-1.44-0.18-3.11,0.21-4.95s1.06-3.76,1.98-5.7c1.4-2.9,3.23-5.49,5.44-7.7c2.21-2.2,4.63-4,7.19-5.33
		s5.13-2.19,7.62-2.54c2.49-0.35,4.75-0.14,6.71,0.63c1.96,0.76,3.46,2.18,4.46,4.21c1.01,2.03,1.31,4.81,0.92,8.24
		c-0.46,3.21-1.69,6.86-3.66,10.84c-1.97,3.99-4.47,8.08-7.43,12.17c-2.96,4.08-6.19,7.9-9.6,11.36c-3.42,3.46-6.83,6.29-10.15,8.42
		c-3.31,2.13-6.36,3.26-9.06,3.36l-0.54,0.02l0.51,0.17c2.41,0.79,4.92,1.14,7.45,1.03c2.54-0.11,5.19-0.99,7.88-2.61
		c3.05-1.95,6.21-4.56,9.4-7.77s6.24-6.79,9.07-10.64c2.82-3.86,5.24-7.77,7.18-11.62c1.95-3.86,3.19-7.45,3.7-10.67
		c0.58-4.08,0.38-7.49-0.57-10.16c1.78,2.29,2.93,4.95,3.41,7.92c0.52,3.19,0.49,6.62-0.11,10.2s-1.57,7.21-2.89,10.79
		s-2.83,6.98-4.47,10.1c-1.64,3.13-3.28,5.86-4.87,8.15c-0.17,0.38-0.05,0.6,0.08,0.72c0.17,0.15,0.4,0.25,0.7,0.3
		c0.27,0.04,0.57,0.06,0.89,0.06c0.31,0,0.7-0.03,1.14-0.09l0.05-0.01l0.02-0.04c2.09-3.85,4.36-7.78,6.74-11.69
		c2.38-3.9,4.98-7.74,7.73-11.41c2.75-3.66,5.79-7.12,9.03-10.28c3.03-2.95,6.35-5.59,9.87-7.84c-2.66,2.72-5.24,5.83-7.66,9.26
		c-2.6,3.69-4.94,7.44-6.93,11.15c-2,3.72-3.57,7.11-4.68,10.07c-1.44,3.94-2.39,7.65-2.8,11.04c-0.41,3.4-0.15,6.32,0.77,8.68
		c0.92,2.38,2.7,4.02,5.27,4.87c1.04,0.34,2.24,0.51,3.59,0.51c2,0,4.33-0.37,6.98-1.11c0.33-0.1,0.38-0.3,0.37-0.44
		c-0.02-0.18-0.12-0.35-0.3-0.5c-0.24-0.16-0.71-0.12-1.48,0.11c-0.64,0.18-1.37,0.3-2.18,0.38c-0.8,0.07-1.56-0.1-2.26-0.51
		c-1.85-1.2-2.95-3.15-3.27-5.8c-0.33-2.67-0.03-5.84,0.87-9.42c0.9-3.59,2.28-7.43,4.08-11.43c1.81-3.99,3.95-7.98,6.36-11.86
		c2.41-3.87,5-7.48,7.7-10.72c2.69-3.24,5.41-5.94,8.07-8.02c2.66-2.08,5.16-3.33,7.45-3.73l0.49-0.08l-0.49-0.11
		c-1.31-0.29-2.68-0.46-4.05-0.51c-1.38-0.05-2.83,0.1-4.33,0.45c-3.59,0.89-7.21,2.37-10.74,4.42c-3.53,2.04-6.96,4.51-10.2,7.33
		s-6.2,5.85-8.82,9.01c-2.32,2.8-4.33,5.61-5.97,8.36c1.25-3.37,2.11-6.74,2.55-10.03c0.49-3.67,0.46-7.18-0.11-10.43
		s-1.73-6.18-3.44-8.7c-1.72-2.52-4.06-4.54-6.97-6s-6.49-2.24-10.66-2.31c-0.04,0-0.09,0-0.13,0c-4.37,0-8.34,0.65-11.8,1.92
		c-3.49,1.29-6.54,3.02-9.06,5.16c-2.52,2.13-4.54,4.51-6.02,7.05c-1.48,2.55-2.43,5.1-2.81,7.61c-0.39,2.51-0.2,4.81,0.56,6.85
		C917.92,38.13,919.3,39.72,921.27,40.84z"/>
	<path class="st0" d="M1007.96,60.5c-1.04,0.7-2.1,1.18-3.13,1.43c-0.98,0.23-1.95,0.32-2.88,0.26c0.8-1.34,1.49-2.69,2.07-4.03
		c0.6-1.38,1.04-2.66,1.32-3.82l0,0c0.23-0.96,0.32-1.94,0.27-2.89c-0.06-0.96-0.29-1.87-0.71-2.71c-0.42-0.84-1.04-1.58-1.87-2.2
		c-0.82-0.62-1.9-1.1-3.21-1.41c-1.26-0.31-2.55-0.29-3.83,0.06c-1.27,0.34-2.53,0.93-3.73,1.75c-1.2,0.82-2.35,1.83-3.41,3.02
		s-2.02,2.49-2.86,3.87c-0.84,1.38-1.54,2.82-2.08,4.28c-0.54,1.46-0.89,2.9-1.05,4.3c-0.16,1.4-0.09,2.72,0.19,3.91
		c0.29,1.2,0.85,2.25,1.68,3.11s1.98,1.47,3.42,1.83c0.62,0.15,1.24,0.23,1.86,0.23c0.48,0,0.96-0.05,1.43-0.14
		c1.06-0.21,2.11-0.62,3.11-1.2c1-0.58,1.97-1.31,2.87-2.17c0.89-0.85,1.74-1.8,2.53-2.81c1.84-0.02,3.71-0.41,5.54-1.14
		c0.57-0.23,1.11-0.5,1.65-0.79l-7.53,10.44l-0.08,0.11l7.03,1.96l0.04-0.04c0.65-0.72,1.62-1.88,2.9-3.45
		c1.27-1.57,2.75-3.35,4.39-5.3c1.64-1.93,3.34-3.78,5.06-5.5c1.72-1.71,3.35-3.06,4.85-4.01c1.48-0.94,2.76-1.25,3.78-0.94
		c0.11,0.05,0.22,0.13,0.33,0.22c0.1,0.09,0.16,0.2,0.19,0.32c0,0.64-0.27,1.42-0.81,2.32c-0.54,0.92-1.05,1.68-1.49,2.25
		c-0.04,0.05-0.07,0.08-0.08,0.12l-5.12,7.04c-1.47,2.25-2.23,4.24-2.24,5.92c-0.02,1.69,0.51,3.04,1.57,4.03
		c1.11,1.05,2.33,1.62,3.61,1.67c0.09,0,0.19,0.01,0.28,0.01c1.18,0,2.4-0.3,3.62-0.89c1.99-0.94,4-2.23,5.98-3.85
		c0.32-0.26,0.63-0.53,0.94-0.79c-0.78,1.46-1.2,2.78-1.25,3.96c-0.07,1.68,0.43,3.05,1.48,4.07c1.09,1.08,2.28,1.67,3.55,1.75
		c0.14,0.01,0.29,0.01,0.44,0.01c1.12,0,2.3-0.27,3.5-0.8c2.02-0.89,4.06-2.14,6.07-3.7c1.14-0.89,2.22-1.8,3.25-2.72
		c-0.52,1.06-0.93,2.03-1.22,2.91c-0.54,1.64-0.75,3.09-0.63,4.31c0.12,1.23,0.51,2.25,1.16,3.03s1.49,1.35,2.52,1.69
		c0.64,0.21,1.46,0.17,2.44-0.13c0.97-0.3,2-0.78,3.07-1.43c0.97-0.59,1.93-1.29,2.86-2.08c-0.4,1.2-0.52,2.3-0.36,3.26
		c0.18,1.06,0.63,1.96,1.34,2.68c1.06,1.11,2.25,1.72,3.53,1.83c0.2,0.02,0.4,0.03,0.6,0.03c1.08,0,2.2-0.24,3.33-0.73
		c2.04-0.85,4.11-2.05,6.15-3.57c0.03-0.02,0.05-0.04,0.08-0.06l-4.9,5.85l-0.09,0.11l6.87,2.47l0.04-0.04
		c0.7-0.67,1.76-1.76,3.14-3.23c1.39-1.49,3-3.16,4.77-4.96c1.77-1.81,3.6-3.53,5.44-5.12c1.83-1.58,3.56-2.81,5.13-3.65
		c1.55-0.83,2.84-1.05,3.84-0.67c0.1,0.06,0.21,0.15,0.31,0.25c0.09,0.09,0.15,0.21,0.17,0.34c-0.05,0.64-0.37,1.4-0.97,2.26
		c-0.61,0.88-1.16,1.6-1.65,2.13c-0.05,0.04-0.07,0.08-0.09,0.11l-5.61,6.65c-1.63,2.14-2.53,4.07-2.67,5.74
		c-0.14,1.68,0.29,3.07,1.27,4.13c1.03,1.13,2.2,1.78,3.48,1.92c0.26,0.03,0.53,0.04,0.79,0.04c1.02,0,2.08-0.22,3.16-0.64
		c2.06-0.79,4.16-1.94,6.24-3.41c1.07-0.75,2.09-1.52,3.07-2.31c-0.51,0.94-0.93,1.81-1.23,2.6c-0.62,1.61-0.91,3.05-0.85,4.27
		c0.06,1.23,0.4,2.27,1,3.08c0.61,0.81,1.42,1.42,2.43,1.81c0.63,0.24,1.45,0.24,2.45-0.01c0.98-0.25,2.04-0.67,3.14-1.27
		c1-0.54,1.99-1.19,2.96-1.93c-0.46,1.18-0.64,2.27-0.52,3.24c0.12,1.07,0.53,1.99,1.2,2.75c1.01,1.16,2.16,1.83,3.43,2.01
		c0.32,0.04,0.64,0.07,0.97,0.07c0.97,0,1.97-0.19,2.99-0.57c2.08-0.74,4.21-1.84,6.33-3.25s4.08-2.9,5.84-4.43s3.14-2.84,4.12-3.89
		c0.62-0.71,0.87-1.17,0.79-1.45c-0.04-0.14-0.13-0.19-0.19-0.21c-0.15-0.05-0.35,0.02-0.63,0.21c-0.68,0.48-1.47,1.06-2.33,1.71
		c-1.68,1.27-3.54,2.63-5.53,4.04s-3.92,2.61-5.72,3.55c-1.79,0.94-3.26,1.35-4.34,1.22c-0.29-0.06-0.49-0.18-0.6-0.36
		c-0.14-0.22-0.14-0.56-0.02-0.99c0.24-0.82,0.9-1.89,1.96-3.17l13.82-15.7l0.09-0.1l-6.85-2.65l-1.87,2.12
		c-0.23-1-0.7-1.89-1.4-2.67c-0.74-0.82-1.85-1.52-3.29-2.08c-1.33-0.52-2.7-0.66-4.07-0.42c-1.36,0.24-2.71,0.74-4.01,1.5
		s-2.55,1.71-3.73,2.81c-0.83,0.78-1.61,1.63-2.36,2.5c-1.55,1.23-3.25,2.53-5.06,3.88c-1.95,1.46-3.85,2.7-5.64,3.69
		c-1.77,0.98-3.22,1.42-4.31,1.32c-0.29-0.05-0.5-0.16-0.61-0.34c-0.14-0.22-0.16-0.55-0.04-0.99c0.22-0.83,0.85-1.91,1.88-3.22
		l3.05-3.66c0.23-0.27,0.49-0.57,0.77-0.9c0.54-0.64,1.15-1.36,1.84-2.2c0.67-0.81,1.3-1.68,1.9-2.58c0.59-0.91,1.08-1.83,1.43-2.75
		c0.36-0.93,0.53-1.83,0.49-2.69c-0.03-0.86-0.36-1.67-0.98-2.4c-0.61-0.73-1.61-1.34-2.95-1.82c-0.46-0.17-1.09-0.27-1.86-0.3
		c-0.77-0.03-1.7,0.08-2.75,0.34c-1.05,0.26-2.22,0.73-3.47,1.41c-0.98,0.53-2.01,1.24-3.07,2.11l4.89-5.81l-6.85-2.46l-0.06-0.02
		l-7.44,8.88c-1.53,1.28-3.23,2.66-5.08,4.12c-1.92,1.51-3.78,2.81-5.54,3.84c-1.75,1.03-3.18,1.51-4.27,1.44
		c-0.29-0.04-0.5-0.15-0.62-0.33c-0.15-0.22-0.17-0.55-0.07-0.99c0.2-0.84,0.8-1.93,1.79-3.26l13-16.38l0.09-0.11l-6.98-2.3
		l-1.76,2.21c-0.28-0.98-0.8-1.85-1.53-2.59c-0.78-0.78-1.92-1.42-3.39-1.91c-1.36-0.45-2.73-0.52-4.08-0.21s-2.67,0.88-3.93,1.71
		c-1.26,0.82-2.46,1.83-3.58,3c-0.67,0.7-1.31,1.45-1.92,2.21c-0.05,0.04-0.09,0.07-0.13,0.12c-1.56,1.39-3.31,2.89-5.21,4.44
		c-1.89,1.55-3.73,2.88-5.47,3.95c-1.72,1.06-3.14,1.57-4.2,1.54c-0.31-0.04-0.53-0.15-0.66-0.33c-0.15-0.21-0.18-0.54-0.08-0.97
		c0.19-0.84,0.76-1.95,1.7-3.31l12.6-16.61l5.82,1.78l0.06,0.02l2.05-2.67l-5.88-1.8l8.9-11.69l-6.96-2.13l-0.06-0.02l-8.9,11.69
		l-4.03-1.23l-2.01,2.69l4.03,1.23l-6.78,8.92c-1.5,1.38-3.16,2.86-4.94,4.4c-1.85,1.6-3.65,2.98-5.35,4.09
		c-1.66,1.08-3.05,1.63-4.13,1.63c-0.02,0-0.05,0-0.07,0c-0.29-0.03-0.51-0.13-0.63-0.3c-0.16-0.21-0.2-0.54-0.11-0.98
		c0.16-0.84,0.71-1.97,1.64-3.34l2.78-3.87c0.21-0.28,0.44-0.6,0.7-0.95c0.5-0.69,1.07-1.47,1.68-2.33
		c0.61-0.86,1.18-1.77,1.71-2.71c0.53-0.95,0.94-1.91,1.23-2.85c0.29-0.95,0.39-1.87,0.3-2.72c-0.1-0.86-0.48-1.64-1.15-2.32
		c-0.66-0.68-1.7-1.22-3.07-1.6l0,0c-0.47-0.13-1.1-0.19-1.88-0.16c-0.77,0.02-1.69,0.2-2.72,0.53c-1.03,0.33-2.16,0.89-3.36,1.66
		c-0.94,0.6-1.92,1.38-2.91,2.32l4.37-6.03l0.08-0.11l-7.01-1.96l-0.07-0.02l-6.68,9.26C1009.72,59.27,1008.91,59.88,1007.96,60.5z
		 M1001.24,49.94c-0.05,0.72-0.28,1.63-0.68,2.72c-0.41,1.09-0.95,2.3-1.62,3.6c-0.65,1.27-1.38,2.56-2.16,3.83
		c-1.11-0.93-1.87-1.99-2.28-3.15c-0.41-1.18-0.32-2.33,0.27-3.41c0.78-0.98,1.56-1.85,2.31-2.59s1.45-1.32,2.09-1.72
		c0.49-0.3,0.92-0.46,1.3-0.46c0.1,0,0.2,0.01,0.3,0.03C1001.13,48.88,1001.29,49.26,1001.24,49.94z M994.32,63.64
		c-0.66,0.86-1.33,1.62-1.98,2.26c-0.67,0.66-1.31,1.15-1.9,1.47c-0.57,0.31-1.09,0.41-1.53,0.31c-0.43-0.1-0.67-0.39-0.73-0.87
		c-0.07-0.51,0.01-1.18,0.24-1.99c0.23-0.82,0.57-1.74,1.04-2.74c0.44-0.94,0.96-1.93,1.56-2.95
		C991.61,61.14,992.72,62.66,994.32,63.64z M1055.87,83.42c0.44-1.34,1.27-2.91,2.48-4.67c1.2-1.77,2.57-3.49,4.07-5.1
		s2.96-2.9,4.35-3.82c1.07-0.72,1.99-1.08,2.76-1.08c0.21,0,0.42,0.03,0.6,0.08c0.28,0.09,0.52,0.36,0.71,0.78
		c0.19,0.43,0.21,1.04,0.08,1.81c-0.14,0.78-0.42,1.5-0.85,2.16c-0.43,0.66-1.29,1.82-2.57,3.44c-0.79,0.86-1.67,1.74-2.62,2.63
		c-0.96,0.89-1.93,1.74-2.9,2.51c-0.97,0.78-1.9,1.45-2.77,2c-0.86,0.54-1.61,0.91-2.22,1.09c-0.58,0.17-0.98,0.13-1.21-0.12
		C1055.55,84.87,1055.58,84.29,1055.87,83.42z M1112.3,103.11c0.51-1.31,1.42-2.84,2.71-4.54c1.29-1.71,2.75-3.35,4.33-4.88
		s3.1-2.74,4.54-3.6c1.04-0.62,1.94-0.94,2.68-0.94c0.26,0,0.51,0.04,0.73,0.12c0.28,0.11,0.5,0.38,0.67,0.81
		c0.17,0.44,0.16,1.05-0.02,1.81c-0.18,0.77-0.5,1.48-0.96,2.11c-0.46,0.64-1.39,1.75-2.74,3.3c-0.82,0.81-1.75,1.65-2.75,2.49
		c-0.99,0.84-2.01,1.63-3.03,2.36c-1,0.72-1.97,1.35-2.87,1.85s-1.66,0.83-2.27,0.97c-0.59,0.14-0.99,0.08-1.2-0.19
		C1111.9,104.54,1111.96,103.97,1112.3,103.11z"/>
	<path class="st0" d="M1098.63,67.48c0.37-0.47,0.63-0.75,1.04-1c0.48-0.28,1-0.35,1.53-0.2c0.55,0.15,1.13,0.43,1.73,0.85
		s1.23,0.9,1.88,1.43c0.65,0.54,1.32,1.05,1.98,1.53c0.68,0.48,1.38,0.86,2.08,1.12c0.49,0.18,0.98,0.27,1.47,0.27
		c0.23,0,0.46-0.02,0.68-0.06c0.43-0.07,1.97-0.5,3.52-2.89c0.24-0.37,0.48-0.79,0.71-1.23l0.23-0.45l-0.38,0.33
		c-0.78,0.67-1.57,1.07-2.35,1.17c-0.78,0.11-1.56,0.02-2.32-0.25c-0.76-0.28-1.5-0.67-2.2-1.16c-0.71-0.49-1.37-1.01-1.98-1.53
		c-0.69-0.61-1.37-1.15-2.05-1.62c-0.68-0.47-1.36-0.75-2.04-0.84c-0.5-0.04-1.02,0.14-1.53,0.51c-0.5,0.37-0.98,0.86-1.42,1.47
		c-0.46,0.62-0.69,1.01-0.98,1.66c-0.43,0.98-0.74,2.06-0.82,2.58l-0.09,0.61l0.27-0.56C1097.62,69.22,1098.19,68.03,1098.63,67.48z
		"/>
	<path class="st0" d="M651.51,84.6c0.47,0.06,0.93,0.09,1.35,0.09c2.98,0,4.82-1.36,5.36-1.83c1.03-0.88,1.92-1.99,2.66-3.28
		c0.73-1.29,1.38-2.71,1.92-4.22c0.23-0.63-1.01-2.26-2.94-4.52l-0.11-0.13l-0.05,0.17c-0.35,1.1-0.67,2.03-1,2.93
		c-0.58,1.57-1.28,3.09-2.1,4.51c-0.81,1.42-1.79,2.65-2.92,3.66s-2.47,1.7-4,2.06l-0.37,0.08l0.36,0.1
		C650.3,84.4,650.92,84.53,651.51,84.6z"/>
</g>
</svg>
