<?xml version="1.0" encoding="utf-8"?>
<!-- Generator: Adobe Illustrator 22.0.0, SVG Export Plug-In . SVG Version: 6.00 Build 0)  -->
<svg version="1.1" id="Ebene_1" xmlns="http://www.w3.org/2000/svg" xmlns:xlink="http://www.w3.org/1999/xlink" x="0px" y="0px"
	 viewBox="0 0 335 50" style="enable-background:new 0 0 335 50;" xml:space="preserve">
<style type="text/css">
	.st0{fill:#000000;}
</style>
<title>AE_logo_white</title>
<polygon class="st0" points="3.3,46.4 3.3,42.2 21,42.2 21,31.7 3.3,31.7 3.3,27.5 25.2,27.5 25.2,46.4 "/>
<rect x="3.3" y="34.9" class="st0" width="14.6" height="4.2"/>
<polygon class="st0" points="6.3,3.3 10.5,3.3 10.5,20.1 21,20.1 21,6.3 39.9,6.3 39.9,17 35.8,17 35.8,10.5 25.2,10.5 25.2,24.3 
	6.3,24.3 "/>
<rect x="13.7" y="3.3" class="st0" width="4.2" height="13.7"/>
<polygon class="st0" points="50.3,46.4 50.3,42.2 32.6,42.2 32.6,31.7 50.3,31.7 50.3,27.5 28.4,27.5 28.4,46.4 "/>
<rect x="35.8" y="34.9" class="st0" width="14.6" height="4.2"/>
<polygon class="st0" points="28.4,13.7 32.6,13.7 32.6,20.1 43.1,20.1 43.1,3.3 47.3,3.3 47.3,24.3 28.4,24.3 "/>
<polygon class="st0" points="3.3,46.4 3.3,42.2 21,42.2 21,31.7 3.3,31.7 3.3,27.5 25.2,27.5 25.2,46.4 "/>
<rect x="3.3" y="34.9" class="st0" width="14.6" height="4.2"/>
<polygon class="st0" points="6.3,3.3 10.5,3.3 10.5,20.1 21,20.1 21,6.3 39.9,6.3 39.9,17 35.8,17 35.8,10.5 25.2,10.5 25.2,24.3 
	6.3,24.3 "/>
<rect x="13.7" y="3.3" class="st0" width="4.2" height="13.7"/>
<polygon class="st0" points="50.3,46.4 50.3,42.2 32.6,42.2 32.6,31.7 50.3,31.7 50.3,27.5 28.4,27.5 28.4,46.4 "/>
<rect x="35.8" y="34.9" class="st0" width="14.6" height="4.2"/>
<polygon class="st0" points="28.4,13.7 32.6,13.7 32.6,20.1 43.1,20.1 43.1,3.3 47.3,3.3 47.3,24.3 28.4,24.3 "/>
<path class="st0" d="M324.1,37.1h-5l2.4-8.3h0.2L324.1,37.1z M331.7,46.3l-7-21.9h-5.9l-7.1,21.9h4.8l1.5-5.2h7.2l1.6,5.2H331.7z
	 M302.5,46.7c3.5,0.1,6.8-1.9,8.2-5.2l-3.9-2.3c-0.5,1.9-2.3,3.3-4.3,3.3c-2.8,0-4.6-1.9-4.6-5.3v-3.5c0-3.4,1.8-5.3,4.6-5.3
	c1.9-0.1,3.6,1.1,4,3l4.1-2.1c-1.6-3.5-4.1-5.1-8.1-5.1c-5.8,0-9.6,4.1-9.6,11.5S296.6,46.6,302.5,46.7 M291.1,46.3v-3.8h-2.8V28.2
	h2.8v-3.8h-10.2v3.8h2.8v14.3h-2.8v3.8H291.1z M272.3,46.3h5.1V24.5H273v14.7h-0.1l-2.1-4.4l-5.9-10.3h-5.1v21.9h4.4V31.6h0.1
	l2.1,4.4L272.3,46.3z M246.9,42.5c-2.8,0-4.5-2-4.5-5.5v-3.3c0-3.5,1.7-5.4,4.5-5.4s4.5,2,4.5,5.4V37
	C251.4,40.5,249.7,42.5,246.9,42.5 M246.9,46.7c5.7,0,9.5-3.9,9.5-11.3s-3.8-11.3-9.5-11.3s-9.5,3.9-9.5,11.3S241.1,46.7,246.9,46.7
	 M222.8,34.3v-5.7h5c1.1-0.1,2.1,0.6,2.2,1.7c0,0.1,0,0.3,0,0.4v1.3c0.1,1.1-0.7,2.1-1.8,2.2c-0.2,0-0.4,0-0.6,0H222.8z M222.8,38.3
	h3.4l3.8,8h5.2l-4.2-8.6c2.6-1,3.9-3.3,3.9-6.3c0-4.2-2.5-7-6.5-7h-10.3v21.9h4.7V38.3z M215.6,28.7v-4.3h-16.4v4.2h5.9v17.7h4.7
	V28.7L215.6,28.7z M189.1,46.7c3.5,0.1,6.8-1.9,8.1-5.2l-3.9-2.3c-0.5,1.9-2.3,3.3-4.3,3.3c-2.8,0-4.6-1.9-4.6-5.3v-3.5
	c0-3.4,1.8-5.3,4.6-5.3c1.9-0.1,3.6,1.1,4,3l4.1-2.1c-1.6-3.5-4.1-5.1-8.1-5.1c-5.8,0-9.6,4.1-9.6,11.5S183.3,46.6,189.1,46.7
	 M177.1,46.3v-4.2h-10v-4.8h8.6v-4.2h-8.6v-4.4h10v-4.2h-14.7v21.9L177.1,46.3z M159.8,46.3v-4.2h-8.2V24.5h-4.8v21.9H159.8z
	 M143.2,46.3v-4.2h-10v-4.8h8.6v-4.2h-8.6v-4.4h10v-4.2h-14.7v21.9H143.2z M108.8,46.7c5.4,0,8.4-2.9,8.4-7.1c0-3.8-2.1-5.8-6.6-6.5
	l-2.1-0.3c-1.8-0.3-2.6-0.8-2.6-2.4c0-1.3,1-2.1,3.1-2.1c1.8-0.1,3.6,0.6,4.7,2l3.1-3.2c-1.9-2.1-4.7-3.2-7.5-3.1
	c-5.1,0-8.1,2.7-8.1,6.6c0,3.7,2.1,5.9,6.6,6.5l2.1,0.3c2,0.3,2.5,1.2,2.5,2.3c0,1.6-1.1,2.6-3.4,2.6c-2.1,0-4.1-0.9-5.4-2.5
	l-3.1,3.2C102.7,45.5,105.7,46.8,108.8,46.7 M86.5,34.3v-5.7h5c1.1-0.1,2.1,0.6,2.2,1.7c0,0.1,0,0.3,0,0.4v1.3
	c0.1,1.1-0.7,2.1-1.8,2.2c-0.2,0-0.4,0-0.5,0H86.5z M86.5,38.3h3.4l3.8,8h5.2l-4.2-8.6c2.6-1,3.9-3.3,3.9-6.3c0-4.2-2.6-7-6.5-7
	H81.8v21.9h4.7L86.5,38.3z M71.7,37.1h-4.9l2.4-8.3h0.2L71.7,37.1z M79.3,46.3l-7-21.9h-5.9l-7.1,21.9h4.8l1.6-5.2h7.2l1.5,5.2H79.3
	z"/>
</svg>
