<svg xmlns="http://www.w3.org/2000/svg" viewBox="0 0 1080 1364.97"><defs><style>.cls-1{fill:none;stroke:#000;stroke-miterlimit:10;stroke-width:10px;}.cls-2{font-size:42px;font-family:GDBoing-Bold, GD Boing;font-weight:700;letter-spacing:0.35em;}.cls-3{letter-spacing:0.25em;}.cls-4{letter-spacing:0.32em;}.cls-5{letter-spacing:0.34em;}.cls-6{letter-spacing:0.34em;}.cls-7{letter-spacing:0.31em;}.cls-8{letter-spacing:0.33em;}</style></defs><g id="Layer_4" data-name="Layer 4"><rect x="104.77" y="57.05" width="916.5" height="5.13"/><rect x="104.77" y="136.26" width="916.5" height="5.13"/><path d="M196.25,287.83c-1.76-11.66-1.49-24-2.77-36a78.9,78.9,0,0,0-1.37-8.84c-6.31-16.49,9.43-30.86,24.36-36.74-26.46-8.95-51.64,2.73-78.34,4.18q-5,.06-10.08-.06a177.34,177.34,0,0,1-30-3.11,164.41,164.41,0,0,0,1.3,21.59c-3.8-1.81-7.54-.81-11.3-.95a48.4,48.4,0,0,0-10.91,1.28c-7.14,1.72-14,5.58-18.22,11.58-2.82,4-4.38,8.71-5.86,13.37-4.31,13.68-8.22,28.06-5.81,42.18,2.05,12,8.49,22.79,14.8,33.23,3.31,5.48,6.66,11,11.11,15.61s8.08,7.93,14.41,8.83a211.07,211.07,0,0,0-3.27,31.24v.62q16.32.4,32.64.65c.51-2.33,2-4.25,3.25-6.26,1.44-2.3,2.79-4.63,4.19-7s2.63-4.59,4-6.86c.65-1.1,1.27-2.22,1.88-3.32.3-.56.62-1.12.91-1.68.15-.29.29-.58.44-.85,0-.07.15-.33.26-.54l.47-1c.29-.67.58-1.34.85-2,.49-1.26,1-2.55,1.38-3.83.21-.68.4-1.38.59-2.06-.15-.11-.29-.23-.45-.34q-12.36-9.51-24.75-19c-3.25-2.49-6.63-5.16-8.3-8.9-3-6.78.89-15.14,7.15-19.16a11.29,11.29,0,0,1,7.68-2.09,11.29,11.29,0,0,1,4.87,2.3c7.12,5.33,10.29,14.39,12.21,23.08,1.06,4.78,1.91,9.68,3.19,14.39,0-.67.11-1.35.13-2,0-2.72-.12-5.42-.29-8.13a73.47,73.47,0,0,0-.55-7.58.11.11,0,0,0,0-.07c0-.2-.06-.44-.08-.64-.08-.62-.15-1.25-.23-1.88-.15-1.34-.32-2.69-.48-4.06-.69-5.89-1.48-11.81-1.25-17.77.06-1.13.15-2.28.25-3.4a42.15,42.15,0,0,1-7.37-4.22c-9.94-7.05-17.92-17.51-19.86-29.53-.42-2.71-.5-5.69,1-8a10.84,10.84,0,0,1,3.27-3.09c5.53-3.63,13.3-4.56,18.62-.62,4.18,3.09,6,8.45,6.68,13.61.62,5,.38,10.07,1.26,15a78,78,0,0,1,5-11.68,69.41,69.41,0,0,1,10.87-14.91,61.48,61.48,0,0,1,6.21-5.76,20.83,20.83,0,0,1,6.72-4.08,27,27,0,0,1,6.19-.73,8.39,8.39,0,0,1,6,2.36,7,7,0,0,1,.33,8.27,40.27,40.27,0,0,1-5.58,6.85,61.88,61.88,0,0,0-5.19,5.18l-.88,1-.17.22c-.78,1-1.52,2-2.24,3.05-1.42,2.09-2.75,4.25-3.95,6.46-.48.9-.94,1.82-1.38,2.75a.89.89,0,0,1-.08.17c-.27.64-.52,1.27-.78,1.9A64.82,64.82,0,0,0,156.7,287c-.24.9-.44,1.81-.65,2.74,1.74-1.5,3.49-3,5.29-4.38a34.66,34.66,0,0,1,8.81-5.49,14,14,0,0,1,10.15-.35c5.37,2.13,8.17,8.75,6.81,14.38s-6.18,10-11.67,11.8-11.55,1.26-17.07-.43c-1.1-.32-2.18-.72-3.25-1.13.36,9.08,1.92,18.1,1.95,27.19a61.19,61.19,0,0,1-.4,6.77c.46-.76.9-1.51,1.33-2.28a42.2,42.2,0,0,1,4.91-7.71,16.57,16.57,0,0,1,16-5.05A15.06,15.06,0,0,1,190,335.41a17.8,17.8,0,0,1-.63,6.8c-3,11.08-14.58,19.17-26,18.17-4.09-.34-8-1.69-12.05-2.5a70.3,70.3,0,0,1-3.22,6.44,56.25,56.25,0,0,1-12,15.07,69.16,69.16,0,0,1-8.4,6.07c-.63.4-1.28.8-1.91,1.17q45.58.6,91.19.06c-5.77-24.42-10.59-53.25-16.36-77.67-1.65-7-3.32-14.06-4.39-21.19M89.86,312.42v.06c.1,1.23.2,2.46.28,3.74,0,0,0,0,0,0a45.61,45.61,0,0,1,0,6,39,39,0,0,1-.45,4l.2.05-.2,0h0a22.32,22.32,0,0,1-4-1.32c-.65-.27-1.28-.58-1.91-.91-.3-.16-.62-.33-.92-.51A31.2,31.2,0,0,1,77,319h0c-.49-.49-1-1-1.46-1.52h0a39.53,39.53,0,0,1-3.92-5.22c-.77-1.22-1.47-2.49-2.15-3.79-.32-.65-.65-1.31-1-2-.6-1.31-1.18-2.65-1.7-4s-1-2.8-1.49-4.22-.82-2.87-1.13-4.33c-.18-1-.36-2-.47-2.94-.7-5.91.17-11.87,1.09-17.75.08-.48.15-1,.23-1.45.23-1.46.49-2.93.78-4.4s.64-2.91,1-4.34a38.06,38.06,0,0,1,1.43-4.18,23.6,23.6,0,0,1,4.59-7.36c5.17-5.56,12.95-7.72,20.36-9.3-1.82,21.43-3.25,43.7-3.59,65.22,0,.87,0,1.71,0,2.55s.1,1.63.15,2.44"/><path class="cls-1" d="M207.41,1204.35c56.46,0,56.46,60,112.92,60s56.46-60,112.93-60,56.46,60,112.92,60,56.46-60,112.92-60,56.46,60,112.93,60,56.46-60,112.92-60"/><path d="M893.74,306.72c-2.85-25-11.56-70.21,21.2-79.94,23.26-6.91,42.07,14.13,44.66,35.56.52,4.31.56,8.79,2.32,12.75s5.94,7.32,10.18,6.39c4.55-1,6.81-6.24,7.21-10.88.59-6.73-1.19-13.45-1.15-20.2.07-11.11,6.21-17.61,16.94-19.2a106.83,106.83,0,0,1,29-.29c3.35.42,9.07.2,10.8,3.43,1.66,3.08.66,9.71.15,13.19-6.36-5-35.59-2.26-39.86-1.44,0,2.3,12.43,18,14.24,16.25,4.41-4.34,12.51-1.6,16.63,3s5.35,11.1,6.18,17.24,1.5,12.57,4.85,17.79c-3-3.7-8.68-2.61-13.42-2.61a23.07,23.07,0,0,1-22.46-28.27c-3.61-2.85-7.21-5.81-11-8.43-.2,6.85,2.3,13-.63,20.3a23.26,23.26,0,0,1-15.53,13.91c-7,1.71-15-.7-19.45-6.38-4.88-6.25-4.93-14.84-5.44-22.74-.62-9.51-4.06-23.11-16.05-23-1.31,4-2.53,8.72-.14,12.19a21.56,21.56,0,0,0,2.48,2.67c8.24,8.4,7.56,21.88,5.62,33.48-.89,5.32-2.29,14.66-11.08,14.66-16.07,0-17.65-20.68-15.63-31.9,1.86-10.3,7.46-18.92,7.85-29.57a3.14,3.14,0,0,0-.59-2.41,2.62,2.62,0,0,0-1.59-.6c-3.74-.4-7.38,1.9-9.53,5s-3,6.86-3.68,10.57c-.7,4.17-2.85,49.6.78,49.66Z"/><path d="M332.29,280.9A42.91,42.91,0,0,1,314,301.12q-12.42,7.11-29.38,7.11-22.19,0-37.31-14.84T232.17,257q0-21.52,15.13-36.36t37.31-14.84q17,0,29.38,7.11a42.91,42.91,0,0,1,18.3,20.22q1.17,2.73.13,4.37c-.7,1.09-2.13,1.82-4.31,2.22l-15.65,2.8a6.36,6.36,0,0,1-3.52-.19,6.11,6.11,0,0,1-2.74-2.16,28.28,28.28,0,0,0-9.39-8.25,26.58,26.58,0,0,0-30.69,5.28q-7.61,8-7.6,19.8t7.6,19.8a26.58,26.58,0,0,0,30.69,5.28,28.06,28.06,0,0,0,9.39-8.25,6.08,6.08,0,0,1,2.74-2.15,6.26,6.26,0,0,1,3.52-.2l15.65,2.81c2.18.39,3.61,1.13,4.31,2.21S333.07,279.08,332.29,280.9Z"/><path d="M335.22,271.51a34.64,34.64,0,0,1,11.22-26,39.84,39.84,0,0,1,54.4,0,35.71,35.71,0,0,1,0,52,39.84,39.84,0,0,1-54.4,0A34.62,34.62,0,0,1,335.22,271.51Zm24.4,0a14,14,0,0,0,4.07,10.11,14,14,0,0,0,19.9,0,14.59,14.59,0,0,0,0-20.22,14,14,0,0,0-19.9,0A14,14,0,0,0,359.62,271.51Z"/><path d="M494.76,255.86a8.54,8.54,0,0,0-6.71,2.77,10.76,10.76,0,0,0-2.48,7.47V303a3.13,3.13,0,0,1-3.26,3.26H464.57A3.13,3.13,0,0,1,461.3,303V266.1a10.75,10.75,0,0,0-2.47-7.5,9.5,9.5,0,0,0-13.38,0A10.81,10.81,0,0,0,443,266.1V303a3.12,3.12,0,0,1-3.26,3.26H422a3.12,3.12,0,0,1-3.26-3.26V240a3.15,3.15,0,0,1,1-2.32,3.22,3.22,0,0,1,2.38-.94h17.61a3.23,3.23,0,0,1,2.38.94A3.14,3.14,0,0,1,443,240v5a23.3,23.3,0,0,1,8.22-7.53A22.06,22.06,0,0,1,462,234.79a24.28,24.28,0,0,1,11.64,2.61,18.06,18.06,0,0,1,7.53,7.63,27.09,27.09,0,0,1,9.82-7.8,30.19,30.19,0,0,1,12.49-2.44q11.55,0,18.13,7.43t6.59,19.57V303a3.12,3.12,0,0,1-3.26,3.26H507.16A3.12,3.12,0,0,1,503.9,303V266.1a10.76,10.76,0,0,0-2.48-7.5A8.53,8.53,0,0,0,494.76,255.86Z"/><path d="M562.21,218.55a12.44,12.44,0,0,1-4,9.23,13.75,13.75,0,0,1-19.15,0,12.36,12.36,0,0,1-4-9.23,12.55,12.55,0,0,1,4-9.3,13.6,13.6,0,0,1,19.15,0A12.63,12.63,0,0,1,562.21,218.55ZM560.71,240V303a3.15,3.15,0,0,1-1,2.31,3.19,3.19,0,0,1-2.38.95H539.77a3.19,3.19,0,0,1-2.38-.95,3.15,3.15,0,0,1-.95-2.31V240a3.15,3.15,0,0,1,.95-2.32,3.22,3.22,0,0,1,2.38-.94h17.61a3.22,3.22,0,0,1,2.38.94A3.15,3.15,0,0,1,560.71,240Z"/><path d="M643.67,211.24V303a3.12,3.12,0,0,1-3.26,3.26H622.67a3.12,3.12,0,0,1-3.26-3.26v-1.24a22.6,22.6,0,0,1-7.66,4.89,25.82,25.82,0,0,1-9.3,1.63,33.19,33.19,0,0,1-25-10.63Q567.3,287,567.29,271.51t10.15-26.09a33.19,33.19,0,0,1,25-10.63,25.82,25.82,0,0,1,9.3,1.63,23.21,23.21,0,0,1,7.66,4.83v-30a3.13,3.13,0,0,1,3.26-3.26h17.74a3.13,3.13,0,0,1,3.26,3.26Zm-52,60.27a13.92,13.92,0,0,0,4.08,10.11,13.94,13.94,0,0,0,19.89,0,14.57,14.57,0,0,0,0-20.22,13.94,13.94,0,0,0-19.89,0A13.92,13.92,0,0,0,591.69,271.51Z"/><path d="M702.44,302.88v-1.17a22.6,22.6,0,0,1-7.66,4.89,25.82,25.82,0,0,1-9.3,1.63,33.19,33.19,0,0,1-25-10.63Q650.33,287,650.33,271.51t10.14-26.09a33.19,33.19,0,0,1,25-10.63,25.82,25.82,0,0,1,9.3,1.63,23.21,23.21,0,0,1,7.66,4.83V240a3.12,3.12,0,0,1,3.26-3.26h17.74A3.12,3.12,0,0,1,726.7,240v62.87a3.24,3.24,0,0,1-.94,2.35,3,3,0,0,1-2.25,1H705.83a3.34,3.34,0,0,1-2.38-1A3.16,3.16,0,0,1,702.44,302.88Zm-27.72-31.37a13.92,13.92,0,0,0,4.08,10.11,13.94,13.94,0,0,0,19.89,0,14.57,14.57,0,0,0,0-20.22,13.94,13.94,0,0,0-19.89,0A13.92,13.92,0,0,0,674.72,271.51Z"/><path d="M834.26,304l-5-5.15a48.36,48.36,0,0,1-13.73,7.08,53.64,53.64,0,0,1-16.4,2.31q-14.67,0-24.39-8t-9.72-20.94a26.22,26.22,0,0,1,4.69-15,32.88,32.88,0,0,1,12.72-11l2.55-1.24a34,34,0,0,1-6.56-9.82,26.49,26.49,0,0,1-2.18-10.53,24.19,24.19,0,0,1,8.18-18.59q8.19-7.5,21.43-7.5,12.52,0,20.22,6.68a21.54,21.54,0,0,1,7.69,17,20.89,20.89,0,0,1-3.78,12,33.92,33.92,0,0,1-11,9.88L817,252.53l11.67,11.81q.52-1.69,1.05-3.72c.34-1.35,1-4.44,2-9.26a2.94,2.94,0,0,1,1.2-2.09,4.6,4.6,0,0,1,2.71-.72H852.2a3.51,3.51,0,0,1,2.48.92,3.21,3.21,0,0,1,1,2.47q0,3.52-2.87,13A100.79,100.79,0,0,1,846,282l18.79,19.18a3,3,0,0,1,.91,3.26,2.4,2.4,0,0,1-2.41,1.63H839.22a8.54,8.54,0,0,1-2.81-.36A5.63,5.63,0,0,1,834.26,304Zm-44.42-27.2a9.86,9.86,0,0,0,3.46,7.83,13.43,13.43,0,0,0,9.13,3,22.27,22.27,0,0,0,6.49-1,20.6,20.6,0,0,0,6-2.84l-18-18.78-1.44,1.24a20.57,20.57,0,0,0-4.27,5.25A11.16,11.16,0,0,0,789.84,276.79Zm9.72-45.72a8.52,8.52,0,0,0,.91,3.56,13.93,13.93,0,0,0,2.35,3.48l2.22,2.16,2.35-1.5a14,14,0,0,0,4.2-4,7.77,7.77,0,0,0,1.54-4.31,6.3,6.3,0,0,0-6.53-6.58,6.82,6.82,0,0,0-5,2A7,7,0,0,0,799.56,231.07Z"/><path d="M234.13,362.56q0-13.63,11.18-22.44t28.41-8.81a62,62,0,0,1,19.37,2.87,41.69,41.69,0,0,1,14.74,8.16q2.75,2.48,3,4.92a5.13,5.13,0,0,1-1.66,4.4l-9.26,9.53a4.72,4.72,0,0,1-3.85,1.46,8.7,8.7,0,0,1-4.7-2.12,33.36,33.36,0,0,0-8.87-4.85A27.55,27.55,0,0,0,273,354a16.3,16.3,0,0,0-8.32,1.86,5.6,5.6,0,0,0-3.16,5,5,5,0,0,0,1.89,3.94,15,15,0,0,0,5.81,2.64l17.48,4.5q14.34,3.6,21.36,10.93t7,18.62q0,13.83-11.22,23.06t-29.61,9.23a67.53,67.53,0,0,1-22.44-3.59,43.83,43.83,0,0,1-16.63-9.91,8.46,8.46,0,0,1-2.87-5.45,5.56,5.56,0,0,1,2.28-4.86l11-8.74a5.29,5.29,0,0,1,4-1.3,8.14,8.14,0,0,1,4.31,2.54,30.26,30.26,0,0,0,21.39,8.67,16,16,0,0,0,8.77-2.12,6.33,6.33,0,0,0,3.3-5.51,5.81,5.81,0,0,0-2.41-4.79q-2.42-1.86-8.22-3.23L259,391.19q-11.94-2.87-18.43-10.3T234.13,362.56Z"/><path d="M320.09,397a34.66,34.66,0,0,1,11.22-26,39.84,39.84,0,0,1,54.4,0,35.72,35.72,0,0,1,0,52,39.84,39.84,0,0,1-54.4,0A34.64,34.64,0,0,1,320.09,397Zm24.4,0a14,14,0,0,0,4.07,10.11,14,14,0,0,0,19.9,0,14.59,14.59,0,0,0,0-20.22,13.93,13.93,0,0,0-19.9,0A13.91,13.91,0,0,0,344.49,397Z"/><path d="M403.58,428.37V336.73a3.12,3.12,0,0,1,3.26-3.26h17.74a3.12,3.12,0,0,1,3.26,3.26v91.64a3.26,3.26,0,0,1-.94,2.35,3,3,0,0,1-2.25,1H407a3.32,3.32,0,0,1-2.38-1A3.17,3.17,0,0,1,403.58,428.37Z"/><path d="M462.54,344a12.37,12.37,0,0,1-4,9.23,13.74,13.74,0,0,1-19.14,0,12.33,12.33,0,0,1-4.05-9.23,12.56,12.56,0,0,1,4.05-9.29,13.57,13.57,0,0,1,19.14,0A12.59,12.59,0,0,1,462.54,344ZM461,365.49v62.94a3.14,3.14,0,0,1-.94,2.32,3.24,3.24,0,0,1-2.38.95H440.11a3.25,3.25,0,0,1-2.39-.95,3.14,3.14,0,0,1-.94-2.32V365.49a3.14,3.14,0,0,1,.94-2.31,3.25,3.25,0,0,1,2.39-.95h17.61a3.24,3.24,0,0,1,2.38.95A3.14,3.14,0,0,1,461,365.49Z"/><path d="M544,336.73v91.7a3.13,3.13,0,0,1-3.26,3.27H523a3.13,3.13,0,0,1-3.26-3.27V427.2a22.79,22.79,0,0,1-7.67,4.89,26,26,0,0,1-9.29,1.63,33.25,33.25,0,0,1-25-10.63Q467.63,412.46,467.63,397t10.14-26.09a33.22,33.22,0,0,1,25-10.64,26,26,0,0,1,9.29,1.63,23.25,23.25,0,0,1,7.67,4.83v-30a3.12,3.12,0,0,1,3.26-3.26h17.74a3.12,3.12,0,0,1,3.26,3.26ZM492,397a14,14,0,0,0,4.07,10.11,14,14,0,0,0,19.9,0,14.59,14.59,0,0,0,0-20.22,13.93,13.93,0,0,0-19.9,0A13.91,13.91,0,0,0,492,397Z"/><path d="M602.78,428.37V427.2a22.69,22.69,0,0,1-7.67,4.89,26,26,0,0,1-9.29,1.63,33.25,33.25,0,0,1-25-10.63Q550.66,412.46,550.66,397t10.14-26.09a33.22,33.22,0,0,1,25-10.64,26,26,0,0,1,9.29,1.63,23.15,23.15,0,0,1,7.67,4.83v-1.24a3.12,3.12,0,0,1,3.26-3.26h17.74a3.12,3.12,0,0,1,3.26,3.26v62.88a3.26,3.26,0,0,1-.94,2.35,3.07,3.07,0,0,1-2.26,1H606.17a3.32,3.32,0,0,1-2.38-1A3.13,3.13,0,0,1,602.78,428.37ZM575.06,397a14,14,0,0,0,4.07,10.11,14,14,0,0,0,19.9,0,14.59,14.59,0,0,0,0-20.22,13.93,13.93,0,0,0-19.9,0A13.91,13.91,0,0,0,575.06,397Z"/><path d="M639.37,362.23H652a6.3,6.3,0,0,1,3.56,1,7,7,0,0,1,2.38,2.93l1.95,4.37a31.78,31.78,0,0,1,7.93-7,15.64,15.64,0,0,1,8-2.42c2.82,0,5,.62,6.42,1.86A5.54,5.54,0,0,1,684,368.3l-2,15.85a7.05,7.05,0,0,1-1.76,4.11,5,5,0,0,1-3.71,1.37,8.44,8.44,0,0,1-1.63-.17c-.57-.11-1.42-.31-2.55-.62a25.41,25.41,0,0,0-2.84-.75,11.88,11.88,0,0,0-1.86-.16,7.32,7.32,0,0,0-5.34,2,7.08,7.08,0,0,0-2,5.35v33.52a2.65,2.65,0,0,1-1,2.06,3.44,3.44,0,0,1-2.31.88H639.3a3.2,3.2,0,0,1-2.35-.92,3.13,3.13,0,0,1-.91-2.28v-63a3.15,3.15,0,0,1,1-2.31A3.23,3.23,0,0,1,639.37,362.23Z"/><path d="M715,344a12.37,12.37,0,0,1-4,9.23,13.74,13.74,0,0,1-19.14,0,12.33,12.33,0,0,1-4-9.23,12.56,12.56,0,0,1,4-9.29,13.57,13.57,0,0,1,19.14,0A12.59,12.59,0,0,1,715,344Zm-1.5,21.46v62.94a3.14,3.14,0,0,1-.94,2.32,3.24,3.24,0,0,1-2.38.95H692.53a3.23,3.23,0,0,1-2.38-.95,3.12,3.12,0,0,1-.95-2.32V365.49a3.11,3.11,0,0,1,.95-2.31,3.23,3.23,0,0,1,2.38-.95h17.61a3.24,3.24,0,0,1,2.38.95A3.14,3.14,0,0,1,713.46,365.49Z"/><path d="M796.43,336.73v91.7a3.13,3.13,0,0,1-3.26,3.27H775.43a3.13,3.13,0,0,1-3.26-3.27V427.2a22.79,22.79,0,0,1-7.67,4.89,26,26,0,0,1-9.29,1.63,33.25,33.25,0,0,1-25-10.63Q720.05,412.46,720.05,397t10.14-26.09a33.22,33.22,0,0,1,25-10.64,26,26,0,0,1,9.29,1.63,23.25,23.25,0,0,1,7.67,4.83v-30a3.12,3.12,0,0,1,3.26-3.26h17.74a3.12,3.12,0,0,1,3.26,3.26Zm-52,60.27a14,14,0,0,0,4.07,10.11,14,14,0,0,0,19.9,0,14.59,14.59,0,0,0,0-20.22,13.93,13.93,0,0,0-19.9,0A13.91,13.91,0,0,0,744.45,397Z"/><path d="M855.2,428.37V427.2a22.69,22.69,0,0,1-7.67,4.89,25.94,25.94,0,0,1-9.29,1.63,33.25,33.25,0,0,1-25-10.63Q803.08,412.46,803.08,397t10.14-26.09a33.22,33.22,0,0,1,25-10.64,25.94,25.94,0,0,1,9.29,1.63,23.15,23.15,0,0,1,7.67,4.83v-1.24a3.12,3.12,0,0,1,3.26-3.26H876.2a3.12,3.12,0,0,1,3.26,3.26v62.88a3.26,3.26,0,0,1-.94,2.35,3,3,0,0,1-2.25,1H858.59a3.32,3.32,0,0,1-2.38-1A3.13,3.13,0,0,1,855.2,428.37ZM827.48,397a14,14,0,0,0,4.07,10.11,14,14,0,0,0,19.9,0,14.59,14.59,0,0,0,0-20.22,13.93,13.93,0,0,0-19.9,0A14,14,0,0,0,827.48,397Z"/><path d="M962.49,336.73v91.7a3.13,3.13,0,0,1-3.26,3.27H941.49a3.13,3.13,0,0,1-3.26-3.27V427.2a22.69,22.69,0,0,1-7.67,4.89,25.94,25.94,0,0,1-9.29,1.63,33.22,33.22,0,0,1-25-10.63Q886.12,412.46,886.11,397t10.15-26.09a33.2,33.2,0,0,1,25-10.64,25.94,25.94,0,0,1,9.29,1.63,23.15,23.15,0,0,1,7.67,4.83v-30a3.12,3.12,0,0,1,3.26-3.26h17.74a3.12,3.12,0,0,1,3.26,3.26Zm-52,60.27a14,14,0,0,0,4.07,10.11,14,14,0,0,0,19.9,0,14.57,14.57,0,0,0,0-20.22,13.93,13.93,0,0,0-19.9,0A14,14,0,0,0,910.51,397Z"/><path d="M144.21,917.47c-2.86,29-1.81,58.22-3.61,86.73-1.95,32.86-5.7,67.38-10.2,99.64-2.4,17-2.1,41,8.4,55.82,5.71,7.95,18.16,16.21,29.56,14.26,10.51-1.8,23.56-9.76,26.56-19.36,4.21-13.51,3.46-29.11,1.66-42.77-8.71-65.12-23.56-129.95-35-195.07,21.46-8.11,35.27-28.37,38.27-48.62,2.55-16.81-.15-32.87-6.46-49.07-5.4-14-16.8-27.31-29.26-36.62s-30.61-1-39.16,9.76c-12.61,15.75-23.26,40.06-25.51,59.27-2.85,28.06,23.26,50.12,44.72,66"/><path d="M857,652.31c5.41-5.1,10.66-11.25,12-16.8,1.8-7.21-.9-15-6.6-22.21S846.78,599,837.78,596.79v.15a189.18,189.18,0,0,0-15.16-15.46c-17.86-15.9-36.31-24.6-59.57-29.41h0c-.3,0-.6-.15-.9-.15a37.5,37.5,0,0,0-4.06-.6,15.92,15.92,0,0,1-5.1,2.4l-20.41-3.3-3.6-1.8a78.49,78.49,0,0,0-8.4-.15h0c-12.3,0-24,.75-36,3.45-14.71,3.3-28.67,13.21-40.37,23v-.15c-14.11.75-31.66,11.26-38,24.16-2.71,5.7-2,14.56,1.65,23.41-4.66.15-9.61,1.35-12.76,3.6a20.49,20.49,0,0,0-8.4,14.11c-.45,3.45-.15,7.35,2.1,10.2,1.8,2.4,4.65,3.6,7.2,4.65a166.37,166.37,0,0,0,26.26,8.26c2.4,26,3.75,56.87,23.71,75.78,11.56,10.8,26.56,18.9,41.57,24.31,38.56,13.95,92.58,22.2,123.8-12.16,13.65-15,18.45-41.72,25.21-60.32,2.85.75,5.55.3,8.55.6,9,0,21.46-2.7,27.61-9.91,10.8-12.45-4-26.71-15.76-29.11m-140.75-95a11.23,11.23,0,0,1,3.9-.15c.3,0,2,0,4.5-.15.15.15.45.3.6.45h.15c.3.15.6.45.9.6a8.6,8.6,0,0,1,1.05.6c.6.3,1.35.6,1.95.9h-6.75a11.58,11.58,0,0,0-2.25.3c-.3,0-.45.15-.75.15a.9.9,0,0,0-.6.15c-.45.15-.75.15-1.2.3s-.75.15-1.2.3c-.15,0-.15,0-.3.15s-.3.15-.45.15-.45.15-.75.3a.52.52,0,0,0-.3.15.15.15,0,0,0-.15.15c-.15.15-.45.15-.6.3s-.3.15-.6.3a.15.15,0,0,0-.15.15c-.15.15-.3.15-.45.3s-.6.45-.9.6-.3.3-.45.3-.3.3-.3.45l-.15.15a5,5,0,0,0-.75,1.8.55.55,0,0,1-.15.45v.75h0v.15a1.35,1.35,0,0,0,.15.75c0,.15,0,.3.15.3,0,.15.15.3.15.45s.15.3.15.45a5.26,5.26,0,0,0,.75,1.2c.15.15.3.45.6.6l.45.45a2.07,2.07,0,0,0,.6.45,6.35,6.35,0,0,0,1,.75.78.78,0,0,0,.6.3,12.4,12.4,0,0,0,1.95,1c.15.15.3.15.45.3s.3.15.6.3.75.3,1,.45c.45.15,1.05.45,1.65.6a.52.52,0,0,1,.3.15c.3.15.45.15.75.3s.6.15.9.3a10.33,10.33,0,0,0,1.2.45h.15a9.56,9.56,0,0,0,1,.3h.15c.3.15.6.15.9.3a9.56,9.56,0,0,0,1,.3c.45.15,1,.3,1.5.45,1,.3,2,.45,3,.75.45.15.9.15,1.51.3a2.93,2.93,0,0,0,1.05.15c.3,0,.75.15,1,.15h0c.3,0,.6.15,1,.15q1.8.23,3.15.45c2.25.3,5.7.6,9.45.75h8a3.3,3.3,0,0,0,1.2-.15c.61,0,1.21-.15,1.81-.15l2.25-.45h0c.3-.15.75-.15,1-.3s.75-.15,1.05-.3.6-.15.9-.3c.15,0,.15,0,.3-.15s.3-.15.6-.15c.3-.15.45-.15.6-.3h0c.3-.15.45-.3.75-.3a4.67,4.67,0,0,0,1.35-1.05c.15-.15.3-.3.45-.3s.3-.45.6-.6.3-.3.3-.45c.15-.15.15-.3.3-.45s.15-.45.3-.75a1.63,1.63,0,0,0,.15-.75,2.56,2.56,0,0,0,0-1.5.9.9,0,0,0-.15-.6c0-.15-.15-.45-.15-.6s-.15-.3-.15-.45a5.26,5.26,0,0,0-.75-1.2c-.15-.15-.3-.3-.3-.45s-.15-.3-.3-.3-.3-.3-.45-.3l-.3-.3c-.15-.15-.3-.3-.45-.3s-.45-.3-.6-.45-.3-.15-.45-.3a7.31,7.31,0,0,0-1-.45c-.45-.15-.9-.45-1.35-.6-.9-.3-2-.6-2.85-.9a1.63,1.63,0,0,0-.75-.15c-.45-.15-.75-.15-1.2-.3-.3,0-.45-.15-.75-.15s-.45-.15-.75-.15-.76-.15-1.06-.15c-.75-.15-1.5-.15-2.25-.3a13.93,13.93,0,0,0-2-.15h0a6.27,6.27,0,0,0,1.5-.6c.15-.15.45-.15.6-.3s.45-.15.6-.3a3.28,3.28,0,0,0,.75-.45c.15-.15.3-.15.6-.3s.45-.3.75-.45c.15,0,.15-.15.3-.15s.46-.3.61-.45l.3-.3c2.55.6,4.2,1.05,4.2,1.05,4,1,8.85,2.7,12,5.85a11.9,11.9,0,0,1,3,5c2,6.3-4.5,10.81-9.6,12.76-9.75,3.6-20.86,3.6-30.91,2.55-8.26-.9-16.66-2.7-23.86-6.76-4.5-2.55-12-7.95-11.26-14.1.15-5.7,8.86-8.85,14.11-9.75M607.74,646.76a30.18,30.18,0,0,1-5.86-2.85,9.35,9.35,0,0,1-4.5-4.8,5.79,5.79,0,0,1,2.1-6.76c2.25-1.35,5.25-1.05,8-.45a51.46,51.46,0,0,0,5.1.9,63.17,63.17,0,0,0,8.1,9.46c.15,2.25,0,4.35.15,6.75-4.35.15-8.7-1-13-2.25m39.31,27.46c-1,2.4-2.7,4.8-5.25,5.25-3,.45-5.7-2.1-6.45-5.1s-.15-6,.6-8.85v.15c.45-3,3.6-4.65,6.3-4.5a7.11,7.11,0,0,1,5.7,5.1,13.06,13.06,0,0,1-.9,8m22.21,14.11a6.55,6.55,0,0,1-3.9,3.3,6,6,0,0,1-5.85-2.4,8.89,8.89,0,0,1-1.5-6.46c.3-3.6,1.2-9.6,6-7.95,2.55.75,5.4,1.95,6.3,4.35a7.93,7.93,0,0,1,.3,4.2,18.58,18.58,0,0,1-1.35,5m29.71,6.9a5.42,5.42,0,0,1-4.35,3.45c-7.35.75-6.6-10.5-4.2-14.56,3.75-6.3,9.3.46,9.45,5.41a10.22,10.22,0,0,1-.9,5.7m25.81,7a5.41,5.41,0,0,1-6.15,1.65c-4.65-2.1-3.9-9.9-1-13.2,3.45-4.2,7.65,1.35,8.55,5.1a8.28,8.28,0,0,1-1.35,6.45m25.06,4.65a5.26,5.26,0,0,1-7.5-.6c-2.55-3.15-.9-10.5,3.9-10.2,5,.15,7.35,7.5,3.6,10.8m26.56-3.45c-6,5.7-13.5-4.2-8.1-9.45s13.65,4.2,8.1,9.45m24.76-2.4a5.19,5.19,0,0,1-4.2,3c-7.35.45-6.9-9.6-4.5-13.35,3.6-5.7,9.15.6,9.45,5.1a12.42,12.42,0,0,1-.75,5.25M824,690.58c-6,5.7-13.5-4.2-8.1-9.46,5.4-5.1,13.65,4.21,8.1,9.46m13.21-31.36c-30,19.95-75.18,20.7-110.9,17.1-37.81-3.75-78.33-17.56-105.79-45-6-8.25-11.85-20.85-8-30.16,3.15-7.65,13.65-14.7,21.76-17.55-2.25,2.25-4.66,5.85-6.76,8.1-9.75,10.65-6.75,28.36,4.06,38a93.76,93.76,0,0,0,25.21,15.46c52.82,21.91,107.89,30,159.51,12.75,12.3-4.2,25.21-11.4,31.81-23.85,4-7.51,1.2-19.06-.75-22.81-.45-.75.6-1.5,1.35-1.05a38.25,38.25,0,0,1,7,6.75c4.35,5.55,6.16,11.55,4.65,16.2-3.3,10.21-14.1,20.11-23.25,26.12m3.9,18c1.65-5.1,3.15-10.2,4.35-15.15,7.8.6,17.26-2.55,17.86,4.65,1.5,9.9-11.56,8.4-22.21,10.5"/><path d="M770,571.88a.9.9,0,0,0-.15-.6c0-.15-.15-.45-.15-.6s-.15-.3-.15-.45a5.26,5.26,0,0,0-.75-1.2c-.15-.15-.3-.3-.3-.45-.15-.15-.15-.3-.3-.3s-.3-.3-.45-.3l-.3-.3c-.15-.15-.3-.3-.45-.3s-.45-.3-.6-.45-.3-.15-.45-.3a7.31,7.31,0,0,0-1-.45c-.45-.15-.9-.45-1.35-.6-.9-.3-2-.6-2.85-.9a1.63,1.63,0,0,0-.75-.15c-.45-.15-.75-.15-1.21-.3-.3,0-.45-.15-.75-.15s-.45-.15-.75-.15-.75-.15-1.05-.15c-.75-.15-1.5-.15-2.25-.3a13.93,13.93,0,0,0-1.95-.15h0a6.27,6.27,0,0,0,1.5-.6c.15-.15.45-.15.6-.3s.45-.15.6-.3a3.28,3.28,0,0,0,.75-.45c.15-.15.3-.15.6-.3s.45-.3.75-.45c.15,0,.15-.15.3-.15s.45-.3.6-.45l.3-.3a123,123,0,0,0-15.9-2.7,148.25,148.25,0,0,0-17.41-.6c.15.15.45.3.6.45h.15c.3.15.6.45.9.6a8.6,8.6,0,0,1,1.05.6c.6.3,1.35.6,1.95.9h-6.75a11.58,11.58,0,0,0-2.25.3c-.3,0-.45.15-.75.15a.9.9,0,0,0-.6.15c-.45.15-.75.15-1.2.3s-.75.15-1.2.3c-.15,0-.15,0-.3.15s-.3.15-.45.15-.45.15-.75.3a.52.52,0,0,0-.3.15.15.15,0,0,0-.15.15c-.15.15-.45.15-.6.3s-.3.15-.6.3a.15.15,0,0,0-.15.15c-.15.15-.3.15-.45.3s-.6.45-.9.6-.3.3-.45.3-.3.3-.3.45l-.15.15a5,5,0,0,0-.75,1.8.55.55,0,0,1-.15.45v.75h0v.15a1.35,1.35,0,0,0,.15.75c0,.15,0,.3.15.3s.15.3.15.45.15.3.15.45a5.26,5.26,0,0,0,.75,1.2c.15.15.3.45.6.6l.45.45a2.07,2.07,0,0,0,.6.45,6.35,6.35,0,0,0,1,.75.78.78,0,0,0,.6.3,12.4,12.4,0,0,0,1.95,1.05c.15.15.3.15.45.3s.3.15.6.3.75.3,1,.45c.45.15,1.05.45,1.65.6a.52.52,0,0,1,.3.15c.3.15.45.15.75.3s.6.15.9.3a10.33,10.33,0,0,0,1.2.45h.15a9.56,9.56,0,0,0,1,.3h.15c.3.15.6.15.9.3a9.56,9.56,0,0,0,1,.3c.45.15,1,.3,1.5.45,1,.3,2,.45,3,.75.45.15.9.15,1.51.3a2.93,2.93,0,0,0,1.05.15c.3,0,.75.15,1,.15h0c.3,0,.6.15,1,.15q1.8.22,3.15.45c2.25.3,5.7.6,9.45.75h8a3.3,3.3,0,0,0,1.2-.15c.61,0,1.21-.15,1.81-.15l2.25-.45h0c.3-.15.75-.15,1-.3s.75-.15,1.05-.3.6-.15.9-.3c.15,0,.15,0,.3-.15.15,0,.3-.15.6-.15s.45-.15.6-.3h0c.3-.15.45-.3.75-.3a4.67,4.67,0,0,0,1.35-1c.15-.15.3-.3.45-.3.15-.15.3-.45.6-.6s.3-.3.3-.45c.15-.15.15-.3.3-.45.15-.3.15-.45.3-.75a1.63,1.63,0,0,0,.15-.75,8.69,8.69,0,0,1-.6-2"/><path d="M770,573.38c-1.35,9.16-23.11,7.5-31.36,6.6s-29.71-5.55-28.51-13.65,19.35-6.75,19.35-6.75a32.22,32.22,0,0,1-3.9-2.1,1.5,1.5,0,0,1-.75-.6,9.21,9.21,0,0,1-3.3-3.46,7.63,7.63,0,0,1-.9-5.1,10.64,10.64,0,0,1,1.95-4.65c7.2-9.45,23.56-8.4,33-3.3,4.06,2.25,8.41,6.75,7.66,11.7a.55.55,0,0,1-.15.45,13.08,13.08,0,0,1-5,7.51l-.3.3a18.48,18.48,0,0,1-5.7,2.85c-.15.15,19.21,1.2,17.86,10.2"/><path d="M830.42,1065c-1.8-12-1.5-24.61-2.85-36.91-.3-3-.75-6.15-1.35-9.15-6.45-17,9.61-31.67,25.06-37.67-27.16-9.15-53,2.85-80.43,4.35H760.5a192.81,192.81,0,0,1-30.77-3.15,185.75,185.75,0,0,0,1.35,22.21c-3.9-1.8-7.8-.9-11.55-1a48.06,48.06,0,0,0-11.25,1.35c-7.36,1.8-14.41,5.7-18.76,11.85-2.85,4.06-4.5,9-6,13.66-4.51,14.11-8.41,28.81-6,43.37,2.1,12.3,8.71,23.41,15.16,34.06,3.45,5.7,6.9,11.25,11.4,16.06s8.26,8.1,14.86,9a208,208,0,0,0-3.3,32.11v.6c11.1.3,22.36.45,33.46.6.45-2.4,2.1-4.35,3.3-6.45,1.5-2.4,2.85-4.8,4.35-7.2s2.71-4.65,4.06-7.06c.6-1,1.35-2.25,2-3.45a16.36,16.36,0,0,1,.9-1.65l.45-.9.3-.6a5.44,5.44,0,0,0,.45-1c.3-.75.6-1.35.9-2.1a40.08,40.08,0,0,0,1.35-3.9c.15-.75.45-1.35.6-2.1-.15-.15-.3-.3-.45-.3-8.4-6.45-17-13.06-25.36-19.51-3.3-2.55-6.75-5.25-8.55-9.15-3.16-6.91.9-15.61,7.35-19.66,2.4-1.5,5.1-2.55,7.95-2.1a10.9,10.9,0,0,1,5,2.4c7.36,5.4,10.51,14.71,12.46,23.71,1.05,5,2,9.9,3.3,14.7,0-.75.15-1.35.15-2.1,0-2.85-.15-5.55-.3-8.4a68.26,68.26,0,0,0-.6-7.8h0a.9.9,0,0,0-.15-.6c-.15-.6-.15-1.35-.3-2-.15-1.35-.3-2.7-.45-4.2a123.93,123.93,0,0,1-1.35-18.31,24.62,24.62,0,0,1,.3-3.45,40.32,40.32,0,0,1-7.5-4.36c-10.21-7.2-18.46-18-20.41-30.31-.45-2.85-.45-5.85,1-8.25a10.93,10.93,0,0,1,3.3-3.15c5.7-3.75,13.65-4.65,19.06-.6,4.35,3.15,6.15,8.7,6.9,13.95s.45,10.36,1.35,15.46a92.88,92.88,0,0,1,5.1-12,73.25,73.25,0,0,1,11.11-15.31,58.19,58.19,0,0,1,6.3-5.85,20.33,20.33,0,0,1,6.9-4.2,38.14,38.14,0,0,1,6.3-.76,9.38,9.38,0,0,1,6.16,2.41,7.2,7.2,0,0,1,.3,8.55,43.47,43.47,0,0,1-5.71,7c-2,1.65-3.6,3.45-5.4,5.25-.3.3-.6.75-.9,1l-.15.15-2.25,3.16a59.88,59.88,0,0,0-4,6.6c-.45.9-.9,1.8-1.35,2.85a.15.15,0,0,1-.15.15,10.42,10.42,0,0,0-.75,1.95,55.14,55.14,0,0,0-2.25,7.05,15.93,15.93,0,0,0-.6,2.85l5.4-4.5a38,38,0,0,1,9-5.7,13.77,13.77,0,0,1,10.36-.3c5.55,2.25,8.4,9,7.05,14.71s-6.3,10.2-12,12.15a29.22,29.22,0,0,1-17.55-.45,21.41,21.41,0,0,1-3.3-1.2c.3,9.3,1.95,18.61,1.95,27.91a53.29,53.29,0,0,1-.45,6.9c.45-.75.9-1.5,1.35-2.4a44.71,44.71,0,0,1,5.1-8,17.49,17.49,0,0,1,16.51-5.25,15.61,15.61,0,0,1,11.4,12.75,18.85,18.85,0,0,1-.6,7.06c-3.15,11.4-15,19.65-26.71,18.6-4.2-.3-8.25-1.8-12.31-2.55-1.05,2.25-2.1,4.5-3.3,6.6a58.72,58.72,0,0,1-12.3,15.46,89.71,89.71,0,0,1-8.55,6.3,13.78,13.78,0,0,1-2,1.2q46.83.67,93.64,0c-5.85-25.06-10.8-54.62-16.81-79.68a193.58,193.58,0,0,1-4.5-21.46m-109.24,25.21h0c.15,1.35.15,2.55.3,3.9h0a42.17,42.17,0,0,1,0,6.16,37.15,37.15,0,0,1-.45,4h0a18.36,18.36,0,0,1-4-1.35c-.6-.3-1.35-.6-2-.9l-.9-.45a30.54,30.54,0,0,1-6-4.65h0l-1.51-1.5h0a36.85,36.85,0,0,1-4-5.41c-.75-1.2-1.5-2.55-2.25-3.9-.3-.6-.6-1.35-1.05-2.1l-1.8-4a37,37,0,0,1-1.5-4.35c-.45-1.5-.9-3-1.2-4.5-.15-1.05-.3-2-.45-3-.75-6,.15-12.15,1-18.15.15-.45.15-1,.3-1.5.3-1.5.45-3,.75-4.5s.6-3,1.05-4.51.9-2.85,1.5-4.35a27.4,27.4,0,0,1,4.65-7.5c5.26-5.7,13.36-7.95,20.86-9.6-1.8,22-3.3,44.86-3.75,66.92v2.55a25.14,25.14,0,0,1,.45,2.7"/><path d="M452.28,1078a19.89,19.89,0,0,1-23-9.31c-.45-.75-.6-1.8-1.2-5.1-.15-1.2-.6-3.15-.75-4.2-10.51-2.55-22.36-6-33-11.55-11.55,5.85-22.36,13.2-32.86,20.25a115.62,115.62,0,0,0,24.31,14.56,24.12,24.12,0,0,1,25.66-11.4c10.65,2.25,20.11,12.75,19.66,22.2-.15,4.81-2.25,9.76-5.71,14.41-2.7,3.6-8.7,10-17.7,11.25a23.48,23.48,0,0,1-19.21-6c-3.75-3.3-4.95-7.5-6.15-11.4-.3-1-.6-2.1-1.05-3.3-13.51-5-25.36-12.16-34.22-21a97.45,97.45,0,0,1-15.6,5.55,92.63,92.63,0,0,0-10.36,3.3c1.8,1.8,4.51,4.35,8.41,8.56l3.15-3.16a29.49,29.49,0,0,1,5.85-4.35,20.44,20.44,0,0,1,17-1.2c9,3.6,13.8,14.41,13.05,22.81-.75,8.85-7.8,18-16.5,21.31a19.82,19.82,0,0,1-18.31-2c-5.55-3.6-7.5-9.46-8.25-13.81a23.15,23.15,0,0,1-.3-7.35c-4.21-2.7-9.16-7.8-13.81-12.9-1.8-1.81-3.45-3.61-4.8-5.11-32.86,3.6-71.13-12-97.24-24.16l-.45-.3-.3-.3c-4.65-4.95-3-15-1.05-17.1a3,3,0,0,1,3.6-.6c95.59,41.26,138.21,11.7,138.51,11.55,24.3-12.15,50.87-31.21,67.07-51-7-6.15-11.7-17.26-7.8-25.36,4.2-8.4,17.26-14,27-14s21.91,7.2,25.66,15.45c3.9,8.56,2.4,20.86-3.45,27.31-6.6,7.36-18.16,9.61-26.71,5.55-7.66,7.66-15.46,15-23.86,22.36,3,.9,6.15,2,9.15,3,5.25,1.66,10.66,3.46,16.06,5.11a6.84,6.84,0,0,0,1.8-1.8l1.5-1.5a25.17,25.17,0,0,1,9.75-4.66,17.63,17.63,0,0,1,13.06,2c6.75,4.21,8.7,12,9.15,15.16,1.5,8.55-5.85,19.06-15.75,22.21"/><path d="M236,711.14c-2.4,11.25-11.1,20.7-22.36,23a.65.65,0,0,0-.6.6,5.46,5.46,0,0,1-.3,1.66c.75-5.56,2.1-11.26,1.95-17-.15-6-.3-12.46-1.95-18.16a47.72,47.72,0,0,0-8.4-16.2c-2.85-3.61-7.35-6.46-11.86-8.26a.72.72,0,0,0-.75,1.2,46.48,46.48,0,0,1,8.26,9.76,58,58,0,0,1,6.75,15.3,121.47,121.47,0,0,1,3.45,16.66c.75,5.55,1.35,11.25,2.4,17.11h0a20,20,0,0,1-9.3,12.45c-5.1,2.85-11.71,2.85-17.26.45a.64.64,0,0,1-.3-1.05,47.36,47.36,0,0,0,4-15,52.74,52.74,0,0,0-1.8-20.55,54.44,54.44,0,0,0-9.45-18.31C175,690.28,167.16,683.22,164,682c-.6-.3-1.2.45-.9,1.05,1.5,2.86,8.41,10.21,11,14.86a82.74,82.74,0,0,1,7.35,17.26,84.62,84.62,0,0,1,3,18.45,104.23,104.23,0,0,1-.9,19.21c0,.15,0,.15-.15.3a18.85,18.85,0,0,1-9.75,8,18.17,18.17,0,0,1-12.31-.45.32.32,0,0,1-.3-.3c-3.6-5.25-6.15-10.5-9-15.9-2.85-5.55-4.35-11.56-6.45-17.41a116.75,116.75,0,0,1-4.66-17.71c-1.05-5.25-1.65-14-3.3-17.4-.3-.6-1.2-.6-1.35,0a49.14,49.14,0,0,0-2.25,18,67,67,0,0,0,3.75,19.51c2.25,6.3,4.05,13.51,8.11,18.76,3.75,5.25,7.95,10.5,15,12.15-1.05-.45-2.1-.45-3-.9L157,759c-4.5,5-11.7,6.76-18.31,6-6-.75-11.7-3.76-16.65-7.36-.15,0-.15-.15-.3-.3a129.78,129.78,0,0,1-6.31-15.15,100.15,100.15,0,0,1-5.25-31.66A103.79,103.79,0,0,1,111,697a.72.72,0,0,0-1.35-.45,45.45,45.45,0,0,0-5,13.5,54,54,0,0,0-.15,17.71,48.84,48.84,0,0,0,5.85,16.81,41.77,41.77,0,0,0,8.71,11.1.71.71,0,0,1-.15,1.2c-16.21,7.81-32-8.25-37.82-22.51C65.12,696,105.34,674.07,119.6,644.06c5.85-12.31,3.3-38-11.71-72.78a.66.66,0,0,1,.15-.75,19,19,0,0,1,20-5.25c.3.15.45.3.45.6.75,11.4,6.3,23.41,10.8,33.61,5.41,12.46,11.11,24.31,21.61,33.31,18,15.46,42.77,20.41,60,37.37,10.35,10.35,18.3,26,15.15,41"/><path d="M589.13,1049.07a31.74,31.74,0,0,1-3-1.8c.15,6.6.9,13,1,19.65a27.88,27.88,0,0,1,6.15-3.45,29.12,29.12,0,0,1,3.9-2c.3-.15.75-.15,1-.3,10.36-3.6,23.11.6,30.46,8.56a48.76,48.76,0,0,1,3.61,4.65c13.35,18,12.15,64.22-9.76,73.83-16.5,7.2-33.91,11.85-52.82,12.6a77.79,77.79,0,0,1-8.4-.15c-12.46-.9-26-2.55-37.22-8.4a32.4,32.4,0,0,1-6-4c-11.7-9.76-15.15-29.57-14.55-43.07a64,64,0,0,1,11.55-33,42.92,42.92,0,0,1,5.4-6.16c9.61-8.85,24.46-15,36.92-8.7,2.1,1,4.5,2.4,6.75,3.75,3,2,6,4,8.7,6.15-1-11.55.3-23.55,2.55-35.11-1.8,1.5-3.6,2.7-5.4,4.05-18.76,12.61-58.52,3.75-63.17-19.66s53.57-4.35,62,2.41a37.94,37.94,0,0,1,4.8,5c.9,1.2,2,2.4,2.85,3.75.6-2.85,1.2-5.55,2-8.25a65,65,0,0,1,3-9.16c3.9-.45,8.1-1.05,11.85.15a58.43,58.43,0,0,0-4.05,10.06q-1.57,5.18-2.7,10.8c-.45,3.15-.6,6.3-.75,9.45l1.35-2.25c1.35-2.25,2.85-4.35,4.35-6.45a45,45,0,0,1,5-5.7c17.11-16.81,38.42-26.26,62-23.11a27.87,27.87,0,0,1,6.3,1.8c-15.46,23.71-42.62,52.52-69.93,46.52a18.55,18.55,0,0,1-5.7-2.4"/><path d="M473.73,775.36c2.1-8.4,4.21-17,6.61-25.36,9.15-32.71,18.45-65.42,27.61-98.29,1.95-6.75,2.4-7.2,9.75-7.2,7.95-.15,16.06.15,24,.15,2.7,0,4.65.9,5.7,3.9q20.49,66.86,41.12,133.7c1.2,4,0,5.71-3.75,6.61-5.25,1.2-10.36,2.7-15.46,3.75-5.4,1-6,.45-7.65-5.1-2.4-8.26-4.95-16.36-7.35-24.61-.76-2.86-2.11-4.06-5.41-3.76-8.55.6-17.1.9-25.66,1.05-2.55,0-3.75.9-4.35,3.46-.9,3.75-2.1,7.5-3.15,11.55a16.31,16.31,0,0,0,3.75.15c2.4-.15,3.3,1,3.3,3.3,0,3.75.15,7.5.3,11.41s-1.5,5.55-5.4,5.55c-13.35,0-26.71.45-40.06.45-30,0-60-.15-90.19-.3-9,0-8.85-.3-8.85-9.31.15-44.11,0-88.23,0-132.35,0-7.5.15-7.8,7.65-8,9.15,0,18.31-.15,27.31,0,5.85,0,6.45.45,6.45,6.15-.15,38.87-.3,77.58-.45,116.45v2.1c0,4.65,2.55,6.6,7.06,4.95.9-.3,1.65-2.1,1.65-3.15.3-6.75.45-13.51.45-20.11-.15-32.71-.45-65.57-.75-98.29,0-7.8,0-8,7.95-8,8.7,0,17.41-.15,26.11,0,6.9,0,7.2.3,7.2,7.05-.15,39.17-.3,78.48-.45,117.65.15,3.15.45,5.4,5,4.35M530,737.55c-3.91-13.36-7.51-26-11.11-38.42H518c-3.45,12.76-6.9,25.66-10.35,38.57Z"/><path d="M247.6,719.39c.45-24.16.45-43.52,5.7-62.28,4.95-17.85,16.5-28.81,34.81-30.16a229.94,229.94,0,0,1,45.47,1c19.66,2.55,29,12.46,30.91,32.12a569.13,569.13,0,0,1,2.55,62,238.79,238.79,0,0,1-4.35,42.62c-4.2,22.36-15.31,32.71-38,34.81a175.76,175.76,0,0,1-37.67-.6c-22.06-2.85-32.26-14-36.16-36.76a130.44,130.44,0,0,1-1.8-13.06c-.75-11.7-1.2-23.26-1.5-29.71m85.23,1.05c-.9-14.41-1.2-25.66-2.25-36.92-.45-5.25-2.7-10-8.56-11.55-9.6-2.4-15.3.9-18,10.5a39.43,39.43,0,0,0-1.8,9.31c-.45,16.2-1.05,32.56-.9,48.77,0,6.3,1.5,12.6,3,18.75,1.35,5.41,5.4,8,11.1,8.11,8.11.3,12.46-2.1,13.81-10.06,1.8-13.2,2.55-26.56,3.6-36.91"/><path d="M509,832.23c2.55-.3,5.25-.6,8-.75,9.6-.15,19.36,0,29-.15,3.15,0,5,1,6,3.9,4.51,12.31,9.16,24.61,13.36,36.92,3,8.4,5.4,17,8.1,25.51.3.75.6,1.5,1,2.85.75-1.35,1.2-2.1,1.65-3,8.71-20.71,17.56-41.27,26.11-62,1.5-3.6,3.46-5.25,7.51-4.95,5.4.3,10.95.15,16.35.15a38.61,38.61,0,0,1,5.11.6c1.8,44.87,2.25,89.59,2.25,134.6-1.95.31-3.46.91-5,.91-6.9.15-13.65.15-20.55,0-4.06-.15-4.81-1.06-4.81-5.11.15-12.3.6-24.61.6-36.76,0-7.05-.45-14.26-.6-21.31a9.14,9.14,0,0,0-1.05-4.2,26.39,26.39,0,0,0-1.35,3c-5.85,17-11.7,34.06-17.4,51-.45,1.35-.9,2.7-1.35,3.9a5.43,5.43,0,0,1-5.11,4.2c-6.9.3-13.65.6-20.55.75-2.86,0-4.81-1.8-5.86-4.65-4.2-10.8-8.4-21.46-12.6-32.26-2.55-6.6-4.95-13.21-8.1-19.81,0,1.35-.15,2.85-.15,4.2.15,20.11.3,40.22.45,60.18v4.65a2.81,2.81,0,0,1-2.71,3.15H505.85c-2.4-8.25.75-140.46,3.15-145.56"/><path d="M808.06,891.21c.15-2,.3-3.76.3-5.71-.15-14.85-.3-29.86-.45-44.71v-3c.15-5.1.45-5.55,5.41-5.55H833c4.66,0,5.41.75,5.26,5.4-.3,33.92-.6,67.68-.9,101.59,0,6.16-.15,12.31-.15,18.46,0,4.35-.6,5-4.81,5.1l-30.61.9c-4.65.15-7.5-1.5-9.45-5.85-6.3-13.5-13.06-26.86-19.66-40.21A10.12,10.12,0,0,0,769.8,914c0,1.36-.15,2.71-.15,4.06.15,17.25.3,34.51.45,51.92,0,1.8-.15,3.6-.3,5.1-3.6,1.35-15.76,1.5-21.91.45-1.8-1.65-1.2-3.9-1.2-5.85,0-32.42-.15-65-.15-97.39V837.63c0-5.1.9-6.15,6-6.3,6.76-.15,13.36.15,20.11-.15,4.2-.15,6.75,1.35,8.55,5.25,7.06,15.31,14.41,30.47,21.76,45.77,1.5,3,2.85,6,4.2,9h.9"/><path d="M640.9,834.63c9-.75,17.26-1.35,26,.3v5.41c.3,26.41.6,52.67,1,79.08a34.52,34.52,0,0,0,1.05,8.7c1.5,6.9,6.3,10.35,13.81,10.2,6.45-.15,10.8-3.75,12-10.5a47.09,47.09,0,0,0,.75-9.15V846.79c0-8.86.15-8.71,8.1-8.71,10.36-.15,20.71-.6,31.07-.75,4,0,4.8.6,4.8,4.51.3,30.91.6,62,.9,92.88a51.72,51.72,0,0,1-.6,9.61c-1.8,10.2-7.66,17.85-17.11,21.6a86,86,0,0,1-57.47,3c-11.11-3.16-18.31-11.11-21.46-22.06a64.6,64.6,0,0,1-2.4-13.06c-.45-5-.45-10.05-.45-15,0-26.11.15-52.22.3-78.18a37.43,37.43,0,0,1-.3-6"/><path d="M499.09,879.8c.3,12.76.15,25.66-2.55,38.27A106.71,106.71,0,0,1,492.49,932c-5.25,14-15.76,20.86-30.16,22.06a124.23,124.23,0,0,1-27.91-.9c-14.41-2.25-23.26-10.5-26.26-24.46a168.08,168.08,0,0,1-3.45-26.11c-.75-15.76-1-31.51,1.35-47.12a98.85,98.85,0,0,1,4.35-18.61c4.2-12.75,13-20.55,26.56-22.5,12.15-1.8,24.31-1.65,36.16,1.65,12.16,3.3,19.51,11.7,22.51,23.56a125.15,125.15,0,0,1,3.45,21c.45,6.46,0,12.91,0,19.21m-69.17,10.51c0,6.15.15,12.3.6,18.3a56.32,56.32,0,0,0,2.4,12.16c1.35,4.5,4.95,6.15,9.3,6.3s8.25-.75,10.21-5.1a34.68,34.68,0,0,0,3-9.46c2.25-13.8,1.95-27.76,1.2-41.71a59,59,0,0,0-3-14.26c-1.35-4.2-5.26-5.4-9.46-5.55-4.35-.15-8.25.6-10.2,5a39.54,39.54,0,0,0-3,9.91c-.6,8.4-1.05,16.5-1.05,24.46"/><path d="M358.49,944.48c10.2-1.5,19.51-.6,28.81.15,3.15.3,4.95,2.55,5.1,5.85.45,16.21.15,32.56-5.25,48-6,17-18.61,26.26-35.71,29.86-20.86,4.35-41.87,4.5-62.58-.45-23.26-5.55-35.71-20-38.26-43.52-3.6-33.16-3.45-66.47-.6-99.79.75-8.85,1.8-17.55,3.15-26.41,3-21.61,16-35,36.31-41.26a115.64,115.64,0,0,1,24.76-5c15.61-1.5,31.21-1.5,46.67,1.36,23.86,4.5,35.86,18,37.66,42.76.9,11.56.3,23.41.15,35-.15,6.15-2.25,8.25-8.4,8.4-15.6.15-31.21,0-46.82-.15-2.1,0-4.2-.9-7.05-1.5-.15-5.85-.15-11.41-.45-17-.3-7.65-3.3-12.15-9.75-14.55-9.31-3.46-18.46.45-21.61,9.75a66.37,66.37,0,0,0-3.3,17.11c-1.65,26.11-1.8,52.37.9,78.48,1.5,13.8,9.3,21.46,23.11,22.66,17.4,1.5,29-7.51,30.91-24.76.6-5.41.45-10.81.9-16.21.3-2.85.75-5.55,1.35-8.85"/><path d="M740.69,820.38c-2.7.75-4.35,1.5-6.15,1.8-11.41,2.1-22.66,4.2-34.07,6.15-5,.9-6.45,0-8.85-4.5a28.82,28.82,0,0,1-2.55-5.85c-.75-2.1.15-3.6,2.25-4.2l2.25-.45,36.91-8.11c4.51-.9,5.26-.6,6.76,3.75a117,117,0,0,1,3.45,11.41"/><path d="M1009.44,861.34c-9.75,5.11-18.75,15-25.06,23.86-1.5,2.1-3.15,4.51-5.7,6-2.4,1.35-5.4,1.5-8.1,1.65-10.36.15-21,.15-31.36.15,9-17,18.3-32.72,23.4-51.32,5.71-20.86,8.11-42.17,11-63.48.15-1.2-1.2-2.25-2-1.65-11.26,8-21.91,8.7-35.12,9.75-25.51,2.11-51.92-.45-78.63-1.35a126.91,126.91,0,0,0,2,13.81c1.81,15.61,5.71,31.21,6.46,47,.9,16.65-1.8,33.31-3.45,49.67a97.4,97.4,0,0,0,4.65,40.06c2.1,6.46,5.55,12.91,8.85,19.06,4,7.65,8.25,15.76,14.56,21.76,13.2,12.75,33.46,17.56,51.32,16.21,10.95-.76,22.21-2.71,32.26-7.21,6-2.7,11.1-6.75,15.91-11.1,5.1-4.65,9.9-9.76,13.35-15.61,14.56-23.86,10.35-54.32,17.56-80.88a3.93,3.93,0,0,1,.9-2,4.45,4.45,0,0,1,2.25-1c3-.6,6-1.2,9.15-1.65C1031.2,862.39,1019.05,856.24,1009.44,861.34ZM986,944.93c-3.6-.45-11.25-.9-11.25,0,0,1.2,5.4,2.25,10.5,3.75-1.95,2.7-3.9,7.05-5.85,9.75-5.25-1.95-13-8.85-14.1-8.25-.6.9,8.25,8.55,12.9,12.3a33.62,33.62,0,0,0-9.9,7.21c-3.3-5.11-8.11-14.86-9.31-14.41-.9,0,3.15,11.26,5.26,17.71-2.86.3-6.46,1.35-9.31,1.65-1.35-8.25-2.4-13.66-3.3-13.66-1.2,0-1.5,9.76-2.1,15.16-3-.15-5.25-.15-8.1-.3.6-4.8,2.4-12.31,1.5-12.46-.6-.15-5.71,8-8.86,12.16-2.85-.15-6,0-8.7-.15,3-3.45,6-7.65,8.85-11.11.15-.3.45-.45.3-.9a1,1,0,0,0-1.35-.3c-5.7,3.76-12.3,8.26-12.3,8.26s-6.9-.75-9.76-1.35c5-2.85,15.91-10.36,15.16-11.56-.3-.45-11.7,3.9-16.51,5.85-.9.3-3.45,1.35-3.45,1.35s-3.3-5.4-4.2-6.15c6.75-2.7,20.71-6.75,20.41-8.25-.75-1.35-16.36,2.55-24.31,2.85,0-2.4-.15-4.65-.15-7.05,7.2-.15,21-1,21-3.3-.3-2-15.46-1.2-21.76-1.35,1-4.81,1.8-9.46,2.85-14.26,11.1,2.85,21.46,5.7,22.36,4,.15-1.65-13.36-5.1-20-7.65a60.12,60.12,0,0,0,4.95-5.85c6.61,1.8,18.76,6.45,19.81,5.4.9-1.2-10.65-8-15-10.81l12.76-5.55c.9.45,11.55,11.56,12.6,10.81.3-2.1-6.3-10.51-8.4-13.06,4.65-.6,8.86-.9,13.51-1.05,1.35,4.2,4.35,14.41,5.25,14.71s0-10.06.3-15a98.08,98.08,0,0,1,13,5.1c-1.2,4-4.35,11.71-3.6,12,1.2.6,6.76-10.21,7.36-10.36s6.9,3.9,9.3,6c-2.55,3.75-7.2,11.55-6.6,11.85.75.9,6.75-5.4,10.65-7.35a37.7,37.7,0,0,1,5.55,11c-5.55.6-16.65,3.75-16.5,4.95s12-1,17.85-1C985.43,939.37,986.33,942.08,986,944.93Zm-32.41-9.76c-5.4-9.15-21-3-19.06,7.36C937.26,956.18,962.92,950.78,953.62,935.17Z"/><path d="M568.57,560.63c-8-5.26-16.66-5.56-25.51-2.7-4.8,1.5-9.3,3.9-13.95,6-3.76,1.65-7.51,2.85-11.71,2.4a13.07,13.07,0,0,1-12.3-12,13.23,13.23,0,0,0-13.21-12c-8.1-.15-16.36,0-24.46,0H277.61c-7.66,0-13.36,4.95-13.81,12.45-.3,4.81-2.85,7.81-6.75,9.91-4.65,2.55-9.6,2.25-14.41.3-3.15-1.2-6-2.85-9.15-4.2-5.55-2.7-11.25-4.66-17.56-4.51-7.65,0-14.55,2.41-20,8.11-5,5.25-7.21,11.55-5.71,18.76,2.1,10.2,11.11,17.7,22.06,18.75,7.5.75,14.26-1.2,21-4.2,3.9-1.8,7.95-3.9,12-5.1,9-2.55,17,2.55,18.76,10.5,1.65,7.51,6.6,10.81,14.26,10.81H490.24c8.25,0,12.91-3.6,15-11.71a13.83,13.83,0,0,1,11.4-10.2c4.5-.6,8.55.6,12.46,2.4,4.35,2,8.55,4.2,12.9,5.7,9.15,3.15,18.31,3,26.71-2.55C582.68,588.24,582.53,569.78,568.57,560.63Z"/><path d="M1015,758c-37.82,4.36-106.1,17.41-120.8-32.11-10.51-35.11,21.31-63.62,53.72-67.53,6.45-.75,13.35-.9,19.21-3.45,6-2.7,11.1-9,9.6-15.45-1.5-6.91-9.45-10.36-16.51-11-10.2-.9-20.25,1.8-30.46,1.8-16.8-.15-26.56-9.45-29-25.66a164.8,164.8,0,0,1-.45-43.81c.6-5.11.3-13.66,5.25-16.36,4.65-2.55,14.71-1,20-.15-7.5,9.6-3.45,53.87-2.25,60.32,3.45,0,27.31-18.75,24.61-21.45-6.6-6.76-2.4-18.91,4.65-25.21s16.81-8.11,26.11-9.31,19.06-2.25,26.86-7.35c-5.55,4.5-3.9,13.05-3.9,20.26a35.07,35.07,0,0,1-13.21,27.31,35.43,35.43,0,0,1-29.56,6.6c-4.35,5.4-8.7,10.95-12.75,16.66,10.35.3,19.66-3.45,30.76.9,10,4,18.46,12.9,21,23.41s-1,22.66-9.61,29.41c-9.45,7.35-22.35,7.5-34.36,8.25-14.4.9-35,6.15-34.66,24.31,6,2,13.2,3.75,18.45.15a31,31,0,0,0,4.06-3.75c12.75-12.46,33-11.41,50.57-8.55,8.1,1.35,22.21,3.45,22.21,16.8,0,24.31-31.22,26.71-48.17,23.56-15.61-2.85-28.66-11.25-44.72-11.85-1.35,0-2.7,0-3.6.9a4.25,4.25,0,0,0-.9,2.4c-.6,5.7,2.85,11.1,7.5,14.4S935,737.1,940.72,738c6.3,1,75,4.35,75-1.2C1015.3,743.85,1015.15,750.9,1015,758Z"/><path d="M1027.75,1118.09c2.25-5.25,2.4-10.95,4.5-16.2-11-3.6-34.66-7.2-34.36-9.31.45-2.25,23.41-1.2,34.21,1.05a73.71,73.71,0,0,0-3.6-24.15c-8.55,1-23.71,9.3-24.61,7-.75-1.2,12.91-12.76,20-18.31-3-5.4-12.61-17-13.81-17.11s-18.45,17.11-20.4,15c-1.21-1.2,9.75-13.51,14.55-20.56-6.6-6.75-14.1-12.15-21.46-17.85-3.6,9.3-8.4,29.11-9.9,28.21-1.65-1.05-.9-22.51-.75-31.22-8.86-2.55-17.11-4.8-26.26-6.6,2.25,6.3,9.45,26.26,7.65,30-2.25.75-15.46-26.86-17-28.36l-27.76,2.55c6.31,8.11,24.16,28.06,21.46,29.86-2.7,1.51-22.66-15.15-34.06-22.65-4.5,2.85-8.25,5.7-13.06,8,11,8.85,34.22,24.16,32.87,27-2.7,2.7-20.56-9.6-39.77-21.76-5.1,8.4-9.3,16.81-14.25,25.21,12,4,41.11,12.16,40.36,16.06-1.5,4-28.06-2.7-41.72-7.06-1.65,4.51-2.7,8.86-4.35,13.36,15.16,4.5,47.12,7,47.72,10-.45,3.15-29.26,1.8-43.82,2.7,1.2,2.11,4.06,14.41,4.06,14.41s5.4-.3,7.35-.45c10.5-.6,34.66-2,35-.75.6,2.55-24.76,9.75-36,12.15,4.8,2.86,17.41,8.56,17.41,8.56s15.15-4.2,28.51-7.81c1.05-.3,2.4.45,2.4,1.36,0,.6-.6,1-1.2,1.35-7.81,4.65-16.06,10.65-23.86,15.3,5.25,2.1,11.25,3.75,16.35,5.85,8.71-6.15,23.41-18.15,24.31-17.55,1.5.9-6.75,13.8-10.65,22.51,5.4,2.25,9.75,3.45,15.16,5.7,4.8-9.76,11.55-27.91,13.65-27.31,1.8.45.3,11.4-2.25,27.76,5.55,1.35,12.9,1.5,18.46,2.85.15-13.36-.45-37.22,1.2-36.61,2.7,0,5.55,21.45,8.7,33a63.92,63.92,0,0,1,23.26-7.35c-6.3-10.06-18.31-30-16.51-31.37,2.4-.6,13.06,17.41,21.61,24.31,5.25-3.9,11.86-10.8,17.11-14.85-8.85-6.16-18.16-11.56-17.56-13.81C1007.19,1109.39,1021.3,1114.94,1027.75,1118.09Zm-55.37-24.16c-3.45,6.76-9.76,11.86-17.11,10.81a43.67,43.67,0,0,1-7.65-1.8,24.46,24.46,0,0,1-12.16-8.71,18.57,18.57,0,0,1-3.45-12.75c.6-5,3.6-9.3,7.36-12.45,10.8-9.16,30.31-6.61,35.11,8.1C976.13,1082.38,975.08,1088.68,972.38,1093.93Z"/><text class="cls-2" transform="translate(101.16 113.75)">DOCUMEN<tspan class="cls-3" x="326.71" y="0">T</tspan><tspan x="364.78" y="0">A</tspan><tspan class="cls-4" x="410.83" y="0">L</tspan><tspan class="cls-5" x="449.28" y="0" xml:space="preserve"> INTE</tspan><tspan class="cls-6" x="628.26" y="0">R</tspan><tspan class="cls-7" x="671.38" y="0">A</tspan><tspan class="cls-8" x="716.08" y="0">C</tspan><tspan class="cls-5" x="762.24" y="0">TI</tspan><tspan class="cls-7" x="829.79" y="0">V</tspan><tspan x="874.06" y="0">O</tspan></text><path d="M146.71,1296.54v34.21a2.22,2.22,0,0,1-.29.89,1.1,1.1,0,0,1-.88.29h-6.61a2.13,2.13,0,0,1-.88-.29,1.08,1.08,0,0,1-.3-.89v-.44a6.07,6.07,0,0,1-2.94,1.77,8.86,8.86,0,0,1-3.52.58,12.77,12.77,0,0,1-9.4-4,14.21,14.21,0,0,1,0-19.39,12.32,12.32,0,0,1,9.4-4,9.34,9.34,0,0,1,3.52.59,11.76,11.76,0,0,1,2.94,1.76v-11.16a2,2,0,0,1,.3-.88,1.05,1.05,0,0,1,.88-.3h6.61a2.1,2.1,0,0,1,.88.3A2.13,2.13,0,0,1,146.71,1296.54Zm-19.38,22.61a5.23,5.23,0,0,0,1.46,3.82,5,5,0,0,0,7.35,0,5.7,5.7,0,0,0,0-7.64,5.14,5.14,0,0,0-8.81,3.82Z"/><path d="M160.22,1319.15a12.9,12.9,0,0,1,4.26-9.69,14.95,14.95,0,0,1,20.27,0,13.18,13.18,0,0,1,0,19.39,14.95,14.95,0,0,1-20.27,0A12.64,12.64,0,0,1,160.22,1319.15Zm9.11,0a5.23,5.23,0,0,0,1.46,3.82,5,5,0,0,0,7.35,0,5.7,5.7,0,0,0,0-7.64,5.14,5.14,0,0,0-8.81,3.82Z"/><path d="M215.88,1332.81a14.19,14.19,0,0,1-10.13-4,13.47,13.47,0,0,1,0-19.39,14.19,14.19,0,0,1,10.13-4,14.43,14.43,0,0,1,7.64,1.9,12.08,12.08,0,0,1,4.84,5.29,1.71,1.71,0,0,1,.15,1.47,1.54,1.54,0,0,1-1.18.88l-5,1.47a3.56,3.56,0,0,1-1.17.15c-.3,0-.74-.44-1.18-.88a4.07,4.07,0,0,0-1.76-1.33,6,6,0,0,0-2.2-.44,5,5,0,0,0-3.68,1.62,5.71,5.71,0,0,0,0,7.63,5,5,0,0,0,3.68,1.62,6,6,0,0,0,2.2-.44,5,5,0,0,0,1.76-1.32,1.76,1.76,0,0,1,1.32-.88,3.83,3.83,0,0,1,1.18.14l5,1.47a1.54,1.54,0,0,1,1.18.88,1.83,1.83,0,0,1-.15,1.47,12,12,0,0,1-4.85,5.29A25.47,25.47,0,0,1,215.88,1332.81Z"/><path d="M254.06,1324.73a3.16,3.16,0,0,0,2.65-1,4.45,4.45,0,0,0,.88-2.94v-13.51a.8.8,0,0,1,.44-.74,2.13,2.13,0,0,1,.88-.29h6.61a2.22,2.22,0,0,1,.88.29c.29.3.44.44.44.74v14.68a10.14,10.14,0,0,1-3.38,7.79c-2.2,2-5.43,3.08-9.25,3.08a14,14,0,0,1-9.4-3.08,10,10,0,0,1-3.52-7.79v-14.68a.8.8,0,0,1,.44-.74,2.13,2.13,0,0,1,.88-.29h6.61a2.22,2.22,0,0,1,.88.29c.29.3.44.44.44.74v13.51a3.78,3.78,0,0,0,1,2.94C251.86,1324.44,252.74,1324.73,254.06,1324.73Z"/><path d="M309.13,1313.28a3,3,0,0,0-2.49,1,4.2,4.2,0,0,0-.88,2.79v13.8a2,2,0,0,1-.3.88,1.06,1.06,0,0,1-.88.3H298a2.05,2.05,0,0,1-.88-.3,1.08,1.08,0,0,1-.29-.88v-13.8a4.26,4.26,0,0,0-.88-2.79,3.55,3.55,0,0,0-5,0,4.26,4.26,0,0,0-.88,2.79v13.8a2.13,2.13,0,0,1-.29.88,1.07,1.07,0,0,1-.88.3h-6.61a2,2,0,0,1-.88-.3,1.05,1.05,0,0,1-.3-.88v-23.5a2.1,2.1,0,0,1,.3-.88,1.08,1.08,0,0,1,.88-.29h6.61a2.22,2.22,0,0,1,.88.29,1.1,1.1,0,0,1,.29.88v1.91a9.26,9.26,0,0,1,3.09-2.79,7.63,7.63,0,0,1,4-1,8.59,8.59,0,0,1,4.41,1,6.48,6.48,0,0,1,2.79,2.79,9.73,9.73,0,0,1,3.67-2.93,11.63,11.63,0,0,1,4.7-.88,8.24,8.24,0,0,1,6.75,2.79,10.78,10.78,0,0,1,2.5,7.34v15.42a2.17,2.17,0,0,1-.29.88,1.11,1.11,0,0,1-.89.29h-6.6a2.07,2.07,0,0,1-.89-.29,1.09,1.09,0,0,1-.29-.88v-13.81a3.55,3.55,0,0,0-3.82-4Z"/><path d="M360.53,1327.82a11,11,0,0,1-4.7,3.67,16.8,16.8,0,0,1-6.75,1.32,14.23,14.23,0,0,1-10.14-3.82,13.18,13.18,0,0,1-4-9.69,13.77,13.77,0,0,1,3.67-10c2.5-2.64,5.73-3.81,9.84-3.81a12.72,12.72,0,0,1,9.55,3.67,12.42,12.42,0,0,1,3.67,9.1v1.47a2.85,2.85,0,0,1-.3,1.32,1.11,1.11,0,0,1-1,.44H344.23a4.62,4.62,0,0,0,1.76,2.79,5.13,5.13,0,0,0,3.38,1,7,7,0,0,0,2.5-.44,9.38,9.38,0,0,0,2.2-1.47,1.34,1.34,0,0,1,1-.44,1.39,1.39,0,0,1,1,.3l4.4,2.93a1.46,1.46,0,0,1,.59.74C360.83,1327.23,360.83,1327.52,360.53,1327.82Zm-16.3-12h8.67a4.42,4.42,0,0,0-1.47-2.5,4.51,4.51,0,0,0-2.79-.88,4.81,4.81,0,0,0-2.79.88A4.21,4.21,0,0,0,344.23,1315.78Z"/><path d="M388.44,1313.28a4.76,4.76,0,0,0-3.09,1.17,4.25,4.25,0,0,0-1.17,3.09v13.36a2,2,0,0,1-.3.88,1.05,1.05,0,0,1-.88.3h-6.61a2.1,2.1,0,0,1-.88-.3,1.08,1.08,0,0,1-.29-.88v-23.5a2.22,2.22,0,0,1,.29-.88,1.1,1.1,0,0,1,.88-.29H383a2.13,2.13,0,0,1,.88.29,1.07,1.07,0,0,1,.3.88v1.91a7.94,7.94,0,0,1,3.08-2.79,10.91,10.91,0,0,1,4.41-1,9.73,9.73,0,0,1,7.49,2.93c1.61,1.91,2.49,4.7,2.49,8.52v14.1a2,2,0,0,1-.29.88,1.1,1.1,0,0,1-.88.29h-6.61a2,2,0,0,1-.88-.29,1.06,1.06,0,0,1-.3-.88v-13.37a4.21,4.21,0,0,0-1.17-3.08A3.4,3.4,0,0,0,388.44,1313.28Z"/><path d="M427.35,1332.52a9.82,9.82,0,0,1-6.75-2.21c-1.77-1.46-2.5-3.52-2.5-6.16v-10.58h-2.64a2,2,0,0,1-.88-.29,1.06,1.06,0,0,1-.3-.88v-1.91a3.17,3.17,0,0,1,.15-1.32,3.5,3.5,0,0,1,.59-1l6.46-7.2a7.6,7.6,0,0,1,1.32-1.17,3.6,3.6,0,0,1,1.47-.3H426a2.05,2.05,0,0,1,.88.3,1.06,1.06,0,0,1,.3.88v5.29h5.72a2,2,0,0,1,.88.29,1.06,1.06,0,0,1,.3.88v5a2,2,0,0,1-.3.88c-.14.3-.58.3-.88.3h-5.72v8.66a2.15,2.15,0,0,0,.44,1.47,1.82,1.82,0,0,0,1.32.59,2.48,2.48,0,0,0,1-.15,4.79,4.79,0,0,0,1.32-.59,1.49,1.49,0,0,1,1.32-.29,2.27,2.27,0,0,1,1,.74l2.35,3.37a1.23,1.23,0,0,1,.29,1.18,1.36,1.36,0,0,1-.44,1,11.12,11.12,0,0,1-3.67,2.2A9.67,9.67,0,0,1,427.35,1332.52Z"/><path d="M467.3,1330.75v-.44a6.11,6.11,0,0,1-2.94,1.77,8.89,8.89,0,0,1-3.52.58,12.76,12.76,0,0,1-9.4-4,14.21,14.21,0,0,1,0-19.39,12.31,12.31,0,0,1,9.4-4,9.37,9.37,0,0,1,3.52.59,11.76,11.76,0,0,1,2.94,1.76v-.44a2,2,0,0,1,.29-.88,1.06,1.06,0,0,1,.88-.3h6.61a2.05,2.05,0,0,1,.88.3,1.05,1.05,0,0,1,.3.88v23.49a2.09,2.09,0,0,1-.3.89,1.09,1.09,0,0,1-.88.29h-6.61a2.17,2.17,0,0,1-.88-.29A1.24,1.24,0,0,1,467.3,1330.75ZM457,1319.15a5.2,5.2,0,0,0,1.47,3.82,5,5,0,0,0,7.34,0,5.7,5.7,0,0,0,0-7.64,5.14,5.14,0,0,0-8.81,3.82Z"/><path d="M490.79,1330.75v-34.21a2,2,0,0,1,.3-.88,1.06,1.06,0,0,1,.88-.3h6.61a2.1,2.1,0,0,1,.88.3,1.08,1.08,0,0,1,.29.88v34.21a2.07,2.07,0,0,1-.29.89,1.1,1.1,0,0,1-.88.29H492a2.17,2.17,0,0,1-.88-.29C490.79,1331.49,490.79,1331.2,490.79,1330.75Z"/><path d="M513,1319.15a12.9,12.9,0,0,1,4.26-9.69,14.94,14.94,0,0,1,20.26,0,13.16,13.16,0,0,1,0,19.39,14.94,14.94,0,0,1-20.26,0A13.17,13.17,0,0,1,513,1319.15Zm9.1,0a5.2,5.2,0,0,0,1.47,3.82,5,5,0,0,0,7.35,0,5.73,5.73,0,0,0,0-7.64,5,5,0,0,0-7.35,0A5.61,5.61,0,0,0,522.07,1319.15Z"/><path d="M555.12,1330.75v-34.21a2,2,0,0,1,.29-.88,1.06,1.06,0,0,1,.88-.3h6.61a2.05,2.05,0,0,1,.88.3,1.05,1.05,0,0,1,.3.88v34.21a2.09,2.09,0,0,1-.3.89,1.09,1.09,0,0,1-.88.29h-6.61a2.17,2.17,0,0,1-.88-.29A1.24,1.24,0,0,1,555.12,1330.75Z"/><path d="M578.61,1330.75v-34.21a2,2,0,0,1,.3-.88,1.05,1.05,0,0,1,.88-.3h6.61a2.1,2.1,0,0,1,.88.3,1.08,1.08,0,0,1,.29.88v34.21a2.07,2.07,0,0,1-.29.89,1.1,1.1,0,0,1-.88.29h-6.61a2.13,2.13,0,0,1-.88-.29A1.24,1.24,0,0,1,578.61,1330.75Z"/><path d="M620.32,1330.75v-.44a6.07,6.07,0,0,1-2.94,1.77,8.86,8.86,0,0,1-3.52.58,12.77,12.77,0,0,1-9.4-4,14.21,14.21,0,0,1,0-19.39,12.32,12.32,0,0,1,9.4-4,9.34,9.34,0,0,1,3.52.59,11.76,11.76,0,0,1,2.94,1.76v-.44a2.13,2.13,0,0,1,.29-.88,1.08,1.08,0,0,1,.89-.3h6.6a2.09,2.09,0,0,1,.89.3c.29.14.29.58.29.88v23.49a2.22,2.22,0,0,1-.29.89,1.11,1.11,0,0,1-.89.29h-6.6a2.22,2.22,0,0,1-.89-.29A1.29,1.29,0,0,1,620.32,1330.75ZM610,1319.15a5.2,5.2,0,0,0,1.47,3.82,5,5,0,0,0,7.34,0,5.7,5.7,0,0,0,0-7.64,5.14,5.14,0,0,0-8.81,3.82Z"/><path d="M657.18,1332.81a14.21,14.21,0,0,1-10.13-4,13.49,13.49,0,0,1,0-19.39,14.21,14.21,0,0,1,10.13-4,14.41,14.41,0,0,1,7.64,1.9,12,12,0,0,1,4.84,5.29,1.71,1.71,0,0,1,.15,1.47,1.54,1.54,0,0,1-1.17.88l-5,1.47a3.56,3.56,0,0,1-1.17.15c-.29,0-.74-.44-1.18-.88a4,4,0,0,0-1.76-1.33,6,6,0,0,0-2.2-.44,5,5,0,0,0-3.67,1.62,5.69,5.69,0,0,0,0,7.63,5,5,0,0,0,3.67,1.62,6,6,0,0,0,2.2-.44,4.86,4.86,0,0,0,1.76-1.32,1.78,1.78,0,0,1,1.33-.88,3.36,3.36,0,0,1,1.17.14l5,1.47a1.54,1.54,0,0,1,1.18.88,1.75,1.75,0,0,1-.15,1.47,12,12,0,0,1-4.84,5.29A25.53,25.53,0,0,1,657.18,1332.81Z"/><path d="M681.56,1319.15a12.9,12.9,0,0,1,4.26-9.69,14.94,14.94,0,0,1,20.26,0,13.16,13.16,0,0,1,0,19.39,14.94,14.94,0,0,1-20.26,0A13.17,13.17,0,0,1,681.56,1319.15Zm9.11,0a5.23,5.23,0,0,0,1.46,3.82,5,5,0,0,0,7.35,0,5.73,5.73,0,0,0,0-7.64,5.14,5.14,0,0,0-8.81,3.82Z"/><path d="M752.2,1313.28a3,3,0,0,0-2.5,1,4.2,4.2,0,0,0-.88,2.79v13.8a2.13,2.13,0,0,1-.29.88c-.15.3-.59.3-.88.3H741a2,2,0,0,1-.88-.3c-.3-.14-.3-.58-.3-.88v-13.8a4.2,4.2,0,0,0-.88-2.79,3.54,3.54,0,0,0-5,0,4.2,4.2,0,0,0-.88,2.79v13.8a2,2,0,0,1-.3.88c-.14.3-.58.3-.88.3h-6.61a2.1,2.1,0,0,1-.88-.3c-.29-.14-.29-.58-.29-.88v-23.5a2.08,2.08,0,0,1,.29-.88,1.1,1.1,0,0,1,.88-.29h6.61a2.13,2.13,0,0,1,.88.29,1.07,1.07,0,0,1,.3.88v1.91a9.33,9.33,0,0,1,3.08-2.79,7.66,7.66,0,0,1,4-1,8.53,8.53,0,0,1,4.4,1,6.43,6.43,0,0,1,2.79,2.79,9.81,9.81,0,0,1,3.67-2.93,11.63,11.63,0,0,1,4.7-.88,8.26,8.26,0,0,1,6.76,2.79,10.82,10.82,0,0,1,2.49,7.34v15.42a2,2,0,0,1-.29.88c-.15.29-.59.29-.88.29h-6.61a2,2,0,0,1-.88-.29c-.29-.15-.29-.59-.29-.88v-13.81a4.24,4.24,0,0,0-.89-2.79A4.08,4.08,0,0,0,752.2,1313.28Z"/><path d="M791.26,1324.73a3.13,3.13,0,0,0,2.64-1,4.39,4.39,0,0,0,.89-2.94v-13.51a.8.8,0,0,1,.44-.74,2.13,2.13,0,0,1,.88-.29h6.61a2.22,2.22,0,0,1,.88.29c.29.3.44.44.44.74v14.68a10.14,10.14,0,0,1-3.38,7.79c-2.2,2-5.43,3.08-9.25,3.08a14,14,0,0,1-9.4-3.08,10,10,0,0,1-3.53-7.79v-14.68a.81.81,0,0,1,.45-.74,2.13,2.13,0,0,1,.88-.29h6.61a2.22,2.22,0,0,1,.88.29c.29.3.44.44.44.74v13.51a3.82,3.82,0,0,0,1,2.94A2.72,2.72,0,0,0,791.26,1324.73Z"/><path d="M831.35,1313.28a4.75,4.75,0,0,0-3.08,1.17,4.21,4.21,0,0,0-1.18,3.09v13.36a2,2,0,0,1-.29.88c-.15.3-.59.3-.88.3h-6.61a2.05,2.05,0,0,1-.88-.3c-.29-.14-.29-.58-.29-.88v-23.5a2.08,2.08,0,0,1,.29-.88c.15-.29.59-.29.88-.29h6.61a2.17,2.17,0,0,1,.88.29c.29.15.29.59.29.88v1.91a7.41,7.41,0,0,1,3.24-2.79,10.9,10.9,0,0,1,4.4-1,9.72,9.72,0,0,1,7.49,2.93c1.62,1.91,2.5,4.7,2.5,8.52v14.1a2.05,2.05,0,0,1-.3.88c-.14.29-.58.29-.88.29h-6.61a2.08,2.08,0,0,1-.88-.29c-.29-.15-.29-.59-.29-.88v-13.37a4.17,4.17,0,0,0-1.18-3.08A3.83,3.83,0,0,0,831.35,1313.28Z"/><path d="M869.83,1326.94a6,6,0,1,1-1.76-4.12A5.59,5.59,0,0,1,869.83,1326.94Z"/><path d="M897,1332.81a14.23,14.23,0,0,1-10.14-4,13.49,13.49,0,0,1,0-19.39,14.23,14.23,0,0,1,10.14-4,14.4,14.4,0,0,1,7.63,1.9,12,12,0,0,1,4.85,5.29,1.78,1.78,0,0,1,.15,1.47,1.54,1.54,0,0,1-1.18.88l-5,1.47a3.59,3.59,0,0,1-1.18.15c-.29,0-.73-.44-1.17-.88a4.07,4.07,0,0,0-1.76-1.33,6,6,0,0,0-2.21-.44,5,5,0,0,0-3.67,1.62,5.69,5.69,0,0,0,0,7.63,5,5,0,0,0,3.67,1.62,6,6,0,0,0,2.21-.44,5,5,0,0,0,1.76-1.32,1.76,1.76,0,0,1,1.32-.88,3.83,3.83,0,0,1,1.18.14l5,1.47a1.51,1.51,0,0,1,1.17.88,1.78,1.78,0,0,1-.14,1.47,12.05,12.05,0,0,1-4.85,5.29A26.29,26.29,0,0,1,897,1332.81Z"/><path d="M921.23,1319.15a12.9,12.9,0,0,1,4.26-9.69,14.94,14.94,0,0,1,20.26,0,13.16,13.16,0,0,1,0,19.39,14.94,14.94,0,0,1-20.26,0A13.17,13.17,0,0,1,921.23,1319.15Zm9.1,0a5.2,5.2,0,0,0,1.47,3.82,5,5,0,0,0,7.35,0,5.73,5.73,0,0,0,0-7.64,5,5,0,0,0-7.35,0A5,5,0,0,0,930.33,1319.15Z"/><path d="M991.87,1313.28a3,3,0,0,0-2.5,1,4.2,4.2,0,0,0-.88,2.79v13.8a2.13,2.13,0,0,1-.29.88c-.15.3-.59.3-.89.3h-6.6a2.09,2.09,0,0,1-.89-.3c-.29-.14-.29-.58-.29-.88v-13.8a4.2,4.2,0,0,0-.88-2.79,3.54,3.54,0,0,0-5,0,4.2,4.2,0,0,0-.88,2.79v13.8a2,2,0,0,1-.3.88c-.14.3-.59.3-.88.3H965a2.05,2.05,0,0,1-.88-.3c-.29-.14-.29-.58-.29-.88v-23.5a2.08,2.08,0,0,1,.29-.88,1.09,1.09,0,0,1,.88-.29h6.61a2.17,2.17,0,0,1,.88.29,1.07,1.07,0,0,1,.3.88v1.91a9.23,9.23,0,0,1,3.08-2.79,7.63,7.63,0,0,1,4-1,8.54,8.54,0,0,1,4.41,1,6.43,6.43,0,0,1,2.79,2.79,9.81,9.81,0,0,1,3.67-2.93,11.63,11.63,0,0,1,4.7-.88,8.26,8.26,0,0,1,6.76,2.79,10.82,10.82,0,0,1,2.49,7.34v15.42a2,2,0,0,1-.29.88c-.15.29-.59.29-.88.29h-6.61a2,2,0,0,1-.88-.29c-.29-.15-.29-.59-.29-.88v-13.81a4.24,4.24,0,0,0-.89-2.79A4.1,4.1,0,0,0,991.87,1313.28Z"/></g></svg>