<svg xmlns="http://www.w3.org/2000/svg" viewBox="0 0 1080 1364.97"><defs><style>.cls-1{fill:#050100;}.cls-2{fill:none;stroke:#000;stroke-miterlimit:10;stroke-width:10px;}</style></defs><g id="Layer_4" data-name="Layer 4"><path d="M145.62,576c-5.34,8.2-5.72,17.13-2.8,26.15,1.58,4.91,4,9.56,6.15,14.27,1.74,3.83,2.9,7.72,2.53,12A13.43,13.43,0,0,1,139.21,641a13.48,13.48,0,0,0-12.31,13.52c-.14,8.38,0,16.76,0,25.14v142c0,17.56,0,35.12,0,52.67,0,7.91,5.1,13.64,12.73,14.22,4.84.36,8,3,10.19,7,2.61,4.82,2.3,9.89.34,14.83-1.27,3.18-2.87,6.23-4.34,9.33-2.7,5.7-4.7,11.59-4.66,18,0,7.93,2.4,14.94,8.3,20.44,5.4,5,11.78,7.41,19.18,5.86,10.43-2.2,18.15-11.39,19.26-22.56.76-7.63-1.16-14.66-4.38-21.49-1.91-4.05-4-8.09-5.26-12.36-2.67-9.24,2.61-17.47,10.75-19.29,7.62-1.71,11.11-6.72,11.11-14.57V656.29c0-8.52-3.67-13.24-12-15.37a14,14,0,0,1-10.4-11.72c-.65-4.56.57-8.73,2.42-12.8,2-4.41,4.33-8.71,5.88-13.27,3.22-9.45,3.06-18.8-2.67-27.41C173.91,561.53,154.93,561.66,145.62,576Z"/><path d="M466.09,510.68c-29.63-2.93-59.76-1.86-89-3.62-33.7-2-69-5.81-102.17-10.46-17.34-2.44-42.07-2.12-57.2,8.67-8.11,5.78-16.62,18.69-14.67,30.29,1.81,10.77,10,24.19,19.86,27.26,13.77,4.31,29.78,3.6,43.86,1.72,66.74-8.89,133.28-24.18,200-35.79,8.3,22,29.15,36.24,49.94,39.32,17.25,2.55,33.74-.18,50.36-6.57,14.38-5.53,27.95-17.19,37.59-30s1-31.41-10-40.22c-16.23-13-41.08-23.92-60.79-26.14-28.81-3.25-51.38,23.49-67.81,45.54"/><path d="M829.78,649.86c5-4.73,9.73-10.33,11-15.35,1.63-6.53-.81-13.77-6-20.38s-14.26-13-22.54-15.07a.57.57,0,0,1,0,.18,160.41,160.41,0,0,0-13.86-14.11c-16.41-14.57-33.28-22.59-54.56-26.91h0l-.84-.17c-1.23-.23-2.51-.42-3.77-.62a16.25,16.25,0,0,1-4.71,2.25l-18.74-3.09c-1.06-.5-2.21-1-3.27-1.67-2.55-.11-5.13-.22-7.64-.2h0c-11.31,0-22,.75-32.92,3.15-13.51,3-26.25,12-37,21.06v-.1c-13,.64-29,10.24-34.71,22.13-2.52,5.23-1.85,13.35,1.5,21.42-4.32.17-8.76,1.18-11.69,3.26a19.09,19.09,0,0,0-7.73,12.92c-.45,3.12-.1,6.7,2,9.32,1.68,2.14,4.2,3.31,6.64,4.31a142.79,142.79,0,0,0,24,7.51c2.21,23.77,3.38,52.06,21.71,69.32,10.53,9.92,24.38,17.35,38,22.32,35.25,12.82,84.72,20.35,113.34-11.08,12.55-13.76,17-38.17,23.14-55.22,2.67.64,5,.25,7.9.52,8.22,0,19.59-2.52,25.27-9.08,9.81-11.31-3.75-24.35-14.47-26.62m-128.87-87a16.53,16.53,0,0,1,3.6-.2c.27,0,1.81-.07,4.13-.11a6.42,6.42,0,0,0,.6.42l.08,0,.07,0c.29.18.58.36.88.52l.91.49c.61.32,1.22.61,1.8.88h0a4.64,4.64,0,0,0-.53,0h-.15l-.39,0h-2.12c-.39,0-.81,0-1.25,0l-.47,0-.36,0-.68,0-.37,0c-.68.06-1.38.14-2.08.25l-.67.11a3.1,3.1,0,0,0-.53.1c-.36.07-.73.14-1.08.23s-.72.18-1.06.27l-.24.08-.43.14a6.05,6.05,0,0,0-.64.24l-.32.13-.2.08-.52.24a4.82,4.82,0,0,0-.5.27l-.19.11-.42.27a6.18,6.18,0,0,0-.79.62l-.36.34c-.11.13-.22.25-.32.38a2.43,2.43,0,0,0-.14.2,4.56,4.56,0,0,0-.74,1.61c0,.15-.06.29-.09.44s0,.27,0,.41v.2h0a1.34,1.34,0,0,0,0,.2,2.83,2.83,0,0,0,.09.65,1.68,1.68,0,0,0,.09.32,3.34,3.34,0,0,0,.17.44,3.78,3.78,0,0,0,.17.35,5.86,5.86,0,0,0,.7,1l.53.58a5.92,5.92,0,0,0,.45.41l.49.41c.29.23.59.44.91.65l.5.32a18.77,18.77,0,0,0,1.84,1,3.88,3.88,0,0,0,.46.22l.48.24,1,.43c.48.2,1,.38,1.46.57.1,0,.21.08.31.12l.63.23.8.27c.34.13.69.24,1,.35l.07,0,.9.27.15,0,.76.22.9.25,1.39.36c.93.24,1.84.44,2.73.64l1.32.27c.34.07.69.14,1,.19l1,.19h0l.9.15c1.06.17,2,.31,2.84.4,2.12.25,5.25.54,8.67.65l1,0c.93,0,1.9,0,2.85,0l1.73,0,.32,0,.82,0,.57,0c.37,0,.75-.06,1.12-.11.55,0,1.11-.11,1.65-.19.72-.11,1.42-.23,2.09-.37h0l1-.23q.5-.12,1-.27l.78-.26.28-.11a4.78,4.78,0,0,0,.48-.19,5.46,5.46,0,0,0,.6-.27l.07,0a6.25,6.25,0,0,0,.63-.33,8.6,8.6,0,0,0,1.28-.9l.37-.34a5.17,5.17,0,0,0,.49-.56,3,3,0,0,0,.32-.47,5,5,0,0,0,.26-.46c.09-.21.18-.44.26-.68a4.44,4.44,0,0,0,.18-.74,4.78,4.78,0,0,0,0-1.36,4.34,4.34,0,0,0-.09-.54,3.51,3.51,0,0,0-.15-.53,2.67,2.67,0,0,0-.2-.46,4.16,4.16,0,0,0-.67-1.05,3,3,0,0,0-.31-.39l-.33-.32c-.11-.11-.24-.22-.36-.32s-.2-.16-.31-.25a4.91,4.91,0,0,0-.44-.31l-.54-.35-.44-.26c-.31-.16-.62-.32-1-.47s-.79-.35-1.19-.51a26.38,26.38,0,0,0-2.61-.83l-.73-.19-1-.24-.68-.14-.65-.12c-.32-.06-.64-.1-.93-.16-.76-.11-1.44-.2-2-.26-1-.13-1.71-.17-1.83-.18h0c.46-.14.92-.31,1.37-.49l.54-.23a5.29,5.29,0,0,0,.54-.25l.71-.35.5-.28a6.18,6.18,0,0,0,.64-.4,1.75,1.75,0,0,0,.29-.18c.21-.13.41-.27.6-.41s.2-.15.31-.25c2.33.52,3.78.93,3.78.94,3.73,1,8.12,2.53,11,5.37a10.44,10.44,0,0,1,2.78,4.47c1.73,5.73-4.12,9.94-8.79,11.65-8.88,3.26-19.07,3.25-28.35,2.27-7.5-.81-15.2-2.44-21.82-6.16-4.17-2.35-11-7.34-10.25-12.87.68-4.61,8.59-7.51,13.43-8.36m-99.31,82a23.82,23.82,0,0,1-5.4-2.62,8.65,8.65,0,0,1-4.06-4.36,5.18,5.18,0,0,1,1.87-6.17c2-1.26,4.76-.9,7.29-.48,1.81.27,2.72.63,4.64.87a53.42,53.42,0,0,0,7.45,8.63c.11,2.08,0,4,.15,6.12-4,.13-8-.93-11.94-2m36,25.16c-.9,2.19-2.51,4.39-4.85,4.74-2.72.41-5.22-2-5.93-4.64s-.08-5.46.53-8.14l0,.15a5.26,5.26,0,0,1,5.71-4.06,6.4,6.4,0,0,1,5.19,4.7,11.14,11.14,0,0,1-.67,7.25m20.22,12.87a5.68,5.68,0,0,1-3.57,3,5.42,5.42,0,0,1-5.4-2.25,8.85,8.85,0,0,1-1.43-5.9c.25-3.35,1-8.75,5.49-7.27,2.31.75,4.88,1.76,5.83,4a7.65,7.65,0,0,1,.3,3.78,12.51,12.51,0,0,1-1.22,4.63m27.32,6.39a5.2,5.2,0,0,1-4,3.13c-6.71.69-6.08-9.57-3.84-13.29,3.49-5.76,8.48.39,8.63,5a11.55,11.55,0,0,1-.81,5.19m23.51,6.37a5,5,0,0,1-5.68,1.49c-4.31-1.92-3.53-9.07-1-12.11,3.19-3.79,7,1.24,7.84,4.67a6.76,6.76,0,0,1-1.2,6m23,4.22a4.91,4.91,0,0,1-6.89-.5c-2.28-2.94-.84-9.66,3.54-9.4,4.68.28,6.75,6.89,3.35,9.9M756,696.66c-5.49,5.16-12.33-3.88-7.42-8.66s12.51,3.88,7.42,8.66m22.62-2.21a4.86,4.86,0,0,1-3.88,2.77c-6.67.47-6.27-8.85-4.12-12.17,3.33-5.16,8.44.54,8.68,4.7a9.35,9.35,0,0,1-.68,4.7m20.95-9.54c-5.48,5.16-12.33-3.88-7.42-8.65s12.51,3.87,7.42,8.65m12.1-28.68c-27.53,18.27-68.81,19-101.47,15.71-34.63-3.49-71.77-16-96.9-41.18-5.56-7.53-10.91-19-7.31-27.62,2.94-6.95,12.47-13.51,19.93-16.14-2.08,2-4.28,5.29-6.19,7.39-8.88,9.76-6.13,26,3.71,34.7a87,87,0,0,0,23,14.17c48.39,20.06,98.83,27.51,146.07,11.62,11.29-3.79,23.07-10.39,29.15-21.84,3.64-6.87,1.1-17.46-.73-20.87a.76.76,0,0,1,1.18-.92,32,32,0,0,1,6.51,6.21c4,5.11,5.63,10.6,4.26,14.9-3,9.31-12.9,18.35-21.24,23.87m3.51,16.49c1.47-4.69,2.82-9.33,4-13.88,7.11.48,15.85-2.33,16.42,4.32,1.3,9-10.7,7.63-20.44,9.56"/><path d="M750.1,576.25a4.34,4.34,0,0,0-.09-.54,3.51,3.51,0,0,0-.15-.53,3.71,3.71,0,0,0-.19-.46,4.5,4.5,0,0,0-.68-1.05,2.88,2.88,0,0,0-.32-.39c-.1-.11-.2-.21-.32-.32s-.24-.22-.36-.32a2.6,2.6,0,0,0-.31-.25,4.91,4.91,0,0,0-.44-.31l-.54-.35c-.14-.09-.29-.17-.44-.25-.31-.17-.62-.33-1-.48s-.79-.35-1.19-.51a26.38,26.38,0,0,0-2.61-.83l-.73-.19-1-.24-.68-.14-.65-.12c-.32-.06-.64-.1-.93-.16-.76-.11-1.44-.2-2-.26-1-.13-1.71-.17-1.83-.18h0c.46-.14.92-.31,1.37-.49.18-.07.36-.14.54-.23a5.29,5.29,0,0,0,.54-.25l.71-.35.5-.28c.22-.12.43-.25.64-.39a2.9,2.9,0,0,0,.29-.19c.21-.13.41-.27.6-.41s.2-.15.31-.25a125.16,125.16,0,0,0-14.59-2.44,146.55,146.55,0,0,0-15.87-.56,6.42,6.42,0,0,0,.6.42l.08,0,.07,0c.29.18.58.36.88.52l.91.49c.61.32,1.22.61,1.8.88h0a4.64,4.64,0,0,0-.53,0h-.15l-.39,0h-2.12c-.39,0-.81,0-1.25,0l-.47,0-.36,0-.68,0-.37,0c-.68.06-1.38.14-2.08.25l-.67.11a3.1,3.1,0,0,0-.53.1c-.36.07-.73.14-1.08.23s-.72.18-1.06.27l-.24.08-.43.14a6.05,6.05,0,0,0-.64.24l-.32.13-.2.08-.52.24a4.82,4.82,0,0,0-.5.27l-.19.11-.42.27a6.18,6.18,0,0,0-.79.62l-.36.34c-.11.13-.22.25-.32.38l-.14.2a4.56,4.56,0,0,0-.74,1.61c0,.15-.06.29-.09.45s0,.26,0,.4v.2h0a1.34,1.34,0,0,0,0,.2,2.83,2.83,0,0,0,.09.65,1.68,1.68,0,0,0,.09.32,3.34,3.34,0,0,0,.17.44,3.78,3.78,0,0,0,.17.35,5.86,5.86,0,0,0,.7,1l.53.58a5.92,5.92,0,0,0,.45.41l.49.41c.29.23.59.44.91.65l.5.32a18.77,18.77,0,0,0,1.84,1c.15.08.3.16.46.23a5.24,5.24,0,0,1,.48.23l1,.43,1.46.57c.1,0,.21.08.31.12l.63.23.8.27c.34.13.69.24,1,.35l.07,0,.9.27.15,0,.76.22.9.25,1.39.36c.93.24,1.84.44,2.73.64l1.32.27c.34.07.69.14,1,.19l1,.19h0l.9.15c1.06.17,2,.31,2.84.4,2.12.25,5.25.54,8.67.65l1,0c.93,0,1.89,0,2.85,0,.58,0,1.15,0,1.73,0l.32,0,.82,0,.57,0,1.12-.1c.55-.06,1.11-.12,1.65-.2.72-.11,1.42-.23,2.09-.37h0l1-.23q.5-.12,1-.27l.78-.26a1.62,1.62,0,0,0,.28-.11,4.78,4.78,0,0,0,.48-.19,5.46,5.46,0,0,0,.6-.27l.07,0a6.25,6.25,0,0,0,.63-.33,8.6,8.6,0,0,0,1.28-.9l.37-.34a6.23,6.23,0,0,0,.49-.55,3.64,3.64,0,0,0,.32-.48c.09-.14.18-.3.26-.45s.18-.45.26-.69a4.44,4.44,0,0,0,.18-.74,4.78,4.78,0,0,0,0-1.36"/><path d="M750.08,577.61c-1.24,8.32-21.21,6.86-28.72,6s-27.15-5.1-26.05-12.45S713,564.94,713,564.94c-1.17-.56-2.43-1.18-3.6-1.89a9,9,0,0,1-.74-.52,10,10,0,0,1-3-3.14,7.17,7.17,0,0,1-.85-4.67,9,9,0,0,1,1.77-4.19c6.65-8.71,21.63-7.63,30.24-3,3.72,2,7.68,6.17,7,10.67,0,.16-.05.31-.08.46a11.87,11.87,0,0,1-4.56,6.86l-.3.24a17.86,17.86,0,0,1-5.2,2.6s17.72.91,16.49,9.23"/><path d="M667.4,1030c-1.12,7.5-2.88,14.92-4.62,22.3-6.07,25.71-11.15,56.07-17.22,81.77q48,.56,96-.06c-.67-.38-1.35-.82-2-1.23a72.4,72.4,0,0,1-8.84-6.39,59.18,59.18,0,0,1-12.61-15.87,71.35,71.35,0,0,1-3.38-6.78c-4.24.86-8.38,2.27-12.69,2.64-12,1-24.21-7.47-27.39-19.14a19,19,0,0,1-.66-7.15A15.88,15.88,0,0,1,685.63,1067a17.43,17.43,0,0,1,16.87,5.31c2.14,2.39,3.6,5.32,5.17,8.12.45.82.92,1.6,1.4,2.4a65.23,65.23,0,0,1-.42-7.12c0-9.57,1.68-19.07,2.06-28.63-1.13.43-2.26.85-3.42,1.19-5.82,1.78-12.19,2.33-18,.45s-10.87-6.51-12.29-12.42,1.52-12.89,7.17-15.14a14.74,14.74,0,0,1,10.69.37,36.71,36.71,0,0,1,9.27,5.77c1.9,1.49,3.75,3.05,5.58,4.62-.23-1-.44-1.94-.69-2.89a67.08,67.08,0,0,0-2.37-7.27c-.27-.67-.53-1.33-.82-2l-.09-.18c-.46-1-.94-2-1.45-2.9a78.45,78.45,0,0,0-4.15-6.79c-.77-1.09-1.54-2.17-2.36-3.22l-.18-.23-.93-1.08a64,64,0,0,0-5.47-5.45c-2.4-2.14-4-4.65-5.87-7.21a7.4,7.4,0,0,1,.35-8.7,8.78,8.78,0,0,1,6.34-2.49,28.1,28.1,0,0,1,6.52.77,22.24,22.24,0,0,1,7.07,4.29,64.75,64.75,0,0,1,6.54,6.07,72.76,72.76,0,0,1,11.44,15.7,81.32,81.32,0,0,1,5.3,12.3c.93-5.2.67-10.55,1.32-15.8.69-5.43,2.64-11.08,7-14.33,5.6-4.15,13.78-3.16,19.6.65a11.39,11.39,0,0,1,3.44,3.26c1.53,2.45,1.45,5.59,1,8.44-2,12.66-10.44,23.67-20.9,31.09a44.68,44.68,0,0,1-7.76,4.44c.1,1.19.2,2.39.26,3.59.24,6.27-.58,12.5-1.32,18.7-.17,1.44-.34,2.86-.5,4.28-.09.66-.16,1.32-.24,2,0,.21-.05.46-.09.67a.23.23,0,0,0,0,.07,75.69,75.69,0,0,0-.59,8c-.18,2.86-.36,5.7-.3,8.56,0,.71.08,1.43.13,2.13,1.36-5,2.25-10.12,3.37-15.15,2-9.15,5.35-18.68,12.84-24.3a12,12,0,0,1,5.14-2.42c2.82-.45,5.68.65,8.08,2.2,6.59,4.23,10.7,13,7.52,20.17-1.75,3.94-5.31,6.75-8.74,9.37q-13,10-26.05,20l-.47.35c.2.72.4,1.46.62,2.17.45,1.35.93,2.71,1.45,4,.29.71.59,1.42.89,2.13.08.15.34.72.5,1.08s.24.5.27.58c.16.28.31.58.47.89.3.59.64,1.18,1,1.77.64,1.16,1.29,2.34,2,3.49,1.43,2.39,2.75,4.84,4.19,7.23s2.9,4.9,4.42,7.32c1.33,2.12,2.89,4.14,3.41,6.59q17.2-.26,34.37-.68v-.66a222.46,222.46,0,0,0-3.44-32.88c6.66-1,10.51-4.43,15.18-9.29s8.2-10.67,11.68-16.44c6.66-11,13.44-22.32,15.59-35,2.54-14.86-1.57-30-6.12-44.4-1.55-4.91-3.19-9.88-6.16-14.08-4.48-6.32-11.67-10.38-19.19-12.2a51.17,51.17,0,0,0-11.49-1.34c-3.95.14-7.89-.91-11.89,1a173.14,173.14,0,0,0,1.37-22.73,187.9,187.9,0,0,1-31.55,3.27c-3.53.09-7.07.11-10.6.06-28.12-1.52-54.63-13.82-82.49-4.39,15.72,6.19,32.3,21.31,25.65,38.67a82.67,82.67,0,0,0-1.44,9.31c-1.35,12.57-1.07,25.59-2.92,37.88m112,25.88c.06-.85.12-1.71.16-2.57s.06-1.77,0-2.68c-.37-22.66-1.87-46.11-3.79-68.67,7.81,1.67,16,3.94,21.44,9.79a25.11,25.11,0,0,1,4.83,7.75,42.19,42.19,0,0,1,1.51,4.4c.42,1.5.77,3,1.09,4.57s.58,3.1.82,4.63c.08.51.17,1,.25,1.53,1,6.19,1.88,12.47,1.14,18.69-.12,1-.3,2.08-.5,3.09-.32,1.54-.72,3.06-1.18,4.57s-1,3-1.57,4.44-1.16,2.84-1.79,4.22c-.33.7-.67,1.4-1,2.08-.71,1.37-1.45,2.71-2.27,4a42.75,42.75,0,0,1-4.12,5.49h0c-.5.55-1,1.08-1.54,1.59v0a32.69,32.69,0,0,1-6.19,4.74c-.32.19-.65.36-1,.54-.66.35-1.33.66-2,1a22.19,22.19,0,0,1-4.22,1.39h0l-.21,0a.72.72,0,0,0,.21,0c-.24-1.5-.38-2.9-.46-4.22a48.74,48.74,0,0,1,0-6.31,0,0,0,0,1,0,0c.08-1.35.19-2.64.29-3.94v-.06"/><path d="M984.33,1063.87c-7.94,8.8-20.55,12.67-31.73,8.78a.74.74,0,0,0-.84.25,16.58,16.58,0,0,1-1.11,1.37c3.57-4.56,7.63-8.87,10.44-14,2.94-5.33,6.16-11.13,7.67-17.17a48.59,48.59,0,0,0,.9-18.65c-.71-4.67-3.22-9.46-6.2-13.48a.75.75,0,0,0-1.32.68,48.08,48.08,0,0,1,2.22,12.86,62.65,62.65,0,0,1-1.88,17.09,117.84,117.84,0,0,1-5.57,16.61c-2.19,5.4-4.64,10.74-6.69,16.36l0,0a20.19,20.19,0,0,1-14.64,6.25c-6.07-.12-11.88-3.59-15.48-8.52a.75.75,0,0,1,.2-1.06,49,49,0,0,0,11.38-11.21,55,55,0,0,0,9-19.21,55.64,55.64,0,0,0,1.11-21.18c-.86-5.92-4.08-16.1-6.2-18.85a.76.76,0,0,0-1.37.43c-.13,3.36,2.13,13.3,2,18.79a81.38,81.38,0,0,1-9.33,37.06,110.1,110.1,0,0,1-10.76,16.6.78.78,0,0,1-.26.22,19.39,19.39,0,0,1-12.79,2,18.5,18.5,0,0,1-10.69-6.78.77.77,0,0,1-.18-.45c-.48-6.53,0-12.49.24-18.76s2.07-12.45,3.31-18.66a122.71,122.71,0,0,1,5.08-18c1.82-5.14,5.73-13.2,6.13-17.16a.76.76,0,0,0-1.26-.65,52.57,52.57,0,0,0-11.32,14.83,68.24,68.24,0,0,0-6.75,19.18c-1.31,6.68-3.33,14-2.6,20.79.68,6.56,1.63,13.42,7,18.44-.71-.94-1.6-1.39-2.14-2.4a10,10,0,0,0-.63-.87c-6.49,2.06-13.86,0-19.27-4.21-4.91-3.82-8.42-9.32-10.92-15.09a.82.82,0,0,1-.06-.38,135,135,0,0,1,2.21-16.64A99.56,99.56,0,0,1,873,998.37a126.45,126.45,0,0,1,7.77-11.57.76.76,0,0,0-1-1.12,44,44,0,0,0-11.31,9.43,53.52,53.52,0,0,0-9.27,15.62,52,52,0,0,0-3.53,17.82,43.44,43.44,0,0,0,2,14.28.75.75,0,0,1-.75,1c-18.42-1.44-24-23.76-21.9-39.52,5.71-42.24,52.67-40.82,80.79-60.06,11.51-7.89,22.64-32,27.21-70.48a.78.78,0,0,1,.52-.65A19.59,19.59,0,0,1,964,878.7a.74.74,0,0,1,.12.86c-5.29,10.53-6.55,23.91-7.87,35.38-1.59,13.84-2.75,27.28,1.93,40.69,8,23.08,27.26,40.2,33.81,64.07,4,14.57,2.95,32.47-7.63,44.17"/><path d="M965.94,751.62c-38.8,4.42-108.87,17.93-124-32.88-10.71-36.06,21.91-65.23,55.14-69.24,6.68-.81,13.62-.86,19.77-3.59s11.35-9.22,9.9-15.79c-1.57-7.06-9.67-10.56-16.87-11.18-10.43-.91-20.85,1.85-31.32,1.78-17.22-.1-27.3-9.62-29.76-26.26a165.34,165.34,0,0,1-.46-45c.66-5.2.32-14.07,5.32-16.76,4.78-2.57,15.06-1,20.46-.22-7.72,9.86-3.5,55.18-2.24,61.8,3.57,0,28-19.28,25.2-22.07-6.74-6.85-2.48-19.41,4.7-25.8s17.2-8.29,26.73-9.58,19.48-2.33,27.57-7.52c-5.73,4.6-4,13.46-4,20.81A35.74,35.74,0,0,1,908.25,585c-4.42,5.6-9,11.18-13.07,17,10.62.32,20.22-3.56,31.48,1,10.37,4.19,18.9,13.21,21.56,24.08s-1.08,23.28-9.9,30.17c-9.68,7.56-23,7.63-35.26,8.43-14.74,1-35.83,6.29-35.57,24.89,6.22,2,13.51,3.91,18.9.2a31.86,31.86,0,0,0,4.14-3.83c13-12.78,33.92-11.72,51.92-8.72,8.23,1.38,22.72,3.55,22.72,17.18,0,24.91-32.06,27.37-49.46,24.23-16-2.88-29.34-11.56-45.85-12.16-1.32,0-2.81,0-3.73.91a4.06,4.06,0,0,0-.93,2.46c-.62,5.8,2.93,11.44,7.72,14.77s10.64,4.74,16.39,5.71c6.47,1.09,76.91,4.43,77-1.21Q966.13,740.85,965.94,751.62Z"/><path class="cls-1" d="M158.61,1155.13c5.74,0,11.25-2.07,17-2.08-1-11.72-6.85-35.47-4.8-36,2.27-.41,10.26,21.6,12.47,32.67a75.36,75.36,0,0,0,21.27-12.9c-4.3-7.63-18-18.63-16.37-20.38.81-1.25,17.07,7.08,25.14,11.58,3.93-5,11-18.53,10.67-19.65s-23.3-10.68-22.15-13.36c.6-1.56,16.5,3.85,25,5.59,3.73-8.85,5.95-18,8.38-27.3-10.15.3-30.67,3.58-30.41,1.76.4-2,20.83-9.72,29.05-13-1-9.33-2.23-18-4.12-27.24-5,4.59-21,19.22-25.23,19-1.66-1.86,19.28-25.12,20-27.11l-13.31-25.06c-5.14,9.17-16.91,33.73-19.61,32-2.45-2,5.3-27.33,7.91-41-4.45-3.12-8.63-5.6-12.7-9.18-4.09,13.77-9.29,41.64-12.55,41.51-3.57-1.54.89-23.11,4.88-46-9.89-1.44-19.47-2.15-29.36-3.57.94,12.94,4.74,43.5.69,44.31-4.47.2-8.55-27.51-9.79-42.09-4.9.3-9.38.89-14.26,1.21,1.71,16.11,12,47.16,9.35,48.91-3.1.85-13.2-26.81-19.8-40.2-1.56,2-11.9,9.48-11.9,9.48s2.45,4.93,3.31,6.69c4.73,9.6,15.44,31.87,14.47,32.61-2.13,1.56-18.94-19.49-25.61-29.1C95.5,1012.89,95,1027,95,1027s10,12.68,18.55,23.73c.66.83.58,2.44-.41,2.76a2,2,0,0,1-1.71-.58c-7.48-5.53-16.3-10.87-23.8-16.4.09,5.71.85,12,.94,17.73,9.22,5.79,26.27,14.9,26,16-.2,1.73-15.69-.9-25.38-1.25,0,6,.55,10.61.6,16.58,11.07.63,30.79-.16,31.09,2.13.27,1.85-10.57,4.74-27,8.8.89,5.73,3.7,12.75,4.59,18.49,12.64-5.1,34.87-15,35-13.24,1.08,2.49-18,13.7-27.74,21.15a65.9,65.9,0,0,1,16,19.07c7-9.81,21.13-29,23-27.86,1.56,2.06-11.26,19-14.48,29.86,5.82,3.43,14.84,6.85,20.65,10.28,2.28-10.67,3.77-21.68,6.06-22C158.72,1132.32,159.08,1147.8,158.61,1155.13Zm1-61.57c-7.73-.58-15.05-4.49-16.91-11.86a40.94,40.94,0,0,1-1.27-7.94,25.35,25.35,0,0,1,3.42-14.85,18.82,18.82,0,0,1,10.61-8.3c4.89-1.33,10.13-.27,14.58,2,12.85,6.53,18.08,26,6.11,36.26C172,1092.43,165.68,1094,159.62,1093.56Z"/><path d="M334.65,652.17q-3.72.21-14.68.32t-13.59-.1a2.12,2.12,0,0,0-2.41,2.4q0,89.21-.88,101.47-.21,2.85-1.2,3.84a5.89,5.89,0,0,1-3.62,1.2q-2.85.23-12.81.22t-12.83-.22q-4.15-.22-4.16-5,0-4.6.11-47.77t.11-54.79a1.16,1.16,0,0,0-1.31-1.31q-19.95,0-26.52.43-6.13.43-6.14-4.6,0-.87-.33-21.48t-.1-27.39q0-4.82,4.6-4.82,2.19,0,24.54.22t42.41.22q20,0,27.94-.44c2-.15,3.47.18,4.27,1a6.34,6.34,0,0,1,1.42,4.06v21.48q0,19.28.44,25.63Q340.14,651.72,334.65,652.17Z"/><path d="M456.72,742.67q-36.37,0-40.1-.44c-1.61-.29-2.41-1.39-2.41-3.28q0-5-.22-21.26t-.22-20.82c0-1.46-.8-2.19-2.41-2.19H393q-14.9,0-18.19-.22v64q0,3.07-3.06,3.07a183.52,183.52,0,0,1-22.58-.44c-1.6-.15-2.41-1.61-2.41-4.38q-.43-5.49,0-79.33t.44-78a9.62,9.62,0,0,1,.33-3.29c.22-.44.84-.73,1.87-.87q14.46-.88,31.11-.44c1.9,0,2.85.87,2.85,2.63q0,2-.11,23.67t.77,23.88q21.69.44,29.8-.44.23-4.82,0-24t-.44-23.12a2.61,2.61,0,0,1,1-2.41,5,5,0,0,1,2.52-1.32q3.29-.21,37.69-.22,4.61,0,4.61,4.61,0,117,1.09,141.34C460.23,741.58,459.06,742.67,456.72,742.67Z"/><path d="M577.38,732.22q.11,9.43-.11,13.37c-.15,2.92-1.61,4.46-4.39,4.6q-10.08.66-46,1.21t-47.55,1c-2.49.29-3.73-.87-3.73-3.5V595.47a3.16,3.16,0,0,1,1-2.3,3.43,3.43,0,0,1,2.52-1q8.55,0,46.9-.44t47.55.22c2.48,0,3.73,1.24,3.73,3.72l-.66,42.08q0,3.72-3.73,4.16-6.36.45-16.87.22t-21.48-.22q-10.95,0-12.49.66-.43,3.07-.44,19.73,18.2.43,37,0c3.21,0,4.82,1.38,4.82,4.16L563,688.17c-.14,2.63-.58,4.28-1.32,4.93s-2.33,1-4.82,1H505.17v17.53q0,3.07,3.28,3.07l64.43.22q3.95,0,4.17,3.73Q577.26,722.8,577.38,732.22Z"/><path d="M332.85,856.51q-23.87.94-35.62-.57a3.31,3.31,0,0,1-2-1.14,2.83,2.83,0,0,1-.85-1.89c0-.13,0-1.29.09-3.5s.1-4.46.1-6.73v-6.91a34.79,34.79,0,0,0-.19-4.65,9.88,9.88,0,0,0-2.94-6.44,9.29,9.29,0,0,0-6.72-2.46q-8.72,0-10.24,8.33a216,216,0,0,0-2.27,33.54q0,17.24.95,27.09a16.55,16.55,0,0,0,5.49,11.56q4.93,4.35,14.21,4.36,9.66,0,13.64-3.6t4-11.75a3.11,3.11,0,0,1,.95-2.27,2.87,2.87,0,0,1,2.09-1q11.55,0,17.61.19c1.77,0,2.66,1,2.66,3q0,21.22-11.46,30.6t-36.1,9.38q-31.26,0-40.73-19-5.69-11.37-5.88-39.22V861.25q0-42.63,10.23-59.5t35.25-16.86q20.46,0,31.54,3.89t15.44,11.65q4.37,7.77,4.93,22,.38,5.3.19,16.67t-.76,14.4Q335.7,856.51,332.85,856.51Z"/><path d="M428.07,914.77q-10,17-36.1,17A106.91,106.91,0,0,1,370.75,930a41.79,41.79,0,0,1-14.4-5.78A24,24,0,0,1,347.07,912a87.41,87.41,0,0,1-4.45-19.8,256.53,256.53,0,0,1-1.42-30q0-42.06,9.75-58.07t35.91-16q20.46,0,31.17,5.59t15.34,19.42Q438,827,438,853.48,438,897.81,428.07,914.77Zm-34.49-76q-1.41-7.49-4.26-9.85c-1.89-1.58-4.93-2.37-9.09-2.37q-7.39,0-10.23,8.72t-2.85,31.45q0,16.11,1.42,24t4.17,10.51q2.75,2.65,8.24,2.66,7.77,0,10.9-8.62T395,861.82Q395,846.28,393.58,838.79Z"/><path d="M572,920.36q-8.72.95-25.2.19-3.4-.19-3.41-3.22c0-.13.06-2.43.19-6.92s.22-9.5.28-15.06.1-11.4.1-17.53-.1-11.77-.29-17a61.32,61.32,0,0,0-1-10.8q-9.86,26.34-20.84,60.82a6.1,6.1,0,0,1-5.12,4.36q-4.92.75-19.89.75c-3.41,0-5.56-1.13-6.44-3.41q-5.31-11.94-21.79-57-.19,14.4-.1,27t.29,28.33q.18,15.72.19,17.62a2.71,2.71,0,0,1-2.85,3q-7.57.38-20.46,0a2,2,0,0,1-2.27-2.28q.19-9.84.57-42.06t.94-55.51q.57-23.31,1.52-44.53a5.28,5.28,0,0,1,.76-2.74,3.83,3.83,0,0,1,2.46-.86q4.37-.37,20.08-.47l16.11-.09c2.4-.26,4,.44,4.74,2.08q3,6.43,6.63,16.3t6.06,17.24q2.46,7.38,6.25,19.61t4.93,16q3-8,15.54-37.33t13.45-31.83q1.32-3,4-3,15.92,0,21.41.19c2.14,0,3.22,1,3.22,2.84q.94,20.65,1.7,72.28t.38,60.72A2.17,2.17,0,0,1,572,920.36Z"/><path d="M710.11,920.36q-8.72.95-25.2.19-3.4-.19-3.41-3.22c0-.13.07-2.43.19-6.92s.22-9.5.29-15.06.09-11.4.09-17.53-.09-11.77-.28-17a60.08,60.08,0,0,0-1-10.8q-9.84,26.34-20.84,60.82a6.09,6.09,0,0,1-5.11,4.36q-4.93.75-19.9.75c-3.41,0-5.56-1.13-6.44-3.41q-5.31-11.94-21.79-57-.18,14.4-.09,27t.28,28.33q.2,15.72.19,17.62a2.71,2.71,0,0,1-2.84,3q-7.58.38-20.46,0a2,2,0,0,1-2.28-2.28q.19-9.84.57-42.06t1-55.51q.57-23.31,1.52-44.53a5.2,5.2,0,0,1,.75-2.74,3.83,3.83,0,0,1,2.46-.86q4.37-.37,20.09-.47l16.1-.09c2.41-.26,4,.44,4.74,2.08q3,6.43,6.63,16.3t6.07,17.24q2.46,7.38,6.25,19.61t4.92,16q3-8,15.54-37.33t13.45-31.83q1.32-3,4-3,15.91,0,21.41.19,3.23,0,3.22,2.84.95,20.65,1.71,72.28t.38,60.72A2.18,2.18,0,0,1,710.11,920.36Z"/><path d="M805.14,914.77q-9.95,17-36.09,17A106.77,106.77,0,0,1,747.83,930a41.79,41.79,0,0,1-14.4-5.78A24,24,0,0,1,724.14,912a88,88,0,0,1-4.45-19.8,258.75,258.75,0,0,1-1.42-30q0-42.06,9.76-58.07t35.9-16q20.46,0,31.17,5.59t15.35,19.42q4.63,13.83,4.64,40.36Q815.09,897.81,805.14,914.77Zm-34.48-76q-1.42-7.49-4.27-9.85t-9.09-2.37q-7.38,0-10.23,8.72t-2.84,31.45q0,16.11,1.42,24t4.17,10.51q2.74,2.65,8.24,2.66,7.77,0,10.89-8.62t3.13-33.44Q772.08,846.28,770.66,838.79Z"/><path d="M910,917.77q-26.14,1.71-36.38.76c-2.27-.13-3.79-1-4.54-2.65q-1.9-3.6-10.9-22.36t-13.92-27.66q.57,25.57.57,62.52a3.27,3.27,0,0,1-.67,2.46,4.79,4.79,0,0,1-2.56.76,49.12,49.12,0,0,1-5.21.1c-1.57-.07-3.82-.13-6.72-.19s-5-.1-6.25-.1c-1.64,0-2.47-1-2.47-3V885.47q0-25.86-.09-60.16t-.1-37.32c0-2,1.08-3.16,3.22-3.42q11-.55,25.58-.18a5.68,5.68,0,0,1,5.31,3q9.86,19.32,28.42,60.06.56-2.46.19-27.47t-.19-32q0-2.85,2.46-2.85h24.82q3.6,0,3.6,3.41-.2,5.31-.66,62.72t-.48,63.09A3.09,3.09,0,0,1,910,917.77Z"/><path d="M350.41,1064.42q-19.67,15.8-61.47,15.8c-1.83,0-2.74.83-2.74,2.49q-.49,7.72-.5,53,0,4.23-5.22,4-4.23-.24-14.81-.24H249.62q-3.5,0-3.49-3.74-1-31.6-1-178.94,0-3.74,4-4.23,15.18-2.49,41.31-2.49,43.31,0,61.47,16.55t18.17,49.9Q370.07,1048.61,350.41,1064.42Zm-34.59-71.06a39.7,39.7,0,0,0-10.46,1.24,2.93,2.93,0,0,0-2,3v50.78q18.92,0,26.38-7.22t7.47-21.9Q337.22,993.36,315.82,993.36Z"/><path d="M496,1116.42q-13.06,22.27-47.41,22.28-17.18,0-27.87-2.24a55.1,55.1,0,0,1-18.92-7.59q-8.22-5.36-12.19-16.06a114.7,114.7,0,0,1-5.85-26q-1.87-15.32-1.87-39.45,0-55.26,12.82-76.29t47.16-21q26.88,0,40.94,7.35T503,982.9q6.09,18.17,6.1,53Q509.07,1094.16,496,1116.42Zm-45.3-99.8q-1.86-9.82-5.6-12.94c-2.48-2.07-6.47-3.11-11.94-3.11q-9.71,0-13.44,11.45T416,1053.33q0,21.15,1.86,31.49t5.48,13.81q3.6,3.48,10.82,3.48,10.22,0,14.32-11.32t4.1-43.93Q452.57,1026.45,450.7,1016.62Z"/><path d="M631.9,1013.39q-4.23.25-16.67.38t-15.43-.13a2.42,2.42,0,0,0-2.74,2.74q0,101.3-1,115.23c-.16,2.16-.62,3.61-1.37,4.36s-2.11,1.2-4.1,1.37q-3.24.24-14.56.24t-14.56-.24q-4.72-.25-4.73-5.73,0-5.22.12-54.25t.13-62.22a1.32,1.32,0,0,0-1.49-1.5q-22.65,0-30.12.5-7,.5-7-5.23,0-1-.37-24.39t-.12-31.11q0-5.48,5.22-5.47,2.49,0,27.88.24t48.15.25q22.79,0,31.74-.49c2.32-.17,3.94.21,4.85,1.12s1.45,2.44,1.62,4.6v24.39q0,21.9.49,29.12Q638.13,1012.9,631.9,1013.39Z"/><rect x="90.12" y="57.05" width="916.5" height="5.13"/><rect x="90.12" y="136.26" width="916.5" height="5.13"/><path d="M100.49,112.68H94.61a1.07,1.07,0,0,1-.79-.33,1.13,1.13,0,0,1-.32-.81V82.18a1.11,1.11,0,0,1,1.11-1.11h5.88a1.13,1.13,0,0,1,1.11,1.11v29.36a1.1,1.1,0,0,1-.33.81A1.05,1.05,0,0,1,100.49,112.68Z"/><path d="M135.71,111.54,125.05,93.89V111.6a1,1,0,0,1-.3.77,1,1,0,0,1-.77.31h-5.92a1.13,1.13,0,0,1-.8-.31,1,1,0,0,1-.31-.77V82.18a1.11,1.11,0,0,1,1.11-1.11h7.68a1.71,1.71,0,0,1,.88.21,1.89,1.89,0,0,1,.65.69L137.43,99.1V82.18a1,1,0,0,1,.32-.78,1,1,0,0,1,.77-.33h5.9a1.11,1.11,0,0,1,.79.34,1,1,0,0,1,.34.77V111.6a1,1,0,0,1-.33.76,1.14,1.14,0,0,1-.8.32h-6.36a3.32,3.32,0,0,1-1.45-.27A2.08,2.08,0,0,1,135.71,111.54Z"/><path d="M159.71,87.41V82.22a1.14,1.14,0,0,1,1.15-1.15h24.89a1.07,1.07,0,0,1,.81.34,1.09,1.09,0,0,1,.32.81v5.19a1.06,1.06,0,0,1-.32.8,1.12,1.12,0,0,1-.81.31h-8.27v23a1.13,1.13,0,0,1-.32.81,1.07,1.07,0,0,1-.79.33h-6.13a1.14,1.14,0,0,1-.82-.33,1.1,1.1,0,0,1-.33-.81v-23h-8.23a1.17,1.17,0,0,1-.82-.32A1.07,1.07,0,0,1,159.71,87.41Z"/><path d="M202.17,81.07h24a1.07,1.07,0,0,1,.81.34,1.13,1.13,0,0,1,.32.81v5.19a1.1,1.1,0,0,1-.32.79,1.13,1.13,0,0,1-.81.32h-17v4.74h9.17a1.08,1.08,0,0,1,.79.34,1.16,1.16,0,0,1,.32.82v4.76a1.13,1.13,0,0,1-.32.81,1.07,1.07,0,0,1-.79.33h-9.17v4.91h17a1.09,1.09,0,0,1,.81.32,1.13,1.13,0,0,1,.32.81v5.18a1.13,1.13,0,0,1-.32.8,1.11,1.11,0,0,1-.81.34h-24a1.07,1.07,0,0,1-.79-.33,1.13,1.13,0,0,1-.32-.81V82.18a1.11,1.11,0,0,1,1.11-1.11Z"/><path d="M249.88,101.53v10a1.13,1.13,0,0,1-.32.81,1.07,1.07,0,0,1-.79.33h-5.88a1.1,1.1,0,0,1-.79-.31,1,1,0,0,1-.32-.77V82.18a1.07,1.07,0,0,1,.31-.78,1,1,0,0,1,.8-.33h13.79a11.4,11.4,0,0,1,8,2.84,9.3,9.3,0,0,1,3.11,7.15,9.56,9.56,0,0,1-1.6,5.32,9.75,9.75,0,0,1-4.44,3.68L269.61,111a1.09,1.09,0,0,1,.1,1.15,1,1,0,0,1-1,.58h-6.3a2.52,2.52,0,0,1-1.21-.27,2.82,2.82,0,0,1-1-.91l-6.82-10Zm0-6.5h5.61a3.77,3.77,0,0,0,2.66-1,3.32,3.32,0,0,0,1.07-2.53,3.07,3.07,0,0,0-1-2.41,3.76,3.76,0,0,0-2.61-.93h-5.69Z"/><path d="M292.18,107.39l-1.41,4.3a1.38,1.38,0,0,1-.48.73,1.34,1.34,0,0,1-.84.26h-6.34a1.1,1.1,0,0,1-1-.5,1.54,1.54,0,0,1,0-1.31l10.7-28.65a1.72,1.72,0,0,1,.58-.84,1.27,1.27,0,0,1,.82-.31h7a1.27,1.27,0,0,1,.81.31,1.79,1.79,0,0,1,.58.84l10.7,28.61a1.48,1.48,0,0,1,0,1.32,1.1,1.1,0,0,1-1,.53h-6.71a1.35,1.35,0,0,1-.84-.24,1.41,1.41,0,0,1-.49-.75l-1.47-4.3Zm2.2-6.76h6.15l-3.08-9.36Z"/><path d="M357.41,104.53a13.78,13.78,0,0,1-5.88,6.51,18.8,18.8,0,0,1-9.46,2.29,16.5,16.5,0,0,1-12-4.78,16.49,16.49,0,0,1,0-23.4,16.5,16.5,0,0,1,12-4.77,18.7,18.7,0,0,1,9.46,2.29,13.76,13.76,0,0,1,5.88,6.5,1.47,1.47,0,0,1,0,1.41,2,2,0,0,1-1.39.71l-5,.9a2,2,0,0,1-1.13-.06,2.05,2.05,0,0,1-.88-.69,9,9,0,0,0-3-2.66,8.57,8.57,0,0,0-9.88,1.7,9.53,9.53,0,0,0,0,12.74,8.57,8.57,0,0,0,9.88,1.7,9,9,0,0,0,3-2.65,2,2,0,0,1,.88-.7,2.13,2.13,0,0,1,1.13-.06l5,.9a2,2,0,0,1,1.39.72A1.45,1.45,0,0,1,357.41,104.53Z"/><path d="M369.45,87.41V82.22a1.16,1.16,0,0,1,1.15-1.15h24.89a1.07,1.07,0,0,1,.81.34,1.1,1.1,0,0,1,.33.81v5.19a1.06,1.06,0,0,1-.33.8,1.12,1.12,0,0,1-.81.31h-8.27v23a1.09,1.09,0,0,1-.32.81,1.07,1.07,0,0,1-.79.33H380a1.11,1.11,0,0,1-.82-.33,1.07,1.07,0,0,1-.34-.81v-23H370.6a1.13,1.13,0,0,1-.81-.32A1,1,0,0,1,369.45,87.41Z"/><path d="M417.79,112.68h-5.87a1.06,1.06,0,0,1-.79-.33,1.1,1.1,0,0,1-.33-.81V82.18a1.13,1.13,0,0,1,1.12-1.11h5.87a1.11,1.11,0,0,1,1.11,1.11v29.36a1.13,1.13,0,0,1-.32.81A1.07,1.07,0,0,1,417.79,112.68Z"/><path d="M451.82,112.68h-6.51a1.28,1.28,0,0,1-.81-.31,1.72,1.72,0,0,1-.57-.83L433.22,82.92a1.54,1.54,0,0,1,0-1.33,1.15,1.15,0,0,1,1-.52h6.89a1,1,0,0,1,.66.23,2.05,2.05,0,0,1,.47.78l6.51,19.66,6.44-19.66a1.84,1.84,0,0,1,.46-.75,1,1,0,0,1,.67-.26h6.55a1.08,1.08,0,0,1,1,.5,1.5,1.5,0,0,1,0,1.31l-10.68,28.66a1.75,1.75,0,0,1-.57.84A1.31,1.31,0,0,1,451.82,112.68Z"/><path d="M479.3,81.07h24a1,1,0,0,1,.8.34,1.1,1.1,0,0,1,.33.81v5.19a1.07,1.07,0,0,1-.33.79,1.09,1.09,0,0,1-.8.32h-17v4.74h9.17a1.08,1.08,0,0,1,.79.34,1.16,1.16,0,0,1,.32.82v4.76a1.13,1.13,0,0,1-.32.81,1.07,1.07,0,0,1-.79.33h-9.17v4.91h17a1.06,1.06,0,0,1,.8.32,1.1,1.1,0,0,1,.33.81v5.18a1.09,1.09,0,0,1-.33.8,1.07,1.07,0,0,1-.8.34h-24a1.07,1.07,0,0,1-.79-.33,1.13,1.13,0,0,1-.32-.81V82.18a1.11,1.11,0,0,1,1.11-1.11Z"/><path d="M541.14,81.07H554.6a15.63,15.63,0,0,1,11.47,4.37,15.26,15.26,0,0,1,4.41,11.35,15.2,15.2,0,0,1-15.88,15.89H541.14a1.05,1.05,0,0,1-.78-.33,1.1,1.1,0,0,1-.33-.81V82.18a1.13,1.13,0,0,1,1.11-1.11Zm7,24.16h6.28a7,7,0,0,0,5.41-2.47,8.65,8.65,0,0,0,2.18-6,8.43,8.43,0,0,0-2.17-5.88,7,7,0,0,0-5.42-2.39h-6.28Z"/><path d="M601,80.38a16.78,16.78,0,0,1,12.11,4.78,16.27,16.27,0,0,1,0,23.37,17.65,17.65,0,0,1-24.2,0,16.27,16.27,0,0,1,0-23.37A16.74,16.74,0,0,1,601,80.38Zm0,25.41a8.07,8.07,0,0,0,6.12-2.57,9.51,9.51,0,0,0,0-12.74,8.6,8.6,0,0,0-12.26,0,9.51,9.51,0,0,0,0,12.74A8.07,8.07,0,0,0,601,105.79Z"/><path d="M663.75,104.53a13.85,13.85,0,0,1-5.89,6.51,18.8,18.8,0,0,1-9.46,2.29,16.5,16.5,0,0,1-12-4.78,16.49,16.49,0,0,1,0-23.4,16.5,16.5,0,0,1,12-4.77,18.7,18.7,0,0,1,9.46,2.29,13.83,13.83,0,0,1,5.89,6.5,1.5,1.5,0,0,1,0,1.41,2,2,0,0,1-1.39.71l-5,.9a2,2,0,0,1-1.13-.06,2.05,2.05,0,0,1-.88-.69,9,9,0,0,0-3-2.66,8.57,8.57,0,0,0-9.88,1.7,9.53,9.53,0,0,0,0,12.74,8.57,8.57,0,0,0,9.88,1.7,9,9,0,0,0,3-2.65,2,2,0,0,1,.88-.7,2.13,2.13,0,0,1,1.13-.06l5,.9a2,2,0,0,1,1.39.72A1.48,1.48,0,0,1,663.75,104.53Z"/><path d="M705.06,82.14v18.91a11.27,11.27,0,0,1-3.78,9,16.62,16.62,0,0,1-19.8,0,11.29,11.29,0,0,1-3.77-9V82.14a1,1,0,0,1,.33-.76,1,1,0,0,1,.78-.33h5.88a1.07,1.07,0,0,1,.79.33,1.05,1.05,0,0,1,.32.76v18.24a5.41,5.41,0,0,0,1.5,4,6.28,6.28,0,0,0,8.11,0,5.4,5.4,0,0,0,1.49-4V82.14a1,1,0,0,1,.34-.76,1.09,1.09,0,0,1,.8-.33h5.87a1.09,1.09,0,0,1,.8.33A1,1,0,0,1,705.06,82.14Z"/><path d="M733.15,82.14l4.68,12.53,4.74-12.53a1.7,1.7,0,0,1,.6-.81,1.78,1.78,0,0,1,1-.26H754a1.1,1.1,0,0,1,.81.33,1,1,0,0,1,.34.78V111.6a1,1,0,0,1-.31.77,1.06,1.06,0,0,1-.78.31h-5.88a1.1,1.1,0,0,1-.79-.31,1,1,0,0,1-.3-.77V91.92l-5.33,13.62a1.8,1.8,0,0,1-.62.86,1.88,1.88,0,0,1-1.08.27h-4.6a1.93,1.93,0,0,1-1.1-.26,1.75,1.75,0,0,1-.62-.87L728.4,91.92V111.6a1,1,0,0,1-.3.78,1.08,1.08,0,0,1-.79.3h-5.85a1,1,0,0,1-1.07-1.08V82.18a1,1,0,0,1,.32-.78,1.07,1.07,0,0,1,.79-.33h10.07a1.79,1.79,0,0,1,1,.26A1.61,1.61,0,0,1,733.15,82.14Z"/><path d="M771.56,81.07h24a1,1,0,0,1,.8.34,1.1,1.1,0,0,1,.33.81v5.19a1.07,1.07,0,0,1-.33.79,1.09,1.09,0,0,1-.8.32h-17v4.74h9.17a1.08,1.08,0,0,1,.79.34,1.16,1.16,0,0,1,.32.82v4.76a1.13,1.13,0,0,1-.32.81,1.07,1.07,0,0,1-.79.33h-9.17v4.91h17a1.06,1.06,0,0,1,.8.32,1.1,1.1,0,0,1,.33.81v5.18a1.09,1.09,0,0,1-.33.8,1.07,1.07,0,0,1-.8.34h-24a1.07,1.07,0,0,1-.79-.33,1.13,1.13,0,0,1-.32-.81V82.18a1.11,1.11,0,0,1,1.11-1.11Z"/><path d="M829.93,111.54,819.27,93.89V111.6a1.08,1.08,0,0,1-.29.77,1.06,1.06,0,0,1-.78.31h-5.92a1.1,1.1,0,0,1-.79-.31,1,1,0,0,1-.32-.77V82.18a1.13,1.13,0,0,1,1.11-1.11H820a1.75,1.75,0,0,1,.89.21,2.07,2.07,0,0,1,.65.69L831.65,99.1V82.18a1.08,1.08,0,0,1,.32-.78,1,1,0,0,1,.77-.33h5.9a1.08,1.08,0,0,1,.79.34,1,1,0,0,1,.35.77V111.6a1,1,0,0,1-.34.76,1.13,1.13,0,0,1-.8.32h-6.36a3.24,3.24,0,0,1-1.44-.27A2.05,2.05,0,0,1,829.93,111.54Z"/><path d="M853.93,87.41V82.22a1.16,1.16,0,0,1,1.15-1.15H880a1.07,1.07,0,0,1,.81.34,1.1,1.1,0,0,1,.33.81v5.19a1.06,1.06,0,0,1-.33.8,1.12,1.12,0,0,1-.81.31H871.7v23a1.09,1.09,0,0,1-.32.81,1.07,1.07,0,0,1-.79.33h-6.13a1.1,1.1,0,0,1-.81-.33,1.07,1.07,0,0,1-.34-.81v-23h-8.23a1.13,1.13,0,0,1-.81-.32A1,1,0,0,1,853.93,87.41Z"/><path d="M900.34,107.39l-1.41,4.3a1.38,1.38,0,0,1-.48.73,1.34,1.34,0,0,1-.84.26h-6.34a1.1,1.1,0,0,1-1-.5,1.54,1.54,0,0,1,0-1.31L901,82.22a1.72,1.72,0,0,1,.58-.84,1.27,1.27,0,0,1,.82-.31h7a1.27,1.27,0,0,1,.81.31,1.79,1.79,0,0,1,.58.84l10.7,28.61a1.48,1.48,0,0,1,0,1.32,1.1,1.1,0,0,1-1,.53h-6.71a1.35,1.35,0,0,1-.84-.24,1.41,1.41,0,0,1-.49-.75l-1.47-4.3Zm2.2-6.76h6.15l-3.08-9.36Z"/><path d="M943.79,101.53v10a1.1,1.1,0,0,1-.33.81,1,1,0,0,1-.78.33H936.8a1.13,1.13,0,0,1-.8-.31,1,1,0,0,1-.31-.77V82.18a1.1,1.1,0,0,1,.3-.78,1.07,1.07,0,0,1,.81-.33h13.79a11.36,11.36,0,0,1,8,2.84,9.27,9.27,0,0,1,3.12,7.15,9.49,9.49,0,0,1-1.61,5.32,9.78,9.78,0,0,1-4.43,3.68L963.52,111a1.11,1.11,0,0,1,.1,1.15,1,1,0,0,1-1,.58h-6.3a2.56,2.56,0,0,1-1.22-.27,2.89,2.89,0,0,1-1-.91l-6.82-10Zm0-6.5h5.6a3.79,3.79,0,0,0,2.67-1,3.32,3.32,0,0,0,1.07-2.53,3.07,3.07,0,0,0-1-2.41,3.76,3.76,0,0,0-2.61-.93h-5.69Z"/><path d="M984.87,111.54V100.48l-10.7-17.56a1.29,1.29,0,0,1-.13-1.26,1,1,0,0,1,1-.59h7.24a1.26,1.26,0,0,1,.71.21,1.83,1.83,0,0,1,.55.61l5.54,9.84h.1l5.5-9.84a1.73,1.73,0,0,1,.55-.61,1.24,1.24,0,0,1,.71-.21h6.86a1,1,0,0,1,1,.56,1.3,1.3,0,0,1-.17,1.29L993,100.48v11.06a1.12,1.12,0,0,1-.31.8,1,1,0,0,1-.76.34H986a1.05,1.05,0,0,1-.78-.33A1.1,1.1,0,0,1,984.87,111.54Z"/><path d="M231.55,235c-1.46-9.71-1.24-20-2.3-29.94a67,67,0,0,0-1.14-7.36C222.85,184,236,172,248.38,167.12c-22-7.46-43,2.27-65.2,3.47-2.8,0-5.59,0-8.39-.05A148.39,148.39,0,0,1,149.85,168a138.85,138.85,0,0,0,1.09,18c-3.16-1.51-6.27-.68-9.4-.8a40.81,40.81,0,0,0-9.08,1.06c-6,1.44-11.63,4.65-15.17,9.65-2.35,3.31-3.65,7.24-4.87,11.13-3.59,11.38-6.84,23.34-4.84,35.1,1.7,10,7.06,19,12.32,27.65,2.75,4.56,5.54,9.16,9.24,13s6.73,6.59,12,7.34a174.33,174.33,0,0,0-2.72,26v.52q13.59.33,27.17.53c.42-1.93,1.65-3.53,2.7-5.2,1.2-1.92,2.33-3.85,3.49-5.79s2.19-3.83,3.32-5.72c.54-.91,1.06-1.84,1.56-2.76.26-.47.52-.93.76-1.4.13-.24.24-.48.37-.7,0-.06.13-.28.22-.46s.33-.74.39-.85c.24-.57.48-1.13.7-1.69.41-1.05.8-2.12,1.15-3.19.18-.56.33-1.14.49-1.71l-.37-.28q-10.29-7.92-20.6-15.81c-2.71-2.07-5.51-4.29-6.9-7.4-2.51-5.65.74-12.61,5.94-15.95a8.06,8.06,0,0,1,10.45.17c5.92,4.44,8.56,12,10.16,19.21.88,4,1.59,8.05,2.66,12,0-.56.08-1.13.1-1.68,0-2.27-.1-4.51-.24-6.77a60.25,60.25,0,0,0-.46-6.31.18.18,0,0,0,0-.06,4.51,4.51,0,0,1-.07-.53c-.07-.52-.13-1-.19-1.56-.13-1.12-.26-2.25-.4-3.38a95.11,95.11,0,0,1-1-14.79c0-.95.12-1.9.2-2.83a35.28,35.28,0,0,1-6.13-3.51c-8.27-5.87-14.91-14.58-16.52-24.58-.36-2.26-.42-4.73.79-6.67a8.94,8.94,0,0,1,2.72-2.58c4.6-3,11.07-3.79,15.49-.51,3.48,2.57,5,7,5.56,11.32s.32,8.38,1.05,12.49a65,65,0,0,1,4.19-9.72,57.93,57.93,0,0,1,9-12.41,50.83,50.83,0,0,1,5.17-4.79,17.43,17.43,0,0,1,5.6-3.4,22.38,22.38,0,0,1,5.15-.61,7,7,0,0,1,5,2,5.86,5.86,0,0,1,.27,6.88,33.82,33.82,0,0,1-4.64,5.7,51.68,51.68,0,0,0-4.32,4.31c-.25.28-.49.56-.73.85l-.14.18c-.65.83-1.27,1.68-1.87,2.54-1.18,1.74-2.29,3.54-3.29,5.38-.4.75-.78,1.51-1.14,2.29l-.07.14c-.23.53-.43,1.05-.65,1.58a52.13,52.13,0,0,0-1.87,5.75c-.2.75-.37,1.51-.55,2.28,1.45-1.24,2.91-2.48,4.41-3.65a28.91,28.91,0,0,1,7.33-4.56,11.64,11.64,0,0,1,8.45-.29c4.47,1.77,6.8,7.28,5.67,12s-5.15,8.33-9.72,9.82-9.61,1.05-14.21-.35c-.91-.27-1.81-.6-2.7-.94.3,7.55,1.6,15.06,1.63,22.63a53.15,53.15,0,0,1-.34,5.63c.38-.64.75-1.26,1.11-1.9a35.13,35.13,0,0,1,4.09-6.42,13.77,13.77,0,0,1,13.33-4.2,12.55,12.55,0,0,1,9.21,10.32,15.06,15.06,0,0,1-.52,5.66c-2.52,9.22-12.14,15.95-21.65,15.13-3.41-.29-6.68-1.41-10-2.09a57,57,0,0,1-2.68,5.36,46.62,46.62,0,0,1-10,12.54,56.36,56.36,0,0,1-7,5.05c-.53.33-1.07.67-1.6,1q38,.5,75.9,0c-4.8-20.31-8.82-44.31-13.62-64.63-1.37-5.84-2.76-11.7-3.65-17.63M143,255.45v.05c.08,1,.17,2,.23,3.11a0,0,0,0,1,0,0,39.1,39.1,0,0,1,0,5,33,33,0,0,1-.38,3.33.55.55,0,0,0,.17.05l-.17,0h0a17.53,17.53,0,0,1-3.33-1.09c-.54-.23-1.06-.48-1.59-.76-.25-.14-.51-.27-.76-.42a26.21,26.21,0,0,1-4.9-3.75h0c-.41-.41-.82-.83-1.21-1.26h0a32.58,32.58,0,0,1-3.26-4.34c-.65-1-1.23-2.08-1.79-3.16-.27-.54-.54-1.09-.8-1.64-.5-1.1-1-2.21-1.42-3.34s-.86-2.33-1.24-3.51-.68-2.4-.93-3.61c-.16-.8-.3-1.63-.4-2.45-.58-4.91.15-9.88.91-14.77.06-.4.13-.81.19-1.21.19-1.21.41-2.43.65-3.66s.53-2.42.86-3.61a35.6,35.6,0,0,1,1.19-3.48,20,20,0,0,1,3.82-6.13c4.31-4.62,10.78-6.42,17-7.74-1.52,17.84-2.71,36.37-3,54.28,0,.73,0,1.43,0,2.12s.08,1.36.13,2"/><path d="M365.74,268.62v16.82a3.58,3.58,0,0,1-3.59,3.59h-38v29.91a3.54,3.54,0,0,1-1.05,2.61,3.47,3.47,0,0,1-2.54,1.05h-19a3.45,3.45,0,0,1-2.54-1.05,3.54,3.54,0,0,1-1.05-2.61V224.07a3.58,3.58,0,0,1,3.59-3.6h73.1a3.41,3.41,0,0,1,2.55,1.09,3.64,3.64,0,0,1,1.05,2.64V241a3.5,3.5,0,0,1-1,2.54,3.42,3.42,0,0,1-2.58,1.06H324.17V265h38a3.6,3.6,0,0,1,3.59,3.6Z"/><path d="M372.59,286.52a36,36,0,0,1,11.66-27,41.41,41.41,0,0,1,56.56,0,37.13,37.13,0,0,1,0,54.05,41.44,41.44,0,0,1-56.56,0A36,36,0,0,1,372.59,286.52Zm25.36,0A14.5,14.5,0,0,0,402.19,297a14.49,14.49,0,0,0,20.68,0,15.15,15.15,0,0,0,0-21,14.49,14.49,0,0,0-20.68,0A14.51,14.51,0,0,0,398,286.52Z"/><path d="M457,286.52a36,36,0,0,1,11.66-27,41.41,41.41,0,0,1,56.56,0,37.15,37.15,0,0,1,0,54.05,41.44,41.44,0,0,1-56.56,0A36,36,0,0,1,457,286.52Zm25.36,0A14.46,14.46,0,0,0,486.55,297a14.49,14.49,0,0,0,20.68,0,15.15,15.15,0,0,0,0-21,14.49,14.49,0,0,0-20.68,0A14.47,14.47,0,0,0,482.31,286.52Z"/><path d="M620.72,223.86v95.35a3.25,3.25,0,0,1-3.39,3.39H598.88a3.25,3.25,0,0,1-3.39-3.39v-1.29a23.3,23.3,0,0,1-8,5.08,27,27,0,0,1-9.67,1.7,34.5,34.5,0,0,1-26-11.05q-10.54-11.06-10.55-27.13t10.55-27.12a34.5,34.5,0,0,1,26-11.06,27,27,0,0,1,9.67,1.7,23.9,23.9,0,0,1,8,5v-31.2a3.25,3.25,0,0,1,3.39-3.39h18.45a3.25,3.25,0,0,1,3.39,3.39Zm-54.05,62.66A14.46,14.46,0,0,0,570.91,297a14.49,14.49,0,0,0,20.68,0,15.15,15.15,0,0,0,0-21,14.49,14.49,0,0,0-20.68,0A14.47,14.47,0,0,0,566.67,286.52Z"/><path d="M732.54,320.29l-5.15-5.35a50,50,0,0,1-14.28,7.35,55.5,55.5,0,0,1-17.05,2.41q-15.25,0-25.36-8.27t-10.11-21.77a27.21,27.21,0,0,1,4.89-15.56,34.06,34.06,0,0,1,13.22-11.43l2.64-1.29a35.4,35.4,0,0,1-6.81-10.2,27.56,27.56,0,0,1-2.27-11,25.13,25.13,0,0,1,8.51-19.32q8.51-7.8,22.27-7.8,13,0,21,7a22.37,22.37,0,0,1,8,17.66,21.78,21.78,0,0,1-3.93,12.45,35.55,35.55,0,0,1-11.4,10.27l-2.17,1.36,12.14,12.27c.36-1.17.72-2.46,1.09-3.86s1.06-4.61,2.1-9.63a3,3,0,0,1,1.25-2.17,4.76,4.76,0,0,1,2.82-.75h17.22a3.65,3.65,0,0,1,2.58,1,3.34,3.34,0,0,1,1,2.58q0,3.66-3,13.53a104.64,104.64,0,0,1-7,17.73l19.53,19.94a3.06,3.06,0,0,1,1,3.39,2.49,2.49,0,0,1-2.51,1.69h-25a8.85,8.85,0,0,1-2.92-.37A6,6,0,0,1,732.54,320.29ZM686.36,292a10.25,10.25,0,0,0,3.6,8.14,14,14,0,0,0,9.49,3.12,23.42,23.42,0,0,0,6.75-1,21.42,21.42,0,0,0,6.2-3l-18.71-19.53-1.5,1.29a21.91,21.91,0,0,0-4.44,5.46A11.65,11.65,0,0,0,686.36,292Zm10.11-47.53a8.56,8.56,0,0,0,.95,3.69,14.19,14.19,0,0,0,2.44,3.63l2.3,2.24,2.44-1.56a14.43,14.43,0,0,0,4.38-4.14,8.12,8.12,0,0,0,1.59-4.47,6.56,6.56,0,0,0-6.78-6.85,7.09,7.09,0,0,0-5.22,2.1A7.26,7.26,0,0,0,696.47,244.48Z"/><path d="M210.21,361.19q0-14.18,11.63-23.33t29.53-9.15a64.23,64.23,0,0,1,20.14,3,43.36,43.36,0,0,1,15.33,8.48c1.9,1.72,3,3.42,3.15,5.12a5.33,5.33,0,0,1-1.73,4.58l-9.63,9.9a4.89,4.89,0,0,1-4,1.52,9.19,9.19,0,0,1-4.88-2.2,34.45,34.45,0,0,0-9.22-5,28.8,28.8,0,0,0-9.9-1.8,17,17,0,0,0-8.65,1.93,5.85,5.85,0,0,0-3.29,5.19,5.17,5.17,0,0,0,2,4.1,15.56,15.56,0,0,0,6,2.75l18.17,4.68q14.91,3.72,22.21,11.36t7.29,19.36q0,14.37-11.67,24t-30.78,9.59a70,70,0,0,1-23.33-3.73,45.48,45.48,0,0,1-17.29-10.3,8.83,8.83,0,0,1-3-5.67,5.78,5.78,0,0,1,2.38-5.05l11.46-9.08a5.49,5.49,0,0,1,4.13-1.36,8.48,8.48,0,0,1,4.48,2.64,31.46,31.46,0,0,0,22.24,9q5.7,0,9.12-2.2a6.61,6.61,0,0,0,3.43-5.73,6,6,0,0,0-2.51-5c-1.68-1.29-4.52-2.41-8.55-3.36L236.12,391Q223.7,388,217,380.25T210.21,361.19Z"/><path d="M299.59,397a36,36,0,0,1,11.66-27,41.44,41.44,0,0,1,56.56,0,37.15,37.15,0,0,1,0,54,41.44,41.44,0,0,1-56.56,0A36,36,0,0,1,299.59,397ZM325,397a14.49,14.49,0,0,0,4.24,10.51,14.49,14.49,0,0,0,20.68,0,15.16,15.16,0,0,0,0-21,14.49,14.49,0,0,0-20.68,0A14.5,14.5,0,0,0,325,397Z"/><path d="M386.39,429.61V334.34a3.25,3.25,0,0,1,3.39-3.39h18.45a3.25,3.25,0,0,1,3.39,3.39v95.27a3.4,3.4,0,0,1-1,2.45,3.15,3.15,0,0,1-2.34,1H389.92a3.48,3.48,0,0,1-2.48-1A3.3,3.3,0,0,1,386.39,429.61Z"/><path d="M447.69,341.93a12.9,12.9,0,0,1-4.17,9.6,14.3,14.3,0,0,1-19.9,0,12.87,12.87,0,0,1-4.21-9.6,13.08,13.08,0,0,1,4.21-9.66,14.12,14.12,0,0,1,19.9,0A13.11,13.11,0,0,1,447.69,341.93Zm-1.56,22.31v65.44a3.3,3.3,0,0,1-1,2.41,3.38,3.38,0,0,1-2.48,1H424.36a3.36,3.36,0,0,1-2.47-1,3.27,3.27,0,0,1-1-2.41V364.24a3.23,3.23,0,0,1,1-2.4,3.33,3.33,0,0,1,2.47-1h18.31a3.35,3.35,0,0,1,2.48,1A3.27,3.27,0,0,1,446.13,364.24Z"/><path d="M532.39,334.34v95.34a3.25,3.25,0,0,1-3.39,3.39H510.55a3.25,3.25,0,0,1-3.39-3.39v-1.29a23.47,23.47,0,0,1-8,5.09,27,27,0,0,1-9.67,1.69,34.51,34.51,0,0,1-26-11.05Q453,413.07,453,397t10.55-27.13a34.51,34.51,0,0,1,26-11.05,27,27,0,0,1,9.67,1.69,24.06,24.06,0,0,1,8,5V334.34a3.25,3.25,0,0,1,3.39-3.39H529a3.25,3.25,0,0,1,3.39,3.39ZM478.34,397a14.53,14.53,0,0,0,4.24,10.51,14.5,14.5,0,0,0,20.69,0,15.18,15.18,0,0,0,0-21,14.5,14.5,0,0,0-20.69,0A14.54,14.54,0,0,0,478.34,397Z"/><path d="M593.49,429.61v-1.22a23.52,23.52,0,0,1-8,5.09,26.86,26.86,0,0,1-9.66,1.69,34.52,34.52,0,0,1-26-11.05Q539.31,413.07,539.31,397t10.54-27.13a34.52,34.52,0,0,1,26-11.05,26.86,26.86,0,0,1,9.66,1.69,24.1,24.1,0,0,1,8,5v-1.29a3.25,3.25,0,0,1,3.39-3.39h18.45a3.25,3.25,0,0,1,3.39,3.39v65.37a3.4,3.4,0,0,1-1,2.45,3.15,3.15,0,0,1-2.34,1H597a3.48,3.48,0,0,1-2.48-1A3.3,3.3,0,0,1,593.49,429.61ZM564.67,397a14.49,14.49,0,0,0,4.24,10.51,14.49,14.49,0,0,0,20.68,0,15.16,15.16,0,0,0,0-21,14.49,14.49,0,0,0-20.68,0A14.5,14.5,0,0,0,564.67,397Z"/><path d="M631.53,360.85h13.16a6.45,6.45,0,0,1,3.69,1,7.16,7.16,0,0,1,2.48,3.05l2,4.54a33.09,33.09,0,0,1,8.24-7.25,16.31,16.31,0,0,1,8.31-2.51c2.94,0,5.16.64,6.68,1.93a5.81,5.81,0,0,1,1.8,5.53l-2,16.48a7.32,7.32,0,0,1-1.83,4.27,5.22,5.22,0,0,1-3.86,1.42,8.45,8.45,0,0,1-1.7-.17c-.59-.11-1.47-.32-2.64-.64a25.33,25.33,0,0,0-3-.78,11.74,11.74,0,0,0-1.94-.17,7.69,7.69,0,0,0-5.56,2,7.4,7.4,0,0,0-2.1,5.57V430a2.77,2.77,0,0,1-1,2.14,3.55,3.55,0,0,1-2.41.91H631.47a3.3,3.3,0,0,1-2.45-.95,3.22,3.22,0,0,1-.95-2.37V364.24a3.24,3.24,0,0,1,1-2.4A3.33,3.33,0,0,1,631.53,360.85Z"/><path d="M710.13,341.93a12.9,12.9,0,0,1-4.17,9.6,14.31,14.31,0,0,1-19.91,0,12.86,12.86,0,0,1-4.2-9.6,13.07,13.07,0,0,1,4.2-9.66,14.14,14.14,0,0,1,19.91,0A13.11,13.11,0,0,1,710.13,341.93Zm-1.56,22.31v65.44a3.27,3.27,0,0,1-1,2.41,3.36,3.36,0,0,1-2.47,1H686.8a3.36,3.36,0,0,1-2.47-1,3.27,3.27,0,0,1-1-2.41V364.24a3.24,3.24,0,0,1,1-2.4,3.33,3.33,0,0,1,2.47-1h18.31a3.33,3.33,0,0,1,2.47,1A3.24,3.24,0,0,1,708.57,364.24Z"/><path d="M750.75,434.5q-11.87,0-19-6.21t-7.08-17.19V381.74h-7.46a3.12,3.12,0,0,1-2.34-1,3.45,3.45,0,0,1-1-2.51V373a12.73,12.73,0,0,1,.44-3.73,7.24,7.24,0,0,1,1.59-2.71l18-19.94a14.6,14.6,0,0,1,3.83-3.25,9,9,0,0,1,4-.75h4.81a3.3,3.3,0,0,1,2.41,1,3.27,3.27,0,0,1,1,2.41v14.85H765.8a3.37,3.37,0,0,1,2.44,1,3.19,3.19,0,0,1,1,2.4v14a3.4,3.4,0,0,1-1,2.51,3.32,3.32,0,0,1-2.44,1H749.93v24.07a5.88,5.88,0,0,0,1.43,4.17,5,5,0,0,0,3.86,1.53,9.1,9.1,0,0,0,3.06-.58,22.06,22.06,0,0,0,3.72-1.8,5.11,5.11,0,0,1,3.57-.88,4.92,4.92,0,0,1,2.74,2.17l6.38,9.56a5.4,5.4,0,0,1,1,3.26,4.14,4.14,0,0,1-1.29,2.85,26.29,26.29,0,0,1-10.2,6.17A40.23,40.23,0,0,1,750.75,434.5Z"/><path d="M798.22,468.06A40.17,40.17,0,0,1,785.37,466a33.31,33.31,0,0,1-10.62-5.74,4.17,4.17,0,0,1-1.28-2.88,5.47,5.47,0,0,1,1-3.29l6.17-9.35a5.14,5.14,0,0,1,3.29-2.41,5.37,5.37,0,0,1,4,.91,25.47,25.47,0,0,0,4.85,2.51,11.78,11.78,0,0,0,3.9.68,9.36,9.36,0,0,0,5.56-1.63,10.11,10.11,0,0,0,3.52-4.81l2.72-6.92h-4.21a4,4,0,0,1-2.64-.95,5.48,5.48,0,0,1-1.7-2.51L778,366.55q-.94-2.66.07-4.17c.67-1,1.94-1.53,3.79-1.53h21a3.68,3.68,0,0,1,2.47.78,5.33,5.33,0,0,1,1.46,2.54l11,38.45,9.36-38.31a5,5,0,0,1,1.56-2.58,4.09,4.09,0,0,1,2.65-.88h19.73a3.34,3.34,0,0,1,3.19,1.46c.54,1,.54,2.38,0,4.24l-23.74,77.3q-3.6,11.61-12,17.91T798.22,468.06Z"/><path class="cls-2" d="M192.77,1204.35c56.46,0,56.46,60,112.92,60s56.46-60,112.92-60,56.46,60,112.92,60,56.46-60,112.92-60,56.46,60,112.93,60,56.46-60,112.93-60"/><path d="M798.21,311c-4.38-38.46-17.77-107.92,32.59-122.87,35.75-10.62,64.66,21.71,68.64,54.65.8,6.62.85,13.51,3.56,19.6s9.13,11.25,15.64,9.81c7-1.55,10.47-9.58,11.09-16.72.9-10.34-1.83-20.67-1.77-31,.1-17.08,9.54-27.07,26-29.51a164.09,164.09,0,0,1,44.6-.45c5.16.65,13.95.32,16.61,5.27,2.55,4.74,1,14.93.22,20.28-9.77-7.65-54.7-3.47-61.25-2.21,0,3.53,19.1,27.71,21.87,25,6.79-6.69,19.24-2.47,25.57,4.65s8.22,17.05,9.5,26.5,2.31,19.31,7.46,27.33c-4.57-5.68-13.34-4-20.63-4a35.43,35.43,0,0,1-34.52-43.45c-5.54-4.38-11.08-8.92-16.87-12.95-.32,10.53,3.53,20-1,31.2-4.15,10.29-13.1,18.74-23.87,21.37s-23.08-1.07-29.9-9.8c-7.5-9.6-7.57-22.8-8.36-35-1-14.61-6.24-35.51-24.67-35.26-2,6.17-3.89,13.4-.21,18.74a33.45,33.45,0,0,0,3.8,4.1C875,249.14,874,269.85,871,287.69c-1.36,8.17-3.51,22.53-17,22.53-24.7,0-27.14-31.78-24-49,2.85-15.83,11.45-29.09,12-45.45.05-1.31,0-2.78-.9-3.7a4,4,0,0,0-2.44-.92c-5.75-.61-11.34,2.91-14.64,7.66s-4.7,10.54-5.66,16.24c-1.09,6.41-4.39,76.24,1.2,76.33Z"/><path d="M132.06,1296.54v34.21a2.22,2.22,0,0,1-.29.89,1.1,1.1,0,0,1-.88.29h-6.61a2.13,2.13,0,0,1-.88-.29,1.08,1.08,0,0,1-.3-.89v-.44a6.09,6.09,0,0,1-2.93,1.77,8.94,8.94,0,0,1-3.53.58,12.79,12.79,0,0,1-9.4-4,14.21,14.21,0,0,1,0-19.39,12.32,12.32,0,0,1,9.4-4,9.43,9.43,0,0,1,3.53.59,11.89,11.89,0,0,1,2.93,1.76v-11.16a2,2,0,0,1,.3-.88,1.05,1.05,0,0,1,.88-.3h6.61a2.1,2.1,0,0,1,.88.3A2.13,2.13,0,0,1,132.06,1296.54Zm-19.38,22.61a5.23,5.23,0,0,0,1.46,3.82,5,5,0,0,0,7.35,0,5.7,5.7,0,0,0,0-7.64,5.14,5.14,0,0,0-8.81,3.82Z"/><path d="M145.57,1319.15a12.9,12.9,0,0,1,4.26-9.69,14.95,14.95,0,0,1,20.27,0,13.16,13.16,0,0,1,0,19.39,14.95,14.95,0,0,1-20.27,0A12.64,12.64,0,0,1,145.57,1319.15Zm9.11,0a5.2,5.2,0,0,0,1.47,3.82,5,5,0,0,0,7.34,0,5.7,5.7,0,0,0,0-7.64,5.14,5.14,0,0,0-8.81,3.82Z"/><path d="M201.23,1332.81a14.21,14.21,0,0,1-10.13-4,13.49,13.49,0,0,1,0-19.39,14.21,14.21,0,0,1,10.13-4,14.43,14.43,0,0,1,7.64,1.9,12,12,0,0,1,4.84,5.29,1.71,1.71,0,0,1,.15,1.47,1.54,1.54,0,0,1-1.17.88l-5,1.47a3.56,3.56,0,0,1-1.17.15c-.3,0-.74-.44-1.18-.88a4.07,4.07,0,0,0-1.76-1.33,6,6,0,0,0-2.2-.44,5,5,0,0,0-3.67,1.62,5.69,5.69,0,0,0,0,7.63,5,5,0,0,0,3.67,1.62,6,6,0,0,0,2.2-.44,5,5,0,0,0,1.76-1.32,1.76,1.76,0,0,1,1.32-.88,3.83,3.83,0,0,1,1.18.14l5,1.47a1.54,1.54,0,0,1,1.18.88,1.83,1.83,0,0,1-.15,1.47,12,12,0,0,1-4.85,5.29A25.47,25.47,0,0,1,201.23,1332.81Z"/><path d="M239.41,1324.73a3.16,3.16,0,0,0,2.65-1,4.45,4.45,0,0,0,.88-2.94v-13.51a.8.8,0,0,1,.44-.74,2.17,2.17,0,0,1,.88-.29h6.61a2.17,2.17,0,0,1,.88.29c.29.3.44.44.44.74v14.68a10.14,10.14,0,0,1-3.38,7.79c-2.2,2-5.43,3.08-9.25,3.08a14,14,0,0,1-9.4-3.08,10,10,0,0,1-3.52-7.79v-14.68a.8.8,0,0,1,.44-.74,2.13,2.13,0,0,1,.88-.29h6.61a2.22,2.22,0,0,1,.88.29c.29.3.44.44.44.74v13.51a3.78,3.78,0,0,0,1,2.94C237.21,1324.44,238.09,1324.73,239.41,1324.73Z"/><path d="M294.48,1313.28a3,3,0,0,0-2.49,1,4.2,4.2,0,0,0-.88,2.79v13.8a2,2,0,0,1-.3.88,1.05,1.05,0,0,1-.88.3h-6.61a2.1,2.1,0,0,1-.88-.3,1.08,1.08,0,0,1-.29-.88v-13.8a4.26,4.26,0,0,0-.88-2.79,3.55,3.55,0,0,0-5,0,4.26,4.26,0,0,0-.88,2.79v13.8a2,2,0,0,1-.29.88,1.06,1.06,0,0,1-.88.3h-6.61a2.05,2.05,0,0,1-.88-.3,1.05,1.05,0,0,1-.3-.88v-23.5a2.1,2.1,0,0,1,.3-.88,1.09,1.09,0,0,1,.88-.29h6.61a2.17,2.17,0,0,1,.88.29,1.1,1.1,0,0,1,.29.88v1.91a9.26,9.26,0,0,1,3.09-2.79,7.63,7.63,0,0,1,4-1,8.56,8.56,0,0,1,4.41,1,6.48,6.48,0,0,1,2.79,2.79,9.81,9.81,0,0,1,3.67-2.93,11.63,11.63,0,0,1,4.7-.88,8.23,8.23,0,0,1,6.75,2.79,10.78,10.78,0,0,1,2.5,7.34v15.42a2.17,2.17,0,0,1-.29.88,1.1,1.1,0,0,1-.88.29h-6.61a2,2,0,0,1-.88-.29,1.06,1.06,0,0,1-.3-.88v-13.81a3.55,3.55,0,0,0-3.82-4Z"/><path d="M345.88,1327.82a10.9,10.9,0,0,1-4.7,3.67,16.76,16.76,0,0,1-6.75,1.32A14.19,14.19,0,0,1,324.3,1329a13.15,13.15,0,0,1-4-9.69,13.81,13.81,0,0,1,3.67-10c2.5-2.64,5.73-3.81,9.84-3.81a12.72,12.72,0,0,1,9.55,3.67,12.42,12.42,0,0,1,3.67,9.1v1.47a2.85,2.85,0,0,1-.3,1.32,1.11,1.11,0,0,1-1,.44H329.58a4.59,4.59,0,0,0,1.77,2.79,5.1,5.1,0,0,0,3.37,1,7,7,0,0,0,2.5-.44,9.38,9.38,0,0,0,2.2-1.47,1.36,1.36,0,0,1,1-.44,1.39,1.39,0,0,1,1,.3l4.4,2.93a1.46,1.46,0,0,1,.59.74C346.18,1327.23,346.18,1327.52,345.88,1327.82Zm-16.3-12h8.67a4.42,4.42,0,0,0-1.47-2.5,4.51,4.51,0,0,0-2.79-.88,4.81,4.81,0,0,0-2.79.88A4.21,4.21,0,0,0,329.58,1315.78Z"/><path d="M373.79,1313.28a4.76,4.76,0,0,0-3.09,1.17,4.25,4.25,0,0,0-1.17,3.09v13.36a2,2,0,0,1-.3.88,1.05,1.05,0,0,1-.88.3h-6.61a2.1,2.1,0,0,1-.88-.3,1.08,1.08,0,0,1-.29-.88v-23.5a2.22,2.22,0,0,1,.29-.88,1.1,1.1,0,0,1,.88-.29h6.61a2.13,2.13,0,0,1,.88.29,1.07,1.07,0,0,1,.3.88v1.91a7.94,7.94,0,0,1,3.08-2.79,10.91,10.91,0,0,1,4.41-1,9.73,9.73,0,0,1,7.49,2.93c1.61,1.91,2.49,4.7,2.49,8.52v14.1a2,2,0,0,1-.29.88,1.09,1.09,0,0,1-.88.29h-6.61a2,2,0,0,1-.88-.29,1.09,1.09,0,0,1-.29-.88v-13.37a4.21,4.21,0,0,0-1.18-3.08A3.39,3.39,0,0,0,373.79,1313.28Z"/><path d="M412.7,1332.52a9.82,9.82,0,0,1-6.75-2.21c-1.76-1.46-2.5-3.52-2.5-6.16v-10.58h-2.64a2,2,0,0,1-.88-.29,1.06,1.06,0,0,1-.3-.88v-1.91a3.17,3.17,0,0,1,.15-1.32,3.5,3.5,0,0,1,.59-1l6.46-7.2a7.6,7.6,0,0,1,1.32-1.17,3.6,3.6,0,0,1,1.47-.3h1.76a2,2,0,0,1,.88.3,1.06,1.06,0,0,1,.3.88v5.29h5.72a2,2,0,0,1,.88.29,1.06,1.06,0,0,1,.3.88v5a2,2,0,0,1-.3.88c-.14.3-.58.3-.88.3h-5.72v8.66a2.15,2.15,0,0,0,.44,1.47,1.82,1.82,0,0,0,1.32.59,2.48,2.48,0,0,0,1-.15,4.79,4.79,0,0,0,1.32-.59A1.49,1.49,0,0,1,418,1323a2.27,2.27,0,0,1,1,.74l2.35,3.37a1.23,1.23,0,0,1,.29,1.18,1.36,1.36,0,0,1-.44,1,11.12,11.12,0,0,1-3.67,2.2A9.67,9.67,0,0,1,412.7,1332.52Z"/><path d="M452.65,1330.75v-.44a6.07,6.07,0,0,1-2.94,1.77,8.89,8.89,0,0,1-3.52.58,12.77,12.77,0,0,1-9.4-4,14.21,14.21,0,0,1,0-19.39,12.31,12.31,0,0,1,9.4-4,9.34,9.34,0,0,1,3.52.59,11.76,11.76,0,0,1,2.94,1.76v-.44a2.13,2.13,0,0,1,.29-.88,1.07,1.07,0,0,1,.88-.3h6.61a2,2,0,0,1,.88.3,1.05,1.05,0,0,1,.3.88v23.49a2.09,2.09,0,0,1-.3.89,1.08,1.08,0,0,1-.88.29h-6.61a2.22,2.22,0,0,1-.88-.29A1.29,1.29,0,0,1,452.65,1330.75Zm-10.28-11.6a5.2,5.2,0,0,0,1.47,3.82,5,5,0,0,0,7.34,0,5.7,5.7,0,0,0,0-7.64,5.14,5.14,0,0,0-8.81,3.82Z"/><path d="M476.15,1330.75v-34.21a2,2,0,0,1,.29-.88,1.06,1.06,0,0,1,.88-.3h6.61a2.05,2.05,0,0,1,.88.3,1.08,1.08,0,0,1,.29.88v34.21a2.07,2.07,0,0,1-.29.89,1.09,1.09,0,0,1-.88.29h-6.61a2.17,2.17,0,0,1-.88-.29C476.15,1331.49,476.15,1331.2,476.15,1330.75Z"/><path d="M498.32,1319.15a12.9,12.9,0,0,1,4.26-9.69,14.95,14.95,0,0,1,20.27,0,13.18,13.18,0,0,1,0,19.39,14.95,14.95,0,0,1-20.27,0A13.17,13.17,0,0,1,498.32,1319.15Zm9.11,0a5.23,5.23,0,0,0,1.46,3.82,5,5,0,0,0,7.35,0,5.7,5.7,0,0,0,0-7.64,5,5,0,0,0-7.35,0A5.6,5.6,0,0,0,507.43,1319.15Z"/><path d="M540.47,1330.75v-34.21a2.13,2.13,0,0,1,.29-.88,1.07,1.07,0,0,1,.88-.3h6.61a2,2,0,0,1,.88.3,1.05,1.05,0,0,1,.3.88v34.21a2.09,2.09,0,0,1-.3.89,1.08,1.08,0,0,1-.88.29h-6.61a2.22,2.22,0,0,1-.88-.29A1.29,1.29,0,0,1,540.47,1330.75Z"/><path d="M564,1330.75v-34.21a2,2,0,0,1,.29-.88,1.06,1.06,0,0,1,.88-.3h6.61a2.05,2.05,0,0,1,.88.3,1.08,1.08,0,0,1,.29.88v34.21a2.07,2.07,0,0,1-.29.89,1.09,1.09,0,0,1-.88.29h-6.61a2.17,2.17,0,0,1-.88-.29A1.24,1.24,0,0,1,564,1330.75Z"/><path d="M605.67,1330.75v-.44a6.09,6.09,0,0,1-2.93,1.77,8.94,8.94,0,0,1-3.53.58,12.79,12.79,0,0,1-9.4-4,14.21,14.21,0,0,1,0-19.39,12.32,12.32,0,0,1,9.4-4,9.43,9.43,0,0,1,3.53.59,11.89,11.89,0,0,1,2.93,1.76v-.44a2,2,0,0,1,.3-.88,1.05,1.05,0,0,1,.88-.3h6.61a2.1,2.1,0,0,1,.88.3c.29.14.29.58.29.88v23.49a2.22,2.22,0,0,1-.29.89,1.1,1.1,0,0,1-.88.29h-6.61a2.13,2.13,0,0,1-.88-.29A1.24,1.24,0,0,1,605.67,1330.75Zm-10.28-11.6a5.2,5.2,0,0,0,1.47,3.82,5,5,0,0,0,7.34,0,5.7,5.7,0,0,0,0-7.64,5.14,5.14,0,0,0-8.81,3.82Z"/><path d="M642.53,1332.81a14.21,14.21,0,0,1-10.13-4,13.49,13.49,0,0,1,0-19.39,14.21,14.21,0,0,1,10.13-4,14.41,14.41,0,0,1,7.64,1.9,12.11,12.11,0,0,1,4.85,5.29,1.74,1.74,0,0,1,.14,1.47,1.51,1.51,0,0,1-1.17.88l-5,1.47a3.56,3.56,0,0,1-1.17.15c-.29,0-.73-.44-1.17-.88a4.1,4.1,0,0,0-1.77-1.33,6,6,0,0,0-2.2-.44,5,5,0,0,0-3.67,1.62,5.69,5.69,0,0,0,0,7.63,5,5,0,0,0,3.67,1.62,6,6,0,0,0,2.2-.44,5,5,0,0,0,1.77-1.32,1.76,1.76,0,0,1,1.32-.88,3.36,3.36,0,0,1,1.17.14l5,1.47a1.54,1.54,0,0,1,1.18.88,1.75,1.75,0,0,1-.15,1.47,12,12,0,0,1-4.84,5.29A25.53,25.53,0,0,1,642.53,1332.81Z"/><path d="M666.91,1319.15a12.9,12.9,0,0,1,4.26-9.69,14.95,14.95,0,0,1,20.27,0,13.16,13.16,0,0,1,0,19.39,14.95,14.95,0,0,1-20.27,0A13.17,13.17,0,0,1,666.91,1319.15Zm9.11,0a5.23,5.23,0,0,0,1.46,3.82,5,5,0,0,0,7.35,0,5.7,5.7,0,0,0,0-7.64,5.14,5.14,0,0,0-8.81,3.82Z"/><path d="M737.55,1313.28a3,3,0,0,0-2.5,1,4.2,4.2,0,0,0-.88,2.79v13.8a2.13,2.13,0,0,1-.29.88c-.15.3-.59.3-.88.3h-6.61a2,2,0,0,1-.88-.3c-.3-.14-.3-.58-.3-.88v-13.8a4.2,4.2,0,0,0-.88-2.79,3.54,3.54,0,0,0-5,0,4.2,4.2,0,0,0-.88,2.79v13.8a2,2,0,0,1-.3.88c-.14.3-.58.3-.88.3h-6.61a2.1,2.1,0,0,1-.88-.3c-.29-.14-.29-.58-.29-.88v-23.5a2.22,2.22,0,0,1,.29-.88,1.1,1.1,0,0,1,.88-.29h6.61a2.13,2.13,0,0,1,.88.29,1.07,1.07,0,0,1,.3.88v1.91a9.33,9.33,0,0,1,3.08-2.79,7.66,7.66,0,0,1,4-1,8.53,8.53,0,0,1,4.4,1,6.38,6.38,0,0,1,2.79,2.79,9.81,9.81,0,0,1,3.67-2.93,11.66,11.66,0,0,1,4.7-.88,8.26,8.26,0,0,1,6.76,2.79,10.83,10.83,0,0,1,2.5,7.34v15.42a2.05,2.05,0,0,1-.3.88c-.15.29-.59.29-.88.29h-6.61a2,2,0,0,1-.88-.29c-.29-.15-.29-.59-.29-.88v-13.81a4.29,4.29,0,0,0-.88-2.79A4.12,4.12,0,0,0,737.55,1313.28Z"/><path d="M776.61,1324.73a3.16,3.16,0,0,0,2.65-1,4.45,4.45,0,0,0,.88-2.94v-13.51a.8.8,0,0,1,.44-.74,2.17,2.17,0,0,1,.88-.29h6.61a2.22,2.22,0,0,1,.88.29c.29.3.44.44.44.74v14.68a10.14,10.14,0,0,1-3.38,7.79c-2.2,2-5.43,3.08-9.25,3.08a14,14,0,0,1-9.4-3.08,10,10,0,0,1-3.52-7.79v-14.68a.8.8,0,0,1,.44-.74,2.13,2.13,0,0,1,.88-.29h6.61a2.22,2.22,0,0,1,.88.29c.29.3.44.44.44.74v13.51a3.78,3.78,0,0,0,1,2.94A2.69,2.69,0,0,0,776.61,1324.73Z"/><path d="M816.7,1313.28a4.75,4.75,0,0,0-3.08,1.17,4.25,4.25,0,0,0-1.17,3.09v13.36a2,2,0,0,1-.3.88c-.14.3-.59.3-.88.3h-6.61a2.05,2.05,0,0,1-.88-.3c-.29-.14-.29-.58-.29-.88v-23.5a2.08,2.08,0,0,1,.29-.88c.15-.29.59-.29.88-.29h6.61a2.17,2.17,0,0,1,.88.29c.3.15.3.59.3.88v1.91a7.33,7.33,0,0,1,3.23-2.79,10.9,10.9,0,0,1,4.4-1,9.72,9.72,0,0,1,7.49,2.93c1.62,1.91,2.5,4.7,2.5,8.52v14.1a2.05,2.05,0,0,1-.3.88c-.14.29-.58.29-.88.29h-6.61a2.08,2.08,0,0,1-.88-.29c-.29-.15-.29-.59-.29-.88v-13.37a4.21,4.21,0,0,0-1.17-3.08A3.85,3.85,0,0,0,816.7,1313.28Z"/><path d="M855.18,1326.94a6,6,0,1,1-1.76-4.12A5.59,5.59,0,0,1,855.18,1326.94Z"/><path d="M882.35,1332.81a14.19,14.19,0,0,1-10.13-4,13.47,13.47,0,0,1,0-19.39,14.19,14.19,0,0,1,10.13-4,14.43,14.43,0,0,1,7.64,1.9,12.08,12.08,0,0,1,4.84,5.29,1.71,1.71,0,0,1,.15,1.47,1.54,1.54,0,0,1-1.18.88l-5,1.47a3.56,3.56,0,0,1-1.17.15c-.3,0-.74-.44-1.18-.88a4.07,4.07,0,0,0-1.76-1.33,6,6,0,0,0-2.2-.44,5,5,0,0,0-3.68,1.62,5.71,5.71,0,0,0,0,7.63,5,5,0,0,0,3.68,1.62,6,6,0,0,0,2.2-.44,5,5,0,0,0,1.76-1.32,1.76,1.76,0,0,1,1.32-.88,3.83,3.83,0,0,1,1.18.14l5,1.47a1.54,1.54,0,0,1,1.18.88,1.83,1.83,0,0,1-.15,1.47,12,12,0,0,1-4.85,5.29A26.29,26.29,0,0,1,882.35,1332.81Z"/><path d="M906.58,1319.15a12.9,12.9,0,0,1,4.26-9.69,14.95,14.95,0,0,1,20.27,0,13.18,13.18,0,0,1,0,19.39,14.95,14.95,0,0,1-20.27,0A13.17,13.17,0,0,1,906.58,1319.15Zm9.11,0a5.23,5.23,0,0,0,1.46,3.82,5,5,0,0,0,7.35,0,5.7,5.7,0,0,0,0-7.64,5.14,5.14,0,0,0-8.81,3.82Z"/><path d="M977.22,1313.28a3,3,0,0,0-2.5,1,4.2,4.2,0,0,0-.88,2.79v13.8a2.13,2.13,0,0,1-.29.88c-.15.3-.59.3-.88.3h-6.61a2,2,0,0,1-.88-.3c-.3-.14-.3-.58-.3-.88v-13.8a4.2,4.2,0,0,0-.88-2.79,3.54,3.54,0,0,0-5,0,4.2,4.2,0,0,0-.88,2.79v13.8a2,2,0,0,1-.3.88c-.14.3-.58.3-.88.3h-6.61a2.1,2.1,0,0,1-.88-.3c-.29-.14-.29-.58-.29-.88v-23.5a2.22,2.22,0,0,1,.29-.88,1.1,1.1,0,0,1,.88-.29H957a2.13,2.13,0,0,1,.88.29,1.07,1.07,0,0,1,.3.88v1.91a9.33,9.33,0,0,1,3.08-2.79,7.66,7.66,0,0,1,4-1,8.53,8.53,0,0,1,4.4,1,6.43,6.43,0,0,1,2.79,2.79,9.81,9.81,0,0,1,3.67-2.93,11.66,11.66,0,0,1,4.7-.88,8.26,8.26,0,0,1,6.76,2.79,10.82,10.82,0,0,1,2.49,7.34v15.42a2,2,0,0,1-.29.88c-.15.29-.59.29-.88.29h-6.61a2,2,0,0,1-.88-.29c-.29-.15-.29-.59-.29-.88v-13.81a4.29,4.29,0,0,0-.88-2.79A4.12,4.12,0,0,0,977.22,1313.28Z"/></g></svg>